<svg xmlns="http://www.w3.org/2000/svg" width="208" height="100" fill="none" viewBox="0 0 208 100"><path fill="#18191B" d="M10.434 36.092h2.289q3.939 0 5.643-1.011 1.703-1.012 1.703-3.248 0-2.235-1.703-3.247-1.704-1.011-5.643-1.011h-2.29zm0-16.29h1.916q4.898 0 4.898-3.885 0-3.886-4.898-3.886h-1.916zM0 4.047h15.544q5.536 0 8.41 2.661t2.875 7.666q0 3.034-1.117 5.057-1.065 1.97-3.3 3.354 2.235.426 3.779 1.33 1.596.853 2.555 2.13a7.8 7.8 0 0 1 1.437 2.875q.426 1.596.426 3.407 0 2.82-1.011 5.003a9.8 9.8 0 0 1-2.768 3.673q-1.758 1.492-4.312 2.236-2.556.746-5.75.746H0zM44.896 30.45q0 1.33.48 2.501.478 1.119 1.277 1.97a6.2 6.2 0 0 0 1.97 1.33q1.17.48 2.501.48 1.278 0 2.396-.48a5.5 5.5 0 0 0 1.97-1.33 6.2 6.2 0 0 0 1.33-1.97 5.5 5.5 0 0 0 .532-2.395 5.5 5.5 0 0 0-.532-2.396 6.1 6.1 0 0 0-1.33-2.023 5.5 5.5 0 0 0-1.97-1.33 6 6 0 0 0-2.396-.48q-1.33 0-2.502.48a6.2 6.2 0 0 0-1.97 1.33 6.7 6.7 0 0 0-1.277 1.97q-.48 1.064-.479 2.342m12.137-13.575h9.689v27.309h-9.689v-3.035q-3.087 3.886-8.358 3.886-2.98 0-5.482-1.064a13.6 13.6 0 0 1-4.366-3.088q-1.863-1.97-2.927-4.631-1.012-2.662-1.012-5.803 0-2.928 1.012-5.536 1.011-2.661 2.82-4.631a13 13 0 0 1 4.313-3.088q2.502-1.17 5.536-1.17 5.11 0 8.464 3.566zM73.278 16.875h9.636v3.46q1.97-2.396 3.992-3.194 2.023-.852 4.738-.852 2.875 0 4.897.959a9.5 9.5 0 0 1 3.514 2.608 7.6 7.6 0 0 1 1.597 3.087q.426 1.704.426 3.886v17.355h-9.636V30.396q0-2.022-.319-3.247-.267-1.278-1.011-2.023a3.65 3.65 0 0 0-1.438-.905 5.4 5.4 0 0 0-1.703-.266q-2.449 0-3.78 1.49-1.278 1.438-1.277 4.153v14.586h-9.636zM118.264 0v26.723l10.114-9.848h13.202L127.899 29.49l14.479 14.693h-13.521l-10.593-11.126v11.126h-9.635V0zM163.791 18.685q3.726-2.236 3.726-5.004 0-1.49-1.011-2.555-.959-1.118-2.502-1.118-1.437 0-2.395.958-.959.958-.959 2.396 0 1.916 3.141 5.323m-4.312 8.73Q155.7 29.758 155.7 32.1q0 .851.372 1.597.373.692 1.012 1.224.639.48 1.437.798a6 6 0 0 0 1.81.267q2.661 0 5.483-1.757zm13.947 1.437q3.195-3.034 5.217-5.749l5.909 5.696a31 31 0 0 1-2.076 2.502 45 45 0 0 1-2.608 2.609l-.799.745 8.943 9.529h-12.989l-3.513-3.673q-7.187 4.79-13.787 4.79-2.822 0-5.164-.851-2.343-.852-4.046-2.396a11.1 11.1 0 0 1-2.661-3.62q-.959-2.13-.959-4.63 0-2.237.586-3.94.64-1.757 2.129-3.354a12.3 12.3 0 0 1 2.449-2.076q1.384-.905 3.354-1.81l1.118-.532-.692-.799q-3.088-3.885-3.088-7.4 0-2.341.958-4.364a10.5 10.5 0 0 1 2.609-3.46q1.703-1.49 3.992-2.29 2.289-.85 4.951-.851 2.715 0 5.004.852 2.289.798 3.939 2.289a10.1 10.1 0 0 1 2.608 3.513q.959 1.97.959 4.312 0 1.597-.373 2.928-.372 1.277-1.278 2.448-.85 1.118-2.289 2.183-1.384 1.011-3.46 2.076zM22.997 67.687H10.434v6.708h11.445v8.837H10.434v15.757H0V58.85h22.997zM37.894 71.68v27.309H28.26v-27.31zM27.62 61.193q0-1.117.426-2.076a5.4 5.4 0 0 1 1.171-1.757 5.6 5.6 0 0 1 1.704-1.17 5.4 5.4 0 0 1 2.129-.427q1.117 0 2.076.426 1.011.426 1.757 1.171a5.4 5.4 0 0 1 1.17 1.757q.427.958.427 2.076a5.4 5.4 0 0 1-.426 2.13 5.6 5.6 0 0 1-1.171 1.703 5.4 5.4 0 0 1-1.757 1.17 5.05 5.05 0 0 1-2.076.427 5.4 5.4 0 0 1-2.13-.426 5.6 5.6 0 0 1-1.703-1.171 5.6 5.6 0 0 1-1.171-1.704 5.4 5.4 0 0 1-.426-2.129M44.478 71.68h9.636v3.46q1.97-2.396 3.992-3.194 2.023-.852 4.738-.852 2.875 0 4.897.959a9.5 9.5 0 0 1 3.514 2.608 7.6 7.6 0 0 1 1.597 3.088q.426 1.702.426 3.886v17.354h-9.636V85.2q0-2.022-.319-3.247-.267-1.278-1.011-2.023a3.65 3.65 0 0 0-1.438-.905 5.4 5.4 0 0 0-1.703-.266q-2.449 0-3.78 1.49-1.277 1.438-1.277 4.153v14.586h-9.636zM88.772 85.254q0 1.332.479 2.502.48 1.118 1.277 1.97a6.2 6.2 0 0 0 1.97 1.33q1.17.48 2.502.48 1.278 0 2.396-.48a5.5 5.5 0 0 0 1.97-1.33 6.2 6.2 0 0 0 1.33-1.97 5.5 5.5 0 0 0 .532-2.395q0-1.278-.532-2.396a6.1 6.1 0 0 0-1.33-2.023 5.5 5.5 0 0 0-1.97-1.33 6 6 0 0 0-2.396-.48q-1.33 0-2.502.48a6.2 6.2 0 0 0-1.97 1.33 6.7 6.7 0 0 0-1.277 1.97q-.48 1.064-.48 2.342m12.137-13.574h9.688v27.309h-9.688v-3.035q-3.087 3.886-8.358 3.886-2.98 0-5.483-1.064a13.6 13.6 0 0 1-4.365-3.088q-1.863-1.97-2.928-4.631-1.011-2.662-1.011-5.803 0-2.928 1.011-5.536 1.012-2.661 2.822-4.631a13 13 0 0 1 4.312-3.088q2.502-1.17 5.536-1.17 5.11 0 8.464 3.566zM117.154 71.68h9.635v3.46q1.97-2.396 3.993-3.194 2.023-.852 4.738-.852 2.875 0 4.897.959a9.5 9.5 0 0 1 3.514 2.608 7.6 7.6 0 0 1 1.597 3.088q.425 1.702.425 3.886v17.354h-9.635V85.2q0-2.022-.319-3.247-.267-1.278-1.012-2.023a3.65 3.65 0 0 0-1.437-.905 5.4 5.4 0 0 0-1.703-.266q-2.45 0-3.78 1.49-1.278 1.438-1.278 4.153v14.586h-9.635zM173.106 80.517q-2.502-1.704-5.057-1.704-1.385 0-2.609.48-1.172.479-2.076 1.383a6.2 6.2 0 0 0-1.437 2.076q-.48 1.171-.479 2.662 0 1.438.479 2.662.532 1.17 1.384 2.076a6.6 6.6 0 0 0 2.129 1.33q1.224.48 2.609.48 2.714 0 5.057-1.863v8.197q-3.567 1.544-6.761 1.544-2.98 0-5.696-1.011a15 15 0 0 1-4.738-2.875 14.9 14.9 0 0 1-3.247-4.524q-1.224-2.663-1.224-5.91 0-3.246 1.171-5.908 1.171-2.715 3.194-4.632 2.022-1.97 4.791-3.034 2.822-1.118 6.015-1.118 3.513 0 6.495 1.49zM198.564 81.368q-.48-2.022-1.97-3.247-1.49-1.224-3.62-1.224-2.236 0-3.673 1.17-1.384 1.173-1.757 3.301zm-11.286 5.59q0 6.228 5.856 6.228 3.14 0 4.738-2.555h9.315Q204.365 100 193.081 100q-3.46 0-6.335-1.011-2.875-1.065-4.951-2.982-2.022-1.916-3.141-4.578-1.117-2.66-1.117-5.962 0-3.406 1.064-6.121 1.065-2.769 3.034-4.685 1.97-1.917 4.738-2.928 2.822-1.065 6.335-1.065 3.46 0 6.228 1.065 2.768 1.011 4.685 2.981t2.928 4.844q1.011 2.821 1.011 6.388v1.012z"/></svg>