<svg width="103" height="103" viewBox="0 0 103 103" fill="none" xmlns="http://www.w3.org/2000/svg">
<path d="M0.205075 14.5561C0.205075 10.2913 0.23329 6.02651 0.183371 1.76391C0.17252 0.722133 0.491564 0.390067 1.53985 0.396578C7.71889 0.437815 13.9001 0.396578 20.0791 0.448667C20.6868 0.453008 21.4335 0.750348 21.8719 1.16489C23.9446 3.1269 25.937 5.17356 27.9511 7.19634C28.9733 8.2251 28.9842 10.2609 27.9749 11.2897C27.1155 12.1665 26.256 13.0477 25.3662 13.8919C24.854 14.3781 24.8648 14.7666 25.3748 15.2397C26.0889 15.9039 26.6923 16.7047 27.4649 17.2842C28.6998 18.2066 28.8062 19.4372 28.6239 20.7612C28.5696 21.1475 28.2918 21.5555 28.0075 21.8463C25.9565 23.9342 23.9012 26.0221 21.7872 28.0427C21.3944 28.4182 20.7216 28.6852 20.1768 28.6895C13.924 28.7351 7.67331 28.7025 1.42048 28.7329C0.456838 28.7373 0.183371 28.377 0.189883 27.4546C0.226779 23.1551 0.205075 18.8534 0.205075 14.5517V14.5561ZM14.3928 7.61522C12.4763 7.61522 10.5577 7.67165 8.64347 7.59352C7.60603 7.55228 7.35427 7.94512 7.3738 8.90659C7.41504 10.9901 7.3738 10.9923 9.42263 10.9923C12.6782 10.9923 15.9316 10.9923 19.1871 10.9923C21.4899 10.9923 21.5745 10.8838 21.4096 8.61142C21.3575 7.91039 21.1296 7.58267 20.3613 7.60003C18.3732 7.64344 16.383 7.61522 14.3949 7.61305L14.3928 7.61522ZM14.3624 21.4947C16.1291 21.4947 17.8979 21.4947 19.6646 21.4947C20.8424 21.4947 21.424 20.8935 21.4096 19.6912C21.4096 19.6195 21.4031 19.5457 21.4096 19.4741C21.4725 18.5886 21.16 18.2088 20.1746 18.224C16.6044 18.2826 13.0341 18.2283 9.46387 18.2522C7.16545 18.2674 7.45845 17.8615 7.3738 20.3141C7.34125 21.3037 7.71455 21.5403 8.63045 21.5099C10.5404 21.4492 12.4525 21.4926 14.3646 21.4926L14.3624 21.4947Z" fill="#18191B"/>
<path d="M74.0281 74.0065C75.6689 74.0065 77.1252 74.1801 78.5229 73.9696C81.4529 73.529 83.3845 74.5274 84.8321 77.1644C86.0758 79.4303 87.8186 81.4205 89.2792 83.5735C89.8088 84.3527 90.423 84.6956 91.3519 84.6261C92.1441 84.5675 92.9428 84.5892 93.7372 84.6153C94.5771 84.6457 94.8658 84.2789 94.8549 83.4411C94.818 80.6934 94.8679 77.9436 94.8267 75.1959C94.8137 74.3125 95.0893 73.9588 96.0052 73.9891C97.6677 74.0434 99.3324 74.026 100.995 73.9957C101.726 73.9826 102.037 74.2387 102.034 75.0005C102.019 83.8253 102.019 92.6478 102.034 101.473C102.034 102.25 101.687 102.464 100.975 102.462C94.6466 102.449 88.3178 102.467 81.989 102.43C81.5419 102.427 80.9928 102.18 80.6672 101.865C78.4621 99.7254 76.2939 97.5442 74.1322 95.3586C73.2706 94.4883 73.3053 92.3874 74.1822 91.504C76.2939 89.3727 78.4035 87.2349 80.5565 85.1448C81.1534 84.5654 81.1382 84.1335 80.6781 83.4954C78.6683 80.7108 76.6954 77.9001 74.7139 75.096C74.5142 74.8139 74.3428 74.51 74.0259 74.0043L74.0281 74.0065ZM87.875 95.0721C89.4984 95.0721 91.1219 95.0916 92.7431 95.0678C95.0741 95.0309 94.792 95.5018 94.8527 92.9278C94.8744 92.0792 94.5923 91.8014 93.735 91.81C90.13 91.8491 86.5229 91.8252 82.9157 91.8252C80.7453 91.8252 80.6347 91.9641 80.8235 94.1497C80.8799 94.803 81.0991 95.1003 81.8132 95.0873C83.8316 95.0461 85.8522 95.0743 87.8707 95.0743L87.875 95.0721Z" fill="#18191B"/>
<path d="M64.7561 84.7339C64.7561 87.8072 64.8017 90.8804 64.7192 93.9493C64.7018 94.5917 64.3763 95.3644 63.9335 95.8332C62.0258 97.8582 60.0507 99.8223 58.0323 101.739C57.6134 102.136 56.9124 102.431 56.3351 102.44C52.5044 102.501 48.6715 102.501 44.8408 102.44C44.2678 102.431 43.5711 102.125 43.1522 101.726C41.1099 99.7833 39.1153 97.7887 37.1729 95.7464C36.7735 95.3275 36.4718 94.6265 36.4675 94.0535C36.4176 87.7638 36.448 81.474 36.4219 75.1865C36.4176 74.2966 36.7062 73.9602 37.6113 73.9906C39.2 74.0449 40.7952 74.0601 42.3818 73.9863C43.43 73.9363 43.6666 74.3726 43.6514 75.3275C43.6037 78.1469 43.6644 80.9662 43.6189 83.7855C43.6058 84.6536 43.9032 84.8924 44.7431 84.8859C48.6454 84.849 52.5499 84.8446 56.4544 84.888C57.3443 84.8989 57.5418 84.5733 57.5309 83.7551C57.4919 80.9011 57.5418 78.0448 57.5005 75.1886C57.4875 74.2966 57.7827 73.9602 58.6899 73.9906C60.3155 74.0449 61.9433 74.0427 63.5689 73.9906C64.4718 73.9624 64.78 74.3075 64.7691 75.193C64.7366 78.3726 64.7561 81.5543 64.7561 84.7361V84.7339ZM50.4642 95.2841C52.1636 95.2841 53.8652 95.2949 55.5646 95.2819C57.7849 95.2624 57.4354 95.538 57.5353 93.3025C57.5809 92.2673 57.1967 92.0155 56.2331 92.0285C52.7605 92.0741 49.2879 92.0307 45.8153 92.0502C43.3845 92.0633 43.6775 91.7117 43.6189 94.2597C43.5993 95.0953 43.9444 95.3101 44.7127 95.2949C46.6292 95.258 48.5456 95.2841 50.4642 95.2841Z" fill="#18191B"/>
<path d="M51.1068 0.41548C55.3738 0.41548 59.6407 0.41548 63.9055 0.41548C65.3314 0.41548 65.3336 0.421991 65.3358 1.88699C65.3358 3.44097 65.3097 4.99713 65.3466 6.55111C65.3662 7.35849 65.0428 7.63196 64.2549 7.62327C61.4703 7.59506 58.6858 7.63847 55.9034 7.59723C55.0309 7.58421 54.6858 7.84248 54.6945 8.75838C54.7313 12.626 54.7335 16.4957 54.6945 20.3655C54.6858 21.2966 55.0417 21.5223 55.9055 21.5093C58.6532 21.4659 61.4009 21.518 64.1486 21.4789C65.0363 21.4659 65.3813 21.7567 65.3531 22.6661C65.301 24.2917 65.3119 25.9195 65.3488 27.5473C65.3683 28.3568 65.1252 28.7323 64.2463 28.7301C55.4953 28.7106 46.7466 28.7127 37.9956 28.7279C37.2295 28.7279 36.867 28.4849 36.8844 27.6645C36.9213 25.9651 36.9191 24.2657 36.8844 22.5663C36.867 21.7697 37.1709 21.4746 37.9674 21.4833C40.7867 21.5115 43.6082 21.4615 46.4275 21.5115C47.3087 21.5267 47.5431 21.2076 47.5366 20.3807C47.5062 16.5131 47.5019 12.6433 47.5387 8.77357C47.5474 7.87504 47.2392 7.58204 46.3472 7.59723C43.6364 7.64281 40.9235 7.57987 38.2127 7.62979C37.2469 7.64715 36.828 7.39322 36.8757 6.35361C36.9473 4.76707 36.9343 3.17185 36.8801 1.58314C36.8497 0.667243 37.21 0.395947 38.089 0.402458C42.4275 0.432843 46.7661 0.41548 51.1047 0.41548H51.1068Z" fill="#18191B"/>
<path d="M87.8382 0.416681C89.7546 0.416681 91.6733 0.364592 93.5854 0.449236C94.1692 0.475281 94.8702 0.740066 95.2869 1.13724C97.3575 3.10577 99.3759 5.12855 101.347 7.19474C101.722 7.58758 101.987 8.25822 101.996 8.80516C102.05 12.638 102.054 16.4709 101.993 20.3038C101.985 20.8811 101.692 21.5821 101.295 22.001C99.352 24.0455 97.3553 26.0401 95.313 27.9825C94.8919 28.3819 94.1909 28.6792 93.6136 28.6879C89.746 28.7487 85.8762 28.7465 82.0064 28.6879C81.4638 28.6792 80.8062 28.3841 80.409 28.0042C78.319 26.0053 76.2723 23.9587 74.2734 21.8686C73.8958 21.4736 73.6114 20.8116 73.6028 20.269C73.5463 16.4731 73.542 12.6749 73.6049 8.87895C73.6136 8.30597 73.9261 7.61362 74.3277 7.19257C76.2984 5.12638 78.319 3.1036 80.3873 1.13507C80.804 0.737896 81.5029 0.47094 82.0867 0.444896C83.9988 0.360251 85.9174 0.41234 87.8339 0.41234L87.8382 0.416681ZM87.7905 21.4931C89.7764 21.4931 91.7644 21.4541 93.7503 21.5105C94.6293 21.5365 94.8615 21.2088 94.855 20.3797C94.8225 16.4796 94.8268 12.5773 94.8528 8.67711C94.8572 7.89577 94.6141 7.59192 93.8002 7.59843C89.8632 7.62882 85.9261 7.63316 81.9891 7.59409C81.186 7.58541 80.8778 7.86105 80.8778 8.6337C80.8822 12.6055 80.8778 16.5794 80.867 20.5512C80.8648 21.3043 81.2208 21.5192 81.9413 21.504C83.8903 21.4649 85.8415 21.491 87.7926 21.491L87.7905 21.4931Z" fill="#18191B"/>
<path d="M18.0198 102.469C14.9097 102.469 11.7995 102.508 8.69372 102.434C8.08601 102.419 7.35243 102.111 6.90967 101.694C4.88689 99.782 2.91836 97.8113 1.0041 95.7907C0.583048 95.3458 0.24447 94.6187 0.240129 94.0175C0.1837 87.7625 0.218426 81.5075 0.188041 75.2547C0.1837 74.3279 0.448485 73.9481 1.41864 73.9893C2.89883 74.0545 4.38336 74.0045 5.86573 74.0067C6.88001 74.0067 7.38788 74.5001 7.38932 75.4869C7.38932 81.5965 7.38281 87.7061 7.40452 93.8178C7.40452 94.2823 7.55861 95.1201 7.73007 95.1439C8.60473 95.2633 9.51412 95.2221 10.3931 95.0984C10.5255 95.0788 10.621 94.3279 10.621 93.9155C10.6362 87.8059 10.6319 81.6963 10.6319 75.5846C10.6319 74.5341 11.1433 74.0082 12.1663 74.0067C13.577 74.0067 14.9856 74.0045 16.3964 74.0067C17.7941 74.0089 17.8049 74.0176 17.8049 75.3871C17.8071 81.4966 17.8049 87.6062 17.8049 93.718C17.8049 94.7627 18.3425 95.2857 19.4175 95.2872C22.0567 95.2872 24.698 95.3327 27.335 95.2655C28.4137 95.2373 28.7197 95.6323 28.6741 96.6523C28.6047 98.1673 28.6025 99.6909 28.6741 101.206C28.7219 102.235 28.3204 102.506 27.3459 102.491C24.2379 102.441 21.1278 102.473 18.0176 102.471L18.0198 102.469Z" fill="#18191B"/>
<path d="M73.5958 65.8596C73.5958 63.0142 73.5676 60.3512 73.6305 57.6925C73.6392 57.3669 74.0776 56.9762 74.4075 56.7418C77.3245 54.6713 80.2502 52.6095 83.204 50.591C83.9376 50.0897 84.2936 49.5319 84.2198 48.6268C84.1481 47.7283 84.1677 46.8189 84.2111 45.916C84.248 45.1499 83.9333 44.922 83.1932 44.9307C80.4455 44.9632 77.6978 44.9459 74.9501 44.9415C73.5958 44.9415 73.5763 44.9177 73.5741 43.5221C73.5719 41.8943 73.598 40.2666 73.5632 38.641C73.5459 37.8553 73.828 37.5449 74.6354 37.5449C83.4211 37.5623 92.2089 37.5601 100.995 37.5471C101.735 37.5471 102.036 37.8227 102.023 38.5715C101.995 40.3425 101.989 42.1157 102.025 43.8867C102.043 44.7006 101.704 44.9611 100.925 44.9524C98.1405 44.9263 95.3559 44.9719 92.5735 44.9242C91.7553 44.9112 91.4558 45.2193 91.4796 45.9746C91.4796 46.0463 91.484 46.12 91.4731 46.1917C91.0564 48.7267 91.8182 50.5259 94.2273 51.8477C96.6538 53.1781 98.8068 55.0012 101.11 56.5617C101.787 57.0196 102.056 57.5449 102.043 58.3566C102.002 60.7375 102.028 63.1184 102.028 65.751C101.539 65.4494 101.218 65.2714 100.919 65.0587C96.9077 62.2155 92.8904 59.3853 88.9056 56.5074C88.146 55.9583 87.6034 55.9258 86.8155 56.4988C82.7786 59.4266 78.6962 62.2915 74.6267 65.1759C74.3424 65.3777 74.0472 65.56 73.598 65.8596H73.5958Z" fill="#18191B"/>
<path d="M0.205338 51.3185C0.205338 47.0146 0.231383 42.7108 0.185805 38.4069C0.174953 37.3977 0.504849 37.0656 1.49888 37.1069C3.08759 37.172 4.68281 37.1568 6.27152 37.1112C7.12664 37.0874 7.4153 37.4151 7.40445 38.2572C7.36973 40.9701 7.44569 43.6831 7.36756 46.3939C7.335 47.5268 7.73218 47.7851 8.79783 47.7786C14.9465 47.733 21.0951 47.7569 27.2438 47.7569C28.6415 47.7569 28.6545 47.7721 28.6589 49.1351C28.6632 50.6174 28.6068 52.1041 28.6784 53.5822C28.7283 54.6109 28.4028 54.969 27.335 54.9625C21.2601 54.9191 15.1831 54.9408 9.10602 54.943C7.96585 54.943 7.39505 55.5217 7.3936 56.6793C7.3936 59.2468 7.36539 61.8165 7.40879 64.3819C7.42399 65.2739 7.12664 65.6125 6.2216 65.5821C4.63289 65.5279 3.03767 65.5235 1.44896 65.5821C0.507019 65.6168 0.183634 65.2956 0.192316 64.3407C0.231383 59.9999 0.209679 55.6614 0.209679 51.3206L0.205338 51.3185Z" fill="#18191B"/>
</svg>
