<svg width="117" height="103" viewBox="0 0 117 103" fill="none" xmlns="http://www.w3.org/2000/svg">
<path d="M41.7062 27.5792C40.8561 27.8921 39.9528 28.0344 39.0477 27.9978C38.1427 27.9613 37.2538 27.7466 36.4318 27.3662C35.6098 26.9857 34.8708 26.4469 34.2573 25.7806C33.6437 25.1143 33.1675 24.3336 32.856 23.4831C32.5444 22.6326 32.4036 21.729 32.4416 20.824C32.4796 19.919 32.6957 19.0304 33.0774 18.209C33.4592 17.3877 33.9991 16.6496 34.6664 16.0371C35.3337 15.4246 36.1152 14.9496 36.9662 14.6394L74.732 0.843815C75.582 0.51961 76.4883 0.368917 77.3974 0.400624C78.3066 0.432331 79.2002 0.645797 80.0256 1.02843C80.8509 1.41106 81.5913 1.95511 82.203 2.62848C82.8146 3.30185 83.2853 4.09091 83.5871 4.9491C83.901 5.78337 84.0435 6.67237 84.0061 7.56296C83.9687 8.45355 83.7522 9.32746 83.3694 10.1325C82.9867 10.9375 82.4456 11.6571 81.7785 12.2483C81.1114 12.8395 80.3319 13.2901 79.4867 13.5733L41.7062 27.5792Z" fill="#18191B"/>
<path d="M41.7066 48.0508C40.8568 48.3628 39.9538 48.5043 39.0493 48.4672C38.1448 48.4301 37.2564 48.2151 36.435 47.8346C35.6136 47.454 34.8753 46.9153 34.2622 46.2492C33.6491 45.5832 33.1732 44.8028 32.8618 43.9528C32.5504 43.1027 32.4096 42.1997 32.4474 41.2952C32.4852 40.3907 32.7009 39.5025 33.0821 38.6814C33.4633 37.8603 34.0025 37.1223 34.6691 36.5097C35.3356 35.8971 36.1163 35.4219 36.9666 35.1111L74.7324 21.3313C75.5812 21.0033 76.4872 20.8494 77.3967 20.8785C78.3061 20.9076 79.2005 21.1193 80.0265 21.5009C80.8526 21.8825 81.5935 22.4262 82.2052 23.0998C82.8169 23.7734 83.287 24.5632 83.5875 25.422C83.9025 26.2558 84.0458 27.1446 84.0088 28.0351C83.9719 28.9257 83.7555 29.7995 83.3725 30.6044C82.9896 31.4092 82.4481 32.1284 81.7804 32.7188C81.1128 33.3093 80.3328 33.7588 79.4872 34.0404L41.7066 48.0508Z" fill="#18191B"/>
<path d="M41.7069 68.5227C40.8567 68.8367 39.9529 68.9798 39.0473 68.9439C38.1417 68.908 37.2521 68.6938 36.4294 68.3135C35.6067 67.9333 34.8672 67.3945 34.2531 66.7279C33.6389 66.0614 33.1624 65.2803 32.8506 64.4293C32.5389 63.5783 32.3981 62.6741 32.4363 61.7687C32.4745 60.8632 32.691 59.9741 33.0734 59.1524C33.4558 58.3307 33.9965 57.5925 34.6646 56.9801C35.3327 56.3677 36.1151 55.8932 36.9669 55.5836L74.7327 41.8053C75.5812 41.4768 76.487 41.3224 77.3964 41.351C78.3058 41.3797 79.2001 41.5909 80.0262 41.9722C80.8523 42.3534 81.5933 42.8969 82.2051 43.5702C82.817 44.2436 83.2872 45.0331 83.5878 45.8918C83.9027 46.7258 84.046 47.6147 84.0091 48.5054C83.9722 49.396 83.7558 50.27 83.3729 51.075C82.99 51.88 82.4485 52.5994 81.7808 53.1901C81.1132 53.7807 80.3331 54.2305 79.4874 54.5124L41.7069 68.5227Z" fill="#18191B"/>
<path d="M0.043457 85.5508H12.566V88.9953H4.37232V91.7975H12.3495V95.4549H4.37232V98.4719H12.7789V102.147H0.043457V85.5508Z" fill="#18191B"/>
<path d="M36.9669 85.5508H32.4233V102.148H36.9669V85.5508Z" fill="#18191B"/>
<path d="M53.3692 85.9764L53.154 89.4207C49.4871 87.4936 43.8708 88.1355 43.8708 93.5257C43.6554 99.1292 49.4871 99.9859 53.3693 98.0406L53.5837 101.699C46.8935 103.644 39.1118 101.699 39.1118 93.5257C39.1117 85.7623 47.1078 83.6025 53.3692 85.9764Z" fill="#18191B"/>
<path d="M66.7522 85.7627L66.5379 89.2072C64.1581 87.922 59.8471 87.922 59.8471 89.85C59.8471 92.8658 67.6109 90.724 67.6109 96.9708C67.6109 103.003 60.2767 103.217 55.5176 101.701L55.7504 98.0416C58.7558 99.3445 63.0852 99.7729 63.0852 97.3992C63.0852 94.597 55.3032 96.1141 55.3032 90.2777C55.3032 85.3339 61.3498 84.0312 66.7522 85.7627Z" fill="#18191B"/>
<path d="M80.3455 85.7627L80.1347 89.2072C77.7573 87.922 73.4389 87.922 73.4389 89.85C73.4389 92.8658 81.2035 90.724 81.2035 96.9708C81.2035 103.003 73.8751 103.217 69.1313 101.701L69.3458 98.0416C72.3695 99.3445 76.6813 99.7729 76.6813 97.3992C76.6813 94.597 68.917 96.1141 68.917 90.2777C68.917 85.3339 74.9438 84.0312 80.3455 85.7627Z" fill="#18191B"/>
<path d="M101.297 85.5508H106.894L112.295 96.1155V85.5508H116.605V102.147H111.219L105.389 91.1552V102.147H101.297V85.5508Z" fill="#18191B"/>
<path d="M87.2514 93.7412C87.2514 96.3288 88.3419 99.1306 90.7045 99.1306C93.2999 99.1306 94.3685 96.3288 94.3685 93.7412C94.3685 91.582 93.2999 88.3516 90.7045 88.3516C88.3418 88.3516 87.2514 91.1533 87.2514 93.7412ZM90.7045 85.1211C95.4663 85.1211 99.1302 87.7089 99.1302 93.7412C99.1302 99.559 95.4663 102.361 90.7045 102.361C86.1755 102.361 82.5117 99.559 82.5117 93.7412C82.5116 87.7089 86.1756 85.1211 90.7045 85.1211Z" fill="#18191B"/>
<path d="M16.0176 85.5508H24.0137C26.3749 85.5508 29.3976 86.4073 29.3976 89.8518C29.4555 90.7819 29.1845 91.7027 28.6318 92.4531C28.0792 93.2035 27.2803 93.7355 26.3749 93.9561C26.7292 94.0672 27.0519 94.2611 27.3162 94.5218C27.5806 94.7826 27.779 95.1026 27.8949 95.4553C27.8949 95.6694 30.2743 101.934 30.2743 102.148H25.5162L23.7985 96.9723C23.6846 96.6587 23.4784 96.3868 23.2071 96.1925C22.9358 95.9982 22.6121 95.8905 22.2784 95.8836C21.4197 95.8836 20.3462 95.6695 20.3462 95.8836V102.148H16.0176V85.5508ZM20.3462 92.4395H22.7073C22.9782 92.4653 23.2514 92.435 23.51 92.3503C23.7686 92.2657 24.007 92.1287 24.2102 91.9477C24.4134 91.7668 24.5771 91.5459 24.691 91.2988C24.8049 91.0517 24.8666 90.7838 24.8723 90.5117C24.8723 89.4231 24.0138 88.7804 22.7074 88.7804H20.3461L20.3462 92.4395Z" fill="#18191B"/>
</svg>
