<svg xmlns="http://www.w3.org/2000/svg" width="295" height="93" fill="none" viewBox="0 0 295 93"><path fill="#18191B" d="M189.094 8.327h35.043L206.789 0zM183.89 24.634v-3.122L0 11.45v23.593zM41.982 56.555V46.493H0v46.146h10.062V78.413h28.45V68.352h-28.45V56.555zM78.066 77.373v15.266h10.41V77.373l22.205-30.88H98.537L83.271 67.658 68.004 46.493H55.861zM171.052 63.494c0-10.409-6.245-17.001-15.266-17.001h-31.227v46.146h10.409V80.495h16.307l6.246 12.144h12.143l-7.286-13.532c5.205-2.428 8.674-7.98 8.674-15.613m-36.084-6.94h18.042c3.123 0 7.633 0 7.633 6.94s-4.51 6.94-7.633 6.94h-18.042zM283.815 46.493v34.696l-27.063-34.696h-13.879v46.146h10.062V57.943l27.063 34.696h13.879V46.493zM227.607 77.373h-41.982l-1.735 15.266h45.799zM223.79 46.146h-34.349l-2.082 15.613h38.513zM220.321 15.266h-27.063l-2.082 15.614h30.88zM229.689 24.634v-3.122l64.535-3.47v10.409zM224.137 11.103h-35.043V8.327h35.043z"/></svg>