<svg xmlns="http://www.w3.org/2000/svg" width="102" height="100" fill="none" viewBox="0 0 102 100"><path fill="#18191B" d="M20.668.896v30.848q0 1.024.855 1.664.932.64 2.408.64h18.026l.777 10.368q-5.983.64-12.82.768-6.76.128-13.364.128-5.828 0-9.324-2.752-3.42-2.816-3.419-7.296V.896zM76.716 0Q83.63 0 88.37 1.088q4.818 1.024 7.77 3.584t4.274 7.04q1.32 4.416 1.321 11.264 0 6.784-1.321 11.264t-4.274 7.04-7.77 3.648q-4.74 1.024-11.654 1.024-6.838 0-11.655-1.024-4.74-1.088-7.692-3.648t-4.274-7.04q-1.32-4.48-1.32-11.264 0-6.848 1.32-11.264 1.32-4.48 4.274-7.04 2.952-2.56 7.692-3.584Q69.878 0 76.716 0m0 10.304q-2.875 0-4.43 1.024-1.553 1.024-2.175 3.776t-.621 7.872q0 5.12.621 7.872.622 2.752 2.176 3.776t4.429 1.024q2.874 0 4.428-1.024t2.176-3.776.622-7.872-.622-7.872-2.176-3.776-4.428-1.024M25.252 54q4.273 0 7.46.192 3.262.192 5.982.576 2.798.384 5.594 1.088l-1.243 9.984a262 262 0 0 0-5.672-.064h-5.517a296 296 0 0 0-6.526-.064q-2.253 0-3.73.512a4.18 4.18 0 0 0-2.33 1.728q-.855 1.216-1.244 3.456-.31 2.176-.31 5.568 0 4.48.62 6.912.623 2.368 2.099 3.328 1.476.896 4.118.896 1.71 0 3.108-.064a35 35 0 0 0 2.641-.32q1.166-.192 1.865-.32l1.632 5.824q-.933 1.28-3.108 2.88-2.098 1.6-5.361 2.752-3.264 1.088-7.537 1.088-6.139 0-10.1-2.24-3.964-2.305-5.828-7.36Q0 85.296 0 76.976q0-8.512 2.409-13.504 2.486-5.055 8.003-7.232Q16.007 54 25.252 54m21.29 19.648v25.408H34.11l-2.176-6.848-1.554-2.368V73.648zM76.716 54q6.915 0 11.654 1.088 4.818 1.024 7.77 3.584t4.274 7.04q1.32 4.416 1.321 11.264 0 6.784-1.321 11.264t-4.274 7.04-7.77 3.648q-4.74 1.024-11.654 1.024-6.838 0-11.655-1.024-4.74-1.088-7.692-3.648t-4.274-7.04q-1.32-4.48-1.32-11.264 0-6.848 1.32-11.264 1.32-4.48 4.274-7.04 2.952-2.56 7.692-3.584Q69.878 54 76.716 54m0 10.304q-2.875 0-4.43 1.024-1.553 1.024-2.175 3.776t-.621 7.872q0 5.12.621 7.872.622 2.752 2.176 3.776t4.429 1.024q2.874 0 4.428-1.024t2.176-3.776.622-7.872-.622-7.872q-.621-2.752-2.176-3.776-1.554-1.024-4.428-1.024"/></svg>