<svg width="102" height="100" viewBox="0 0 102 100" fill="none" xmlns="http://www.w3.org/2000/svg">
<path d="M18.2592 0.896V31.744C18.2592 32.4267 18.5441 32.9813 19.1138 33.408C19.7354 33.8347 20.5383 34.048 21.5225 34.048H39.5486L40.3255 44.416C36.337 44.8427 32.0636 45.0987 27.5053 45.184C22.9988 45.2693 18.5441 45.312 14.1411 45.312C10.2562 45.312 7.14827 44.3947 4.81731 42.56C2.53815 40.6827 1.39857 38.2507 1.39857 35.264V0.896H18.2592Z" fill="#18191B"/>
<path d="M67.6602 0C72.2704 0 76.1553 0.362667 79.315 1.088C82.5266 1.77067 85.1165 2.96534 87.0849 4.672C89.0532 6.37867 90.4777 8.72534 91.3583 11.712C92.2389 14.656 92.6792 18.4107 92.6792 22.976C92.6792 27.4987 92.2389 31.2533 91.3583 34.24C90.4777 37.2267 89.0532 39.5733 87.0849 41.28C85.1165 42.9867 82.5266 44.2027 79.315 44.928C76.1553 45.6107 72.2704 45.952 67.6602 45.952C63.1019 45.952 59.217 45.6107 56.0055 44.928C52.8457 44.2027 50.2817 42.9867 48.3133 41.28C46.345 39.5733 44.9205 37.2267 44.0399 34.24C43.1593 31.2533 42.719 27.4987 42.719 22.976C42.719 18.4107 43.1593 14.656 44.0399 11.712C44.9205 8.72534 46.345 6.37867 48.3133 4.672C50.2817 2.96534 52.8457 1.77067 56.0055 1.088C59.217 0.362667 63.1019 0 67.6602 0ZM67.6602 10.304C65.7437 10.304 64.2674 10.6453 63.2314 11.328C62.1955 12.0107 61.4703 13.2693 61.0559 15.104C60.6415 16.9387 60.4343 19.5627 60.4343 22.976C60.4343 26.3893 60.6415 29.0133 61.0559 30.848C61.4703 32.6827 62.1955 33.9413 63.2314 34.624C64.2674 35.3067 65.7437 35.648 67.6602 35.648C69.5768 35.648 71.0531 35.3067 72.0891 34.624C73.125 33.9413 73.8502 32.6827 74.2646 30.848C74.679 29.0133 74.8862 26.3893 74.8862 22.976C74.8862 19.5627 74.679 16.9387 74.2646 15.104C73.8502 13.2693 73.125 12.0107 72.0891 11.328C71.0531 10.6453 69.5768 10.304 67.6602 10.304Z" fill="#18191B"/>
<path d="M25.252 54C28.101 54 30.5873 54.064 32.7111 54.192C34.8866 54.32 36.8809 54.512 38.6939 54.768C40.5586 55.024 42.4234 55.3867 44.2882 55.856L43.045 65.84C41.0766 65.7973 39.186 65.776 37.373 65.776C35.6118 65.776 33.773 65.776 31.8564 65.776C29.9398 65.7333 27.7643 65.712 25.3297 65.712C23.8276 65.712 22.5844 65.8827 21.6002 66.224C20.616 66.5227 19.839 67.0987 19.2692 67.952C18.6994 68.7627 18.2851 69.9147 18.0261 71.408C17.8189 72.8587 17.7153 74.7147 17.7153 76.976C17.7153 79.9627 17.9225 82.2667 18.3369 83.888C18.7512 85.4667 19.4505 86.576 20.4347 87.216C21.4189 87.8133 22.7916 88.112 24.5527 88.112C25.6923 88.112 26.7283 88.0907 27.6607 88.048C28.6449 87.9627 29.5254 87.856 30.3024 87.728C31.0794 87.6 31.701 87.4933 32.1672 87.408L33.7989 93.232C33.1773 94.0853 32.1413 95.0453 30.6909 96.112C29.2923 97.1787 27.5053 98.096 25.3297 98.864C23.1542 99.5893 20.6419 99.952 17.793 99.952C13.7008 99.952 10.3339 99.2053 7.69216 97.712C5.0504 96.176 3.10794 93.7227 1.86476 90.352C0.621588 86.9813 0 82.5227 0 76.976C0 71.3013 0.802885 66.8 2.40865 63.472C4.06622 60.1013 6.73387 57.6907 10.4116 56.24C14.1411 54.7467 19.0879 54 25.252 54ZM46.5414 73.648V99.056H34.1097L31.9341 92.208L30.3801 89.84V73.648H46.5414Z" fill="#18191B"/>
<path d="M76.8414 54C81.4515 54 85.3365 54.3627 88.4962 55.088C91.7077 55.7707 94.2977 56.9653 96.2661 58.672C98.2344 60.3787 99.6589 62.7253 100.539 65.712C101.42 68.656 101.86 72.4107 101.86 76.976C101.86 81.4987 101.42 85.2533 100.539 88.24C99.6589 91.2267 98.2344 93.5733 96.2661 95.28C94.2977 96.9867 91.7077 98.2027 88.4962 98.928C85.3365 99.6107 81.4515 99.952 76.8414 99.952C72.2831 99.952 68.3982 99.6107 65.1866 98.928C62.0269 98.2027 59.4629 96.9867 57.4945 95.28C55.5261 93.5733 54.1017 91.2267 53.2211 88.24C52.3405 85.2533 51.9002 81.4987 51.9002 76.976C51.9002 72.4107 52.3405 68.656 53.2211 65.712C54.1017 62.7253 55.5261 60.3787 57.4945 58.672C59.4629 56.9653 62.0269 55.7707 65.1866 55.088C68.3982 54.3627 72.2831 54 76.8414 54ZM76.8414 64.304C74.9249 64.304 73.4486 64.6453 72.4126 65.328C71.3766 66.0107 70.6514 67.2693 70.237 69.104C69.8227 70.9387 69.6155 73.5627 69.6155 76.976C69.6155 80.3893 69.8227 83.0133 70.237 84.848C70.6514 86.6827 71.3766 87.9413 72.4126 88.624C73.4486 89.3067 74.9249 89.648 76.8414 89.648C78.758 89.648 80.2343 89.3067 81.2702 88.624C82.3062 87.9413 83.0314 86.6827 83.4458 84.848C83.8602 83.0133 84.0674 80.3893 84.0674 76.976C84.0674 73.5627 83.8602 70.9387 83.4458 69.104C83.0314 67.2693 82.3062 66.0107 81.2702 65.328C80.2343 64.6453 78.758 64.304 76.8414 64.304Z" fill="#18191B"/>
</svg>
