<svg xmlns="http://www.w3.org/2000/svg" width="255" height="100" fill="none" viewBox="0 0 255 100"><path fill="#18191B" d="M54.895 21.733Q51.747 25.183 52.048 32q.3 6.821 2.548 9.518.899 1.2 3.147 2.023 2.247.825 4.571.15t4.122-3.372 1.948-8.693q-.001-5.395-1.724-8.094-1.725-2.697-3.971-3.447a7.3 7.3 0 0 0-4.497-.075q-2.248.676-3.297 1.723m-7.194 26.38q-3.147-2.696-4.496-7.27-1.35-4.57-1.35-9.517 0-4.047 1.125-8.094t3.522-6.745q3.895-4.495 10.042-5.32 6.145-.823 11.09.974 5.696 2.25 8.394 7.794 2.547 4.947 2.548 11.54 0 4.799-1.05 8.245-1.05 3.45-2.697 5.845-3.598 4.947-9.142 6.145-4.946 1.35-9.968.225t-8.018-3.822M99.784 51.71q-4.947.3-10.716-.15-5.771-.45-5.77-7.344V.15h5.396q1.946.002 3.447 1.5 1.497 1.5 1.499 3.596v6.745h6.144v2.099q0 2.248-1.499 3.672t-3.596 1.424h-1.05v22.182q-.001 2.549 2.998 2.548h3.147zM104.357.15h5.396q2.097 0 3.597 1.424 1.498 1.426 1.499 3.523V51.71h-10.492zM143.371 31.626q-2.1 1.05-5.844 1.948l-3.448.75q-2.698.751-3.897 1.948-1.05 1.65-1.049 3.298 0 2.247 1.349 3.597 1.348 1.2 3.897 1.2 4.195 0 6.594-2.4 2.397-2.395 2.398-6.594zm2.398 18.436a18.5 18.5 0 0 1-6.669 2.023q-3.522.373-6.22.374-5.395 0-9.443-2.922-4.046-2.922-4.046-9.668-.002-6.294 3.672-8.993 3.67-2.697 9.367-3.597.749 0 1.799-.225 1.048-.225 2.398-.374 6.594-.898 6.595-3.897 0-2.25-2.324-2.923-2.325-.675-4.271-.674-2.1 0-3.747.6-1.65.6-2.398 2.247h-10.041q.598-4.644 4.196-7.644 4.046-3.446 11.541-3.447 8.392 0 12.589 2.848 4.346 2.999 4.347 8.393v13.64q-.001 5.995-2.173 9.367-2.174 3.374-5.172 4.872M207.378 31.476q0 5.996 2.248 9.143 2.247 3.147 6.445 3.147 4.045 0 6.294-3.147 2.098-3.147 2.099-9.143 0-5.396-2.249-8.544-2.398-2.996-6.444-2.997-3.899 0-6.145 3.147-2.248 2.999-2.248 8.394M224.464 0h4.481q2.096 0 3.597 1.574 1.497 1.576 1.498 3.522v29.228c0 7.096-1.434 11.892-5.53 14.388q-6.146 3.748-13.339 3.747-3.9 0-7.643-1.273-3.748-1.273-5.996-4.122-4.347-5.544-4.346-15.139-.001-9.442 4.346-15.138 4.495-5.845 11.541-5.845 3.745 0 6.595 1.498c1.997 1.2 3.597 1.988 4.796 3.885zM130.632 99.25V79.916q0-5.844 1.724-9.817 1.72-3.97 4.721-6.37 2.846-2.248 6.67-3.297a29.6 29.6 0 0 1 7.868-1.05h1.499v10.642h-3.447q-4.349 0-6.445 2.099-2.1 2.1-2.098 6.594v20.535zM187.468 14.689q-5.319-3.446-11.766-3.747-6.593 0-12.14 3.447-5.544 3.45-5.545 13.94V51.71h5.246q2.249.001 3.672-1.424 1.424-1.423 1.423-3.672V26.23q.001-3.596 2.174-5.246 2.173-1.649 4.871-1.649 2.697 0 4.796 1.649t2.098 5.246v58.632q.001 3.597-2.098 5.246t-4.796 1.649-4.871-1.649-2.174-5.246V64.478q.001-2.098-1.423-3.597-1.424-1.498-3.672-1.5h-5.246v23.382q.001 10.644 5.545 13.94 5.547 3.298 12.14 3.297 6.447-.3 11.766-3.597 5.32-3.296 5.321-13.64V28.328q0-10.19-5.321-13.639M232.719 99.25h-5.246q-2.248.001-3.672-1.423t-1.424-3.672V73.77q0-3.596-2.173-5.246-2.173-1.647-4.871-1.648t-4.796 1.648q-2.1 1.65-2.099 5.246v25.48h-10.491V75.87q0-10.19 5.321-13.64 5.318-3.445 11.765-3.747 6.594 0 12.141 3.447 5.544 3.45 5.545 13.94zM254.552 99.25q-4.947.3-10.716-.15-5.772-.449-5.771-7.343V47.69h5.396q1.946.001 3.447 1.5 1.498 1.5 1.499 3.596v6.745h6.145v2.099q-.001 2.249-1.499 3.672-1.5 1.424-3.597 1.424h-1.049v22.183q-.001 2.549 2.997 2.548h3.148zM46.071 78.852c0-2.633-1.792-3.364-3.171-3.364s-3.171.73-3.171 3.364 1.792 3.364 3.171 3.364 3.171-.731 3.171-3.364m1.71 0c0 3.309-2.11 5.019-4.881 5.019s-4.88-1.71-4.88-5.019 2.109-5.018 4.88-5.018 4.88 1.71 4.88 5.018M56.269 78.025c.124 0 .234.11.234.234v1.186c0 .124-.11.234-.234.234h-3.612v3.764c0 .124-.11.234-.235.234h-1.241a.24.24 0 0 1-.234-.234v-9.182a.24.24 0 0 1 .234-.234h6.011c.124 0 .235.11.235.234v1.186c0 .124-.11.234-.235.234h-4.535v2.344zM66.055 78.025c.124 0 .234.11.234.234v1.186c0 .124-.11.234-.234.234h-3.612v3.764c0 .124-.11.234-.234.234h-1.241a.24.24 0 0 1-.235-.234v-9.182c0-.125.111-.234.235-.234h6.01c.125 0 .235.11.235.234v1.186c0 .124-.11.234-.234.234h-4.536v2.344zM71.41 80.865c.11-.042.235.041.276.165.262.827.98 1.2 2.082 1.2 1.227 0 1.696-.745 1.696-1.24.055-2.11-5.184-.801-5.184-4.33 0-1.972 1.655-2.826 3.447-2.826 1.668 0 3.033.716 3.432 2.302.042.152-.041.262-.165.303l-1.062.304c-.137.04-.234 0-.303-.152-.316-.73-.854-1.117-1.902-1.117-.91 0-1.779.345-1.779 1.172 0 1.971 5.225.69 5.225 4.343 0 1.793-1.53 2.882-3.405 2.882-1.682 0-3.267-.787-3.598-2.413-.028-.152.027-.263.179-.303zM80.496 74.26a.24.24 0 0 1 .234-.233h1.241a.24.24 0 0 1 .234.234v3.764h4.757V74.26c0-.125.11-.234.235-.234h1.24a.24.24 0 0 1 .234.234v9.182c0 .124-.11.234-.234.234h-1.24a.24.24 0 0 1-.235-.234V79.68h-4.757v3.764c0 .124-.11.234-.234.234h-1.24a.24.24 0 0 1-.235-.234zM100.028 78.852c0-2.633-1.792-3.364-3.171-3.364s-3.171.73-3.171 3.364 1.792 3.364 3.171 3.364c1.38 0 3.171-.731 3.171-3.364m1.709 0c0 3.309-2.109 5.019-4.88 5.019s-4.88-1.71-4.88-5.019 2.11-5.018 4.88-5.018 4.88 1.71 4.88 5.018M106.615 79.128h1.888c1.283 0 1.82-.731 1.82-1.724s-.537-1.723-1.82-1.723h-1.888zm2.081-5.101c1.848 0 3.309 1.13 3.309 3.377 0 1.75-.937 2.855-2.219 3.185l2.081 2.895c.056.097 0 .194-.096.194h-1.531a.42.42 0 0 1-.371-.194l-1.903-2.702h-1.351v2.661c0 .124-.11.234-.235.234h-1.241a.24.24 0 0 1-.234-.234v-9.182c0-.125.111-.234.234-.234zM120.632 78.025c.124 0 .234.11.234.234v1.186a.24.24 0 0 1-.234.234h-3.612v2.344h4.536c.124 0 .234.11.234.234v1.186c0 .124-.11.234-.234.234h-6.011a.24.24 0 0 1-.234-.234v-9.182a.24.24 0 0 1 .234-.234h6.011a.24.24 0 0 1 .234.234v1.186c0 .124-.11.234-.234.234h-4.536v2.344zM83.04 94.507h1.889c1.282 0 1.82-.731 1.82-1.723s-.537-1.724-1.82-1.724H83.04zm2.082-5.101c1.847 0 3.309 1.13 3.309 3.378 0 1.75-.937 2.854-2.22 3.184l2.082 2.896c.055.096 0 .193-.096.193h-1.53a.42.42 0 0 1-.373-.193L84.39 96.16h-1.35v2.662c0 .123-.11.234-.235.234h-1.241a.24.24 0 0 1-.234-.234V89.64c0-.124.11-.234.234-.234zM94.438 95.472h3.323l-1.655-3.943zm.648-5.845c.056-.152.18-.221.331-.221h1.379c.152 0 .276.069.33.22l3.916 9.21c.041.11-.028.221-.138.221h-1.392c-.152 0-.277-.069-.331-.22l-.717-1.71h-4.715l-.717 1.71c-.055.151-.18.22-.33.22h-1.393c-.111 0-.193-.11-.138-.22zM111.986 96.465c.11.055.166.193.11.303-.841 1.655-2.399 2.482-4.343 2.482-2.771 0-4.88-1.71-4.88-5.019 0-3.308 2.109-5.018 4.88-5.018 1.944 0 3.489.813 4.329 2.468.07.11.014.248-.096.317l-1.103.538c-.11.069-.248.014-.303-.097-.593-1.186-1.834-1.572-2.827-1.572-1.378 0-3.171.73-3.171 3.364s1.793 3.365 3.171 3.365c.993 0 2.234-.387 2.827-1.559.055-.124.193-.179.303-.11zM120.633 93.405a.24.24 0 0 1 .233.234v1.185c0 .124-.11.235-.233.235h-3.613v2.344h4.536a.24.24 0 0 1 .234.234v1.186c0 .123-.11.234-.234.234h-6.011a.24.24 0 0 1-.234-.234V89.64c0-.124.11-.234.234-.234h6.011c.124 0 .234.11.234.234v1.186a.24.24 0 0 1-.234.234h-4.536v2.344zM26.978 35.374q-.6 3.523-1.948 5.17-2.85 3.899-8.844 2.773-5.995-1.123-5.994-11.466 0-4.794 1.798-8.543 1.799-3.745 6.895-3.747 3.745 0 5.695 2.698 1.947 2.698 2.473 6.145a21.8 21.8 0 0 1-.075 6.97m4.346-20.76q-6.146-3.896-13.338-3.897-9.444.002-13.714 5.771Q0 22.26 0 31.552q0 7.946 3.222 12.815 3.223 4.871 7.719 6.67 4.496 1.797 9.068.75c3.047-.699 5.47-1.451 7.269-4.25v1.55c-.201 3.198-.974 6.358-2.323 7.957q-2.024 2.397-4.497 2.923a7.5 7.5 0 0 1-1.682.16h-5.27q-2.08.001-3.493 1.268Q8.6 62.665 8.6 64.441v5.018h11.203c5.207 0 8.332-1.702 11.52-3.907 3.968-2.743 6.145-8.422 6.145-15.415V29.004q0-10.489-6.145-14.388"/></svg>