<svg xmlns="http://www.w3.org/2000/svg" width="76" height="100" fill="none" viewBox="0 0 76 100"><g fill="#18191B" clip-path="url(#clip0_813_2)"><path d="M39.748 2.13v.105l-1.362.07.07-1.362h.105v-.35h-1.782v.35h.105l.07 1.362-1.327-.07v-.104h-.35v1.781h.35v-.105l1.327-.07-.07 1.328h-.105v.384h1.782v-.384h-.105l-.07-1.328 1.362.07v.105h.35V2.131z"/><path d="M37.687 11.142a3.004 3.004 0 1 0 0-6.008 3.004 3.004 0 0 0 0 6.008"/><path d="M37.688 9.046c-7.475 0-21.062 3.877-22.18 11.492-.034.21 1.118 1.537 1.118 1.537s3.528-1.293 3.528-1.502c-.105-3.353 6.113-7.72 10.06-8.313 0 0-5.414 4.121-5.38 8.348.524.454 2.061 1.467 2.061 1.467l2.76-1.502c0-3.109 3.283-8.558 6.601-9.186v.07c-.244.873-1.222 6.287-1.083 9.116.594.454 1.921.838 2.515 1.397.559-.559 1.921-.943 2.515-1.397.244-3.039-.873-8.383-1.083-9.117v-.07c3.318.63 6.567 6.078 6.567 9.187l3.038 1.502s1.258-1.013 1.782-1.467c.035-4.262-5.274-8.243-5.274-8.243 3.982.593 10.094 4.855 9.99 8.208 0 .174 3.527 1.502 3.527 1.502s1.153-1.363 1.118-1.537c-1.153-7.615-14.67-11.492-22.18-11.492"/><path d="M59.903 21.376c-.56 0-1.013.21-1.467.664-.594.594-.63 1.502-.63 2.2-.069-.035-.418-.314-1.326-.314-.874 0-1.782.42-1.852 1.921-.07 1.921 2.376 2.026 2.97 1.292 0 1.363-.909 2.585-1.922 2.585-1.152 0-1.676-1.187-1.676-1.187s-1.118 1.187-2.375 1.187c-.524 0-1.013-.21-1.502-.629a1.665 1.665 0 0 1-.42-1.956c.07.07.594.769 1.642.769.734 0 1.362-.315 1.747-.838.384-.524.454-1.188.174-1.852a1.93 1.93 0 0 0-1.816-1.222c-.21 0-.42.035-.594.07-.035 0-.105.035-.14.035.245-.734.28-1.607-.768-2.236a2.36 2.36 0 0 0-1.257-.35c-.42 0-.839.14-1.223.35-1.048.664-.978 1.607-.733 2.236-.035 0-.105-.035-.14-.035-.21-.035-.384-.07-.594-.07-.803 0-1.467.454-1.816 1.187-.42.978-.105 2.061.768 2.515.315.175.629.245.978.245.978 0 1.607-.664 1.747-.769.07.105.07.245.104.454a2 2 0 0 1-.558 1.537c-.385.384-.943.594-1.607.594h-.105c-1.746 0-2.13-1.292-2.13-1.292s-.7 1.292-2.515 1.292c-.63 0-1.328-.28-1.817-.768-.489-.49-.558-1.083-.174-1.817.07.035 1.117.769 2.095.769.455 0 .839-.14 1.153-.454.629-.56.803-1.293.559-2.096-.28-.873-.943-1.362-1.851-1.362-.245 0-.594.035-.839.105h-.035c.245-.978 0-1.747-.908-2.306-.384-.244-.838-.349-1.292-.349-.489 0-.908.14-1.292.35-.909.558-1.153 1.327-.909 2.305h-.034a3.7 3.7 0 0 0-.839-.105c-.908 0-1.572.489-1.85 1.362-.28.803-.07 1.537.558 2.096.314.28.698.454 1.153.454.978 0 2.025-.734 2.095-.769.385.734.35 1.328-.174 1.817a2.66 2.66 0 0 1-1.817.768c-1.816 0-2.514-1.292-2.514-1.292s-.385 1.292-2.131 1.292h-.105c-.664 0-1.222-.21-1.607-.594a2 2 0 0 1-.559-1.537c0-.174.035-.314.105-.454.14.105.769.769 1.747.769.349 0 .663-.07.978-.245.873-.454 1.222-1.537.768-2.515-.35-.733-1.013-1.187-1.816-1.187-.21 0-.384.035-.594.07-.035 0-.105.035-.14.035.21-.664.315-1.607-.733-2.236a2.25 2.25 0 0 0-1.223-.35c-.419 0-.873.14-1.257.35-1.048.629-1.013 1.502-.769 2.236-.034 0-.104-.035-.14-.035-.209-.035-.418-.07-.593-.07-.838 0-1.502.454-1.816 1.222-.28.63-.21 1.328.174 1.852.385.523 1.013.838 1.747.838 1.048 0 1.572-.699 1.642-.769.279.664.14 1.467-.42 1.956-.489.42-.978.63-1.502.63-1.257 0-2.375-1.189-2.375-1.189s-.524 1.188-1.676 1.188c-1.013 0-1.921-1.222-1.921-2.585.593.734 3.038.63 2.969-1.292-.035-1.502-.978-1.921-1.852-1.921-.908 0-1.257.28-1.327.314 0-.698-.035-1.606-.629-2.2-.454-.454-.943-.664-1.467-.664-.803 0-1.781.56-1.781.56s.28.069.594.244c.35.21 1.257.943 1.537 3.073.419 2.97 1.152 5.1 1.781 5.729.314.314.524.733 1.467.733h37.164c.943 0 1.153-.42 1.467-.733.629-.664 1.362-2.76 1.781-5.729.315-2.13 1.188-2.864 1.537-3.073.35-.21.594-.245.594-.245s-1.048-.559-1.851-.559M12.364 55.501c-5.1-2.585-6.392-2.654-6.706-5.1-.21-1.606 1.118-4.33 5.205-4.33 4.82 0 7.3 4.051 8.208 5.867.104.21.314.594.314.594.244-.105.524-.28.524-.28-.49-3.038-.734-4.959-.803-7.439l-.385-.07s-.14.49-1.362.49c-.594 0-1.187-.245-1.886-.49-.978-.384-2.62-1.083-4.122-1.083-5.413 0-9.71 3.738-9.71 8.767 0 4.401 4.716 6.288 7.894 7.65 5.414 2.34 8.208 3.877 7.79 6.74-.21 1.398-1.747 3.738-6.113 3.738-5.274 0-9.43-5.658-9.885-7.789l-.07-.28-.698.385.035.105c.803 3.667 1.082 7.055 1.187 9.605v.21h.21c.07 0 .174 0 .314-.14.21-.21.734-.629 1.432-.629.21 0 .699.175 1.467.35 1.502.384 4.087.908 5.484.908 7.614 0 10.897-3.703 10.897-8.243 0-5.694-5.239-7.51-9.22-9.536M65.596 55.501c-5.1-2.585-6.392-2.654-6.706-5.1-.21-1.606 1.117-4.296 5.204-4.296 4.82 0 7.3 4.052 8.208 5.868.105.21.314.594.314.594.245-.105.524-.28.524-.28-.489-3.038-.733-4.96-.803-7.439l-.384-.14s-.14.49-1.362.49c-.594 0-1.188-.245-1.886-.49-.978-.384-2.62-1.082-4.122-1.082-5.414 0-9.71 3.772-9.71 8.767 0 4.4 4.715 6.287 7.894 7.649 5.413 2.34 8.208 3.877 7.789 6.741-.21 1.397-1.747 3.737-6.113 3.737-5.274 0-9.43-5.658-9.884-7.789l-.07-.28-.699.385.035.105c.803 3.667 1.083 7.055 1.188 9.605v.21h.21c.069 0 .174 0 .313-.14.21-.21.734-.629 1.432-.629.21 0 .7.175 1.467.35 1.502.384 4.087.908 5.484.908 7.615 0 10.898-3.703 10.898-8.243 0-5.659-5.204-7.475-9.221-9.5M39.12 80.056c-5.624-2.83-7.056-2.934-7.37-5.624-.21-1.746 1.222-5.03 5.728-5.03 5.31 0 8.033 4.716 9.011 6.707.14.245.35.664.35.664.244-.14.593-.315.593-.315-.558-3.353-.803-5.483-.873-8.208l-.454-.07s-.14.56-1.502.56c-.663 0-1.292-.245-2.06-.56-1.048-.419-2.9-1.187-4.541-1.187-5.973 0-10.688 3.877-10.688 9.36 0 4.856 5.204 7.196 8.697 8.698 5.938 2.55 9.011 4.296 8.592 7.404-.21 1.537-1.92 4.401-6.74 4.401-5.799 0-10.375-6.496-10.864-8.871l-.07-.315-.768.42.035.104c.908 4.017 1.188 7.754 1.327 10.549v.244h.21c.07 0 .21 0 .314-.14.21-.21.804-.663 1.572-.663.21 0 .768.174 1.607.384 1.641.42 4.47 1.013 6.042 1.013 8.383 0 12.016-4.087 12.016-9.082-.035-6.217-5.764-8.208-10.164-10.443M57.213 39.05h-39.05c-.035.594-.105 1.152-.175 1.746h39.364999999999995c-.035-.594-.105-1.152-.14-1.746M18.233 37.723h38.91c-.07-1.782.035-3.249.21-4.68h-39.33c.14 1.431.28 2.898.21 4.68"/></g><defs><clipPath id="clip0_813_2"><path fill="#fff" d="M0 0h75.236v100H0z"/></clipPath></defs></svg>