<svg xmlns="http://www.w3.org/2000/svg" width="311" height="50" fill="none" viewBox="0 0 311 50"><path fill="#18191B" d="M0 49.127V0h6.894l18.062 47.208h.175L43.019 0h6.894v49.127h-4.014l.087-46.771h-.087L27.923 49.127h-6.02L4.013 2.356h-.175l.175 46.771zM74.217 50q-5.673 0-9.424-2.705a16.8 16.8 0 0 1-5.498-6.894q-1.832-4.275-1.745-8.813 0-4.712 1.92-8.813t5.584-6.545q3.753-2.53 9.075-2.53 4.45 0 7.854 2.007 3.49 1.92 5.584 5.497 2.095 3.491 2.357 8.377.087.437.087 1.047v1.135H61.39q0 6.719 3.315 10.733 3.404 4.014 9.512 4.014 4.45 0 7.679-2.356 3.315-2.356 4.1-6.37h3.928q-.612 3.577-2.793 6.37-2.181 2.705-5.497 4.275T74.217 50M61.65 29.145H85.91q-.087-1.658-.785-3.665-.61-2.094-2.007-4.014-1.395-1.92-3.665-3.141-2.18-1.222-5.323-1.222-2.88 0-5.06 1.047a11.5 11.5 0 0 0-3.753 2.618q-1.483 1.658-2.443 3.84Q62 26.7 61.65 29.144M113.86 50q-5.061 0-8.639-2.443-3.49-2.444-5.323-6.545-1.832-4.101-1.832-9.162 0-5.149 1.832-9.25 1.92-4.1 5.411-6.457 3.577-2.443 8.638-2.443 3.578 0 6.108 1.222 2.531 1.221 4.014 2.966 1.484 1.747 2.182 3.316.786 1.484 1.047 2.094h.175V0h4.101v49.127h-3.316l-.698-8.551h-.175q-.261.436-1.134 2.007-.786 1.483-2.356 3.229t-4.101 2.966Q117.351 50 113.86 50m.524-3.752q3.577 0 6.457-1.658 2.966-1.657 4.712-4.887 1.745-3.315 1.745-7.853t-1.658-7.679q-1.57-3.228-4.363-4.886-2.792-1.746-6.283-1.746-4.362 0-7.242 2.095-2.88 2.006-4.363 5.322-1.396 3.229-1.396 6.894 0 3.578 1.221 6.98 1.31 3.317 4.014 5.41 2.793 2.008 7.156 2.008M156.752 1.57v47.557h-3.927V1.571zM136.42 3.579V0h36.649v3.578zM186.53 50q-5.672 0-9.424-2.705a16.8 16.8 0 0 1-5.498-6.894q-1.832-4.275-1.745-8.813 0-4.712 1.92-8.813t5.585-6.545q3.752-2.53 9.075-2.53 4.45 0 7.853 2.007 3.49 1.92 5.585 5.497 2.094 3.491 2.356 8.377.087.437.087 1.047v1.135h-28.621q0 6.719 3.316 10.733 3.403 4.014 9.511 4.014 4.45 0 7.679-2.356 3.315-2.356 4.101-6.37h3.927q-.61 3.577-2.793 6.37-2.18 2.705-5.497 4.275T186.53 50m-12.566-20.855h24.259q-.087-1.658-.786-3.665-.61-2.094-2.007-4.014-1.395-1.92-3.665-3.141-2.181-1.222-5.322-1.222-2.88 0-5.061 1.047a11.5 11.5 0 0 0-3.753 2.618q-1.483 1.658-2.443 3.84-.873 2.093-1.222 4.537M225.388 50q-4.974 0-8.813-2.094-3.753-2.094-5.934-6.108t-2.182-9.512q.175-5.584 2.269-9.773 2.183-4.189 6.021-6.457 3.84-2.355 8.901-2.356 4.362 0 7.679 1.658 3.315 1.57 5.41 4.363 2.181 2.792 2.792 6.37h-3.752q-.873-4.101-4.101-6.37-3.23-2.355-7.941-2.356-4.014 0-6.981 1.92-2.966 1.831-4.625 5.148-1.658 3.315-1.745 7.679 0 6.456 3.491 10.384 3.577 3.84 9.598 3.84 4.711 0 8.028-2.357 3.403-2.355 4.276-6.457h3.752a13.54 13.54 0 0 1-2.88 6.37q-2.18 2.792-5.584 4.45Q229.751 50 225.388 50M248.541 49.127V0h4.014v23.124h.175q.174-.61.872-2.094.699-1.484 2.182-3.142 1.483-1.745 3.839-2.967 2.444-1.221 6.021-1.221 3.664 0 6.108 1.047t3.927 2.88a12.4 12.4 0 0 1 2.356 4.188 21.3 21.3 0 0 1 1.047 4.8q.262 2.442.262 4.973v17.54h-3.84v-17.54q0-4.363-.959-7.504-.96-3.229-3.229-4.974t-6.37-1.745q-4.188 0-6.981 2.094-2.704 2.094-4.101 5.497-1.31 3.405-1.309 7.418v16.753zM297.446 41.449V18.15h3.229V41.45zm-9.947-10.21V28.01h23.211v3.23z"/></svg>