<svg width="267" height="103" viewBox="0 0 267 103" fill="none" xmlns="http://www.w3.org/2000/svg">
<path d="M0.740723 100.805C0.898823 100.1 1.08431 99.3994 1.20382 98.6874C1.27104 98.2865 1.43412 98.1023 1.8412 98.1047C2.13001 98.106 2.42007 98.0637 2.70888 98.035C3.81683 97.928 4.57621 97.3952 4.82767 96.2673C5.20612 94.5693 5.60074 92.875 5.94184 91.1695C7.63613 82.6794 9.31921 74.1868 10.9973 65.693C11.8326 61.4666 12.6518 57.2377 13.4684 53.0076C13.7373 51.6183 13.1908 50.91 11.7903 50.7743C11.4218 50.7382 11.0533 50.6946 10.579 50.6436C10.7844 49.6191 10.9649 48.6306 11.2015 47.6546C11.2326 47.5264 11.5426 47.3945 11.7281 47.3882C12.5771 47.3596 13.4286 47.3745 14.2788 47.3745C19.9418 47.3745 25.606 47.4169 31.269 47.3521C33.3006 47.3285 34.7223 48.0381 35.9211 49.7261C42.3721 58.8051 48.9077 67.823 55.4147 76.8621C55.5342 77.0276 55.66 77.187 55.8616 77.4521C56.0807 76.3853 56.2824 75.4255 56.4729 74.4632C57.8746 67.3947 59.2763 60.3251 60.6719 53.2554C60.7241 52.9927 60.7378 52.7201 60.7403 52.4512C60.7528 51.4154 60.322 50.9237 59.2975 50.7905C59.1954 50.7768 59.0896 50.7818 58.9875 50.7718C58.8879 50.7619 58.7883 50.7444 58.578 50.7133C58.7958 49.6577 58.9987 48.6344 59.229 47.6173C59.2502 47.5252 59.4357 47.4368 59.5589 47.4119C59.7382 47.3758 59.9299 47.3957 60.1166 47.3957C66.2776 47.3957 72.4385 47.3957 78.6007 47.3957H79.5119C79.2953 48.5061 79.1135 49.5157 78.8845 50.5141C78.8571 50.6324 78.572 50.7507 78.3977 50.7656C76.8043 50.8988 76.2814 51.3084 75.959 52.8993C74.9855 57.7096 74.0406 62.526 73.0846 67.3412C71.572 74.9586 70.0583 82.5773 68.547 90.1948C68.0266 92.814 67.5013 95.4332 66.9959 98.0562C66.5913 100.159 65.0875 101.441 62.9425 101.445C58.8767 101.452 54.8109 101.444 50.7452 101.45C49.7978 101.451 49.0982 101.071 48.5442 100.292C41.0513 89.7653 33.5459 79.2473 26.043 68.728C25.9483 68.5961 25.8475 68.4678 25.6757 68.2425C25.5898 68.5761 25.5151 68.8176 25.4666 69.0641C23.7175 77.8804 21.9685 86.6954 20.2256 95.5129C19.9194 97.0653 20.553 97.8919 22.1303 98.0487C22.4577 98.0811 22.7851 98.1247 23.2233 98.1757C23.0154 99.2102 22.8187 100.216 22.6009 101.216C22.5822 101.303 22.4353 101.376 22.332 101.427C22.2635 101.461 22.1689 101.445 22.0867 101.445C14.971 101.44 7.85647 101.434 0.740723 101.427C0.740723 101.219 0.740723 101.013 0.740723 100.805Z" fill="#18191B"/>
<path d="M266.523 24.4864C266.328 24.5972 266.117 24.6881 265.938 24.82C243.672 41.2512 221.408 57.6849 199.143 74.1186C198.461 74.6216 197.776 75.1208 197.092 75.6212C197.044 75.5888 196.995 75.5552 196.948 75.5228C202.942 64.3239 208.936 53.1262 214.999 41.799C185.844 36.009 156.783 30.2365 127.723 24.4652C127.723 24.4204 127.723 24.3768 127.724 24.332H128.355C174.163 24.332 219.971 24.332 265.778 24.332C266.027 24.332 266.274 24.3507 266.523 24.3619V24.4864Z" fill="#18191B"/>
<path d="M239.136 0.832031C239.526 2.97323 239.905 5.11567 240.305 7.25438C241.175 11.9003 242.055 16.5449 242.929 21.1908C242.966 21.3863 242.975 21.5867 243.004 21.8369H227.061C231.072 14.7884 235.041 7.8096 239.011 0.832031C239.053 0.832031 239.095 0.832031 239.136 0.832031Z" fill="#18191B"/>
<path d="M130.892 83.8607C130.809 84.3039 130.764 84.6251 130.687 84.9388C129.519 89.6432 128.349 94.3464 127.176 99.0483C126.762 100.709 125.806 101.475 124.091 101.583C120.037 101.842 115.987 102.187 111.93 102.37C107.6 102.564 103.268 102.563 98.9459 102.103C95.281 101.714 91.6957 101.034 88.2848 99.5749C83.2567 97.425 80.4308 93.5335 79.2706 88.2975C78.4352 84.5292 78.4166 80.7348 78.8834 76.923C79.6191 70.9052 81.4591 65.256 84.4194 59.9577C88.1428 53.2914 93.8643 49.3887 101.183 47.6297C105.108 46.6861 109.093 46.1694 113.124 46.1358C116.708 46.1059 120.298 46.1059 123.876 46.2889C127.495 46.4732 131.104 46.879 134.713 47.2301C135.844 47.3396 136.635 48.5123 136.406 49.6314C135.417 54.4603 134.413 59.2868 133.427 64.1169C133.337 64.5539 133.176 64.7568 132.693 64.7281C131.783 64.6734 130.87 64.6659 129.957 64.6634C129.587 64.6622 129.367 64.5613 129.36 64.1505C129.337 62.8235 128.507 62.1126 127.41 61.5923C125.862 60.8578 124.198 60.63 122.523 60.5055C118.523 60.2067 114.519 60.2565 110.531 60.6474C108.744 60.8229 106.944 61.0931 105.213 61.5537C102.422 62.2944 100.62 64.2626 99.4202 66.8158C98.067 69.694 97.3799 72.7663 96.8657 75.8798C96.5371 77.8729 96.4076 79.8771 96.8583 81.8739C97.2529 83.6217 98.2189 84.9513 99.7514 85.8961C101.405 86.9144 103.216 87.3402 105.124 87.4584C110.269 87.7771 115.408 87.6277 120.536 87.1783C122.158 87.0364 123.761 86.6555 125.362 86.3281C126.48 86.099 127.263 85.4492 127.535 84.2753C127.571 84.1184 127.767 83.8856 127.896 83.8819C128.863 83.8483 129.831 83.8632 130.89 83.8632L130.892 83.8607Z" fill="#18191B"/>
<path d="M189.336 64.7174C189.247 61.8031 187.105 61.34 185.101 60.8881C182.128 60.2172 179.083 60.3155 176.055 60.3479C172.798 60.3815 169.553 60.5968 166.345 61.2068C163.134 61.8168 160.879 63.658 159.451 66.5648C158.093 69.3297 157.413 72.295 156.869 75.2977C156.48 77.4501 156.274 79.6124 156.745 81.7835C157.128 83.5537 158.082 84.9181 159.634 85.8804C161.285 86.9049 163.095 87.3357 165.003 87.4552C170.168 87.7789 175.328 87.6245 180.477 87.1751C182.058 87.0369 183.621 86.6572 185.183 86.3485C186.354 86.1169 187.177 85.4721 187.447 84.2397C187.479 84.0977 187.658 83.8836 187.774 83.8799C188.758 83.8512 189.745 83.8637 190.841 83.8637C190.563 85.0053 190.326 86.0061 190.078 87.0045C189.081 91.0255 188.081 95.0452 187.084 99.065C186.686 100.671 185.68 101.475 184.043 101.583C180.816 101.799 177.595 102.145 174.366 102.252C170.37 102.385 166.367 102.398 162.368 102.34C158.942 102.29 155.551 101.824 152.228 100.955C149.563 100.258 147.031 99.2579 144.79 97.6072C141.759 95.3739 140.168 92.2505 139.279 88.6988C138.45 85.3849 138.354 82.0188 138.621 78.6302C139.068 72.966 140.541 67.5781 143.011 62.4691C144.965 58.427 147.448 54.782 151.13 52.0856C154.454 49.6531 158.221 48.2501 162.206 47.3725C166.149 46.5048 170.147 46.0828 174.177 46.1064C178.071 46.1288 181.969 46.216 185.858 46.4127C188.752 46.5596 191.639 46.9044 194.523 47.2106C195.793 47.3463 196.551 48.468 196.295 49.7228C195.468 53.7612 194.628 57.7959 193.794 61.833C193.634 62.6036 193.465 63.3729 193.328 64.1473C193.255 64.563 193.082 64.7411 192.629 64.7274C191.554 64.695 190.479 64.7174 189.337 64.7174H189.336Z" fill="#18191B"/>
<path d="M233.544 51.8507C237.998 48.5555 242.338 45.3449 246.804 42.041C248.39 50.7365 249.947 59.2665 251.503 67.7951C251.448 67.8288 251.394 67.8611 251.34 67.8947C245.439 62.5754 239.538 57.2547 233.544 51.8507Z" fill="#18191B"/>
</svg>
