<svg width="103" height="103" viewBox="0 0 103 103" fill="none" xmlns="http://www.w3.org/2000/svg">
<path d="M51.42 102.492C34.9539 102.492 18.486 102.492 2.01987 102.492C1.02343 102.492 0.525213 101.984 0.525213 100.969C0.523438 68.0848 0.523438 35.2005 0.523438 2.31622C0.523438 1.32925 1.00746 0.835168 1.97549 0.833984C34.9397 0.833984 67.9021 0.833984 100.866 0.833984C101.877 0.833984 102.383 1.34759 102.384 2.3748C102.384 35.2591 102.384 68.1434 102.384 101.028C102.384 102.003 101.892 102.491 100.909 102.492C84.4126 102.492 67.9163 102.492 51.42 102.492ZM48.9916 87.6911V5.28956C48.8301 5.22921 48.7733 5.18483 48.7218 5.19016C47.694 5.28424 46.6644 5.35879 45.6402 5.48483C37.4515 6.49133 30.0687 9.4984 23.4333 14.3907C22.7108 14.9232 22.5439 15.4025 22.8635 16.2421C24.0297 19.306 25.1303 22.393 26.2557 25.4728C29.4971 34.3485 32.7367 43.2259 35.9799 52.1033C39.516 61.7831 43.0556 71.4629 46.5952 81.1427C47.3834 83.2977 48.1715 85.4509 48.9934 87.6929L48.9916 87.6911ZM63.372 46.6093C71.7914 57.6968 80.1274 68.6706 88.4776 79.6658C92.9314 74.3848 98.713 63.2369 97.9178 49.0217C97.4367 40.4389 94.758 32.5929 89.88 25.416C80.9937 32.5201 72.2316 39.5247 63.372 46.6075V46.6093ZM53.4259 76.2114C53.4259 83.1557 53.4259 90.1 53.4259 97.0425C53.4259 98.1165 53.5502 98.2407 54.5975 98.1413C55.7744 98.0313 56.9531 97.9266 58.1193 97.749C68.5802 96.1443 77.5233 91.5858 84.9327 84.0149C85.5842 83.3492 85.6285 82.9338 85.0534 82.1829C79.2505 74.6067 73.4866 67.0002 67.7157 59.3991C65.3921 56.3388 63.0826 53.2696 60.7625 50.2093C60.0542 49.2738 60.0471 49.2809 59.1454 49.9962C57.5264 51.2832 55.92 52.5879 54.2833 53.85C53.6709 54.3222 53.4028 54.8459 53.4064 55.6447C53.4365 62.5003 53.4241 69.3558 53.4241 76.2114H53.4259ZM22.1623 26.7402C22.0966 27.0101 22.07 27.0651 22.07 27.1201C22.0682 47.1188 22.0629 67.1174 22.0931 87.116C22.0931 87.5349 22.3931 88.0852 22.7286 88.3497C28.2244 92.6775 34.3912 95.6278 41.2361 97.094C43.4727 97.5733 45.752 97.8555 48.294 98.2745C39.5355 74.2996 30.8871 50.6229 22.1623 26.7402ZM87.2883 22.0273C87.0753 21.745 86.9706 21.5657 86.8303 21.4237C85.2522 19.8314 83.7363 18.1664 82.073 16.6682C77.5801 12.6244 72.4269 9.67059 66.7145 7.69842C62.9264 6.39014 59.0442 5.53276 55.0324 5.28779C53.4259 5.19016 53.4277 5.15998 53.4277 6.80908C53.4277 20.4581 53.4277 34.1088 53.4294 47.7578C53.4294 48.1199 53.4632 48.4821 53.4916 49.0448C64.8542 39.9614 76.0357 31.0219 87.2901 22.0255L87.2883 22.0273ZM17.7156 19.7817C17.6304 19.7533 17.5452 19.7249 17.4617 19.6965C7.95946 30.1591 3.69027 42.4502 5.06777 56.5625C6.08492 66.986 10.3701 75.9948 17.4866 83.6279C17.5629 83.5995 17.6393 83.5711 17.7156 83.5444V19.7835V19.7817ZM98.0935 72.1588C92.5072 84.0557 83.7877 92.7538 71.8784 98.3348H72.4713C80.6582 98.3348 88.8433 98.3224 97.0302 98.3526C97.9213 98.3561 98.1113 98.0206 98.1095 97.2094C98.0864 89.058 98.0953 80.9066 98.0953 72.7534C98.0953 72.5546 98.0953 72.3576 98.0953 72.1588H98.0935ZM72.2192 5.12093C83.9688 10.7765 92.5338 19.4391 98.0935 31.1834V30.3384C98.0935 22.3965 98.0935 14.4528 98.0935 6.51085C98.0935 5.58542 97.6438 5.12211 96.7444 5.12093C88.8557 5.12093 80.9688 5.12093 73.0801 5.12093C72.7926 5.12093 72.505 5.12093 72.2174 5.12093H72.2192ZM4.85298 72.2617C4.83168 72.6451 4.8157 72.7907 4.8157 72.9363C4.8157 81.0593 4.82458 89.1823 4.79973 97.3053C4.79795 98.1449 5.11925 98.3526 5.90208 98.3508C14.0588 98.3295 22.2173 98.3384 30.374 98.3348C30.5533 98.3348 30.7308 98.2958 31.0433 98.2603C20.4599 93.4994 10.7127 84.9663 4.85298 72.2617ZM4.81393 30.8408C10.4038 19.2421 18.9759 10.7215 30.7486 5.21323C30.4575 5.1582 30.3723 5.12803 30.2853 5.12803C22.0398 5.12448 13.7925 5.12803 5.54706 5.11205C4.87073 5.11205 4.79973 5.41382 4.8015 5.98009C4.81748 13.9558 4.81393 21.9314 4.81393 29.9053C4.81393 30.2177 4.81393 30.5302 4.81393 30.8408Z" fill="#18191B"/>
</svg>
