<svg xmlns="http://www.w3.org/2000/svg" width="200" height="100" fill="none" viewBox="0 0 200 100"><path fill="#18191B" d="M35.86 51.557q-4.203 0-6.436-1.38-2.234-1.443-3.284-3.809a38 38 0 0 1-1.84-5.188q-.46-1.905-1.181-3.94-.657-2.037-1.577-3.613t-2.233-2.036h-4.334V43.61q0 1.84 1.313 2.627 1.314.722 3.218.722 0 2.365-1.445 4.138H1.576Q.066 49.258.066 46.96q2.232 0 3.218-.722 1.05-.788 1.05-2.627V12.742q0-1.84-1.05-2.562Q2.234 9.392 0 9.392q0-1.116.328-2.233.33-1.117.986-1.905 2.823 0 5.254-.065a207 207 0 0 1 4.466-.197 91 91 0 0 1 3.875-.198q2.167-.065 4.203-.065 6.83 0 10.837 1.576 4.072 1.576 5.845 4.4 1.774 2.824 1.774 6.7 0 9.588-10.574 11.756 2.89.854 5.582 4.072 2.759 3.218 4.138 7.75.721 2.43 1.839 3.678 1.182 1.248 3.021 1.51v3.284q-.855 1.249-2.43 1.642-1.577.46-3.284.46M17.864 27.059q4.007 0 6.174-2.496 2.233-2.494 2.233-6.502 0-4.071-1.905-6.173-1.904-2.168-6.173-2.168-.657 0-1.708.066-.985.066-1.51.197v16.945q.46.065 1.444.131zM58.748 51.688q-7.356 0-11.757-4.663-4.334-4.662-4.334-13.004 0-5.714 2.167-9.852 2.167-4.203 5.845-6.436 3.744-2.233 8.473-2.233 5.91 0 9.457 3.48 3.612 3.416 3.612 9.656 0 2.495-.853 4.4-.788 1.839-3.35 1.839H53.822q.197 5.188 2.364 7.356 2.233 2.167 5.78 2.167 2.233 0 4.137-.657a14.1 14.1 0 0 0 3.547-1.97q.59.525.92 1.642.394 1.05.394 1.773 0 1.051-1.51 2.627-1.446 1.51-4.204 2.693-2.693 1.182-6.502 1.182m-4.926-21.805h6.633q1.117 0 1.38-.854.328-.854.328-2.101 0-4.203-1.051-5.517-.985-1.38-2.364-1.38-1.118 0-2.233.855-1.117.854-1.84 3.02-.722 2.103-.853 5.977M85.941 51.557q-4.925 0-8.012-2.693-3.022-2.758-3.022-7.027t2.759-6.897q2.824-2.626 8.67-2.627 1.905 0 4.006.395 2.101.328 3.415 1.05v-8.735q0-2.758-1.445-3.81-1.38-1.116-3.415-1.116-2.167 0-3.547 1.051 1.313.46 1.905 1.445.59.92.59 2.036 0 2.167-1.575 3.481-1.51 1.248-3.744 1.248-2.496 0-4.006-1.445-1.51-1.51-1.51-3.744t1.51-4.203q1.51-2.036 4.663-3.35 3.218-1.313 8.275-1.313 13.201 0 13.201 10.443V43.15q0 3.153 3.022 3.81v2.101q-.855 1.248-2.89 1.905-2.037.591-3.941.591-4.466 0-6.305-3.087-1.314 1.181-3.48 2.168-2.168.92-5.124.919m4.27-5.32q.918 0 1.904-.263.985-.328 1.642-.788v-6.37q-.657-.46-1.708-.789a6.2 6.2 0 0 0-1.97-.328q-1.708 0-2.956 1.117-1.247 1.05-1.247 3.35 0 1.771 1.182 2.955 1.182 1.116 3.152 1.116M111.897 51.097a6.4 6.4 0 0 1-1.116-1.642q-.394-.854-.394-1.904 1.904 0 2.758-.788.854-.855.854-2.825V9.064q0-1.512-.854-2.365-.854-.92-3.612-.92V3.154q1.641-.92 3.809-1.577A34 34 0 0 1 117.743.46Q119.91 0 121.355 0q1.51 0 2.167.657.723.657.723 2.298v40.983q0 2.037.788 2.825.853.788 2.824.788 0 1.05-.46 1.904a6.4 6.4 0 0 1-1.116 1.642zM34.678 100l-.985-.328q-.59-.198-1.774-.723H1.511a9 9 0 0 1-1.117-1.904A6.7 6.7 0 0 1 0 94.81q2.168 0 3.218-.788 1.117-.787 1.117-2.627V60.593q0-1.84-1.051-2.561-1.05-.788-3.218-.788 0-1.117.394-2.167a8.6 8.6 0 0 1 1.116-1.97H27.06q1.182-.526 2.627-.789 1.445-.328 2.693-.328.591 1.05 1.314 3.087a47 47 0 0 1 1.379 3.94q.591 1.971.591 3.087-.526.525-1.708 1.05-1.116.527-2.298.92a28 28 0 0 1-1.97.591q-.723-2.167-2.562-4.072-1.774-1.904-4.4-1.904h-7.422v13.858h4.729q1.84 0 3.02-1.051 1.25-1.116 1.249-3.744 2.955 0 5.32 1.38v12.216q-2.234 1.379-5.255 1.379 0-2.627-1.247-3.81-1.183-1.182-3.022-1.182h-4.794V93.17h7.947q2.89 0 4.86-2.365 2.036-2.43 2.496-5.714h7.027q0 .985-.328 3.087a78 78 0 0 1-.723 4.466 52 52 0 0 1-.919 4.4q-.526 2.037-.985 2.956M53.743 99.606a22.6 22.6 0 0 1-4.795-.525 20 20 0 0 1-4.4-1.511q-1.97-.986-3.218-2.43-1.248-1.511-1.248-3.415 0-2.3 1.313-3.678 1.314-1.445 3.35-1.445 1.839 0 3.087 1.182 1.314 1.182 1.313 3.087 0 .854-.262 1.51a7.4 7.4 0 0 1-.789 1.314q.592.591 2.102.854 1.51.262 2.956.262 2.298 0 3.546-.853 1.248-.854 1.248-2.102 0-1.97-2.102-3.35-2.1-1.444-4.794-2.89-2.43-1.313-4.86-2.758a14.9 14.9 0 0 1-4.006-3.743q-1.577-2.234-1.577-5.649 0-4.335 3.612-7.159t10.246-2.824q4.597 0 7.356 1.182 2.76 1.117 4.007 2.89 1.247 1.709 1.247 3.612 0 2.037-1.313 3.284-1.248 1.183-3.087 1.183-1.642 0-2.89-.986-1.248-1.05-1.248-2.692 0-.789.263-1.708.263-.92.722-1.51a3.84 3.84 0 0 0-1.707-.789q-.92-.262-2.233-.262-2.168 0-3.35 1.05-1.116.985-1.116 2.43 0 2.234 2.101 3.678a53 53 0 0 0 4.795 2.825q2.43 1.248 4.729 2.692a13.55 13.55 0 0 1 3.94 3.613q1.576 2.167 1.576 5.582 0 3.678-2.101 5.911-2.102 2.167-5.451 3.153-3.284.985-6.962.985M84.717 99.409q-2.759 0-5.057-.985-2.299-1.05-3.744-3.547-1.38-2.495-1.38-6.83V69.985H70.4V65.98q1.773-.263 3.35-2.233 1.575-1.971 2.693-4.86 1.182-2.89 1.51-5.78 1.181-.197 2.168-.197 2.626 0 3.612 1.51 1.05 1.512 1.05 2.825v6.896h7.62q0 1.576-.198 3.153-.13 1.51-.854 2.692h-6.436v18.521q0 2.102.854 2.825.853.656 2.167.656t2.627-.656q1.38-.724 2.168-1.642.722.591.985 1.773.263 1.116.263 1.707 0 1.446-.986 2.89-.984 1.446-3.087 2.43-2.035.92-5.188.92M106.979 99.409q-4.926 0-8.013-2.693-3.021-2.758-3.021-7.027t2.758-6.896q2.825-2.628 8.67-2.628 1.904 0 4.006.394 2.102.33 3.415 1.051v-8.735q0-2.758-1.445-3.81-1.379-1.115-3.415-1.116-2.167 0-3.546 1.051 1.313.46 1.904 1.445.591.92.591 2.036 0 2.167-1.576 3.481-1.51 1.248-3.744 1.248-2.495 0-4.006-1.445-1.51-1.51-1.51-3.744t1.51-4.203q1.51-2.036 4.663-3.35 3.219-1.313 8.276-1.313 13.2 0 13.201 10.443v17.404q0 3.153 3.021 3.81v2.101q-.854 1.248-2.89 1.905-2.036.59-3.941.59-4.466 0-6.305-3.086-1.313 1.182-3.481 2.167-2.166.92-5.122.92m4.269-5.32q.92 0 1.904-.263.985-.328 1.642-.788v-6.37q-.657-.46-1.707-.789a6.2 6.2 0 0 0-1.971-.328q-1.707 0-2.955 1.116-1.248 1.051-1.248 3.35 0 1.773 1.182 2.956 1.182 1.116 3.153 1.116M144.43 99.409q-2.759 0-5.057-.985-2.3-1.05-3.744-3.547-1.38-2.495-1.379-6.83V69.985h-4.138V65.98q1.773-.263 3.35-2.233 1.576-1.971 2.692-4.86 1.183-2.89 1.511-5.78a13 13 0 0 1 2.167-.197q2.628 0 3.613 1.51 1.05 1.512 1.05 2.825v6.896h7.619q0 1.576-.197 3.153-.131 1.51-.854 2.692h-6.436v18.521q0 2.102.854 2.825.853.656 2.167.656t2.627-.656q1.38-.724 2.167-1.642.723.591.986 1.773.262 1.116.262 1.707 0 1.446-.985 2.89-.986 1.446-3.087 2.43-2.036.92-5.188.92M171.246 99.54q-7.355 0-11.756-4.663-4.335-4.663-4.335-13.004 0-5.714 2.168-9.852 2.166-4.203 5.845-6.436 3.744-2.233 8.472-2.233 5.911 0 9.458 3.48 3.612 3.417 3.612 9.655 0 2.496-.854 4.4-.788 1.84-3.349 1.84H166.32q.198 5.188 2.365 7.356 2.233 2.167 5.779 2.167 2.233 0 4.138-.657a14.1 14.1 0 0 0 3.547-1.97q.59.525.919 1.642.394 1.05.394 1.773 0 1.05-1.51 2.627-1.446 1.51-4.204 2.693-2.692 1.182-6.502 1.182m-4.926-21.805h6.634q1.116 0 1.379-.853.328-.855.328-2.102 0-4.203-1.05-5.517-.985-1.38-2.365-1.38-1.116 0-2.233.854-1.116.855-1.839 3.022-.722 2.1-.854 5.976M192.832 99.803q-3.022 0-4.861-1.773-1.839-1.84-1.839-4.73 0-2.955 1.839-4.728 1.84-1.773 4.861-1.773 2.955 0 4.794 1.773 1.839 1.774 1.839 4.729 0 2.89-1.839 4.729-1.839 1.773-4.794 1.773"/></svg>