<svg width="225" height="99" viewBox="0 0 225 99" fill="none" xmlns="http://www.w3.org/2000/svg">
<path d="M61.3025 25.7205L49.2394 34.6703C43.5437 29.8014 36.2028 28.8458 32.1522 28.8458C28.1016 28.8458 23.7817 30.0101 23.1189 32.9327C22.4768 35.767 25.125 37.9721 29.6845 39.2011C34.8802 40.5947 39.6114 41.8237 46.896 43.8906C57.7312 46.966 65.1431 51.6203 65.1431 62.4254C65.1431 77.3173 51.8432 85.0322 34.0222 85.0322C16.2012 85.0322 4.06111 75.8031 0.433594 71.5016L13.1861 62.0255C22.1454 69.7846 28.3738 70.8783 33.5783 70.8783C39.5522 70.8783 45.1385 69.6023 45.8545 66.2682C46.4374 63.572 44.1887 61.4257 39.0995 60.2526C33.3446 58.9325 28.4832 57.8681 23.0627 56.451C8.3662 52.617 4.22089 44.1288 4.22089 36.502C4.22089 25.9998 14.059 15.2153 32.0516 15.2153C50.0442 15.2153 61.3055 25.7175 61.3055 25.7175M138.19 16.2649H84.4168V83.0476H139.176V67.65H103.3V56.892H128.015V42.1559H103.3V31.5214H138.188V16.262L138.19 16.2649ZM70.4985 98.4658H74.6764V0.832031H70.4985V98.4688V98.4658ZM146.238 98.4658H150.416V0.832031H146.238V98.4688V98.4658ZM160.13 83.0506H203.323C214.871 83.0506 224.233 76.1353 224.233 65.0568C224.233 56.4157 218.54 50.6824 210.563 48.1597C210.563 48.1597 210.235 48.0803 209.791 48.0627C210.235 48.0215 210.563 47.9304 210.563 47.9304C215.135 46.131 220.194 41.3445 220.194 33.1973C220.194 22.8626 210.992 16.2679 199.633 16.2679H160.133V83.0506H160.13ZM179.108 30.1542H194.195C197.669 30.1542 200.48 32.8797 200.48 36.011C200.48 39.1423 197.669 41.8766 194.195 41.8766H179.108V30.1513V30.1542ZM197.562 68.2057L179.108 68.2116V56.0305H197.562C200.826 56.0305 203.471 58.659 203.471 62.1196C203.471 65.5802 200.826 68.2087 197.562 68.2087V68.2057Z" fill="#18191B"/>
</svg>
