<svg width="154" height="102" viewBox="0 0 154 102" fill="none" xmlns="http://www.w3.org/2000/svg">
<path d="M122.818 76.5332C121.494 76.5332 120.168 76.5385 118.844 76.5332C118.303 76.5332 117.773 76.597 117.245 76.7007C116.036 76.9401 115.041 77.5411 114.229 78.4401C113.769 78.9454 113.37 79.4933 113.02 80.0757C112.41 81.0917 111.792 82.1023 111.218 83.1369C109.531 86.1821 107.469 88.9561 104.956 91.4082C101.521 94.762 97.5314 97.2992 93.0194 99.0652C90.5201 100.044 87.9414 100.754 85.2861 101.206C84.1896 101.392 83.0903 101.536 81.9828 101.653C80.2628 101.836 78.5373 101.86 76.8118 101.868C75.677 101.874 74.5449 101.823 73.421 101.727C68.4441 101.302 63.6668 100.142 59.174 97.9774C52.4306 94.7274 47.2815 89.8604 43.6609 83.4481C43.0703 82.4002 42.455 81.3656 41.8397 80.331C41.446 79.6662 41.0084 79.0305 40.4834 78.4534C39.5454 77.4161 38.3887 76.7752 36.964 76.6289C36.5074 76.581 36.048 76.5385 35.5886 76.5358C33.0919 76.5278 30.598 76.5199 28.1014 76.5358C27.0595 76.5438 26.086 76.3124 25.1481 75.9002C24.1609 75.4667 23.2804 74.8709 22.4518 74.198C21.2678 73.2326 20.2396 72.1289 19.2852 70.9533C17.9617 69.323 16.805 67.5836 15.7741 65.7671C15.6811 65.6049 15.5854 65.44 15.5198 65.2671C15.4049 64.9639 15.5662 64.706 15.8971 64.6448C15.9901 64.6262 16.0885 64.6288 16.1842 64.6262C16.3565 64.6235 16.5288 64.6262 16.7038 64.6262C21.7326 64.6262 26.7642 64.6315 31.793 64.6262C33.5404 64.6262 35.2823 64.6794 37.0242 64.831C38.8263 64.9852 40.601 65.2751 42.3401 65.7538C44.67 66.3948 46.8357 67.3709 48.7472 68.839C50.0379 69.831 51.1372 70.9959 52.0915 72.2938C52.8517 73.3284 53.5135 74.4241 54.1288 75.5438C54.662 76.5145 55.1898 77.4906 55.723 78.4614C56.6609 80.1715 57.804 81.7273 59.2943 83.0332C60.1366 83.7726 61.0253 84.4534 61.9714 85.0651C65.0806 87.0704 68.466 88.4242 72.1138 89.1689C73.7136 89.496 75.3324 89.6901 76.9649 89.7141C79.8089 89.754 82.5817 89.3098 85.2943 88.488C88.3789 87.5492 91.242 86.1821 93.8371 84.2965C95.8661 82.8231 97.5342 81.0465 98.7401 78.8709C99.205 78.0332 99.6534 77.1874 100.127 76.3523C100.693 75.355 101.25 74.355 101.863 73.3842C102.932 71.6847 104.239 70.1741 105.844 68.9214C107.573 67.573 109.52 66.6262 111.625 65.9719C112.979 65.5517 114.363 65.2512 115.771 65.0544C116.988 64.8842 118.207 64.7804 119.432 64.7113C120.756 64.6342 122.079 64.6342 123.403 64.6342C128.336 64.6342 133.272 64.6342 138.205 64.6342C138.396 64.6342 138.591 64.6235 138.779 64.6501C139.14 64.7006 139.293 64.9746 139.165 65.3124C139.127 65.4161 139.069 65.5171 139.014 65.6129C137.639 68.0411 136.069 70.339 134.155 72.4028C133.368 73.2512 132.52 74.0331 131.579 74.7193C130.715 75.3496 129.794 75.8789 128.76 76.2113C128.101 76.4241 127.428 76.5465 126.728 76.5411C125.424 76.5305 124.117 76.5385 122.812 76.5385L122.818 76.5332Z" fill="#18191B"/>
<path d="M81.1899 5.79418C81.1899 6.63461 81.1899 7.47504 81.1899 8.31547C81.1899 8.46441 81.1927 8.61334 81.1817 8.76228C81.1599 9.08409 81.0396 9.16654 80.7333 9.04952C80.2329 8.85803 79.7434 8.6426 79.243 8.45111C77.5257 7.79419 75.7756 7.24366 73.9626 6.89791C72.7703 6.67184 71.5726 6.54152 70.3584 6.61865C69.2673 6.6878 68.1817 6.83142 67.1371 7.16919C66.4234 7.40057 65.7453 7.70642 65.1464 8.15855C64.1811 8.88462 63.6369 9.83144 63.5494 11.0203C63.4893 11.858 63.76 12.6027 64.2604 13.2756C64.6706 13.8261 65.1874 14.2703 65.7507 14.6639C66.4398 15.1426 67.1782 15.5389 67.9438 15.89C69.3029 16.5097 70.7194 16.9777 72.1386 17.4405C73.0301 17.7304 73.927 18.0097 74.7966 18.3528C76.801 19.1453 78.6605 20.1799 80.3176 21.5469C81.1708 22.2517 81.9337 23.0363 82.5764 23.9299C83.4733 25.1746 84.0393 26.5496 84.2499 28.0576C84.2554 28.0948 84.2608 28.1321 84.2636 28.1693C84.3839 30.3342 84.1815 32.4592 83.4159 34.5124C82.4396 37.1268 80.6977 39.1188 78.2558 40.5497C76.7135 41.4539 75.04 42.0497 73.2953 42.4566C72.0839 42.7412 70.8534 42.9353 69.6092 43.047C68.2528 43.1667 66.8938 43.2598 65.5292 43.2492C64.3971 43.2412 63.2678 43.1507 62.1411 43.0497C60.7246 42.922 59.33 42.6853 57.9491 42.3555C56.7732 42.0763 55.6302 41.7039 54.5036 41.2704C53.9922 41.0736 53.8199 40.7757 53.8281 40.2518C53.8555 38.4592 53.8363 36.6667 53.8391 34.8741C53.8391 34.2012 53.8691 34.18 54.5118 34.3874C56.8826 35.1534 59.3081 35.7119 61.7665 36.1294C62.7291 36.2943 63.7026 36.4193 64.6815 36.4193C66.3332 36.422 67.9821 36.3741 69.5873 35.9273C70.1615 35.7677 70.7085 35.547 71.2198 35.2438C72.9918 34.1959 73.3199 31.9486 72.382 30.4752C72.0867 30.0097 71.7257 29.6001 71.3128 29.2358C70.61 28.6188 69.8197 28.1241 68.9939 27.6826C67.5583 26.9193 66.0461 26.3289 64.5147 25.773C63.2377 25.3102 61.9579 24.8581 60.7164 24.3102C59.2945 23.6826 57.9436 22.9405 56.724 21.9884C54.9137 20.5762 53.5683 18.8421 52.8409 16.6799C52.5429 15.7889 52.3815 14.874 52.2858 13.9405C52.1518 12.6426 52.2558 11.366 52.5265 10.1001C53.0925 7.44047 54.5446 5.32875 56.776 3.71172C58.3182 2.5947 60.0465 1.84203 61.8813 1.30746C63.1885 0.927136 64.5202 0.669156 65.8738 0.493623C67.4051 0.299473 68.9392 0.214366 70.4733 0.209047C71.4878 0.206387 72.5023 0.288835 73.5168 0.392559C75.5486 0.600006 77.5284 1.0282 79.4535 1.68512C79.7981 1.80214 80.1371 1.93512 80.4708 2.07342C81.1735 2.36331 81.1872 2.38193 81.1899 3.10268C81.1927 3.99896 81.1899 4.89524 81.1899 5.79152V5.79418Z" fill="#18191B"/>
<path d="M22.6326 47.3105C28.6623 47.3105 34.6892 47.3105 40.7189 47.3132C41.6596 47.3132 42.603 47.3105 43.541 47.377C47.5006 47.6643 51.318 48.4941 54.8729 50.2813C57.8071 51.7547 60.2846 53.7441 62.1769 56.3957C63.7328 58.5766 64.7173 60.9888 65.1767 63.6058C65.39 64.8239 65.4993 66.05 65.5048 67.284C65.5103 68.6484 65.524 70.0101 65.4993 71.3745C65.4829 72.2894 65.3736 73.199 65.1575 74.0926C65.0427 74.566 64.8813 75.0261 64.6024 75.4383C64.2032 76.0314 63.6426 76.332 62.9043 76.3054C62.5242 76.2921 62.1988 76.1431 61.898 75.933C61.5206 75.6671 61.2253 75.324 60.96 74.9543C60.5498 74.3851 60.2326 73.7681 59.9537 73.1325C59.8252 72.8399 59.7048 72.5447 59.6009 72.2442C58.7286 69.7388 57.2711 67.5846 55.387 65.6989C53.1037 63.417 50.4101 61.7282 47.3939 60.5127C45.4005 59.7095 43.3359 59.1457 41.2057 58.8106C40.2212 58.6563 39.2313 58.55 38.2387 58.4649C37.2597 58.3824 36.2835 58.3771 35.3045 58.3771C27.8939 58.3744 20.4833 58.3691 13.0727 58.3824C11.7109 58.3824 10.4585 58.0526 9.27167 57.4276C8.23528 56.8797 7.32194 56.1696 6.4715 55.3824C5.56637 54.542 4.75968 53.6164 4.00768 52.6457C2.97949 51.3132 2.06889 49.909 1.25673 48.4435C1.15555 48.2627 1.05711 48.0792 0.991477 47.885C0.898502 47.6084 1.03796 47.3983 1.32783 47.3478C1.49737 47.3185 1.67238 47.3159 1.84465 47.3159C2.4025 47.3105 2.95761 47.3159 3.51546 47.3159C9.88968 47.3159 16.2639 47.3159 22.6381 47.3159L22.6326 47.3105Z" fill="#18191B"/>
<path d="M132.091 47.311C138.886 47.311 145.684 47.311 152.48 47.311C152.748 47.311 153.018 47.3057 153.286 47.3323C153.683 47.3695 153.819 47.5956 153.691 47.9573C153.653 48.0636 153.601 48.162 153.546 48.2605C152.318 50.4918 150.896 52.5929 149.143 54.4706C148.301 55.3722 147.385 56.1913 146.349 56.8802C145.761 57.2711 145.14 57.6062 144.478 57.8642C143.614 58.1967 142.723 58.3775 141.785 58.3775C134.47 58.3722 127.155 58.3775 119.84 58.3722C118.517 58.3722 117.19 58.3669 115.872 58.4945C111.095 58.9547 106.632 60.3004 102.645 62.9706C100.685 64.2845 98.97 65.8483 97.5563 67.718C96.5472 69.0504 95.7378 70.484 95.18 72.0505C94.9092 72.8111 94.6084 73.5584 94.1873 74.2526C93.9439 74.6542 93.6705 75.0398 93.3724 75.4042C93.1837 75.6329 92.9431 75.8351 92.6915 76C91.8876 76.5265 90.8703 76.3803 90.2687 75.6382C90.0582 75.3803 89.9023 75.0691 89.771 74.7632C89.5085 74.1569 89.4101 73.5053 89.328 72.859C89.2187 71.9866 89.1804 71.1116 89.1886 70.2313C89.1968 69.0372 89.1804 67.8403 89.2187 66.6462C89.3116 63.8137 89.9078 61.093 91.2231 58.5451C92.6861 55.71 94.8053 53.4387 97.4824 51.6488C99.7685 50.1195 102.284 49.0743 104.953 48.3775C106.381 48.0025 107.833 47.7472 109.298 47.5663C110.789 47.3828 112.282 47.3216 113.778 47.319C119.884 47.3136 125.987 47.3163 132.094 47.3163L132.091 47.311Z" fill="#18191B"/>
<path d="M101.491 17.9943C101.475 23.239 101.469 28.4863 101.436 33.731C101.426 35.5954 101.045 37.4013 100.329 39.1353C99.1887 41.9013 97.2144 43.8933 94.4251 45.1194C93.1426 45.6832 91.7972 46.0476 90.4108 46.2763C88.874 46.529 87.329 46.638 85.7703 46.6167C84.6573 46.6034 83.5444 46.6327 82.4369 46.4944C82.1908 46.4625 81.9447 46.4226 81.7013 46.3747C81.5427 46.3428 81.4196 46.2497 81.3786 46.0901C81.3294 45.9093 81.3896 45.7497 81.5427 45.6433C81.6986 45.537 81.8708 45.4492 82.0404 45.3641C84.1405 44.2923 85.9508 42.8694 87.4384 41.0688C88.9232 39.2736 89.8995 37.2497 90.3124 34.9757C90.4792 34.0555 90.553 33.1247 90.5749 32.1911C90.594 31.3879 90.594 30.5848 90.594 29.7842C90.594 20.5448 90.594 11.3027 90.594 2.06334C90.594 1.85855 90.5886 1.6511 90.6077 1.44897C90.6323 1.20163 90.7581 1.07929 91.0069 1.04471C91.1573 1.0261 91.3132 1.02344 91.4664 1.02344C94.499 1.02344 97.5316 1.02344 100.564 1.02344C100.736 1.02344 100.911 1.02876 101.081 1.05269C101.305 1.08727 101.428 1.20429 101.453 1.41972C101.478 1.65908 101.478 1.90376 101.478 2.14578C101.478 6.9623 101.478 11.7788 101.478 16.5953C101.478 17.0608 101.478 17.5288 101.478 17.9943C101.483 17.9943 101.488 17.9943 101.494 17.9943H101.491Z" fill="#18191B"/>
</svg>
