<svg width="184" height="43" viewBox="0 0 184 43" fill="none" xmlns="http://www.w3.org/2000/svg">
<g clip-path="url(#clip0_774_55)">
<mask id="mask0_774_55" style="mask-type:luminance" maskUnits="userSpaceOnUse" x="0" y="0" width="184" height="43">
<path d="M184 0H0V43H184V0Z" fill="white"/>
</mask>
<g mask="url(#mask0_774_55)">
<path d="M106.387 29.0494L110.015 26.2307C111.208 28.4283 113.833 30.196 117.461 30.196C120.373 30.196 122.091 28.906 122.091 27.1383C122.091 21.9785 108.105 27.0427 108.105 16.8187C108.105 12.5665 111.59 9.31787 117.175 9.31787C121.375 9.31787 124.812 11.2289 126.292 13.6655L122.664 16.4842C121.614 14.9076 119.179 13.6177 116.888 13.6177C115.027 13.6177 113.499 14.7643 113.499 16.2454C113.499 21.4052 127.437 16.4842 127.342 26.565C127.294 31.1992 123.189 34.4958 117.27 34.4958C112.02 34.496 107.867 32.4415 106.387 29.0494Z" fill="#18191B"/>
<path d="M143.189 30.1005C146.816 30.1005 149.489 26.9473 149.489 21.9308C149.489 16.9621 146.816 13.8089 143.189 13.8089C139.465 13.8089 136.84 16.6755 136.84 21.9786V43.0001H131.16V10.0825H136.84V13.4269C138.559 10.8469 141.327 9.31812 144.764 9.31812C150.778 9.31812 155.408 14.1434 155.408 21.6444C155.408 29.1453 150.492 34.496 144.477 34.496C142.654 34.5319 140.855 34.0694 139.275 33.1583V28.5717C140.334 29.5663 141.736 30.1138 143.189 30.1005Z" fill="#18191B"/>
<path d="M171.78 30.1005C175.408 30.1005 178.081 26.9473 178.081 21.9308C178.081 16.9621 175.408 13.8089 171.78 13.8089C168.057 13.8089 165.432 16.6755 165.432 21.9786V43.0001H159.751V10.0825H165.432V13.4269C167.15 10.8469 169.919 9.31812 173.355 9.31812C179.37 9.31812 184 14.1434 184 21.6444C184 29.1453 179.083 34.496 173.069 34.496C171.246 34.5319 169.447 34.0694 167.866 33.1583V28.5717C168.926 29.5663 170.328 30.1138 171.78 30.1005Z" fill="#18191B"/>
<path d="M45.8623 33.3094C55.7992 33.3094 69.9695 29.1899 69.9695 19.3619C69.9695 16.4191 68.5582 13.7711 66.0888 11.5936C64.0293 12.7471 62.4303 14.5762 61.5614 16.7725C62.6198 17.6553 63.149 18.4792 63.149 19.362C63.149 24.0701 52.9182 26.4829 45.8624 26.4829C38.8066 26.4829 28.5757 24.0699 28.5757 19.3619C28.5757 18.479 29.1049 17.6551 30.1633 16.7723C29.292 14.5775 27.6936 12.7492 25.6358 11.5936C23.1661 13.7712 21.7551 16.4193 21.7551 19.3619C21.7551 29.1899 35.9254 33.3094 45.8623 33.3094ZM71.1454 7.21221e-05C59.7974 7.21221e-05 49.5666 10.0046 50.6249 22.6575C52.9792 22.395 55.2684 21.7176 57.3867 20.6564C57.3809 17.9386 58.1805 15.2801 59.6842 13.0171C61.188 10.7541 63.3285 8.98823 65.835 7.94281C68.3415 6.89738 71.1014 6.61936 73.7658 7.14389C76.4301 7.66842 78.8792 8.97194 80.8034 10.8896C82.7276 12.8073 84.0404 15.253 84.5758 17.9175C85.1113 20.582 84.8453 23.3455 83.8115 25.8587C82.7778 28.3718 81.0226 30.5218 78.7681 32.0365C76.5135 33.5513 73.8608 34.3629 71.1454 34.3687C68.7635 34.3595 66.428 33.709 64.3837 32.4854C62.018 33.7856 59.4858 34.7559 56.8575 35.3693C59.2775 37.7143 62.2359 39.4284 65.4728 40.3609C68.7097 41.2935 72.1259 41.416 75.4211 40.7176C78.7163 40.0191 81.7897 38.5213 84.3711 36.3555C86.9525 34.1898 88.9628 31.4226 90.2254 28.2971C91.488 25.1716 91.9642 21.7835 91.6121 18.4307C91.26 15.0779 90.0905 11.8629 88.2062 9.06846C86.322 6.274 83.7808 3.98558 80.8059 2.40435C77.8311 0.823125 74.5137 -0.00249163 71.1454 7.21221e-05ZM27.3409 32.4855C25.2966 33.7091 22.9611 34.3596 20.5791 34.3689C17.8554 34.3688 15.193 33.5597 12.9291 32.0439C10.6653 30.5281 8.90184 28.3739 7.86222 25.8541C6.8226 23.3344 6.55358 20.5625 7.08924 17.8896C7.6249 15.2167 8.94113 12.763 10.8712 10.8395C12.8013 8.91593 15.2583 7.60902 17.9311 7.08432C20.6039 6.55961 23.3721 6.84072 25.8852 7.89203C28.3982 8.94334 30.543 10.7175 32.0477 12.9899C33.5525 15.2622 34.3495 17.9305 34.3379 20.6566C36.4562 21.7177 38.7454 22.3952 41.0997 22.6576C42.158 10.0046 31.9272 7.21221e-05 20.5791 7.21221e-05C17.205 -0.00886393 13.8804 0.812724 10.8982 2.39248C7.91593 3.97224 5.36752 6.2617 3.47738 9.05925C1.58723 11.8568 0.41333 15.0766 0.059063 18.4351C-0.295204 21.7936 0.181027 25.1878 1.44582 28.3187C2.71061 31.4496 4.72516 34.2213 7.31205 36.3895C9.89894 38.5578 12.9788 40.0561 16.2804 40.7527C19.582 41.4492 23.0041 41.3224 26.2453 40.3837C29.4865 39.4449 32.4473 37.7228 34.8671 35.3692C32.2387 34.7558 29.7066 33.7856 27.3409 32.4855ZM48.5082 12.4763C49.3378 10.1168 50.5496 7.9099 52.0949 5.94398C47.9606 5.35548 43.7639 5.35548 39.6297 5.94398C41.175 7.9099 42.3867 10.1168 43.2164 12.4763C44.9784 12.3586 46.7462 12.3586 48.5082 12.4763Z" fill="#18191B"/>
</g>
</g>
<defs>
<clipPath id="clip0_774_55">
<rect width="184" height="43" fill="white"/>
</clipPath>
</defs>
</svg>
