<svg xmlns="http://www.w3.org/2000/svg" width="106" height="54" fill="none" viewBox="0 0 106 54"><g fill="#18191B" clip-path="url(#clip0_774_64)"><path d="M97.12 32.288c0 .876.596 1.626 1.29 1.626s1.29-.75 1.29-1.626-.595-1.627-1.29-1.627c-.694 0-1.29.75-1.29 1.627m4.119 0c0 .876.596 1.626 1.29 1.626s1.291-.75 1.291-1.626-.596-1.627-1.291-1.627c-.744 0-1.29.75-1.29 1.627m-6.005 9.886c0 3.566 2.233 6.32 5.211 6.32s5.211-2.754 5.211-6.32-2.233-6.32-5.211-6.32-5.21 2.753-5.21 6.32m2.382 0c0-2.127 1.191-3.754 2.879-3.754 1.637 0 2.878 1.627 2.878 3.754 0 2.065-1.191 3.754-2.878 3.754s-2.879-1.627-2.879-3.754M91.066 32.1c0 1 .645 1.877 1.488 1.877.844 0 1.49-.813 1.49-1.877s-.646-1.877-1.49-1.877c-.843 0-1.489.876-1.489 1.877m.297 17.145c0 1.314-.198 2.127-1.24 2.127-.298 0-.695-.062-1.043-.125v2.566c.298.125.745.187 1.29.187.944 0 1.986-.313 2.631-1.251.447-.626.744-1.627.744-3.63V36.105h-2.382zM79.95 47.18c1.29.876 2.978 1.376 4.367 1.376 2.928 0 4.913-2.002 4.913-5.38 0-3.255-1.885-4.444-3.97-5.257-1.687-.688-3.176-.939-3.176-2.816 0-1.501.943-2.19 2.283-2.19 1.141 0 2.829.5 4.218 1.69v-3.129c-1.191-.876-2.829-1.314-4.218-1.314-2.879 0-4.764 1.94-4.764 5.193 0 3.192 1.836 4.318 3.82 5.069 1.837.688 3.326.939 3.326 2.94 0 1.628-.993 2.441-2.432 2.441-1.19 0-2.978-.563-4.417-1.877v3.254zm-7.99-1.752c-.447.438-1.191.75-1.886.75-.843 0-1.538-.437-1.538-1.439 0-1.188.943-1.564 1.935-1.564.447 0 1.042.125 1.489.25zm.397 1.94a2.26 2.26 0 0 0 1.985 1.126c.447 0 .893-.125 1.191-.313v-2.315a.85.85 0 0 1-.546.188c-.446 0-.645-.439-.645-1.127v-4.63c0-1.502-.347-2.566-.992-3.254-.745-.75-1.837-1.126-3.077-1.126-1.39 0-2.482.438-3.226 1v2.691c.744-.563 1.737-1.063 2.878-1.063q1.117 0 1.638.563c.298.375.447.939.447 1.627v.688c-.596-.188-1.192-.25-1.837-.25-.992 0-1.985.25-2.68.813-.694.563-1.24 1.627-1.24 2.941 0 1.189.397 2.19 1.092 2.816.645.563 1.439.813 2.233.813 1.141-.062 2.134-.625 2.779-1.189m-16.08.875h2.383v-6.382h.05l4.119 6.382h2.928l-4.417-6.695 4.02-5.444h-2.83l-3.82 5.257h-.05V29.409h-2.382zm-9.974-.75c1.092.688 2.481 1 3.672 1 2.283 0 4.169-1.25 4.169-4.004 0-2.315-1.29-3.066-3.127-3.566-1.439-.376-2.63-.376-2.63-1.502 0-.814.645-1.19 1.687-1.19.993 0 2.383.376 3.574 1.252v-2.69c-.993-.689-2.383-.939-3.574-.939-2.332 0-4.069 1.314-4.069 3.88 0 2.19 1.24 3.003 3.077 3.504 1.489.375 2.68.375 2.68 1.564 0 .938-.695 1.314-1.737 1.314s-2.531-.438-3.722-1.377zm-11.414.75h2.382v-8.26c.595-.812 1.588-1.5 2.53-1.5.547 0 .993.25 1.29.688.299.375.398 1 .398 2.064v7.008h2.332v-7.508c0-1.815-.248-2.816-.843-3.567-.596-.813-1.49-1.251-2.531-1.251-1.29 0-2.382.688-3.176 1.627h-.05V36.23h-2.332zm-9.231-7.32c.298-1.815 1.39-2.691 2.481-2.691 1.092 0 2.134.813 2.333 2.69zm6.898 2.064c.05-.312.05-.813.05-1.189 0-3.879-2.134-5.944-4.516-5.944-2.63 0-4.913 2.503-4.913 6.383 0 3.816 2.282 6.32 5.36 6.32 1.24 0 2.63-.439 3.523-1.127v-2.753c-.943.813-2.085 1.377-3.276 1.377-1.637 0-2.878-1.064-3.176-3.067zm-16.178 5.256h2.332l3.97-12.139h-2.382l-1.44 4.443c-.446 1.377-.843 2.69-1.29 4.067h-.05c-.396-1.439-.843-2.815-1.24-4.13l-1.39-4.442h-2.48zM2.134 47.18c1.29.876 2.977 1.376 4.367 1.376 2.928 0 4.913-2.002 4.913-5.38 0-3.255-1.886-4.444-3.97-5.257-1.688-.688-3.176-.939-3.176-2.816 0-1.501.942-2.19 2.282-2.19 1.142 0 2.83.5 4.219 1.69v-3.129c-1.191-.876-2.83-1.314-4.219-1.314-2.878 0-4.764 1.94-4.764 5.193 0 3.192 1.836 4.318 3.821 5.069 1.837.688 3.325.939 3.325 2.94 0 1.628-.992 2.441-2.431 2.441-1.191 0-2.978-.563-4.417-1.877v3.254zM31.613 0 0 13.578l31.613 12.828z"/></g><defs><clipPath id="clip0_774_64"><path fill="#fff" d="M0 0h106v54H0z"/></clipPath></defs></svg>