<svg width="109" height="103" viewBox="0 0 109 103" fill="none" xmlns="http://www.w3.org/2000/svg">
<path d="M108.741 64.9961V75.1717H0.723633V64.9961H108.741Z" fill="#18191B"/>
<path d="M0.739746 49.2188H108.728V57.6883H0.739746V49.2188Z" fill="#18191B"/>
<path d="M108.733 34.582V41.5437H0.744141V34.582H108.733Z" fill="#18191B"/>
<path d="M0.739746 22.0547H108.72V27.3062H0.739746V22.0547Z" fill="#18191B"/>
<path d="M0.731934 14.5964V10.4121H108.717V14.5964H0.731934Z" fill="#18191B"/>
<path d="M108.728 0.833984V2.8311H0.739746V0.833984H108.728Z" fill="#18191B"/>
<path d="M42.8747 85.9135H46.0489V93.3926C46.9674 92.3657 47.7518 91.4965 48.5281 90.6233C49.8084 89.1881 51.0683 87.7367 52.373 86.3258C52.5884 86.0954 52.9785 85.9175 53.2915 85.9054C54.4579 85.8569 55.6285 85.8852 56.9819 85.8852C54.7303 88.3553 52.5843 90.7041 50.3977 93.1055C52.5924 96.1982 54.779 99.2788 57.055 102.485C55.6772 102.485 54.4295 102.501 53.1818 102.464C53.0151 102.46 52.82 102.222 52.6981 102.052C51.1902 99.9297 49.6946 97.8032 48.138 95.5959C47.4633 96.3316 46.8089 97.0189 46.1952 97.7385C46.0733 97.8841 46.0814 98.167 46.0773 98.3854C46.0692 99.7276 46.0733 101.07 46.0733 102.448H42.8706V85.9135H42.8747Z" fill="#18191B"/>
<path d="M64.4766 85.9152H67.6792V93.1639C67.728 93.1882 67.7727 93.2124 67.8215 93.2407C68.2523 92.7637 68.6831 92.2907 69.1099 91.8096C70.7397 89.9822 72.3532 88.1387 74.0074 86.3316C74.2309 86.0891 74.6536 85.9193 74.995 85.9031C76.1371 85.8506 77.2873 85.8829 78.6244 85.8829C76.3728 88.353 74.2309 90.7019 72.0402 93.1033C74.235 96.196 76.4216 99.2765 78.6976 102.482C77.3157 102.482 76.068 102.499 74.8202 102.462C74.6536 102.458 74.4585 102.22 74.3366 102.046C72.8287 99.9234 71.333 97.7969 69.7764 95.5895C69.0977 96.3294 68.4433 97.0126 67.8337 97.7362C67.7117 97.8818 67.7199 98.1648 67.7199 98.3871C67.7117 99.7293 67.7158 101.067 67.7158 102.442H64.4766V85.9071V85.9152Z" fill="#18191B"/>
<path d="M35.2583 102.487C34.165 102.487 33.157 102.507 32.1491 102.467C31.9743 102.459 31.7223 102.241 31.6492 102.063C31.2671 101.113 30.9136 100.15 30.5884 99.1801C30.4584 98.792 30.2795 98.6465 29.8568 98.6546C27.9507 98.6788 26.0445 98.6788 24.1424 98.6546C23.7075 98.6465 23.549 98.8163 23.419 99.1923C23.041 100.288 22.6264 101.371 22.22 102.467H18.7979C19.31 101.141 19.8099 99.8512 20.3057 98.5656C21.8623 94.5269 23.4271 90.4923 24.9634 86.4495C25.126 86.0169 25.3251 85.8471 25.7966 85.8714C26.6907 85.9118 27.5889 85.8957 28.4831 85.8754C28.8326 85.8674 29.0115 85.9725 29.1415 86.308C31.1412 91.5636 33.157 96.8151 35.1648 102.071C35.2055 102.176 35.2177 102.289 35.2624 102.487H35.2583ZM24.7155 95.6872H29.3C28.5359 93.6092 27.7962 91.6081 27.0037 89.4533C26.2071 91.6242 25.4714 93.6254 24.7155 95.6872Z" fill="#18191B"/>
<path d="M95.8119 92.6946V95.565H89.3943V99.4258H96.4662V102.438H86.1104V85.9473H96.4865V88.9066H89.3984V92.6946H95.8119Z" fill="#18191B"/>
<path d="M9.58779 102.469H6.29571V88.9337H1.06494V85.9219H14.7617V88.8973H9.58779V102.469Z" fill="#18191B"/>
<path d="M105.388 85.9238H108.59V102.434H105.388V85.9238Z" fill="#18191B"/>
</svg>
