<svg xmlns="http://www.w3.org/2000/svg" width="154" height="92" fill="none" viewBox="0 0 154 92"><path fill="#18191B" d="M9.88 0q3.234 0 5.057.617 1.823.589 2.587 2.088t.765 4.205q0 2.675-.735 4.175-.706 1.47-2.353 2.087-1.645.59-4.44.589-1.47 0-2.94-.147a46 46 0 0 1-2.764-.412 30 30 0 0 1-2.176-.53q-.911-.293-1.264-.529l.088-2.881h8.027000000000001q.883 0 1.353-.176.471-.207.647-.706.176-.53.176-1.47 0-.97-.176-1.5-.177-.53-.647-.706-.471-.205-1.353-.205-2.998 0-5.116.03-2.117.028-2.881.117L1.294.294A44 44 0 0 1 3.822.088Q5.028.03 6.44.03 7.851 0 9.88 0M7.673.294v20.288h-6.38V.294zM26.212 0v15.23q0 .56.353.824.382.235 1.117.235h1l.676 3.94q-.44.265-1.264.412-.794.177-1.646.265a14 14 0 0 1-1.412.088q-2.323 0-3.646-1.088t-1.323-3.029V0zM39.103 5.469q2.087 0 3.499.559 1.44.529 2.175 1.852.765 1.293.765 3.587v9.115h-4.91l-.853-3.146-.412-.588v-5.41q-.03-.764-.411-1.118-.354-.352-1.324-.352-1.146 0-2.822.029-1.647.03-3.529.118l-.558-3.911a32 32 0 0 1 2.646-.353 56 56 0 0 1 3.087-.264 35 35 0 0 1 2.646-.118m4.057 6.086-.03 2.97h-6.086q-.558 0-.852.265-.265.235-.265.647v.47q0 .382.294.647.325.264.94.265.706 0 1.471-.324.765-.353 1.47-.882.706-.529 1.206-1.088v1.882a11 11 0 0 1-.647 1.264q-.441.765-1.206 1.53-.735.764-1.852 1.293-1.088.5-2.617.5a6.75 6.75 0 0 1-2.529-.47q-1.146-.471-1.852-1.383-.675-.94-.676-2.322v-1.47q0-1.765 1.294-2.764 1.323-1.03 3.557-1.03zM55.299 5.469q.911 0 2 .088t2.175.324a8.3 8.3 0 0 1 1.97.676l-.617 3.822h-4.470000000000001q-.94 0-1.5.236-.528.234-.764.852-.205.588-.205 1.735t.205 1.764q.235.618.765.853.558.235 1.5.235h1.234q.765-.03 1.676-.059.912-.058 1.823-.147l.559 3.852q-1.293.676-3 .94a20 20 0 0 1-3.41.295q-2.881 0-4.616-.735a4.75 4.75 0 0 1-2.47-2.47q-.735-1.705-.735-4.528 0-2.852.764-4.528.765-1.705 2.5-2.44 1.734-.765 4.616-.765M71.13 5.469q4.147 0 5.881 1.323 1.736 1.323 1.764 3.91.03 2.06-1.235 2.97-1.234.912-4.469.912h-7.91v-2.911h6.176q.999 0 1.264-.176.264-.207.264-.941 0-.706-.352-.912-.354-.206-1.206-.206-.852-.03-1.294.177-.441.205-.617.911-.147.677-.147 2.147 0 1.352.176 2.117.206.765.765 1.088.558.323 1.646.323a71 71 0 0 0 2.47-.059 49 49 0 0 0 3.5-.264l.558 3.704q-1.029.53-2.205.824a16 16 0 0 1-2.44.411q-1.236.118-2.559.118-3.058 0-4.91-.853-1.853-.852-2.676-2.528-.794-1.706-.794-4.205 0-2.911.823-4.616.824-1.735 2.647-2.5 1.853-.764 4.88-.764M100 5.469q2.087 0 3.146 1.058 1.088 1.03 1.088 3.058v10.997h-6.145v-9.027q0-.5-.206-.676-.206-.206-.765-.206-.264 0-.558.03-.265.03-.677.147-.381.117-1 .382l-.323-3.029q1.294-1.38 2.529-2.058 1.264-.675 2.91-.676m-14.525.412.735 2.999.588.353v11.35h-6.145V5.88zm5.792-.412q2.03 0 3.087 1.058 1.059 1.03 1.059 3.058v10.997h-5.94v-9.027q0-.5-.235-.676-.234-.206-.764-.206-.265 0-.559.03t-.706.147q-.411.117-1.058.382l-.323-3.029q1.293-1.38 2.528-2.058 1.236-.675 2.911-.676M114.489 5.469q4.145 0 5.88 1.323t1.764 3.91q.03 2.06-1.235 2.97-1.235.912-4.469.912h-7.909v-2.911h6.174q1 0 1.265-.176.264-.207.264-.941 0-.706-.353-.912t-1.205-.206q-.853-.03-1.294.177-.441.205-.617.911-.147.677-.147 2.147 0 1.352.176 2.117.205.765.765 1.088.558.323 1.646.323.883 0 2.47-.059a49 49 0 0 0 3.499-.264l.559 3.704q-1.029.53-2.206.824-1.176.294-2.44.411-1.235.118-2.558.118-3.058 0-4.91-.853-1.852-.852-2.676-2.528-.794-1.706-.794-4.205 0-2.911.823-4.616.823-1.735 2.647-2.5 1.852-.764 4.881-.764M135.478 5.469q4.351 0 4.351 4.116v10.997h-6.174v-9.027q0-.5-.236-.676-.234-.206-.823-.206-.559 0-1.264.088-.677.09-1.794.47l-.294-3.028q1.47-1.38 3.088-2.058 1.617-.675 3.146-.676m-6.616.412.764 2.999.559.353v11.35h-6.174V5.88zM149.976 2.029V15.23q0 .559.294.823.294.235.97.235h1.559l.676 3.94q-.618.265-1.529.412-.912.177-1.852.265-.912.088-1.617.088-2.147 0-3.411-1.088t-1.265-3.029l-.029-14.848zm3.558 3.852v3.704h-12.232V6.028l2.823-.147zM7.88 21.294q.588 0 1.558.06 1 .028 2.03.117 1.058.088 1.793.235l-.588 3.705h-2.588q-.823 0-1.117.353-.294.323-.294 1.176v15.642H2.47V26.087q0-1.382.5-2.47.53-1.088 1.705-1.705 1.206-.618 3.205-.618m4.293 6.587v3.704H0v-3.557l2.5-.147zM21.195 27.469q3 0 4.793.764 1.823.735 2.617 2.44.794 1.707.794 4.588 0 2.822-.794 4.498-.795 1.677-2.617 2.44-1.794.736-4.793.736t-4.822-.735q-1.794-.765-2.617-2.44-.794-1.676-.794-4.5 0-2.881.794-4.586.824-1.705 2.617-2.44 1.823-.765 4.822-.765m0 4.175q-.705 0-1.088.294-.382.265-.529 1.03-.147.763-.147 2.293 0 1.47.147 2.234.146.736.53 1 .382.265 1.087.265t1.088-.265.5-1q.147-.764.147-2.234 0-1.53-.147-2.294-.118-.764-.5-1.029-.382-.294-1.088-.294M36.26 27.88l.764 3 .588.353v11.35h-6.175V27.88zm7.144-.411-.53 5.645h-1.558q-.794 0-1.793.089-.97.059-2.558.323l-.353-3.323q1.44-1.38 2.97-2.058 1.529-.675 2.97-.676zM66.165 27.88 61.49 42.17a13 13 0 0 1-1.117 2.5 8.1 8.1 0 0 1-1.882 2.293q-1.146 1.029-2.822 1.44-1.676.442-3.97-.029l-.411-3.322q1.822-.382 2.881-1.03 1.088-.615 1.647-1.852l1.087-2.352q.323-.735.56-1.882.264-1.145.41-1.94l1.736-8.115zm-11.29 0 1.734 8.116q.119.675.206 1.382.09.704.177 1.382h.882l-1.911 3.822H54.61q-.705 0-1.235-.382a2.2 2.2 0 0 1-.706-1.059l-4.351-13.26zM74.747 27.469q2.999 0 4.792.764 1.823.735 2.617 2.44.794 1.707.794 4.588 0 2.822-.794 4.498-.795 1.677-2.617 2.44-1.793.736-4.793.736-2.998 0-4.822-.735-1.793-.765-2.616-2.44-.794-1.676-.794-4.5 0-2.881.794-4.586.822-1.705 2.616-2.44 1.824-.765 4.822-.765m0 4.175q-.706 0-1.088.294-.383.265-.53 1.03-.147.763-.147 2.293 0 1.47.147 2.234.147.736.53 1 .382.265 1.087.265.707 0 1.088-.265.383-.264.5-1 .147-.764.147-2.234 0-1.53-.147-2.294-.117-.764-.5-1.029-.381-.294-1.088-.294M91.075 27.88v9.027q0 .471.264.706.265.206.824.206.588 0 1.205-.088.617-.118 1.617-.5l.353 3.028q-1.5 1.383-2.97 2.059-1.47.675-3.116.676-4.352 0-4.352-4.117V27.881zm9.468 0v14.702h-4.852l-.764-2.999-.588-.353V27.88zM107.9 27.88l.765 3 .588.353v11.35h-6.175V27.88zm7.145-.411-.529 5.645h-1.558q-.795 0-1.794.089-.97.059-2.558.323l-.353-3.323q1.44-1.38 2.97-2.058 1.529-.675 2.969-.676zM8.41 49.469q.91 0 1.999.088 1.087.089 2.175.324a8.3 8.3 0 0 1 1.97.676l-.617 3.822h-4.470000000000001q-.94 0-1.499.236-.529.234-.764.852-.206.588-.206 1.735 0 1.146.206 1.764.235.618.764.853.56.235 1.5.235h1.235q.765-.03 1.676-.059.91-.058 1.823-.147l.558 3.852q-1.293.675-2.999.94a20 20 0 0 1-3.41.295q-2.882 0-4.617-.735a4.75 4.75 0 0 1-2.47-2.47Q.53 60.025.53 57.202q0-2.851.765-4.528.764-1.705 2.499-2.44 1.734-.765 4.616-.765M24.153 49.469q3 0 4.792.764 1.824.736 2.617 2.44.794 1.707.794 4.588 0 2.822-.794 4.498-.793 1.677-2.617 2.44-1.793.736-4.792.736-3 0-4.822-.735-1.794-.765-2.617-2.44-.794-1.676-.794-4.5 0-2.881.794-4.586.822-1.705 2.617-2.44 1.822-.765 4.822-.765m0 4.175q-.705 0-1.088.294-.382.265-.53 1.03-.146.763-.146 2.293 0 1.47.146 2.234.148.736.53 1 .382.265 1.088.265.705 0 1.088-.265.381-.264.5-1 .147-.764.146-2.234 0-1.53-.146-2.294-.119-.764-.5-1.029-.383-.294-1.088-.294M53.742 49.469q2.087 0 3.146 1.059 1.088 1.029 1.088 3.057v10.997H51.83v-9.027q0-.5-.206-.676-.206-.206-.765-.206-.264 0-.558.03-.265.03-.677.147-.382.118-1 .382l-.323-3.029q1.295-1.38 2.529-2.058 1.265-.675 2.91-.676m-14.525.412.735 2.999.588.352v11.35h-6.145V49.881zm5.792-.412q2.03 0 3.087 1.059 1.059 1.029 1.059 3.057v10.997h-5.94v-9.027q0-.5-.235-.676-.234-.206-.764-.206-.265 0-.559.03t-.705.147q-.413.118-1.059.382l-.324-3.029q1.294-1.38 2.53-2.058 1.235-.675 2.91-.676M71.259 49.528q2.881 0 4.087 2.058t1.206 5.822q0 3.028-.647 4.675-.618 1.647-1.853 2.293-1.234.618-3.058.618a9.7 9.7 0 0 1-3.146-.5 4.67 4.67 0 0 1-2.323-1.735l.412-2.41q.588.205 1.117.41.56.207 1.47.206.619 0 .97-.205.383-.235.53-.97.177-.765.177-2.323 0-1.588-.177-2.323-.147-.765-.5-.97-.353-.207-.911-.206-.765 0-1.206.176a7 7 0 0 0-.911.382l-.853-2.323q.382-.734 1.206-1.323a6.8 6.8 0 0 1 1.999-.97 7.6 7.6 0 0 1 2.411-.382m-5.91.353.588 2.322.647.47v9.733l-.176.353q.087.94.147 2.058.059 1.117.029 2.147v2.91h-6.175V49.882zM87.17 49.469q2.087 0 3.498.559 1.441.529 2.176 1.852.765 1.293.765 3.587v9.115h-4.91l-.853-3.146-.412-.588v-5.41q-.03-.764-.412-1.118-.353-.352-1.323-.352-1.146 0-2.822.029-1.647.03-3.529.118l-.558-3.911a32 32 0 0 1 2.646-.353 56 56 0 0 1 3.087-.264 35 35 0 0 1 2.647-.118m4.057 6.086-.03 2.97h-6.086q-.558 0-.852.265-.265.235-.265.647v.47q0 .382.294.647.325.264.94.264.706 0 1.471-.323.765-.353 1.47-.882.706-.529 1.206-1.088v1.882a11 11 0 0 1-.647 1.264q-.441.765-1.206 1.53-.735.764-1.852 1.293-1.088.5-2.617.5a6.75 6.75 0 0 1-2.529-.47q-1.147-.471-1.852-1.383-.676-.94-.676-2.322v-1.47q0-1.765 1.294-2.764 1.323-1.03 3.557-1.03zM107.453 49.469q4.352 0 4.352 4.116v10.997h-6.175v-9.027q0-.5-.235-.676-.235-.206-.824-.206-.558 0-1.264.088-.677.09-1.793.47l-.294-3.028q1.47-1.38 3.087-2.058 1.617-.675 3.146-.676m-6.616.412.765 2.999.558.352v11.35h-6.174V49.881zM130.743 49.88l-4.675 14.29a13 13 0 0 1-1.117 2.5 8.1 8.1 0 0 1-1.882 2.293q-1.147 1.029-2.823 1.44-1.675.442-3.969-.029l-.412-3.322q1.823-.382 2.881-1.03 1.089-.615 1.647-1.852l1.088-2.352q.324-.735.559-1.882.264-1.145.411-1.94l1.735-8.115zm-11.291 0 1.735 8.116q.117.675.206 1.382.088.705.176 1.382h.882l-1.911 3.822h-1.352q-.707 0-1.235-.382a2.2 2.2 0 0 1-.706-1.059l-4.352-13.26zM7.204 66v15.23q0 .56.353.824.381.235 1.117.235h1l.676 3.94q-.441.265-1.264.412-.795.176-1.647.264a14 14 0 0 1-1.411.089q-2.323 0-3.646-1.088t-1.323-3.029V66zM19.3 71.469q3 0 4.793.764 1.822.736 2.617 2.44.793 1.707.793 4.588 0 2.823-.793 4.498-.795 1.677-2.617 2.44-1.794.736-4.793.736t-4.822-.735q-1.794-.765-2.617-2.44-.794-1.677-.794-4.5 0-2.881.794-4.586.823-1.705 2.617-2.44 1.823-.765 4.822-.765m0 4.175q-.705 0-1.088.294-.382.265-.53 1.03-.146.763-.146 2.293 0 1.47.147 2.234.146.736.53 1 .382.264 1.087.265.705 0 1.088-.265.382-.264.5-1 .147-.765.147-2.234 0-1.53-.147-2.294-.118-.764-.5-1.029-.383-.294-1.088-.294M36.746 71.469q2.763 0 4.41.47 1.647.442 2.382 1.47.735 1 .735 2.706 0 1.704-.735 2.734-.706 1-2.382 1.47-1.647.441-4.44.441-2.763 0-4.44-.44-1.675-.471-2.41-1.47-.736-1.03-.736-2.735 0-1.706.735-2.705.766-1.03 2.44-1.47 1.677-.471 4.44-.471m-.03 3.381q-1.087 0-1.47.265-.382.235-.382 1 0 .764.382 1.029.383.264 1.47.264 1.089 0 1.441-.264.382-.265.382-1.03 0-.763-.382-1-.353-.263-1.44-.264m9.233-2.97-.294 2.265-4.117.705-1.087-2.97zM32.04 79.938l2.852.5q-.323.06-.47.44a.76.76 0 0 0 .059.707q.205.353.882.411l5.351.353q2.529.177 3.617 1.323 1.088 1.118 1.088 3.293 0 2.087-.883 3.147-.882 1.058-2.763 1.41-1.852.383-4.852.383-2.646 0-4.293-.235-1.646-.236-2.558-.735-.911-.47-1.264-1.265-.324-.794-.324-1.94 0-.912.353-1.588.383-.705 1.353-1.235.97-.559 2.764-.97l2.528-.559 2 .765-.941.5q-.882.617-1.382.94-.5.294-.706.53-.206.205-.206.676 0 .382.206.588.236.205.794.265.588.088 1.588.088 1.117 0 1.735-.059.616-.06.852-.235a.59.59 0 0 0 .236-.5q0-.382-.236-.53-.235-.175-.764-.235a13 13 0 0 0-1.294-.147l-3.999-.294q-1.323-.117-2.087-.647-.765-.558-1.059-1.323a3.4 3.4 0 0 1-.147-1.587q.147-.794.647-1.412a2.54 2.54 0 0 1 1.323-.823M54.82 71.469q2.998 0 4.792.764 1.822.736 2.617 2.44.794 1.707.794 4.588 0 2.823-.794 4.498-.795 1.677-2.617 2.44-1.794.736-4.793.736t-4.822-.735q-1.794-.765-2.617-2.44-.794-1.677-.794-4.5 0-2.881.794-4.586.823-1.705 2.617-2.44 1.823-.765 4.822-.765m0 4.175q-.706 0-1.089.294-.382.265-.53 1.03-.146.763-.146 2.293 0 1.47.147 2.234.147.736.53 1 .382.264 1.087.265.705 0 1.088-.265.383-.264.5-1 .147-.765.147-2.234 0-1.53-.147-2.294-.117-.764-.5-1.029-.382-.294-1.088-.294"/></svg>