<svg xmlns="http://www.w3.org/2000/svg" width="181" height="78" fill="none" viewBox="0 0 181 78"><path fill="#18191B" d="M3.678 57.742h26.177v2.994H0v-2.994l25.406-37.297H.77v-3.08h28.315v3.08zM58.702 16.339c12.147 0 21.129 10.265 20.359 24.294h-38.41c.77 9.923 8.64 18.135 18.992 18.135 6.843 0 11.548-2.908 14.97-7.014l2.737 1.796c-4.363 5.39-10.265 8.298-17.707 8.298-13.003 0-22.07-10.265-22.07-22.755 0-12.318 8.554-22.754 21.129-22.754m-18.05 21.215h35.244c-.513-10.266-7.614-18.136-17.194-18.136-10.094 0-17.366 8.213-18.05 18.136M108.009 3.08c-7.442 0-11.633 3.165-11.633 12.831v1.454h11.633v3.08H96.376v40.29H93.38v-40.29h-7.784v-3.08h7.785v-1.454C93.382 8.725 95.948 0 108.009 0zM148.484 17.365h3.336l-25.149 59.88h-3.337l8.042-19.16-19.077-40.72h3.422l17.28 36.955zM163.878 27.374c2.909-6.843 8.554-11.035 16.168-11.035v3.764c-10.608 0-16.168 7.613-16.168 18.563v22.07h-3.079v-43.37h3.079z"/></svg>