<svg width="104" height="88" viewBox="0 0 104 88" fill="none" xmlns="http://www.w3.org/2000/svg">
<path d="M12.6154 3.00623C13.5101 3.00623 14.2617 3.3999 14.8701 4.18724C15.4785 4.97459 16.2658 6.60296 17.2321 9.07236C19.4868 14.9059 21.6878 24.0498 23.8351 36.5042C23.8709 36.6473 23.8888 36.8621 23.8888 37.1484C23.8888 37.3989 23.7098 37.6852 23.3519 38.0073C23.0298 38.2936 22.5467 38.4368 21.9025 38.4368C21.2941 38.4368 20.7752 38.2936 20.3457 38.0073C19.9163 37.6852 19.6299 37.1842 19.4868 36.5042C19.3436 35.7884 19.0752 34.4106 18.6816 32.3706C17.8226 27.8255 17.25 25.4635 16.9637 25.2845C16.5342 25.034 15.1027 24.7656 12.6691 24.4793C10.2713 24.193 8.67869 24.0498 7.89135 24.0498C7.104 24.0498 6.63875 24.1214 6.4956 24.2645C5.85141 24.8372 4.97459 29.1855 3.86515 37.3094C3.722 37.9894 3.04202 38.3294 1.82521 38.3294C0.608403 38.3294 0 37.8105 0 36.7726C0 34.1958 0.948393 29.2749 2.84518 22.0099C4.74197 14.7448 6.31665 9.93129 7.56925 7.56925C9.14394 4.52723 10.826 3.00623 12.6154 3.00623ZM12.4007 8.965C11.8639 8.965 10.9334 10.5576 9.60919 13.7428C8.28502 16.8921 7.62293 18.8426 7.62293 19.5942C7.62293 19.7731 7.65872 19.8984 7.7303 19.9699C8.0166 20.2562 9.14394 20.5068 11.1123 20.7215C13.0807 20.9362 14.3869 21.0436 15.0311 21.0436C15.6753 21.0436 16.0332 21.0078 16.1048 20.9362C16.1764 20.8289 16.2122 20.5425 16.2122 20.0773C16.2122 19.5763 15.729 17.6079 14.7627 14.1722C13.7964 10.7007 13.0091 8.965 12.4007 8.965Z" fill="#18191B"/>
<path d="M34.2646 0.805238C34.8372 0.375779 35.3204 0.143154 35.714 0.107364C36.1435 0.0357879 37.0919 0 38.5592 0C40.0623 0 41.297 0.214731 42.2633 0.644193C43.2296 1.07365 43.7127 1.93257 43.7127 3.22096C43.7127 4.50934 43.1938 5.15353 42.156 5.15353C41.9412 5.15353 41.3328 4.97459 40.3307 4.61671C39.3287 4.22303 38.6845 4.0262 38.3982 4.0262C37.1456 4.0262 36.394 4.77775 36.1435 6.28087C36.0719 6.81769 36.0361 7.92713 36.0361 9.60919C36.0361 11.2555 36.0361 12.6154 36.0361 13.6891H39.7939C41.3686 13.7606 42.156 14.3154 42.156 15.3532C42.156 16.8563 41.0823 17.6437 38.935 17.7153C38.6129 17.7511 38.2192 17.7689 37.754 17.7689C37.2887 17.7689 36.7519 17.7511 36.1435 17.7153C36.2151 19.1468 36.3761 21.7057 36.6266 25.3919C36.8772 29.0423 37.0024 32.6032 37.0024 36.0747C37.0024 36.7905 36.7161 37.3631 36.1435 37.7926C35.5709 38.222 34.9804 38.4368 34.372 38.4368C33.4057 38.4368 32.9225 37.8641 32.9225 36.7189C32.9225 33.498 32.7973 30.3665 32.5468 27.3245C32.2962 24.2824 32.1173 21.0794 32.0099 17.7153C28.789 17.7153 26.9101 17.3932 26.3733 16.749C26.1585 16.4985 26.0512 16.1764 26.0512 15.7827C26.0512 14.8522 26.4269 14.2438 27.1785 13.9575C27.9658 13.6712 28.8606 13.528 29.8626 13.528C30.8647 13.528 31.5805 13.528 32.0099 13.528C32.1173 7.69451 32.4394 4.07988 32.9762 2.68413C33.2983 1.82521 33.7278 1.19891 34.2646 0.805238Z" fill="#18191B"/>
<path d="M47.598 13.3133L50.2822 13.367C50.8906 13.367 51.2306 13.3491 51.3021 13.3133V2.30835C51.3379 1.69995 51.6421 1.18102 52.2147 0.751557C52.7873 0.322095 53.3242 0.107364 53.8252 0.107364C54.3262 0.107364 54.7199 0.268412 55.0062 0.590508C55.3283 0.912603 55.4715 1.41364 55.4357 2.09362C55.3999 2.7736 55.382 6.4956 55.382 13.2596L61.6629 13.0449C62.7365 13.0449 63.2734 13.6712 63.2734 14.9238C63.2734 15.8543 62.987 16.5521 62.4144 17.0174C61.8776 17.4826 61.2871 17.7332 60.6429 17.7689C60.0345 17.8047 59.4261 17.8226 58.8177 17.8226L55.5431 17.7689C55.5431 19.2363 55.6862 22.1351 55.9725 26.4655C56.2946 30.7959 56.5451 33.6053 56.7241 34.8937C56.903 36.1463 56.9388 36.9694 56.8314 37.3631C56.7241 37.721 56.5272 37.9715 56.2409 38.1147C55.7757 38.3294 55.1494 38.4368 54.362 38.4368C53.5747 38.4368 53.1094 38.0073 52.9663 37.1484C52.2505 32.4601 51.7674 26.0182 51.5169 17.8226C51.1948 17.8584 49.9601 17.8763 47.8128 17.8763C45.6655 17.8763 44.5918 17.25 44.5918 15.9974C44.5918 14.208 45.5939 13.3133 47.598 13.3133Z" fill="#18191B"/>
<path d="M72.4397 13.528C74.3364 13.528 76.1438 14.0827 77.8616 15.1922C79.5794 16.3016 80.4384 17.6795 80.4384 19.3257C80.4384 20.9362 79.7405 22.5109 78.3447 24.0498C76.949 25.5529 75.088 26.4655 72.7618 26.7876C71.7597 26.9308 70.2566 27.0024 68.2524 27.0024C68.6461 30.0444 69.4155 32.0485 70.5608 33.0148C70.9187 33.4085 71.4018 33.6053 72.0102 33.6053C74.2291 33.6053 76.0901 32.9074 77.5932 31.5117C79.0963 30.0802 80.17 29.3644 80.8141 29.3644C81.1005 29.3644 81.5299 29.6328 82.1025 30.1696C82.6751 30.7065 82.9615 31.2075 82.9615 31.6727C82.9615 32.6032 81.8341 33.9453 79.5794 35.6989C78.5774 36.5221 77.3606 37.2199 75.929 37.7926C74.5333 38.3294 73.227 38.5978 72.0102 38.5978C68.8966 38.5978 66.6061 36.5937 65.1388 32.5854C64.2083 30.1159 63.7431 27.396 63.7431 24.4256C63.7431 21.4552 64.441 18.8963 65.8367 16.749C67.2324 14.6017 69.4334 13.528 72.4397 13.528ZM72.7081 17.2321C71.3481 17.2321 70.185 18.0016 69.2187 19.5405C68.8608 20.0773 68.5208 21.2941 68.1987 23.1909C73.2091 23.1909 75.7143 21.9562 75.7143 19.4868C75.7143 17.9837 74.7122 17.2321 72.7081 17.2321Z" fill="#18191B"/>
<path d="M93.0236 30.5454L93.0773 36.0747C93.0773 36.7189 92.7731 37.3094 92.1647 37.8462C91.5921 38.3831 91.0194 38.6515 90.4468 38.6515C89.6237 38.6515 89.1048 38.0073 88.89 36.7189C88.8542 36.4326 88.7111 33.8201 88.4606 28.8813C88.21 23.9067 87.7269 20.0057 87.0111 17.1784C86.689 15.8185 86.528 15.0132 86.528 14.7627C86.528 13.5817 87.2438 12.9912 88.6753 12.9912C89.2837 12.9912 89.7668 13.2238 90.1247 13.6891C90.4826 14.1543 90.6973 14.6375 90.7689 15.1385C90.8763 15.6037 90.9658 16.2479 91.0373 17.0711C91.1089 17.8942 91.1626 18.4131 91.1984 18.6279C91.9499 16.8384 93.0773 15.4964 94.5804 14.6017C96.0835 13.707 97.7298 13.2596 99.5192 13.2596C102.454 13.2596 103.921 14.0112 103.921 15.5143C103.921 16.2658 103.653 16.8742 103.116 17.3395C102.615 17.7689 102.024 17.9837 101.344 17.9837C98.3024 17.9837 96.1551 18.95 94.9025 20.8825C93.6499 22.8151 93.0236 26.0361 93.0236 30.5454Z" fill="#18191B"/>
<path d="M29.5791 51.5768C30.3307 51.5768 30.8496 52.1136 31.1359 53.1872C30.9212 56.8019 30.6886 59.3786 30.438 60.9175C30.1875 62.4207 29.9728 63.7448 29.7939 64.8901C29.6507 66.0353 29.5433 66.8226 29.4718 67.2521C29.436 67.6816 29.2928 68.5584 29.0423 69.8825C28.7918 71.2067 28.5234 72.5309 28.2371 73.8551C27.9865 75.1434 27.8255 75.9129 27.7539 76.1634C27.7181 76.4139 27.396 78.0244 26.7876 80.9948C26.1792 83.9295 25.714 85.7368 25.3919 86.4168C25.1056 87.061 24.5866 87.3831 23.8351 87.3831C23.1193 87.3831 22.5467 87.1683 22.1172 86.7389C20.471 84.4842 18.9142 81.6927 17.4469 78.3644C17.089 77.5055 16.6774 76.575 16.2122 75.5729C15.7827 74.5708 15.4606 73.8193 15.2459 73.3182L14.7627 72.1909C14.0112 73.4793 12.9733 75.6624 11.6491 78.7402C10.325 81.818 9.16183 84.2874 8.15976 86.1484C7.51557 86.9715 6.7998 87.3831 6.01245 87.3831C4.36619 87.3831 3.11359 82.999 2.25467 74.2308C2.25467 74.195 2.21888 73.9982 2.1473 73.6403C2.11152 73.2824 2.03994 72.6561 1.93257 71.7614C1.861 70.8667 1.75363 69.8825 1.61048 68.8089C1.50311 67.6994 1.05576 63.1722 0.268413 55.2272C0.268413 54.5114 0.536826 53.8672 1.07365 53.2946C1.61048 52.6862 2.20099 52.382 2.84518 52.382C3.63252 52.382 4.16935 52.9009 4.45566 53.9388C5.42194 65.57 6.38823 74.1593 7.35452 79.7065C7.64083 79.2054 8.37449 77.5592 9.55551 74.7677C10.7365 71.9404 11.8102 69.7036 12.7765 68.0573C13.7428 66.3753 14.6732 65.5342 15.568 65.5342C16.1764 65.5342 16.6953 65.8563 17.1248 66.5005C19.3794 72.9067 21.312 77.416 22.9225 80.0286C22.9583 79.6349 23.173 78.5612 23.5667 76.8076L24.2645 73.3719C24.2645 73.1572 24.3003 72.853 24.3719 72.4593C24.4793 72.0656 24.5509 71.6899 24.5866 71.332C24.6582 70.9383 24.7298 70.5804 24.8014 70.2583L25.3919 66.8763C26.2508 61.5796 26.7876 57.2313 27.0024 53.8314C27.1455 53.223 27.4676 52.7041 27.9686 52.2746C28.5055 51.8094 29.0423 51.5768 29.5791 51.5768Z" fill="#18191B"/>
<path d="M43.3332 62.367C45.91 62.367 48.0215 63.6017 49.6677 66.0711C51.3498 68.5405 52.1908 71.5109 52.1908 74.9824C52.1908 78.4181 51.3319 81.3527 49.6141 83.7863C47.932 86.22 45.6773 87.4368 42.8501 87.4368C40.0586 87.4368 37.8039 86.2021 36.086 83.7327C34.3682 81.2275 33.5093 78.4539 33.5093 75.4118C33.5093 71.5109 34.2966 68.3973 35.8713 66.0711C37.5534 63.6017 40.0407 62.367 43.3332 62.367ZM42.689 66.769C41.1859 66.769 39.9512 67.5563 38.9849 69.131C38.0186 70.7057 37.5355 72.3698 37.5355 74.1235C37.5355 76.8434 38.0723 78.9191 39.146 80.3506C40.2196 81.7822 41.4364 82.498 42.7964 82.498C45.23 82.498 46.7868 81.4422 47.4668 79.3307C47.7531 78.3286 47.8962 77.076 47.8962 75.5729C47.8962 69.7036 46.1605 66.769 42.689 66.769Z" fill="#18191B"/>
<path d="M62.4077 79.5454L62.4614 85.0747C62.4614 85.7189 62.1572 86.3094 61.5488 86.8462C60.9762 87.3831 60.4036 87.6515 59.831 87.6515C59.0078 87.6515 58.4889 87.0073 58.2742 85.7189C58.2384 85.4326 58.0952 82.82 57.8447 77.8812C57.5942 72.9067 57.111 69.0057 56.3953 66.1784C56.0732 64.8185 55.9121 64.0132 55.9121 63.7627C55.9121 62.5817 56.6279 61.9912 58.0594 61.9912C58.6678 61.9912 59.151 62.2238 59.5089 62.6891C59.8667 63.1543 60.0815 63.6375 60.153 64.1385C60.2604 64.6037 60.3499 65.2479 60.4215 66.0711C60.493 66.8942 60.5467 67.4131 60.5825 67.6279C61.3341 65.8384 62.4614 64.4964 63.9645 63.6017C65.4676 62.707 67.1139 62.2596 68.9033 62.2596C71.838 62.2596 73.3053 63.0112 73.3053 64.5143C73.3053 65.2658 73.0369 65.8742 72.5001 66.3395C71.999 66.7689 71.4085 66.9837 70.7285 66.9837C67.6865 66.9837 65.5392 67.95 64.2866 69.8825C63.034 71.8151 62.4077 75.0361 62.4077 79.5454Z" fill="#18191B"/>
<path d="M95.3026 84.9674C95.3026 86.6494 94.5331 87.4904 92.9942 87.4904C92.35 87.4904 91.4732 85.9157 90.3638 82.7664C89.2543 79.5812 87.7691 77.1297 85.9081 75.4118C85.7292 75.6624 84.9597 76.3781 83.5998 77.5592C82.2756 78.7044 81.4883 79.4023 81.2377 79.6528V85.021C81.1662 85.5579 81.0767 85.9694 80.9693 86.2557C80.862 86.542 80.6114 86.8105 80.2178 87.061C79.8599 87.3115 79.3588 87.4368 78.7147 87.4368C77.7484 87.4368 77.2652 86.8462 77.2652 85.6652C77.2652 82.3369 77.1221 77.1834 76.8358 70.2046C76.5495 63.1901 76.4063 56.9092 76.4063 51.362C76.4063 50.6821 76.6747 50.1452 77.2115 49.7516C77.7842 49.3579 78.3747 49.161 78.9831 49.161C79.8062 49.161 80.3072 49.68 80.4862 50.7178V60.2197C80.4862 61.3649 80.5041 62.2238 80.5399 62.7964C80.5757 63.369 80.6114 64.228 80.6472 65.3732C80.7188 67.7352 80.8441 70.4015 81.023 73.3719C82.0609 72.5846 83.385 71.3499 84.9955 69.6678C86.6418 67.95 87.8765 66.4826 88.6996 65.2658C89.988 63.2259 91.169 62.2059 92.2427 62.2059C92.529 62.2059 92.8153 62.2775 93.1016 62.4207C93.8532 62.8501 94.2289 63.3512 94.2289 63.9238C94.2289 64.4964 93.9784 65.2479 93.4774 66.1784C92.189 68.3973 90.7038 70.4194 89.0217 72.2446C90.6322 74.034 92.2427 76.5929 93.8531 79.9212C94.8194 82.0685 95.3026 83.7505 95.3026 84.9674Z" fill="#18191B"/>
</svg>
