<svg width="296" height="54" viewBox="0 0 296 54" fill="none" xmlns="http://www.w3.org/2000/svg">
<path d="M9.12605 4.88512C11.5597 2.91676 13.2596 1.93257 14.2259 1.93257C15.228 1.93257 16.8027 2.88097 18.95 4.77775C21.1331 6.63875 22.493 7.96292 23.0298 8.75027C23.5667 9.50182 23.8351 10.7544 23.8351 12.508C23.8351 14.2617 23.5667 15.5859 23.0298 16.4806C22.493 17.3395 21.5088 18.4489 20.0773 19.8089C22.332 21.6699 23.9246 23.2267 24.8551 24.4793C25.2487 25.1235 25.4456 26.3403 25.4456 28.1297C25.4456 29.8833 25.2487 31.0286 24.8551 31.5654C24.2109 32.9611 22.6541 34.7506 20.1847 36.9336C17.7153 39.0809 15.7648 40.1546 14.3333 40.1546H3.22096V17.1784C3.22096 14.2796 3.00623 12.2396 2.57677 11.0586C2.18309 9.8776 1.32417 8.48185 0 6.87138L7.08611 1.93257C7.94503 2.64834 8.62501 3.63252 9.12605 4.88512ZM10.6292 23.8351V33.659H14.3333C14.7985 33.659 15.3711 33.3011 16.0511 32.5854C16.7311 31.8338 17.2142 31.1896 17.5005 30.6528C17.8226 30.0802 17.9837 28.9349 17.9837 27.2171C17.9837 26.0361 17.089 24.9087 15.2995 23.8351H10.6292ZM10.6292 14.0648V17.8763H13.367C13.7606 17.8763 14.2438 17.5363 14.8164 16.8563C15.4248 16.1406 15.8364 15.5143 16.0511 14.9775C16.2658 14.4406 16.3732 13.7964 16.3732 13.0449C16.3732 12.2933 16.0153 11.4523 15.2995 10.5218C14.5838 9.5555 13.9217 9.07236 13.3133 9.07236C12.7049 9.07236 11.7565 9.30499 10.4681 9.77024C10.5755 11.166 10.6292 12.5975 10.6292 14.0648Z" fill="#18191B"/>
<path d="M38.7148 40.1546H31.6287V21.6341C31.6287 19.8089 31.3961 18.3952 30.9308 17.3932C30.5014 16.3553 29.8393 15.4606 28.9446 14.709L34.8497 10.5755C36.138 11.6491 37.1222 12.9017 37.8022 14.3333C40.4506 11.8281 42.3115 10.5755 43.3852 10.5755C44.101 10.5755 45.1925 11.2376 46.6598 12.5617C48.1272 13.8859 48.9861 15.3353 49.2366 16.91L43.4926 21.0436C43.4568 20.1847 43.242 19.3436 42.8484 18.5205C42.4905 17.6974 42.1684 17.2858 41.8821 17.2858C41.2737 17.2858 40.2179 18.0374 38.7148 19.5405V40.1546Z" fill="#18191B"/>
<path d="M70.6996 11.2197V33.2295C70.9143 34.4821 71.7553 35.5916 73.2227 36.5579L68.3912 40.6914C67.926 40.3693 67.3534 39.7967 66.6734 38.9736C65.9934 38.1504 65.4208 37.3094 64.9555 36.4505C61.9851 39.3494 59.9094 40.7988 58.7284 40.7988C57.8694 40.7988 56.4737 39.8504 54.5411 37.9536C52.6443 36.0568 51.4633 34.5179 50.9981 33.3369C50.5328 32.1559 50.3002 29.6149 50.3002 25.714C50.3002 21.7772 50.5328 19.2184 50.9981 18.0374C51.4633 16.8563 52.6443 15.3174 54.5411 13.4207C56.4737 11.5239 57.8694 10.5755 58.7284 10.5755C59.981 10.5755 62.003 11.8639 64.7945 14.4406L65.4387 11.2197H70.6996ZM63.2377 19.4331C62.9872 18.9679 62.4683 18.5026 61.6809 18.0374C60.9294 17.5363 60.3567 17.2858 59.9631 17.2858C59.5694 17.2858 59.1399 17.5184 58.6747 17.9837C58.2452 18.4489 57.9589 18.8784 57.8158 19.2721C57.3505 19.9163 57.1179 22.0636 57.1179 25.714C57.1179 29.3286 57.3505 31.458 57.8158 32.1022C57.9589 32.4601 58.2452 32.8896 58.6747 33.3906C59.1399 33.8558 59.5694 34.0885 59.9631 34.0885C60.3567 34.0885 60.9294 33.8558 61.6809 33.3906C62.4683 32.8896 62.9693 32.4422 63.184 32.0485C63.4345 31.6549 63.5777 29.5612 63.6135 25.7677C63.6135 21.9741 63.4882 19.8626 63.2377 19.4331Z" fill="#18191B"/>
<path d="M76.158 11.2197H83.2441V29.7939C83.2441 31.6191 83.4589 33.0327 83.8883 34.0348C84.3178 35.0369 84.9978 35.9137 85.9283 36.6652L80.0232 40.7988C77.4464 38.7589 76.158 35.86 76.158 32.1022V11.2197ZM79.8084 0C80.2021 0 81.0789 0.590509 82.4389 1.77153C83.7988 2.91676 84.4788 3.7041 84.4788 4.13356C84.4788 4.52723 83.7809 5.31458 82.3852 6.4956C81.0252 7.67661 80.1484 8.26712 79.7548 8.26712C79.3969 8.26712 78.5379 7.69451 77.178 6.54928C75.818 5.36826 75.138 4.58092 75.138 4.18724C75.138 3.75778 75.818 2.95254 77.178 1.77153C78.5737 0.590509 79.4505 0 79.8084 0Z" fill="#18191B"/>
<path d="M96.4865 40.1546H89.4004V21.6341C89.4004 19.8089 89.1857 18.3952 88.7562 17.3932C88.3268 16.3911 87.6468 15.5143 86.7163 14.7627L92.6214 10.6292C93.9456 11.7028 94.9297 12.9375 95.5739 14.3333C98.2223 11.8281 100.083 10.5755 101.157 10.5755C102.266 10.5755 103.913 11.5776 106.096 13.5817C108.315 15.5501 109.424 17.5005 109.424 19.4331V29.7939C109.424 31.6191 109.639 33.0327 110.068 34.0348C110.498 35.0369 111.178 35.9137 112.108 36.6652L106.203 40.7988C103.626 38.7589 102.338 35.86 102.338 32.1022V20.1847C102.338 19.5763 102.016 18.95 101.372 18.3058C100.727 17.6258 100.119 17.2858 99.5464 17.2858C99.0096 17.2858 97.9896 18.0374 96.4865 19.5405V40.1546Z" fill="#18191B"/>
<path d="M133.685 31.458C133.685 32.5675 132.307 34.4106 129.551 36.9873C126.796 39.5283 124.738 40.7988 123.378 40.7988C122.054 40.7988 120.389 40.1367 118.385 38.8125C116.417 37.4884 114.95 35.9316 113.983 34.1421L119.513 30.3307C121.302 32.8359 122.608 34.0885 123.431 34.0885C124.04 34.0885 124.791 33.7843 125.686 33.1759C126.581 32.5675 127.028 31.9948 127.028 31.458C127.028 31.3149 126.599 31.0107 125.74 30.5454C124.881 30.0444 123.825 29.436 122.573 28.7202C121.356 27.9686 120.139 27.1455 118.922 26.2508C117.705 25.3203 116.667 24.193 115.809 22.8688C114.95 21.5446 114.52 20.2026 114.52 18.8426C114.52 17.4826 115.737 15.7648 118.171 13.6891C120.604 11.6133 122.465 10.5755 123.754 10.5755C125.078 10.5755 126.724 11.2376 128.692 12.5617C130.696 13.8859 132.182 15.4427 133.148 17.2321L127.619 21.0436C125.829 18.5384 124.523 17.2858 123.7 17.2858C123.27 17.2858 122.734 17.5363 122.089 18.0374C121.481 18.5026 121.177 18.9321 121.177 19.3257C121.177 19.7194 121.821 20.3278 123.109 21.151C124.434 21.9741 125.865 22.833 127.404 23.7277C128.979 24.5866 130.41 25.7319 131.699 27.1634C133.023 28.5592 133.685 29.9907 133.685 31.458Z" fill="#18191B"/>
<path d="M145.346 16.8563V28.7202C145.346 30.4023 145.919 31.9412 147.064 33.3369C148.209 34.7327 149.784 35.8421 151.788 36.6652L145.883 40.7988C143.736 39.7967 141.928 38.4189 140.461 36.6652C138.994 34.8758 138.26 32.9969 138.26 31.0286V16.8563H135.576V12.8301L138.26 12.186C138.188 10.4323 137.974 9.05447 137.616 8.05239C137.258 7.01453 136.578 6.01245 135.576 5.04616L141.481 0.912606C144.058 2.95254 145.346 5.85141 145.346 9.60919V11.2197H151.359V16.8563H145.346Z" fill="#18191B"/>
<path d="M163.426 33.82C163.999 34.3569 164.446 34.6253 164.768 34.6253C165.09 34.6253 165.52 34.3569 166.057 33.82C166.629 33.2832 167.041 32.8001 167.291 32.3706C167.757 31.5833 167.989 29.3644 167.989 25.714C167.989 22.0636 167.757 19.8268 167.291 19.0036C167.041 18.5742 166.629 18.091 166.057 17.5542C165.52 17.0174 165.09 16.749 164.768 16.749C164.446 16.749 163.999 17.0174 163.426 17.5542C162.889 18.091 162.496 18.5742 162.245 19.0036C161.78 19.791 161.547 22.0099 161.547 25.6603C161.547 29.3107 161.78 31.5475 162.245 32.3706C162.496 32.8001 162.889 33.2832 163.426 33.82ZM169.6 38.1683C167.417 39.922 165.806 40.7988 164.768 40.7988C163.73 40.7988 162.102 39.922 159.883 38.1683C157.7 36.4147 156.358 35.1084 155.857 34.2495C155.105 32.9253 154.73 30.0623 154.73 25.6603C154.73 21.2583 155.105 18.4131 155.857 17.1248C156.358 16.2658 157.7 14.9596 159.883 13.2059C162.102 11.4523 163.73 10.5755 164.768 10.5755C165.806 10.5755 167.417 11.4523 169.6 13.2059C171.819 14.9596 173.179 16.2658 173.68 17.1248C174.431 18.4131 174.807 21.2583 174.807 25.6603C174.807 30.0623 174.431 32.9253 173.68 34.2495C173.179 35.1084 171.819 36.4147 169.6 38.1683Z" fill="#18191B"/>
<path d="M186.971 40.1546H179.885V21.6341C179.885 19.8089 179.652 18.3952 179.187 17.3932C178.758 16.3553 178.096 15.4606 177.201 14.709L183.106 10.5755C184.394 11.6491 185.379 12.9017 186.059 14.3333C188.707 11.8281 190.568 10.5755 191.641 10.5755C192.357 10.5755 193.449 11.2376 194.916 12.5617C196.383 13.8859 197.242 15.3353 197.493 16.91L191.749 21.0436C191.713 20.1847 191.498 19.3436 191.105 18.5205C190.747 17.6974 190.425 17.2858 190.138 17.2858C189.53 17.2858 188.474 18.0374 186.971 19.5405V40.1546Z" fill="#18191B"/>
<path d="M219.385 40.1546H212.299V20.1847C212.299 19.5763 211.977 18.95 211.333 18.3058C210.689 17.6258 210.134 17.2858 209.669 17.2858C209.239 17.2858 208.524 17.7153 207.521 18.5742V40.1546H200.435V21.6341C200.435 19.8089 200.221 18.3952 199.791 17.3932C199.362 16.3911 198.682 15.5143 197.751 14.7627L203.656 10.6292C204.837 11.6312 205.714 12.6512 206.287 13.6891C208.613 11.6133 210.224 10.5755 211.118 10.5755C211.655 10.5755 212.532 10.9691 213.749 11.7565C214.965 12.5438 216.075 13.4922 217.077 14.6017C219.904 11.9175 221.855 10.5755 222.928 10.5755C224.038 10.5755 225.684 11.5776 227.867 13.5817C230.086 15.5501 231.196 17.5005 231.196 19.4331V29.7939C231.196 31.6191 231.41 33.0327 231.84 34.0348C232.269 35.0369 232.949 35.9137 233.88 36.6652L227.975 40.7988C225.398 38.7589 224.109 35.86 224.109 32.1022V20.1847C224.109 19.5763 223.787 18.95 223.143 18.3058C222.499 17.6258 221.962 17.2858 221.533 17.2858C221.139 17.2858 220.387 17.7332 219.278 18.6279C219.35 18.9858 219.385 19.2542 219.385 19.4331V40.1546Z" fill="#18191B"/>
<path d="M236.839 11.2197H243.925V29.7939C243.925 31.6191 244.14 33.0327 244.569 34.0348C244.999 35.0369 245.679 35.9137 246.609 36.6652L240.704 40.7988C238.127 38.7589 236.839 35.86 236.839 32.1022V11.2197ZM240.489 0C240.883 0 241.76 0.590509 243.12 1.77153C244.48 2.91676 245.16 3.7041 245.16 4.13356C245.16 4.52723 244.462 5.31458 243.066 6.4956C241.706 7.67661 240.829 8.26712 240.436 8.26712C240.078 8.26712 239.219 7.69451 237.859 6.54928C236.499 5.36826 235.819 4.58092 235.819 4.18724C235.819 3.75778 236.499 2.95254 237.859 1.77153C239.255 0.590509 240.131 0 240.489 0Z" fill="#18191B"/>
<path d="M257.167 40.1546H250.081V21.6341C250.081 19.8089 249.867 18.3952 249.437 17.3932C249.008 16.3911 248.328 15.5143 247.397 14.7627L253.302 10.6292C254.626 11.7028 255.611 12.9375 256.255 14.3333C258.903 11.8281 260.764 10.5755 261.838 10.5755C262.947 10.5755 264.594 11.5776 266.777 13.5817C268.995 15.5501 270.105 17.5005 270.105 19.4331V29.7939C270.105 31.6191 270.32 33.0327 270.749 34.0348C271.179 35.0369 271.859 35.9137 272.789 36.6652L266.884 40.7988C264.307 38.7589 263.019 35.86 263.019 32.1022V20.1847C263.019 19.5763 262.697 18.95 262.053 18.3058C261.408 17.6258 260.8 17.2858 260.227 17.2858C259.69 17.2858 258.671 18.0374 257.167 19.5405V40.1546Z" fill="#18191B"/>
<path d="M287.816 19.3257C287.566 18.8963 287.065 18.4489 286.313 17.9837C285.562 17.5184 284.989 17.2858 284.595 17.2858C284.202 17.2858 283.772 17.5184 283.307 17.9837C282.878 18.4489 282.591 18.8784 282.448 19.2721C282.162 19.8447 282.019 21.6341 282.019 24.6403C282.019 27.6465 282.162 29.4181 282.448 29.9549C282.591 30.3128 282.878 30.7422 283.307 31.2433C283.772 31.7085 284.202 31.9412 284.595 31.9412C284.989 31.9412 285.562 31.7085 286.313 31.2433C287.101 30.7422 287.62 30.2949 287.87 29.9012C288.121 29.4718 288.246 27.7181 288.246 24.6403C288.246 21.5267 288.103 19.7552 287.816 19.3257ZM295.225 11.2197V38.3831C295.225 42.964 295.01 45.6839 294.58 46.5428C294.187 47.4375 292.755 48.8333 290.286 50.7301C287.816 52.6269 285.955 53.5753 284.703 53.5753C283.486 53.5753 281.947 52.949 280.086 51.6964C278.225 50.4796 276.829 49.0659 275.899 47.4554L281.428 43.644L281.965 44.3418C283.289 46.0239 284.202 46.8649 284.703 46.8649C285.24 46.8649 285.83 46.6323 286.474 46.1671C287.154 45.7018 287.602 45.2008 287.816 44.6639C288.067 44.1629 288.192 41.9798 288.192 38.1147L288.353 36.021C285.92 37.7747 284.255 38.6515 283.361 38.6515C282.502 38.6515 281.124 37.7031 279.227 35.8063C277.33 33.9095 276.185 32.4959 275.792 31.5654C275.398 30.6349 275.201 28.3265 275.201 24.6403C275.201 20.9541 275.398 18.6458 275.792 17.7153C276.185 16.749 277.33 15.3174 279.227 13.4207C281.124 11.5239 282.573 10.5755 283.576 10.5755C284.578 10.5755 286.492 11.7207 289.32 14.0112L289.964 11.2197H295.225Z" fill="#18191B"/>
</svg>
