<svg width="193" height="79" viewBox="0 0 193 79" fill="none" xmlns="http://www.w3.org/2000/svg">
<path d="M16.2474 5.49357C15.3848 5.11178 14.0839 4.92088 12.3446 4.92088C10.6054 4.92088 9.19838 5.67033 8.1237 7.16922C7.04902 8.66811 6.51169 11.3053 6.51169 15.0808C6.51169 18.8422 7.02781 21.5147 8.06007 23.0985C9.09232 24.6822 10.6195 25.4741 12.6416 25.4741C15.7383 25.4741 18.5169 25.0074 20.9774 24.0742L22.547 27.9345C19.4785 29.7586 15.8727 30.6707 11.7295 30.6707C7.58636 30.6707 4.59565 29.497 2.75739 27.1497C0.919131 24.8307 0 20.9986 0 15.6535C0 10.3225 1.13831 6.38442 3.41492 3.83914C5.69154 1.27971 8.88022 0 12.981 0C16.2898 0 19.4361 0.919131 22.4197 2.75739V3.73308C22.4197 4.05832 22.3702 4.5603 22.2712 5.23904C22.1864 5.90365 22.0521 6.6036 21.8682 7.3389C21.6986 8.06007 21.4864 8.67518 21.2319 9.18424H17.117C16.707 8.37823 16.4171 7.14801 16.2474 5.49357Z" fill="#18191B"/>
<path d="M45.4545 18.9412C45.4545 21.7693 44.9738 24.0459 44.0122 25.771C43.0507 27.482 41.7427 28.7264 40.0882 29.5041C38.4479 30.2677 36.5955 30.6495 34.531 30.6495C31.307 30.6495 28.8254 29.794 27.0861 28.083C25.3609 26.3578 24.4984 23.4661 24.4984 19.4078C24.4984 15.7596 25.4528 12.9951 27.3618 11.1144C29.2849 9.21959 31.908 8.27217 35.231 8.27217C38.6247 8.27217 41.177 9.10646 42.888 10.775C44.599 12.4436 45.4545 15.1657 45.4545 18.9412ZM30.8192 19.3017C30.8192 23.9257 32.212 26.2376 34.9977 26.2376C36.4117 26.2376 37.4581 25.7144 38.1368 24.6681C38.8156 23.6075 39.155 21.8753 39.155 19.4714C39.155 14.9606 37.7338 12.7052 34.8916 12.7052C33.5058 12.7052 32.4807 13.2072 31.8161 14.2112C31.1515 15.201 30.8192 16.8979 30.8192 19.3017Z" fill="#18191B"/>
<path d="M47.6392 11.9628L48.0635 8.61155C49.6189 8.25803 51.0542 8.08128 52.3692 8.08128C53.0056 8.08128 53.5853 8.09542 54.1085 8.1237C54.6458 8.13784 55.1266 8.15905 55.5508 8.18733V10.3508C56.272 9.74278 57.2336 9.24787 58.4355 8.86608C59.6374 8.47014 60.7899 8.27217 61.8928 8.27217C63.7877 8.27217 65.2936 8.56205 66.4107 9.14181C67.5278 9.70743 68.3338 10.6407 68.8287 11.9416C69.3237 13.2426 69.5711 14.9818 69.5711 17.1595V25.5165C70.7024 25.9407 71.5013 26.4285 71.9679 26.98L71.5225 30.3313H61.5323L61.108 26.98C61.504 26.4285 62.3029 25.9407 63.5049 25.5165V16.9049C63.5049 15.3353 63.2503 14.2889 62.7413 13.7657C62.3453 13.3415 61.7726 13.087 61.0232 13.0022C60.2738 12.9032 59.4607 12.9668 58.584 13.1931C57.7073 13.4193 56.88 13.8011 56.1023 14.3384V25.5165C57.2336 25.9407 58.0325 26.4285 58.4991 26.98L58.0749 30.3313H48.0635L47.6392 26.98C48.0352 26.4285 48.8341 25.9407 50.0361 25.5165V13.4264C49.0038 13.087 48.2049 12.5992 47.6392 11.9628Z" fill="#18191B"/>
<path d="M78.2039 3.13918H81.3643V8.61155H87.579V12.2598H81.3643V23.2469C81.3643 24.1943 81.4986 24.866 81.7673 25.262C81.9652 25.573 82.3329 25.771 82.8702 25.8559C83.4217 25.9266 84.051 25.9053 84.758 25.7922C85.465 25.6791 86.1437 25.4953 86.7942 25.2407L88.1093 28.6345C85.8751 29.7657 83.5914 30.3313 81.2582 30.3313C78.925 30.3313 77.3484 29.8364 76.5282 28.8466C75.7081 27.8426 75.298 26.3861 75.298 24.4772V12.2598H73.3466L72.8588 9.60845C73.3254 9.05697 74.2799 8.50549 75.7222 7.95401C76.0899 5.56428 76.9171 3.95933 78.2039 3.13918Z" fill="#18191B"/>
<path d="M89.7213 11.9628L90.1455 8.61155C91.7858 8.22975 93.2988 8.03886 94.6846 8.03886C95.3775 8.03886 96.0138 8.053 96.5936 8.08128C97.1733 8.09542 97.7036 8.13077 98.1844 8.18733V25.5165C99.3156 25.9407 100.115 26.4285 100.581 26.98L100.157 30.3313H90.1455L89.7213 26.98C90.1172 26.4285 90.9162 25.9407 92.1181 25.5165V13.4264C91.0858 13.087 90.2869 12.5992 89.7213 11.9628Z" fill="#18191B"/>
<path d="M102.32 11.9628L102.745 8.61155C104.3 8.25803 105.735 8.08128 107.05 8.08128C107.687 8.08128 108.267 8.09542 108.79 8.1237C109.327 8.13784 109.808 8.15905 110.232 8.18733V10.3508C110.953 9.74278 111.915 9.24787 113.117 8.86608C114.319 8.47014 115.471 8.27217 116.574 8.27217C118.469 8.27217 119.975 8.56205 121.092 9.14181C122.209 9.70743 123.015 10.6407 123.51 11.9416C124.005 13.2426 124.252 14.9818 124.252 17.1595V25.5165C125.384 25.9407 126.182 26.4285 126.649 26.98L126.204 30.3313H116.213L115.789 26.98C116.185 26.4285 116.984 25.9407 118.186 25.5165V16.9049C118.186 15.3353 117.932 14.2889 117.422 13.7657C117.027 13.3415 116.454 13.087 115.704 13.0022C114.955 12.9032 114.142 12.9668 113.265 13.1931C112.388 13.4193 111.561 13.8011 110.784 14.3384V25.5165C111.915 25.9407 112.714 26.4285 113.18 26.98L112.756 30.3313H102.745L102.32 26.98C102.716 26.4285 103.515 25.9407 104.717 25.5165V13.4264C103.685 13.087 102.886 12.5992 102.32 11.9628Z" fill="#18191B"/>
<path d="M144.169 28.5072C142.175 29.9495 139.828 30.6707 137.127 30.6707C134.412 30.6707 132.517 30.1121 131.443 28.995C130.382 27.8638 129.852 26.0185 129.852 23.459V13.4264C128.82 13.087 128.021 12.5992 127.455 11.9628L127.879 8.61155C129.52 8.22975 131.033 8.03886 132.418 8.03886C133.111 8.03886 133.748 8.053 134.327 8.08128C134.907 8.09542 135.437 8.13077 135.918 8.18733V22.0379C135.918 23.6075 136.159 24.6398 136.639 25.1347C137.021 25.5306 137.615 25.7781 138.421 25.8771C139.227 25.9619 140.083 25.8912 140.988 25.665C141.907 25.4387 142.727 25.0569 143.448 24.5196V13.4264C142.416 13.087 141.617 12.5992 141.051 11.9628L141.497 8.61155C143.109 8.22975 144.615 8.03886 146.014 8.03886C146.707 8.03886 147.344 8.053 147.923 8.08128C148.503 8.09542 149.033 8.13077 149.514 8.18733V25.1135C150.518 25.3256 151.317 25.573 151.911 25.8559V29.292C150.158 30.2111 147.973 30.6707 145.357 30.6707C144.622 30.1616 144.226 29.4405 144.169 28.5072Z" fill="#18191B"/>
<path d="M164.128 30.6707C160.65 30.6707 158.034 29.7445 156.28 27.8921C154.527 26.0397 153.65 23.3459 153.65 19.8108C153.65 17.6756 153.954 15.8373 154.562 14.296C155.17 12.7406 155.998 11.5386 157.044 10.6902C159.066 9.07818 161.428 8.27217 164.128 8.27217C165.924 8.27217 167.437 8.56913 168.668 9.16302C169.912 9.74278 170.852 10.7255 171.489 12.1113C172.139 13.4829 172.464 15.3566 172.464 17.7322C172.464 19.8249 171.432 20.8713 169.367 20.8713H159.95C160.063 22.6955 160.53 23.9822 161.35 24.7317C162.184 25.4811 163.499 25.8559 165.295 25.8559C166.271 25.8559 167.204 25.7427 168.095 25.5165C169 25.2761 169.657 25.0428 170.067 24.8165L170.683 24.4772L171.976 27.9345C171.821 28.1183 171.573 28.3729 171.234 28.6981C171.008 28.9102 170.548 29.1718 169.855 29.4829C169.162 29.794 168.314 30.0697 167.31 30.3101C166.32 30.5505 165.26 30.6707 164.128 30.6707ZM159.992 17.2655L166.865 16.9898C166.921 16.6363 166.949 16.1484 166.949 15.5262C166.949 14.9465 166.716 14.3314 166.25 13.6809C165.783 13.0304 164.977 12.7052 163.831 12.7052C162.686 12.7052 161.809 13.0517 161.201 13.7445C160.593 14.4374 160.19 15.6111 159.992 17.2655Z" fill="#18191B"/>
<path d="M183.367 12.1749C181.458 12.1749 180.503 12.7406 180.503 13.8718C180.503 14.9465 181.507 15.7383 183.515 16.2474L186.93 17.1595C190.465 18.0927 192.233 20.136 192.233 23.2894C192.233 25.4528 191.476 27.2275 189.963 28.6132C189.199 29.292 188.174 29.801 186.888 30.1404C185.601 30.4656 184.215 30.6424 182.73 30.6707C181.26 30.699 179.831 30.5929 178.446 30.3525C177.06 30.1121 175.893 29.7586 174.946 29.292C174.932 29.1364 174.918 28.9809 174.903 28.8253C174.903 28.6557 174.903 28.493 174.903 28.3375C174.903 26.7396 175.222 25.3044 175.858 24.0317H179.464C179.86 24.7529 180.107 25.4741 180.206 26.1952C180.758 26.379 181.585 26.471 182.688 26.471C185.233 26.471 186.506 25.7427 186.506 24.2863C186.506 23.8338 186.336 23.452 185.997 23.1409C185.629 22.8439 184.943 22.547 183.939 22.25L180.503 21.2531C178.736 20.7582 177.357 20.03 176.367 19.0684C175.391 18.0927 174.903 16.6575 174.903 14.7627C174.903 12.8537 175.674 11.2982 177.215 10.0963C177.979 9.48826 178.934 9.03576 180.079 8.73881C181.238 8.44186 182.476 8.28632 183.791 8.27217C185.106 8.24389 186.393 8.34288 187.651 8.56913C188.91 8.78123 190.034 9.09939 191.024 9.52361C191.038 9.66501 191.045 9.80642 191.045 9.94782C191.059 10.0892 191.066 10.2377 191.066 10.3932C191.066 11.878 190.748 13.2708 190.112 14.5718H186.548C186.152 13.8789 185.905 13.1789 185.806 12.4719C184.971 12.2739 184.158 12.1749 183.367 12.1749Z" fill="#18191B"/>
<path d="M17.2019 61.3773L20.4047 61.7803V69.3313H0.509057L0.0848428 65.7255C0.466636 65.2306 1.26557 64.7498 2.48165 64.2832V44.4299C1.27971 44.0057 0.480776 43.5179 0.0848428 42.9664L0.509057 39.3606H10.6902L11.1144 42.9664C10.6478 43.5179 9.85591 44.0057 8.73881 44.4299V64.6013H15.5899C15.9717 63.0741 16.509 61.9995 17.2019 61.3773Z" fill="#18191B"/>
<path d="M32.0706 69.6707C28.592 69.6707 25.976 68.7445 24.2226 66.8921C22.4692 65.0397 21.5925 62.3459 21.5925 58.8108C21.5925 56.6756 21.8965 54.8373 22.5046 53.296C23.1126 51.7406 23.9398 50.5386 24.9862 49.6902C27.0083 48.0782 29.3698 47.2722 32.0706 47.2722C33.8664 47.2722 35.3795 47.5691 36.6097 48.163C37.854 48.7428 38.7944 49.7255 39.4307 51.1113C40.0812 52.4829 40.4064 54.3566 40.4064 56.7322C40.4064 58.8249 39.3741 59.8713 37.3096 59.8713H27.8921C28.0052 61.6955 28.4718 62.9822 29.292 63.7317C30.1263 64.4811 31.4413 64.8559 33.2372 64.8559C34.2129 64.8559 35.1461 64.7427 36.037 64.5165C36.942 64.2761 37.5995 64.0428 38.0096 63.8165L38.6247 63.4772L39.9185 66.9345C39.763 67.1183 39.5155 67.3729 39.1762 67.6981C38.9499 67.9102 38.4904 68.1718 37.7975 68.4829C37.1046 68.794 36.2562 69.0697 35.2522 69.3101C34.2624 69.5505 33.2018 69.6707 32.0706 69.6707ZM27.9345 56.2655L34.8068 55.9898C34.8633 55.6363 34.8916 55.1484 34.8916 54.5262C34.8916 53.9465 34.6583 53.3314 34.1917 52.6809C33.725 52.0304 32.919 51.7052 31.7736 51.7052C30.6283 51.7052 29.7515 52.0517 29.1435 52.7445C28.5355 53.4374 28.1325 54.6111 27.9345 56.2655Z" fill="#18191B"/>
<path d="M43.5032 50.8356C43.5032 50.6093 43.5032 50.3831 43.5032 50.1568C43.5173 49.9164 43.5314 49.6761 43.5456 49.4357C46.2464 47.9933 49.1452 47.2722 52.242 47.2722C55.3387 47.2722 57.5588 47.859 58.9021 49.0327C60.2455 50.2063 60.9171 52.1506 60.9171 54.8656V64.1135C61.9211 64.3256 62.7201 64.573 63.314 64.8559V68.6314C61.8716 69.3242 59.7576 69.6707 56.972 69.6707C56.675 68.893 56.4275 67.9809 56.2296 66.9345C54.9852 68.7586 52.7298 69.6707 49.4634 69.6707C48.1766 69.6707 46.9959 69.4162 45.9212 68.9071C44.8606 68.398 44.0122 67.6769 43.3759 66.7436C42.7396 65.7962 42.4214 64.672 42.4214 63.3711C42.4214 61.4339 43.0648 59.9138 44.3516 58.8108C45.6384 57.6937 47.5544 57.1352 50.0997 57.1352H54.8509V55.0353C54.8509 52.7728 53.6489 51.6416 51.2451 51.6416C50.3118 51.6416 49.5694 51.7335 49.0179 51.9173C48.9472 53.1475 48.7776 54.0879 48.5089 54.7383H44.2455C43.7506 53.7061 43.5032 52.4052 43.5032 50.8356ZM51.3299 65.2376C52.8147 65.2376 53.9883 64.8064 54.8509 63.9438V60.3804H51.7965C49.7179 60.3804 48.6786 61.1793 48.6786 62.7772C48.6786 63.4984 48.8977 64.0923 49.3361 64.5589C49.7886 65.0114 50.4532 65.2376 51.3299 65.2376Z" fill="#18191B"/>
<path d="M77.8857 52.9566C75.7081 52.9566 74.188 53.3738 73.3254 54.2081V64.1559C75.701 64.6084 77.313 65.2164 78.1614 65.98L77.716 69.3313H65.2866L64.8623 65.98C65.2583 65.4285 66.0572 64.9407 67.2591 64.5165V52.4264C66.2269 52.087 65.428 51.5992 64.8623 50.9628L65.2866 47.6115C66.842 47.258 68.2773 47.0813 69.5923 47.0813C70.2286 47.0813 70.8084 47.0954 71.3316 47.1237C71.8689 47.1378 72.3497 47.1591 72.7739 47.1873V49.9235C73.4385 49.1316 74.294 48.4812 75.3404 47.9721C76.2171 47.5621 77.0938 47.3217 77.9706 47.251C78.8473 47.1803 79.5048 47.2439 79.9431 47.4419L79.8159 53.0839C79.2503 52.9991 78.6069 52.9566 77.8857 52.9566Z" fill="#18191B"/>
<path d="M81.7036 50.9628L82.1279 47.6115C83.6833 47.258 85.1186 47.0813 86.4336 47.0813C87.0699 47.0813 87.6497 47.0954 88.1729 47.1237C88.7102 47.1378 89.191 47.1591 89.6152 47.1873V49.3508C90.3364 48.7428 91.2979 48.2479 92.4999 47.8661C93.7018 47.4701 94.8543 47.2722 95.9572 47.2722C97.8521 47.2722 99.358 47.5621 100.475 48.1418C101.592 48.7074 102.398 49.6407 102.893 50.9416C103.388 52.2426 103.636 53.9818 103.636 56.1595V64.5165C104.767 64.9407 105.566 65.4285 106.032 65.98L105.587 69.3313H95.5966L95.1724 65.98C95.5684 65.4285 96.3673 64.9407 97.5692 64.5165V55.9049C97.5692 54.3353 97.3147 53.2889 96.8057 52.7657C96.4097 52.3415 95.837 52.087 95.0876 52.0022C94.3381 51.9032 93.5251 51.9668 92.6484 52.1931C91.7717 52.4193 90.9444 52.8011 90.1667 53.3384V64.5165C91.2979 64.9407 92.0969 65.4285 92.5635 65.98L92.1393 69.3313H82.1279L81.7036 65.98C82.0996 65.4285 82.8985 64.9407 84.1004 64.5165V52.4264C83.0682 52.087 82.2693 51.5992 81.7036 50.9628Z" fill="#18191B"/>
<path d="M107.623 50.9628L108.047 47.6115C109.688 47.2298 111.201 47.0389 112.586 47.0389C113.279 47.0389 113.916 47.053 114.495 47.0813C115.075 47.0954 115.605 47.1308 116.086 47.1873V64.5165C117.217 64.9407 118.016 65.4285 118.483 65.98L118.059 69.3313H108.047L107.623 65.98C108.019 65.4285 108.818 64.9407 110.02 64.5165V52.4264C108.988 52.087 108.189 51.5992 107.623 50.9628Z" fill="#18191B"/>
<path d="M120.222 50.9628L120.646 47.6115C122.202 47.258 123.637 47.0813 124.952 47.0813C125.589 47.0813 126.168 47.0954 126.692 47.1237C127.229 47.1378 127.71 47.1591 128.134 47.1873V49.3508C128.855 48.7428 129.817 48.2479 131.019 47.8661C132.22 47.4701 133.373 47.2722 134.476 47.2722C136.371 47.2722 137.877 47.5621 138.994 48.1418C140.111 48.7074 140.917 49.6407 141.412 50.9416C141.907 52.2426 142.154 53.9818 142.154 56.1595V64.5165C143.285 64.9407 144.084 65.4285 144.551 65.98L144.106 69.3313H134.115L133.691 65.98C134.087 65.4285 134.886 64.9407 136.088 64.5165V55.9049C136.088 54.3353 135.833 53.2889 135.324 52.7657C134.928 52.3415 134.356 52.087 133.606 52.0022C132.857 51.9032 132.044 51.9668 131.167 52.1931C130.29 52.4193 129.463 52.8011 128.685 53.3384V64.5165C129.817 64.9407 130.616 65.4285 131.082 65.98L130.658 69.3313H120.646L120.222 65.98C120.618 65.4285 121.417 64.9407 122.619 64.5165V52.4264C121.587 52.087 120.788 51.5992 120.222 50.9628Z" fill="#18191B"/>
<path d="M156.047 73.934C158.621 73.934 159.908 72.3857 159.908 69.2889V67.3799C158.493 68.2425 156.712 68.6738 154.562 68.6738C151.847 68.6738 149.755 67.8819 148.284 66.2982C146.828 64.7003 146.099 62.049 146.099 58.3442C146.099 50.9628 149.486 47.2722 156.259 47.2722C157.984 47.2722 159.611 47.6469 161.138 48.3963C161.406 47.8731 161.838 47.6115 162.432 47.6115H165.995V68.9919C165.995 72.1735 165.203 74.5279 163.619 76.0551C162.05 77.5964 159.611 78.3671 156.302 78.3671C155.142 78.3671 153.94 78.2752 152.696 78.0913C151.466 77.9075 150.32 77.653 149.26 77.3277C148.199 77.0025 147.351 76.6419 146.714 76.246C146.7 76.1046 146.686 75.9703 146.672 75.843C146.672 75.7157 146.672 75.5885 146.672 75.4612C146.672 73.8633 147.047 72.3291 147.796 70.8585H151.614C151.939 71.4665 152.173 72.2725 152.314 73.2765C153.403 73.7149 154.647 73.934 156.047 73.934ZM152.102 58.0896C152.102 60.239 152.399 61.752 152.993 62.6287C153.403 63.2226 154.011 63.6115 154.817 63.7953C155.623 63.9791 156.486 63.9791 157.405 63.7953C158.338 63.5973 159.172 63.2438 159.908 62.7348V52.4264C158.762 51.9456 157.504 51.7052 156.132 51.7052C153.445 51.7052 152.102 53.8334 152.102 58.0896Z" fill="#18191B"/>
</svg>
