<svg width="400" height="100" viewBox="0 0 400 100" fill="none" xmlns="http://www.w3.org/2000/svg">
<path d="M1.98626 38.6515V1.07365H25.204V6.57612H7.99871V17.3932H23.5935V22.7614H7.99871V38.6515H1.98626Z" fill="#18191B"/>
<path d="M32.348 38.6515V12.0786H38.2531V15.7558C39.2551 14.0917 40.4719 12.9286 41.9035 12.2665C43.335 11.5865 44.8739 11.2465 46.5202 11.2465C47.057 11.2465 47.567 11.2734 48.0501 11.327C48.5333 11.3807 48.9985 11.4612 49.4459 11.5686L48.6675 17.6616C48.1307 17.5005 47.5849 17.3753 47.0302 17.2858C46.4754 17.1963 45.9207 17.1516 45.366 17.1516C43.3082 17.1516 41.6082 17.7868 40.2662 19.0573C38.9241 20.3099 38.2531 22.0188 38.2531 24.184V38.6515H32.348Z" fill="#18191B"/>
<path d="M65.9743 39.4567C63.1112 39.4567 60.597 38.8752 58.4319 37.712C56.2667 36.531 54.5757 34.8848 53.3588 32.7732C52.1599 30.6617 51.5605 28.2102 51.5605 25.4187C51.5605 23.3788 51.9094 21.4999 52.6073 19.782C53.3052 18.0463 54.2893 16.5432 55.5598 15.2727C56.8303 14.0022 58.3155 13.018 60.0155 12.3202C61.7333 11.6223 63.6033 11.2733 65.6253 11.2733C67.8263 11.2733 69.7857 11.667 71.5036 12.4544C73.2214 13.2238 74.644 14.3064 75.7713 15.7022C76.9166 17.0979 77.7218 18.7352 78.1871 20.6141C78.6702 22.4751 78.7507 24.4972 78.4286 26.6803H57.224C57.1882 28.2728 57.5371 29.6686 58.2708 30.8675C59.0045 32.0485 60.0513 32.9701 61.4112 33.6322C62.7891 34.2942 64.4085 34.6253 66.2695 34.6253C67.7726 34.6253 69.2221 34.4016 70.6178 33.9543C72.0314 33.489 73.3109 32.809 74.4561 31.9143L76.7376 36.1552C75.8787 36.8531 74.8408 37.4526 73.624 37.9536C72.4072 38.4368 71.1367 38.8036 69.8126 39.0541C68.4884 39.3225 67.209 39.4567 65.9743 39.4567ZM57.5729 22.332H72.6309C72.5772 20.3278 71.933 18.7531 70.6983 17.6079C69.4815 16.4627 67.7458 15.8901 65.4911 15.8901C63.308 15.8901 61.4918 16.4627 60.0423 17.6079C58.6108 18.7531 57.7877 20.3278 57.5729 22.332Z" fill="#18191B"/>
<path d="M96.9571 39.4567C94.094 39.4567 91.5799 38.8752 89.4147 37.712C87.2495 36.531 85.5585 34.8848 84.3417 32.7732C83.1428 30.6617 82.5433 28.2102 82.5433 25.4187C82.5433 23.3788 82.8923 21.4999 83.5901 19.782C84.288 18.0463 85.2722 16.5432 86.5427 15.2727C87.8132 14.0022 89.2984 13.018 90.9983 12.3202C92.7162 11.6223 94.5861 11.2733 96.6082 11.2733C98.8091 11.2733 100.769 11.667 102.486 12.4544C104.204 13.2238 105.627 14.3064 106.754 15.7022C107.899 17.0979 108.705 18.7352 109.17 20.6141C109.653 22.4751 109.734 24.4972 109.411 26.6803H88.2068C88.171 28.2728 88.52 29.6686 89.2536 30.8675C89.9873 32.0485 91.0341 32.9701 92.3941 33.6322C93.7719 34.2942 95.3914 34.6253 97.2523 34.6253C98.7555 34.6253 100.205 34.4016 101.601 33.9543C103.014 33.489 104.294 32.809 105.439 31.9143L107.72 36.1552C106.862 36.8531 105.824 37.4526 104.607 37.9536C103.39 38.4368 102.12 38.8036 100.795 39.0541C99.4712 39.3225 98.1918 39.4567 96.9571 39.4567ZM88.5558 22.332H103.614C103.56 20.3278 102.916 18.7531 101.681 17.6079C100.464 16.4627 98.7286 15.8901 96.474 15.8901C94.2909 15.8901 92.4746 16.4627 91.0252 17.6079C89.5936 18.7531 88.7705 20.3278 88.5558 22.332Z" fill="#18191B"/>
<path d="M126.839 39.4567C124.245 39.4567 121.945 38.8483 119.941 37.6315C117.937 36.3968 116.362 34.7237 115.217 32.6122C114.09 30.4828 113.526 28.0671 113.526 25.365C113.526 23.4146 113.848 21.5894 114.492 19.8894C115.137 18.1716 116.049 16.6685 117.23 15.3801C118.429 14.0917 119.843 13.0896 121.471 12.3738C123.117 11.6402 124.934 11.2733 126.92 11.2733C129.336 11.2733 131.429 11.7565 133.201 12.7228C134.972 13.6891 136.449 15.0311 137.63 16.749L136.395 18.0642V0H142.3V38.6515H136.985V32.2633L137.844 33.6053C136.878 35.2874 135.491 36.6831 133.684 37.7926C131.895 38.902 129.613 39.4567 126.839 39.4567ZM127.913 34.2227C129.559 34.2227 131.018 33.8648 132.288 33.149C133.577 32.4154 134.588 31.3864 135.321 30.0623C136.055 28.7381 136.422 27.1724 136.422 25.365C136.422 23.5577 136.055 21.992 135.321 20.6678C134.588 19.3257 133.577 18.2968 132.288 17.5811C131.018 16.8653 129.559 16.5074 127.913 16.5074C126.267 16.5074 124.808 16.8653 123.538 17.5811C122.267 18.2968 121.265 19.3257 120.532 20.6678C119.798 21.992 119.431 23.5577 119.431 25.365C119.431 27.1724 119.798 28.7381 120.532 30.0623C121.265 31.3864 122.267 32.4154 123.538 33.149C124.826 33.8648 126.285 34.2227 127.913 34.2227Z" fill="#18191B"/>
<path d="M162.618 39.4567C159.844 39.4567 157.366 38.8215 155.183 37.551C153.018 36.2626 151.318 34.5537 150.083 32.4243C148.848 30.277 148.231 27.9239 148.231 25.365C148.231 23.4683 148.58 21.6788 149.278 19.9968C149.994 18.2968 150.996 16.7937 152.284 15.4874C153.59 14.1812 155.12 13.1522 156.874 12.4007C158.628 11.6491 160.551 11.2733 162.645 11.2733C165.419 11.2733 167.888 11.9175 170.053 13.2059C172.236 14.4764 173.945 16.1853 175.18 18.3326C176.414 20.462 177.032 22.8062 177.032 25.365C177.032 27.2439 176.674 29.0333 175.958 30.7333C175.26 32.4332 174.267 33.9364 172.979 35.2426C171.69 36.5489 170.169 37.5778 168.416 38.3294C166.662 39.0809 164.73 39.4567 162.618 39.4567ZM162.618 34.2227C164.264 34.2227 165.723 33.8648 166.993 33.149C168.282 32.4154 169.293 31.3864 170.026 30.0623C170.76 28.7381 171.127 27.1724 171.127 25.365C171.127 23.5577 170.76 21.992 170.026 20.6678C169.293 19.3257 168.282 18.2968 166.993 17.5811C165.723 16.8653 164.264 16.5074 162.618 16.5074C160.972 16.5074 159.504 16.8653 158.216 17.5811C156.946 18.2968 155.944 19.3257 155.21 20.6678C154.494 21.992 154.136 23.5577 154.136 25.365C154.136 27.1724 154.503 28.7381 155.237 30.0623C155.97 31.3864 156.972 32.4154 158.243 33.149C159.531 33.8648 160.99 34.2227 162.618 34.2227Z" fill="#18191B"/>
<path d="M182.963 38.6515V12.0786H188.868V15.729C189.584 14.6911 190.407 13.8501 191.338 13.2059C192.268 12.5438 193.253 12.0607 194.29 11.7565C195.328 11.4344 196.384 11.2733 197.458 11.2733C199.623 11.2733 201.421 11.7475 202.853 12.6959C204.302 13.6443 205.322 14.8611 205.913 16.3464C207.237 14.4138 208.776 13.0896 210.529 12.3738C212.283 11.6402 214.046 11.2733 215.817 11.2733C218.269 11.2733 220.228 11.7565 221.695 12.7228C223.163 13.6891 224.218 14.9327 224.863 16.4537C225.525 17.9747 225.856 19.5405 225.856 21.151V38.6515H219.951V22.8688C219.951 21.0257 219.441 19.5405 218.421 18.4131C217.419 17.2679 215.951 16.6953 214.019 16.6953C212.748 16.6953 211.612 16.9727 210.61 17.5274C209.608 18.0821 208.812 18.8515 208.221 19.8357C207.648 20.802 207.362 21.9204 207.362 23.1909V38.6515H201.457V22.8688C201.457 21.0257 200.956 19.5405 199.954 18.4131C198.952 17.2679 197.476 16.6953 195.525 16.6953C194.272 16.6953 193.136 16.9727 192.116 17.5274C191.114 18.0821 190.318 18.8515 189.727 19.8357C189.155 20.802 188.868 21.9204 188.868 23.1909V38.6515H182.963Z" fill="#18191B"/>
<path d="M12.1591 88.4567C9.77918 88.4567 7.67661 87.9915 5.85141 87.061C4.0262 86.1305 2.59466 84.851 1.5568 83.2227C0.518932 81.5943 0 79.7422 0 77.6665C0 76.1276 0.348937 74.6782 1.04681 73.3182C1.76258 71.9583 2.7736 70.7415 4.07988 69.6678C5.38616 68.5763 6.96085 67.6726 8.80395 66.9568C7.69451 65.8474 6.80875 64.8364 6.14666 63.9238C5.50247 62.9933 5.04617 62.0896 4.77775 61.2128C4.50934 60.336 4.37513 59.3786 4.37513 58.3408C4.37513 56.6766 4.83144 55.1556 5.74404 53.7778C6.67454 52.3999 7.90924 51.3084 9.44814 50.5031C10.987 49.68 12.6959 49.2684 14.5748 49.2684C16.5253 49.2684 18.27 49.6442 19.8089 50.3957C21.3478 51.1473 22.5556 52.1941 23.4325 53.5362C24.3272 54.8782 24.7745 56.4171 24.7745 58.1529C24.7745 60.1391 24.0677 61.9375 22.6541 63.548C21.2583 65.1406 19.2094 66.5811 16.5074 67.8694L24.5061 76.0829C25.5261 74.7766 26.4655 73.2914 27.3245 71.6272C28.2013 69.9452 29.0155 67.9679 29.767 65.6953L34.5448 67.6279C34.0616 69.0415 33.4622 70.4641 32.7464 71.8956C32.0306 73.3272 31.2433 74.705 30.3844 76.0292C29.5254 77.3534 28.6397 78.5523 27.7271 79.6259L35.2426 87.6515H28.3176L24.2377 83.3837C22.5199 84.9942 20.6052 86.2468 18.4937 87.1415C16.3821 88.0183 14.2706 88.4567 12.1591 88.4567ZM12.5349 83.4642C14.0738 83.4642 15.559 83.16 16.9905 82.5516C18.4221 81.9253 19.7463 80.9948 20.9631 79.7601L11.9175 70.3657C9.8955 71.0636 8.3387 72.0388 7.24715 73.2914C6.15561 74.544 5.60983 75.9487 5.60983 77.5055C5.60983 79.3128 6.22718 80.7622 7.46188 81.8538C8.71448 82.9274 10.4055 83.4642 12.5349 83.4642ZM13.4743 64.8364C15.4964 64.1027 17.0174 63.1991 18.0374 62.1254C19.0752 61.0339 19.5942 59.8349 19.5942 58.5287C19.5942 57.1508 19.1289 56.0324 18.1984 55.1735C17.2858 54.3146 16.1048 53.8851 14.6554 53.8851C13.2238 53.8851 12.0249 54.3056 11.0586 55.1467C10.1102 55.9877 9.63603 57.0703 9.63603 58.3945C9.63603 59.4502 9.92234 60.4612 10.495 61.4275C11.0855 62.3938 12.0786 63.5301 13.4743 64.8364Z" fill="#18191B"/>
<path d="M42.1958 87.6515V50.0737H56.3948C59.0074 50.0737 61.2621 50.53 63.1589 51.4426C65.0735 52.3373 66.5498 53.6167 67.5877 55.2809C68.6434 56.945 69.1713 58.9223 69.1713 61.2128C69.1713 63.0738 68.7687 64.7201 67.9635 66.1516C67.1761 67.5831 66.0667 68.7642 64.6351 69.6946C63.2036 70.6073 61.5484 71.2246 59.6695 71.5467L70.9965 87.6515H63.7225L53.3349 72.4861H48.2082V87.6515H42.1958ZM48.2082 67.4937H55.4017C57.8353 67.4937 59.7232 66.9747 61.0652 65.9369C62.4252 64.899 63.1052 63.4138 63.1052 61.4812C63.1052 59.495 62.4968 57.9471 61.28 56.8377C60.0811 55.7282 58.2648 55.1735 55.8312 55.1735H48.2082V67.4937Z" fill="#18191B"/>
<path d="M89.1983 88.4567C86.3352 88.4567 83.8211 87.8752 81.6559 86.712C79.4907 85.531 77.7997 83.8848 76.5829 81.7732C75.384 79.6617 74.7845 77.2102 74.7845 74.4187C74.7845 72.3788 75.1334 70.4999 75.8313 68.782C76.5292 67.0463 77.5134 65.5432 78.7839 64.2727C80.0543 63.0022 81.5396 62.018 83.2395 61.3202C84.9574 60.6223 86.8273 60.2733 88.8493 60.2733C91.0503 60.2733 93.0097 60.667 94.7276 61.4544C96.4454 62.2238 97.868 63.3064 98.9954 64.7022C100.141 66.0979 100.946 67.7352 101.411 69.6141C101.894 71.4751 101.975 73.4972 101.653 75.6803H80.448C80.4122 77.2728 80.7612 78.6686 81.4948 79.8675C82.2285 81.0485 83.2753 81.9701 84.6353 82.6322C86.0131 83.2942 87.6325 83.6253 89.4935 83.6253C90.9967 83.6253 92.4461 83.4016 93.8418 82.9543C95.2555 82.489 96.5349 81.809 97.6801 80.9143L99.9616 85.1552C99.1027 85.8531 98.0649 86.4526 96.8481 86.9536C95.6313 87.4368 94.3608 87.8036 93.0366 88.0541C91.7124 88.3225 90.433 88.4567 89.1983 88.4567ZM80.797 71.332H95.8549C95.8012 69.3278 95.1571 67.7531 93.9224 66.6079C92.7056 65.4627 90.9698 64.8901 88.7151 64.8901C86.532 64.8901 84.7158 65.4627 83.2664 66.6079C81.8348 67.7531 81.0117 69.3278 80.797 71.332Z" fill="#18191B"/>
<path d="M116.752 88.4299C114.551 88.4299 112.493 88.1167 110.578 87.4904C108.664 86.8641 107.053 86.0231 105.747 84.9674L107.975 80.6459C109.209 81.6122 110.596 82.3727 112.135 82.9274C113.692 83.4821 115.222 83.7595 116.725 83.7595C118.461 83.7595 119.812 83.4553 120.778 82.8469C121.744 82.2385 122.227 81.3885 122.227 80.297C122.227 79.2591 121.807 78.4986 120.966 78.0155C120.143 77.5144 118.568 76.9955 116.242 76.4587C112.896 75.7608 110.462 74.7766 108.941 73.5061C107.438 72.2177 106.686 70.4373 106.686 68.1647C106.686 66.5721 107.125 65.1674 108.001 63.9506C108.896 62.7159 110.122 61.7496 111.679 61.0517C113.236 60.3539 115.034 60.0049 117.074 60.0049C119.06 60.0049 120.93 60.2912 122.684 60.8639C124.437 61.4186 125.958 62.2059 127.247 63.2259L125.153 67.5742C124.491 66.9837 123.722 66.4737 122.845 66.0442C121.968 65.6148 121.037 65.2837 120.053 65.0511C119.087 64.8006 118.121 64.6753 117.154 64.6753C115.651 64.6753 114.425 64.9706 113.477 65.5611C112.547 66.1337 112.081 66.93 112.081 67.95C112.081 69.0057 112.529 69.7841 113.423 70.2852C114.318 70.7862 115.857 71.2872 118.04 71.7883C121.476 72.5398 123.936 73.5419 125.421 74.7945C126.907 76.0471 127.649 77.7828 127.649 80.0017C127.649 81.7017 127.193 83.1869 126.28 84.4574C125.368 85.71 124.088 86.6852 122.442 87.3831C120.814 88.0809 118.917 88.4299 116.752 88.4299Z" fill="#18191B"/>
<path d="M134.313 98.9248V61.0786H139.628V64.8095C140.684 63.4675 142.035 62.3759 143.681 61.5349C145.327 60.6939 147.358 60.2733 149.774 60.2733C152.369 60.2733 154.668 60.8907 156.672 62.1254C158.694 63.3422 160.269 65.0153 161.396 67.1447C162.524 69.2562 163.087 71.663 163.087 74.365C163.087 76.3155 162.765 78.1497 162.121 79.8675C161.477 81.5675 160.555 83.0616 159.356 84.35C158.175 85.6384 156.762 86.6494 155.115 87.3831C153.487 88.0988 151.68 88.4567 149.694 88.4567C147.618 88.4567 145.793 88.0809 144.218 87.3294C142.643 86.5778 141.301 85.5668 140.192 84.2963V98.9248H134.313ZM148.7 83.2227C150.347 83.2227 151.805 82.8648 153.076 82.149C154.364 81.4154 155.366 80.3864 156.082 79.0623C156.815 77.7381 157.182 76.1724 157.182 74.365C157.182 72.5577 156.815 70.992 156.082 69.6678C155.348 68.3257 154.337 67.2968 153.049 66.5811C151.778 65.8653 150.329 65.5074 148.7 65.5074C147.054 65.5074 145.587 65.8653 144.298 66.5811C143.028 67.2968 142.026 68.3257 141.292 69.6678C140.559 70.992 140.192 72.5577 140.192 74.365C140.192 76.1724 140.559 77.7381 141.292 79.0623C142.026 80.3864 143.028 81.4154 144.298 82.149C145.587 82.8648 147.054 83.2227 148.7 83.2227Z" fill="#18191B"/>
<path d="M181.386 88.4567C178.612 88.4567 176.134 87.8215 173.951 86.551C171.786 85.2626 170.086 83.5537 168.851 81.4243C167.616 79.277 166.999 76.9239 166.999 74.365C166.999 72.4683 167.348 70.6788 168.046 68.9968C168.762 67.2968 169.764 65.7937 171.052 64.4874C172.358 63.1812 173.888 62.1522 175.642 61.4007C177.396 60.6491 179.319 60.2733 181.413 60.2733C184.186 60.2733 186.656 60.9175 188.821 62.2059C191.004 63.4764 192.713 65.1853 193.948 67.3326C195.182 69.462 195.8 71.8062 195.8 74.365C195.8 76.2439 195.442 78.0333 194.726 79.7333C194.028 81.4332 193.035 82.9364 191.747 84.2426C190.458 85.5489 188.937 86.5778 187.184 87.3294C185.43 88.0809 183.498 88.4567 181.386 88.4567ZM181.386 83.2227C183.032 83.2227 184.491 82.8648 185.761 82.149C187.05 81.4154 188.061 80.3864 188.794 79.0623C189.528 77.7381 189.895 76.1724 189.895 74.365C189.895 72.5577 189.528 70.992 188.794 69.6678C188.061 68.3257 187.05 67.2968 185.761 66.5811C184.491 65.8653 183.032 65.5074 181.386 65.5074C179.74 65.5074 178.272 65.8653 176.984 66.5811C175.714 67.2968 174.711 68.3257 173.978 69.6678C173.262 70.992 172.904 72.5577 172.904 74.365C172.904 76.1724 173.271 77.7381 174.005 79.0623C174.738 80.3864 175.74 81.4154 177.011 82.149C178.299 82.8648 179.758 83.2227 181.386 83.2227Z" fill="#18191B"/>
<path d="M201.731 87.6515V61.0786H207.636V64.4606C208.746 62.9754 210.034 61.9107 211.502 61.2665C212.969 60.6044 214.49 60.2733 216.065 60.2733C218.498 60.2733 220.511 60.7565 222.104 61.7228C223.696 62.6891 224.877 63.9327 225.647 65.4537C226.434 66.9747 226.828 68.5405 226.828 70.151V87.6515H220.923V71.9762C220.923 70.0794 220.35 68.5584 219.205 67.4131C218.078 66.2679 216.503 65.6953 214.481 65.6953C213.157 65.6953 211.976 65.9905 210.938 66.5811C209.918 67.1716 209.113 67.9947 208.522 69.0505C207.932 70.0883 207.636 71.3051 207.636 72.7009V87.6515H201.731Z" fill="#18191B"/>
<path d="M243.724 88.4299C241.523 88.4299 239.465 88.1167 237.55 87.4904C235.636 86.8641 234.025 86.0231 232.719 84.9674L234.947 80.6459C236.181 81.6122 237.568 82.3727 239.107 82.9274C240.664 83.4821 242.194 83.7595 243.697 83.7595C245.433 83.7595 246.784 83.4553 247.75 82.8469C248.716 82.2385 249.199 81.3885 249.199 80.297C249.199 79.2591 248.779 78.4986 247.938 78.0155C247.115 77.5144 245.54 76.9955 243.214 76.4587C239.867 75.7608 237.434 74.7766 235.913 73.5061C234.41 72.2177 233.658 70.4373 233.658 68.1647C233.658 66.5721 234.097 65.1674 234.973 63.9506C235.868 62.7159 237.094 61.7496 238.651 61.0517C240.207 60.3539 242.006 60.0049 244.046 60.0049C246.032 60.0049 247.902 60.2912 249.656 60.8639C251.409 61.4186 252.93 62.2059 254.219 63.2259L252.125 67.5742C251.463 66.9837 250.693 66.4737 249.817 66.0442C248.94 65.6148 248.009 65.2837 247.025 65.0511C246.059 64.8006 245.093 64.6753 244.126 64.6753C242.623 64.6753 241.397 64.9706 240.449 65.5611C239.519 66.1337 239.053 66.93 239.053 67.95C239.053 69.0057 239.501 69.7841 240.395 70.2852C241.29 70.7862 242.829 71.2872 245.012 71.7883C248.448 72.5398 250.908 73.5419 252.393 74.7945C253.879 76.0471 254.621 77.7828 254.621 80.0017C254.621 81.7017 254.165 83.1869 253.252 84.4574C252.34 85.71 251.06 86.6852 249.414 87.3831C247.786 88.0809 245.889 88.4299 243.724 88.4299Z" fill="#18191B"/>
<path d="M261.285 87.6515V61.0786H267.191V87.6515H261.285ZM264.238 56.3277C263.182 56.3277 262.27 55.9877 261.5 55.3077C260.731 54.6277 260.346 53.733 260.346 52.6236C260.346 51.532 260.731 50.6463 261.5 49.9663C262.27 49.2684 263.182 48.9195 264.238 48.9195C265.294 48.9195 266.206 49.2684 266.976 49.9663C267.745 50.6463 268.13 51.532 268.13 52.6236C268.13 53.733 267.745 54.6277 266.976 55.3077C266.206 55.9877 265.294 56.3277 264.238 56.3277Z" fill="#18191B"/>
<path d="M290.848 88.4567C289.077 88.4567 287.475 88.1973 286.044 87.6783C284.63 87.1594 283.404 86.4436 282.366 85.531C281.328 84.6005 280.487 83.5358 279.843 82.3369L280.702 81.0217V87.6515H275.388V49H281.266V67.1984L280.058 65.8832C281.239 64.1653 282.715 62.8054 284.487 61.8033C286.258 60.7833 288.352 60.2733 290.768 60.2733C293.416 60.2733 295.742 60.9086 297.746 62.1791C299.769 63.4317 301.343 65.1227 302.471 67.2521C303.598 69.3815 304.162 71.7525 304.162 74.365C304.162 76.3871 303.83 78.257 303.168 79.9749C302.524 81.6927 301.612 83.1869 300.431 84.4574C299.25 85.71 297.845 86.6941 296.216 87.4099C294.588 88.1078 292.799 88.4567 290.848 88.4567ZM289.775 83.2227C291.403 83.2227 292.852 82.8648 294.123 82.149C295.411 81.4154 296.422 80.3864 297.156 79.0623C297.89 77.7381 298.256 76.1724 298.256 74.365C298.256 72.5577 297.89 70.992 297.156 69.6678C296.44 68.3257 295.438 67.2968 294.15 66.5811C292.879 65.8653 291.421 65.5074 289.775 65.5074C288.128 65.5074 286.661 65.8653 285.373 66.5811C284.102 67.2968 283.1 68.3257 282.366 69.6678C281.633 70.992 281.266 72.5577 281.266 74.365C281.266 76.1724 281.633 77.7381 282.366 79.0623C283.1 80.3864 284.102 81.4154 285.373 82.149C286.661 82.8648 288.128 83.2227 289.775 83.2227Z" fill="#18191B"/>
<path d="M310.093 87.6515V61.0786H315.998V87.6515H310.093ZM313.045 56.3277C311.989 56.3277 311.077 55.9877 310.307 55.3077C309.538 54.6277 309.153 53.733 309.153 52.6236C309.153 51.532 309.538 50.6463 310.307 49.9663C311.077 49.2684 311.989 48.9195 313.045 48.9195C314.101 48.9195 315.014 49.2684 315.783 49.9663C316.552 50.6463 316.937 51.532 316.937 52.6236C316.937 53.733 316.552 54.6277 315.783 55.3077C315.014 55.9877 314.101 56.3277 313.045 56.3277Z" fill="#18191B"/>
<path d="M324.195 87.6515V49H330.1V87.6515H324.195Z" fill="#18191B"/>
<path d="M338.297 87.6515V61.0786H344.202V87.6515H338.297ZM341.249 56.3277C340.194 56.3277 339.281 55.9877 338.512 55.3077C337.742 54.6277 337.357 53.733 337.357 52.6236C337.357 51.532 337.742 50.6463 338.512 49.9663C339.281 49.2684 340.194 48.9195 341.249 48.9195C342.305 48.9195 343.218 49.2684 343.987 49.9663C344.757 50.6463 345.141 51.532 345.141 52.6236C345.141 53.733 344.757 54.6277 343.987 55.3077C343.218 55.9877 342.305 56.3277 341.249 56.3277Z" fill="#18191B"/>
<path d="M363.565 88.4567C360.97 88.4567 358.895 87.7052 357.338 86.2021C355.781 84.6989 355.003 82.3995 355.003 79.3038V53.3214H360.908V61.0786H368.289V65.9637H360.908V78.0155C360.908 79.8765 361.257 81.1917 361.955 81.9611C362.67 82.7127 363.672 83.0885 364.961 83.0885C365.587 83.0885 366.178 83.0169 366.732 82.8737C367.287 82.7306 367.788 82.5427 368.235 82.3101L369.282 87.0878C368.513 87.4815 367.627 87.8036 366.625 88.0541C365.641 88.3225 364.621 88.4567 363.565 88.4567ZM349.178 65.9637V61.0786H355.781V65.9637H349.178Z" fill="#18191B"/>
<path d="M377.747 99.6764C376.781 99.6764 375.833 99.569 374.902 99.3543C373.972 99.1396 373.059 98.7727 372.164 98.2538L373.506 93.2076C374.061 93.5655 374.67 93.8339 375.332 94.0129C375.994 94.1918 376.584 94.2813 377.103 94.2813C378.356 94.2813 379.34 93.986 380.056 93.3955C380.771 92.805 381.335 91.8924 381.747 90.6577L382.632 88.0809L372.164 61.0786H378.633L385.988 81.6927L393.154 61.0786H399.408L387.92 91.4898C387.097 93.6192 386.176 95.2744 385.156 96.4554C384.136 97.6543 383.008 98.4864 381.774 98.9517C380.539 99.4348 379.197 99.6764 377.747 99.6764Z" fill="#18191B"/>
</svg>
