<svg width="186" height="105" viewBox="0 0 186 105" fill="none" xmlns="http://www.w3.org/2000/svg">
<path d="M5.82456 15.8793L4.75091 16.3299L0 15.4551V14.6068L5.09985 13.0692L6.38823 13.1488H17.3126L16.8832 15.8793H5.82456ZM9.15289 37.0074L13.6085 37.9618V38.7571H0.536826V37.9618L4.45566 37.0074V12.9897C4.45566 10.922 4.81354 9.08397 5.52931 7.47572C6.24508 5.84979 7.22031 4.48896 8.45501 3.39323C9.68971 2.27983 11.1034 1.44036 12.6959 0.874818C14.2885 0.291606 15.9706 0 17.7421 0C18.7084 0 19.5405 0.0795284 20.2383 0.238585C20.9362 0.397642 21.5178 0.618555 21.983 0.901325C22.4483 1.1841 22.7883 1.51105 23.003 1.88218C23.2356 2.23564 23.3519 2.62445 23.3519 3.0486C23.3519 3.72018 23.1283 4.3034 22.6809 4.79824C22.2336 5.27542 21.6699 5.514 20.9899 5.514C20.6678 5.514 20.2831 5.34611 19.8357 5.01032C19.3884 4.65686 18.8784 4.25921 18.3058 3.81739C17.7511 3.35788 17.1248 2.96024 16.4269 2.62445C15.7469 2.27099 15.0043 2.09426 14.1991 2.09426C13.1791 2.09426 12.2933 2.33285 11.5418 2.81002C10.7902 3.28719 10.1997 4.0383 9.77024 5.06334C9.35867 6.08838 9.15289 7.41386 9.15289 9.03978V37.0074Z" fill="#18191B"/>
<path d="M35.5769 12.7246C36.4 12.7246 37.0353 12.9455 37.4826 13.3874C37.93 13.8115 38.1537 14.4036 38.1537 15.1635C38.1537 16.0472 37.8674 16.7629 37.2947 17.3108C36.74 17.8587 36.0153 18.1326 35.1206 18.1326C34.7269 18.1326 34.3243 18.0796 33.9127 17.9735C33.5191 17.8498 33.0986 17.7349 32.6512 17.6289C32.2217 17.5052 31.7296 17.4433 31.1749 17.4433C30.6918 17.4433 30.2086 17.5229 29.7255 17.6819C29.2602 17.841 28.795 18.0619 28.3297 18.3447C27.8824 18.6274 27.435 18.9632 26.9877 19.352L26.7998 18.2651C28.0345 17.081 29.1081 16.1267 30.0207 15.4021C30.9334 14.6598 31.7207 14.1031 32.3828 13.732C33.0449 13.3432 33.6264 13.0781 34.1275 12.9367C34.6464 12.7953 35.1295 12.7246 35.5769 12.7246ZM27.3903 17.4964V37.0074L31.6849 37.9618V38.7571H18.8548V37.9618L22.7736 37.0074V17.7084C22.541 17.5317 22.2457 17.3373 21.8878 17.1252C21.5478 16.9131 21.1273 16.6746 20.6263 16.4095C20.1431 16.1267 19.5705 15.8174 18.9084 15.4816V14.9514L27.0145 12.433H27.2829L27.3903 17.4964Z" fill="#18191B"/>
<path d="M45.8089 7.07807C44.7352 7.07807 43.8763 6.72461 43.2321 6.01769C42.6058 5.31076 42.2927 4.4978 42.2927 3.5788C42.2927 2.6598 42.6058 1.87335 43.2321 1.21944C43.8763 0.565538 44.7352 0.238585 45.8089 0.238585C46.8646 0.238585 47.6967 0.565538 48.3051 1.21944C48.9314 1.87335 49.2446 2.6598 49.2446 3.5788C49.2446 4.4978 48.9314 5.31076 48.3051 6.01769C47.6967 6.72461 46.8646 7.07807 45.8089 7.07807ZM48.5199 12.433L48.4662 17.3108V37.0074L52.4118 37.9618V38.7571H39.9575V37.9618L43.8763 37.0074V17.6024C43.6795 17.4433 43.3753 17.2401 42.9637 16.9927C42.57 16.7453 42.1137 16.4713 41.5948 16.1709C41.0759 15.8704 40.539 15.5877 39.9843 15.3226V14.7128L48.2783 12.433H48.5199Z" fill="#18191B"/>
<path d="M67.4396 12.6186C69.2648 12.6186 70.8485 13.0074 72.1905 13.785C73.5505 14.545 74.6331 15.6672 75.4383 17.1517C76.2436 18.6363 76.7267 20.4566 76.8878 22.6127H59.5751L59.602 20.9956L74.0694 20.7836L72.0832 21.8439C71.9221 20.165 71.6179 18.76 71.1706 17.6289C70.7411 16.4802 70.1685 15.623 69.4527 15.0575C68.737 14.4919 67.8423 14.2092 66.7686 14.2092C65.3907 14.2092 64.1918 14.598 63.1719 15.3756C62.1698 16.1532 61.3914 17.2843 60.8367 18.7688C60.2998 20.2534 60.0314 22.056 60.0314 24.1768C60.0314 26.7924 60.4162 28.9574 61.1856 30.6716C61.9729 32.3859 63.0913 33.6584 64.5408 34.489C66.0081 35.302 67.7617 35.7085 69.8017 35.7085C70.6785 35.7085 71.5374 35.5936 72.3784 35.3638C73.2374 35.1164 74.0515 34.763 74.821 34.3035C75.5904 33.8263 76.2704 33.2342 76.8609 32.5273L77.3709 32.978C76.333 34.4979 75.2862 35.7261 74.2305 36.6628C73.1747 37.5818 72.0653 38.2534 70.9022 38.6776C69.739 39.084 68.4775 39.2873 67.1175 39.2873C64.8808 39.2873 62.8677 38.7748 61.0782 37.7497C59.2888 36.7247 57.8752 35.2578 56.8373 33.3491C55.8173 31.4227 55.3074 29.0987 55.3074 26.3771C55.3074 23.8852 55.7816 21.5965 56.7299 19.5111C57.6962 17.4257 59.083 15.7556 60.8904 14.5008C62.7156 13.246 64.8987 12.6186 67.4396 12.6186Z" fill="#18191B"/>
<path d="M88.5696 17.4964V37.0074L92.5153 37.9618V38.7571H80.0341V37.9618L83.9529 37.0074V17.7084C83.6666 17.4787 83.255 17.2136 82.7182 16.9131C82.1814 16.595 81.3046 16.1179 80.0878 15.4816V14.9514L88.0328 12.433H88.2744L88.5696 17.4964ZM96.7562 37.9618L100.702 37.0074V21.4728C100.702 20.3771 100.496 19.4492 100.085 18.6893C99.673 17.9117 99.0467 17.3285 98.2056 16.9397C97.3646 16.5508 96.291 16.3564 94.9847 16.3564C93.571 16.3564 92.2379 16.5685 90.9853 16.9927C89.7327 17.4168 88.7486 17.894 88.0328 18.4242L87.4423 17.7615C88.6949 16.7364 89.8043 15.8881 90.7706 15.2165C91.7369 14.545 92.6226 14.0236 93.4279 13.6525C94.251 13.2813 95.0384 13.0162 95.7899 12.8572C96.5594 12.6981 97.3736 12.6186 98.2325 12.6186C100.702 12.6186 102.491 13.3167 103.601 14.7128C104.728 16.0913 105.292 18.274 105.292 21.2607V37.0074L109.237 37.9618V38.7571H96.7562V37.9618Z" fill="#18191B"/>
<path d="M131.441 19.8822C131.441 18.2386 130.832 16.8866 129.615 15.8262C128.417 14.7482 126.842 14.2092 124.891 14.2092C123.191 14.2092 121.742 14.651 120.543 15.5346C119.344 16.4006 118.432 17.6731 117.805 19.352C117.197 21.0133 116.893 23.028 116.893 25.3962C116.893 27.7291 117.206 29.682 117.832 31.2549C118.476 32.8101 119.398 33.9765 120.597 34.7541C121.814 35.5317 123.299 35.9206 125.052 35.9206C126.52 35.9206 127.898 35.682 129.186 35.2048C130.474 34.7099 131.718 33.8881 132.917 32.7394L133.185 33.7468C132.004 34.8248 130.94 35.7261 129.991 36.4507C129.043 37.1753 128.166 37.7409 127.361 38.1474C126.573 38.5538 125.822 38.8454 125.106 39.0222C124.39 39.1989 123.683 39.2873 122.986 39.2873C120.677 39.2873 118.691 38.7836 117.027 37.7762C115.381 36.7512 114.11 35.3373 113.215 33.5347C112.321 31.7144 111.873 29.6113 111.873 27.2254C111.873 24.9279 112.222 22.8778 112.92 21.0752C113.636 19.2725 114.62 17.7438 115.873 16.489C117.143 15.2342 118.619 14.2799 120.301 13.6259C122.001 12.9544 123.845 12.6186 125.831 12.6186C126.815 12.6186 127.799 12.6981 128.783 12.8572C129.785 12.9986 130.77 13.2283 131.736 13.5464C132.72 13.8469 133.668 14.2445 134.581 14.7394L131.441 15.7467V4.50664C131.226 4.36525 130.895 4.17968 130.448 3.94993C130 3.72018 129.508 3.4816 128.971 3.23417C128.434 2.98675 127.907 2.74816 127.388 2.51841V2.04124L136.138 0H136.353L136.031 4.16201V35.735C136.192 35.841 136.433 35.9736 136.755 36.1326C137.095 36.274 137.462 36.4242 137.856 36.5833C138.249 36.7424 138.634 36.9014 139.01 37.0605C139.386 37.2019 139.717 37.3167 140.003 37.4051V38.0413L131.843 39.3668H131.575L131.441 35.5494V19.8822Z" fill="#18191B"/>
<path d="M152.336 12.6186C153.481 12.6186 154.519 12.7423 155.45 12.9897C156.38 13.2195 157.364 13.5906 158.402 14.1031L159.073 21.0221H158.134L154.967 14.0501L156.953 16.383C156.094 15.5346 155.289 14.9338 154.537 14.5803C153.803 14.2092 152.927 14.0236 151.907 14.0236C150.421 14.0236 149.258 14.3594 148.417 15.031C147.594 15.6849 147.183 16.6392 147.183 17.894C147.183 18.6539 147.362 19.3344 147.719 19.9352C148.077 20.5361 148.686 21.1105 149.545 21.6584C150.421 22.1886 151.629 22.7541 153.168 23.355C154.313 23.8145 155.298 24.3182 156.121 24.866C156.962 25.3962 157.651 25.9794 158.188 26.6157C158.724 27.2519 159.118 27.9677 159.369 28.763C159.619 29.5406 159.744 30.4065 159.744 31.3609C159.744 32.9691 159.306 34.3653 158.429 35.5494C157.57 36.7335 156.425 37.6525 154.993 38.3064C153.562 38.9603 151.96 39.2873 150.189 39.2873C148.936 39.2873 147.809 39.1724 146.807 38.9426C145.823 38.7129 144.865 38.3683 143.935 37.9088L142.512 30.221H143.559L147.719 38.1474L145.733 36.5303C146.27 36.8661 146.78 37.1312 147.263 37.3256C147.764 37.52 148.256 37.6702 148.739 37.7762C149.223 37.8646 149.715 37.9088 150.216 37.9088C151.79 37.9088 153.141 37.5023 154.269 36.6893C155.414 35.8764 155.987 34.6658 155.987 33.0575C155.987 32.3506 155.852 31.732 155.584 31.2018C155.333 30.654 154.94 30.1591 154.403 29.7173C153.884 29.2578 153.222 28.816 152.417 28.3918C151.629 27.9677 150.69 27.5435 149.598 27.1194C148.167 26.5538 147.004 25.9176 146.109 25.2107C145.214 24.4861 144.561 23.6643 144.15 22.7453C143.738 21.8086 143.532 20.7482 143.532 19.5641C143.532 18.0796 143.935 16.8248 144.74 15.7997C145.545 14.7747 146.61 13.9882 147.934 13.4404C149.276 12.8925 150.744 12.6186 152.336 12.6186Z" fill="#18191B"/>
<path d="M15.4069 71.1472L12.9375 72.2341C11.4523 73.0824 10.2623 73.9837 9.36762 74.9381C8.4908 75.8924 7.84661 76.9175 7.43504 78.0132C7.04137 79.0913 6.84453 80.2577 6.84453 81.5125C6.84453 83.1561 7.19347 84.5699 7.89135 85.754C8.58922 86.9204 9.5734 87.8218 10.8439 88.458C12.1323 89.0942 13.6264 89.4123 15.3264 89.4123C17.1874 89.4123 18.9052 89.0412 20.4799 88.2989C22.0725 87.5567 23.504 86.4079 24.7745 84.8527L25.4187 83.9513C26.4029 82.5905 27.2708 80.8762 28.0223 78.8085C28.7918 76.7407 29.3823 74.2577 29.7939 71.3593L25.365 70.2989V69.4771H37.2557V70.2989L32.7196 71.3593C31.8606 74.5051 30.9033 77.2356 29.8475 79.5507C28.7918 81.8483 27.6644 83.81 26.4655 85.4359L25.9019 86.1782C24.7387 87.6627 23.4861 88.8821 22.1441 89.8365C20.802 90.7732 19.3705 91.4713 17.8495 91.9308C16.3285 92.3903 14.709 92.62 12.9912 92.62C10.6471 92.62 8.66974 92.2135 7.05926 91.4006C5.44879 90.5699 4.22303 89.4388 3.38201 88.0073C2.55887 86.5758 2.1473 84.9499 2.1473 83.1296C2.1473 81.592 2.46045 80.1428 3.08675 78.782C3.71305 77.4035 4.75091 76.1045 6.20034 74.8851C7.66767 73.6479 9.65392 72.4638 12.1591 71.3328L14.4675 70.2194C16.74 68.8409 18.3326 67.4535 19.2452 66.0573C20.1757 64.6612 20.641 63.159 20.641 61.5507C20.641 59.7834 20.2115 58.4137 19.3526 57.4417C18.5116 56.452 17.2679 55.9572 15.6216 55.9572C14.0291 55.9572 12.7138 56.4078 11.676 57.3092C10.6381 58.1928 10.1192 59.4388 10.1192 61.047C10.1192 61.8953 10.2444 62.7171 10.495 63.5124C10.7634 64.29 11.1928 65.1295 11.7833 66.0308C12.3917 66.9145 13.2149 67.9395 14.2527 69.106L33.0953 90.0221L38.2757 91.2945V92.0898H28.9349L10.8976 71.7834C9.68077 70.4226 8.74132 69.2208 8.07923 68.1781C7.41715 67.1354 6.9519 66.1722 6.68349 65.2886C6.43297 64.4049 6.30771 63.5213 6.30771 62.6376C6.30771 61.0647 6.67454 59.6685 7.4082 58.4491C8.15976 57.212 9.24236 56.2399 10.656 55.533C12.0696 54.8261 13.7875 54.4726 15.8095 54.4726C17.7063 54.4726 19.281 54.7908 20.5336 55.427C21.8041 56.0455 22.7525 56.8762 23.3788 57.9189C24.023 58.9439 24.3451 60.0838 24.3451 61.3386C24.3451 62.2223 24.184 63.0706 23.8619 63.8836C23.5577 64.6965 23.0567 65.5006 22.3588 66.2959C21.6788 67.0912 20.7662 67.8865 19.621 68.6818C18.4758 69.4771 17.0711 70.2989 15.4069 71.1472Z" fill="#18191B"/>
<path d="M45.2477 69.212L44.1741 69.6627L39.4232 68.7878V67.9395L44.523 66.402L45.8114 66.4815H56.7358L56.3064 69.212H45.2477ZM48.5761 90.3402L53.0317 91.2945V92.0898H39.96V91.2945L43.8788 90.3402V66.3224C43.8788 64.2547 44.2367 62.4167 44.9525 60.8084C45.6682 59.1825 46.6435 57.8217 47.8782 56.726C49.1129 55.6126 50.5265 54.7731 52.1191 54.2075C53.7117 53.6243 55.3938 53.3327 57.1653 53.3327C58.1316 53.3327 58.9636 53.4123 59.6615 53.5713C60.3594 53.7304 60.941 53.9513 61.4062 54.234C61.8715 54.5168 62.2114 54.8438 62.4262 55.2149C62.6588 55.5684 62.7751 55.9572 62.7751 56.3813C62.7751 57.0529 62.5514 57.6361 62.1041 58.131C61.6567 58.6081 61.0931 58.8467 60.4131 58.8467C60.091 58.8467 59.7063 58.6788 59.2589 58.343C58.8115 57.9896 58.3016 57.5919 57.7289 57.1501C57.1742 56.6906 56.5479 56.293 55.8501 55.9572C55.1701 55.6037 54.4275 55.427 53.6222 55.427C52.6023 55.427 51.7165 55.6656 50.9649 56.1427C50.2134 56.6199 49.6229 57.371 49.1934 58.3961C48.7818 59.4211 48.5761 60.7466 48.5761 62.3725V90.3402Z" fill="#18191B"/>
<path d="M74.4234 75.5478L74.7723 76.8998C72.3924 77.5714 70.4509 78.2253 68.9478 78.8615C67.4626 79.4977 66.3173 80.1428 65.5121 80.7967C64.7247 81.4329 64.179 82.1045 63.8748 82.8114C63.5706 83.5184 63.4185 84.296 63.4185 85.1443C63.4185 86.5581 63.839 87.6274 64.68 88.3519C65.521 89.0765 66.541 89.4388 67.7399 89.4388C68.7062 89.4388 69.5562 89.2356 70.2898 88.8291C71.0414 88.4226 71.6319 87.8483 72.0614 87.106C72.5087 86.3637 72.7324 85.4889 72.7324 84.4815V73.1884C72.7324 71.5625 72.3208 70.3166 71.4977 69.4506C70.6746 68.5669 69.3951 68.1251 67.6594 68.1251C66.8899 68.1251 66.0936 68.1958 65.2705 68.3372C64.4653 68.4786 63.7853 68.6906 63.2306 68.9734L64.6263 67.86C64.5726 68.4609 64.4921 69.0794 64.3848 69.7157C64.2774 70.3342 64.1432 70.8998 63.9821 71.4123C63.8211 71.9071 63.6332 72.2871 63.4185 72.5522C63.1679 72.835 62.8101 73.0559 62.3448 73.2149C61.8796 73.3563 61.4143 73.427 60.9491 73.427C60.3228 73.427 59.8307 73.3033 59.4728 73.0559C59.1149 72.7908 58.936 72.4197 58.936 71.9425C58.936 71.2532 59.2581 70.564 59.9022 69.8747C60.5643 69.1855 61.4233 68.5493 62.479 67.966C63.5348 67.3828 64.6889 66.9145 65.9415 66.561C67.1941 66.2076 68.4109 66.0308 69.592 66.0308C71.453 66.0308 72.9471 66.3048 74.0745 66.8526C75.2018 67.4005 76.0249 68.1781 76.5439 69.1855C77.0628 70.1929 77.3223 71.3858 77.3223 72.7643V87.2651C77.3223 87.8306 77.4117 88.2901 77.5907 88.6436C77.7696 88.997 78.0201 89.2621 78.3422 89.4388C78.6822 89.5979 79.0759 89.6774 79.5232 89.6774C80.0601 89.6774 80.6058 89.5891 81.1606 89.4123C81.7153 89.2356 82.279 88.9528 82.8516 88.564V89.4654C81.7421 90.7555 80.7043 91.6038 79.738 92.0103C78.7896 92.3991 77.8412 92.5935 76.8928 92.5935C75.9086 92.5935 75.1123 92.3814 74.5039 91.9573C73.8955 91.5154 73.4482 90.8792 73.1619 90.0486C72.8756 89.2179 72.7145 88.2282 72.6787 87.0795L72.7861 87C72.5177 88.078 72.0524 89.0412 71.3903 89.8895C70.7282 90.7378 69.923 91.4094 68.9746 91.9042C68.0441 92.3814 67.0241 92.62 65.9147 92.62C63.839 92.62 62.1122 92.0721 60.7343 90.9764C59.3565 89.863 58.6675 88.2547 58.6675 86.1516C58.6675 85.0382 58.8644 84.0486 59.2581 83.1826C59.6696 82.3166 60.4301 81.4948 61.5396 80.7172C62.649 79.9396 64.2416 79.1443 66.3173 78.3313C68.393 77.5007 71.0951 76.5728 74.4234 75.5478Z" fill="#18191B"/>
<path d="M92.1869 70.8291V90.3402L96.0252 91.2945V92.0898H83.6514V91.2945L87.5702 90.3402V71.0412C87.2839 70.8114 86.8723 70.5463 86.3355 70.2459C85.7987 69.9278 84.9218 69.4506 83.705 68.8143V68.2842L91.6501 65.7657H91.8916L92.1869 70.8291ZM107.835 73.5066V90.3402L111.674 91.2945V92.0898H99.3804V91.2945L103.246 90.3402V74.4079C103.246 73.3652 103.049 72.4992 102.655 71.8099C102.261 71.103 101.671 70.5728 100.883 70.2194C100.114 69.8659 99.1477 69.6892 97.9846 69.6892C96.732 69.6892 95.5242 69.8836 94.361 70.2724C93.1979 70.6435 92.2853 71.0853 91.6232 71.5979L91.0596 70.7761C92.2406 69.8217 93.2784 69.0353 94.1731 68.4167C95.0858 67.7805 95.9178 67.2856 96.6694 66.9322C97.4388 66.5787 98.1815 66.3313 98.8972 66.1899C99.613 66.0308 100.373 65.9513 101.179 65.9513C102.753 65.9513 104.024 66.2517 104.99 66.8526C105.974 67.4358 106.69 68.293 107.138 69.4241C107.603 70.5375 107.835 71.8983 107.835 73.5066ZM123.511 74.0367V90.3402L127.43 91.2945V92.0898H115.029V91.2945L118.921 90.3402V74.4079C118.921 73.3475 118.715 72.4727 118.303 71.7834C117.91 71.0942 117.319 70.5728 116.532 70.2194C115.763 69.8659 114.805 69.6892 113.66 69.6892C112.407 69.6892 111.191 69.8836 110.01 70.2724C108.846 70.6435 107.934 71.0853 107.272 71.5979L106.735 70.7761C107.916 69.8217 108.954 69.0353 109.848 68.4167C110.761 67.7805 111.593 67.2856 112.345 66.9322C113.096 66.5787 113.83 66.3313 114.546 66.1899C115.279 66.0308 116.049 65.9513 116.854 65.9513C119.198 65.9513 120.889 66.614 121.927 67.9395C122.983 69.265 123.511 71.2974 123.511 74.0367Z" fill="#18191B"/>
<path d="M135.297 60.4108C134.224 60.4108 133.365 60.0573 132.721 59.3504C132.094 58.6435 131.781 57.8305 131.781 56.9115C131.781 55.9925 132.094 55.2061 132.721 54.5522C133.365 53.8983 134.224 53.5713 135.297 53.5713C136.353 53.5713 137.185 53.8983 137.794 54.5522C138.42 55.2061 138.733 55.9925 138.733 56.9115C138.733 57.8305 138.42 58.6435 137.794 59.3504C137.185 60.0573 136.353 60.4108 135.297 60.4108ZM138.008 65.7657L137.955 70.6435V90.3402L141.9 91.2945V92.0898H129.446V91.2945L133.365 90.3402V70.9351C133.168 70.7761 132.864 70.5728 132.452 70.3254C132.059 70.078 131.602 69.804 131.083 69.5036C130.564 69.2032 130.028 68.9204 129.473 68.6553V68.0456L137.767 65.7657H138.008Z" fill="#18191B"/>
<path d="M152.204 90.3402L156.15 91.2945V92.0898H143.695V91.2945L147.614 90.3402V58.1045C147.382 57.9454 147.059 57.7598 146.648 57.5478C146.236 57.318 145.753 57.0706 145.198 56.8055C144.644 56.5227 144.017 56.2311 143.32 55.9307V55.427L152.043 53.3327H152.285L152.204 57.8129V90.3402Z" fill="#18191B"/>
<path d="M173.964 87.3711L171.44 92.8851L159.899 68.5492L156.49 67.4624V66.4815H168.676V67.4624L164.918 68.4697L173.964 87.3711ZM162.878 105C161.804 105 160.91 104.726 160.194 104.178C159.496 103.63 159.147 102.853 159.147 101.845C159.147 101.351 159.237 100.935 159.416 100.599C159.612 100.264 159.854 100.007 160.14 99.8306C160.427 99.6539 160.713 99.5655 160.999 99.5655C161.303 99.5655 161.625 99.6627 161.965 99.8571C162.323 100.052 162.735 100.246 163.2 100.44C163.665 100.635 164.193 100.732 164.784 100.732C165.446 100.732 166.027 100.626 166.529 100.414C167.047 100.202 167.531 99.8041 167.978 99.2209C168.425 98.6377 168.882 97.7982 169.347 96.7025L171.87 90.6053L173.051 87.6362L179.6 68.3107L175.762 67.4624V66.4815H185.13V67.4624L181.882 68.2842L171.065 96.782C170.259 98.8851 169.436 100.529 168.595 101.713C167.772 102.915 166.895 103.763 165.965 104.258C165.034 104.753 164.005 105 162.878 105Z" fill="#18191B"/>
</svg>
