<svg width="201" height="51" viewBox="0 0 201 51" fill="none" xmlns="http://www.w3.org/2000/svg">
<path d="M26.7339 37.5778H0V35.4842H3.7041V2.09362H0V0H10.3607V2.09362H5.90509V35.4842H24.6403V29.3107H26.7339V37.5778Z" fill="#18191B"/>
<path d="M40.8718 37.5778H30.511V35.4842H34.6446V19.5405H30.511V17.4469H36.8456V35.4842H40.8718V37.5778ZM37.5434 10.3071C37.5434 10.8081 37.3645 11.2376 37.0066 11.5954C36.6487 11.9175 36.2372 12.0786 35.7719 12.0786C35.3425 12.0786 34.9488 11.9175 34.5909 11.5954C34.233 11.2376 34.0541 10.8081 34.0541 10.3071C34.0541 9.80603 34.233 9.39446 34.5909 9.07236C34.9488 8.71448 35.3425 8.53554 35.7719 8.53554C36.2372 8.53554 36.6487 8.71448 37.0066 9.07236C37.3645 9.39446 37.5434 9.80603 37.5434 10.3071Z" fill="#18191B"/>
<path d="M56.9065 35.86C56.3697 36.5042 55.6718 37.0231 54.8129 37.4168C53.9898 37.8105 52.9698 38.0073 51.753 38.0073C50.6077 38.0073 49.4804 37.8641 48.371 37.5778C47.2973 37.3273 46.3489 36.8084 45.5258 36.021V32.1022H47.5121V34.84C48.192 35.2695 48.8899 35.5558 49.6057 35.6989C50.3214 35.8063 51.073 35.86 51.8603 35.86C52.3972 35.86 52.9161 35.7884 53.4171 35.6453C53.9182 35.4663 54.3834 35.2158 54.8129 34.8937C55.2066 34.5716 55.5108 34.1958 55.7255 33.7664C55.976 33.3011 56.1013 32.7464 56.1013 32.1022C56.1013 31.1717 55.8686 30.4559 55.4034 29.9549C54.9381 29.4539 54.3297 29.0602 53.5782 28.7739C52.8624 28.4518 52.0751 28.1655 51.2162 27.915C50.3572 27.6644 49.552 27.3602 48.8004 27.0024C48.0489 26.6445 47.4226 26.1434 46.9215 25.4992C46.4563 24.8193 46.2237 23.8888 46.2237 22.7077C46.2237 21.7415 46.3847 20.9183 46.7068 20.2383C47.0647 19.5584 47.5299 18.9858 48.1026 18.5205C48.6752 18.0553 49.3373 17.7153 50.0888 17.5005C50.8404 17.25 51.5382 17.1248 52.1824 17.1248C52.6477 17.1248 53.095 17.1605 53.5245 17.2321C53.954 17.2679 54.455 17.3753 55.0276 17.5542C55.4929 17.7332 55.9402 17.9479 56.3697 18.1984C56.7991 18.4131 57.1928 18.6816 57.5507 19.0036V22.9225H55.5108V20.131C55.0097 19.8447 54.4908 19.6299 53.954 19.4868C53.4171 19.3436 52.8445 19.2721 52.2361 19.2721C51.7709 19.2721 51.2877 19.3436 50.7867 19.4868C50.3214 19.5942 49.9099 19.7731 49.552 20.0236C49.2299 20.3099 48.9615 20.6678 48.7467 21.0973C48.532 21.5267 48.4247 22.0457 48.4247 22.6541C48.4247 23.4414 48.6752 24.0677 49.1762 24.533C49.713 24.9624 50.3393 25.3203 51.0551 25.6066C51.8067 25.9287 52.594 26.2329 53.4171 26.5192C54.2761 26.7697 55.0813 27.1097 55.8329 27.5392C56.5486 27.9686 57.1391 28.5234 57.6044 29.2033C58.1054 29.8833 58.3559 30.7959 58.3559 31.9412C58.3559 32.5854 58.2307 33.2653 57.9802 33.9811C57.7654 34.6611 57.4075 35.2874 56.9065 35.86Z" fill="#18191B"/>
<path d="M73.1866 37.5778H66.5836V19.5942H61.9133V17.4469H66.5836V4.34829H68.7846V17.4469H75.0118V19.5942H68.7846V35.4842H73.1866V37.5778Z" fill="#18191B"/>
<path d="M89.3157 19.1647C87.9558 19.1647 86.7032 19.451 85.5579 20.0236C84.4485 20.5962 83.518 21.3657 82.7664 22.332C82.0507 23.2625 81.5496 24.3182 81.2633 25.4992C80.977 26.6445 80.9591 27.8255 81.2096 29.0423C83.6433 28.076 86.059 27.1276 88.4568 26.1971C90.8904 25.2308 93.324 24.2645 95.7576 23.2983C95.1134 22.0815 94.2187 21.0973 93.0735 20.3457C91.9641 19.5584 90.7115 19.1647 89.3157 19.1647ZM96.3481 35.1621C95.4176 36.021 94.3619 36.701 93.1809 37.2021C91.9998 37.7031 90.7115 37.9536 89.3157 37.9536C87.8484 37.9536 86.4705 37.6852 85.1822 37.1484C83.9296 36.6115 82.8201 35.86 81.8538 34.8937C80.8875 33.9274 80.136 32.818 79.5992 31.5654C79.0623 30.3128 78.7939 28.9528 78.7939 27.4855C78.7939 26.054 79.0623 24.694 79.5992 23.4056C80.136 22.1172 80.8875 21.0078 81.8538 20.0773C82.8201 19.1468 83.9296 18.4131 85.1822 17.8763C86.4705 17.3037 87.8484 17.0174 89.3157 17.0174C90.4252 17.0174 91.4809 17.2142 92.483 17.6079C93.4851 17.9658 94.3798 18.5026 95.1671 19.2184C95.9187 19.8626 96.5808 20.6499 97.1534 21.5804C97.726 22.4751 98.1912 23.4593 98.5491 24.533C95.7576 25.6424 92.9661 26.7339 90.1746 27.8076C87.4189 28.8813 84.6453 29.9907 81.8538 31.1359C82.498 32.5317 83.4822 33.659 84.8064 34.5179C86.1305 35.3768 87.6337 35.8063 89.3157 35.8063C90.4252 35.8063 91.463 35.6095 92.4293 35.2158C93.3956 34.8221 94.2545 34.2674 95.0061 33.5516L96.3481 35.1621Z" fill="#18191B"/>
<path d="M112.851 37.5778H102.49V35.4842H106.677V19.5405H102.812V17.4469H108.449L108.502 19.3794C108.538 19.9878 108.574 20.5425 108.61 21.0436C108.645 21.5088 108.681 22.0457 108.717 22.6541C109.433 20.972 110.578 19.6121 112.153 18.5742C113.727 17.5363 115.517 17.0174 117.521 17.0174C119.489 17.0174 121.046 17.5721 122.191 18.6816C123.337 19.791 123.945 21.2404 124.016 23.0298V35.4842H127.989V37.5778H117.628V35.4842H121.816V23.6204C121.744 22.4393 121.314 21.4373 120.527 20.6141C119.776 19.7552 118.648 19.29 117.145 19.2184C116.036 19.2184 114.98 19.3973 113.978 19.7552C112.976 20.1131 112.117 20.6141 111.401 21.2583C110.614 21.9383 109.987 22.7256 109.522 23.6204C109.093 24.5151 108.878 25.4992 108.878 26.5729V35.4842H112.851V37.5778Z" fill="#18191B"/>
<path d="M142.103 37.5778H131.743V35.4842H135.876V19.5405H131.743V17.4469H138.077V35.4842H142.103V37.5778ZM138.775 10.3071C138.775 10.8081 138.596 11.2376 138.238 11.5954C137.88 11.9175 137.469 12.0786 137.003 12.0786C136.574 12.0786 136.18 11.9175 135.822 11.5954C135.465 11.2376 135.286 10.8081 135.286 10.3071C135.286 9.80603 135.465 9.39446 135.822 9.07236C136.18 8.71448 136.574 8.53554 137.003 8.53554C137.469 8.53554 137.88 8.71448 138.238 9.07236C138.596 9.39446 138.775 9.80603 138.775 10.3071Z" fill="#18191B"/>
<path d="M156.206 37.5778H145.845V35.4842H150.032V19.5405H146.167V17.4469H151.804L151.857 19.3794C151.893 19.9878 151.929 20.5425 151.965 21.0436C152 21.5088 152.036 22.0457 152.072 22.6541C152.788 20.972 153.933 19.6121 155.508 18.5742C157.082 17.5363 158.872 17.0174 160.876 17.0174C162.844 17.0174 164.401 17.5721 165.546 18.6816C166.692 19.791 167.3 21.2404 167.372 23.0298V35.4842H171.344V37.5778H160.983V35.4842H165.171V23.6204C165.099 22.4393 164.669 21.4373 163.882 20.6141C163.131 19.7552 162.003 19.29 160.5 19.2184C159.391 19.2184 158.335 19.3973 157.333 19.7552C156.331 20.1131 155.472 20.6141 154.756 21.2583C153.969 21.9383 153.342 22.7256 152.877 23.6204C152.448 24.5151 152.233 25.4992 152.233 26.5729V35.4842H156.206V37.5778Z" fill="#18191B"/>
<path d="M177.782 47.8849L179.339 46.1134C180.09 46.9007 181.056 47.527 182.237 47.9923C183.418 48.4933 184.653 48.7438 185.941 48.7438C187.051 48.7438 188.089 48.5112 189.055 48.0459C190.057 47.6165 190.934 46.9723 191.686 46.1134C192.401 45.2902 192.974 44.2882 193.403 43.1071C193.833 41.9619 194.048 40.6914 194.048 39.2957V35.5379C194.048 35.18 194.048 34.7863 194.048 34.3569C194.083 33.9274 194.101 33.4801 194.101 33.0148C193.851 33.6948 193.457 34.3211 192.92 34.8937C192.419 35.4663 191.829 35.9674 191.149 36.3968C190.397 36.8979 189.556 37.2915 188.626 37.5778C187.695 37.8284 186.711 37.9536 185.673 37.9536C184.17 37.9536 182.774 37.6852 181.486 37.1484C180.233 36.5758 179.124 35.8063 178.158 34.84C177.191 33.9095 176.44 32.818 175.903 31.5654C175.366 30.3128 175.098 28.9528 175.098 27.4855C175.098 26.0898 175.366 24.7477 175.903 23.4593C176.44 22.1709 177.191 21.0436 178.158 20.0773C179.124 19.1468 180.233 18.4131 181.486 17.8763C182.774 17.3037 184.17 17.0174 185.673 17.0174C187.677 17.0174 189.449 17.5184 190.988 18.5205C192.527 19.5226 193.618 20.7394 194.262 22.1709C194.262 21.3836 194.28 20.6141 194.316 19.8626C194.352 19.0752 194.405 18.27 194.477 17.4469H200.221V19.5405H196.249V39.403C196.249 41.1925 195.98 42.785 195.443 44.1808C194.906 45.6123 194.173 46.8112 193.242 47.7775C192.312 48.7796 191.22 49.5491 189.968 50.0859C188.751 50.6585 187.427 50.9627 185.995 50.9985C184.277 50.9985 182.721 50.7122 181.325 50.1396C179.965 49.6027 178.784 48.8512 177.782 47.8849ZM185.673 19.1647C184.456 19.1647 183.329 19.3973 182.291 19.8626C181.253 20.292 180.376 20.9004 179.661 21.6878C178.909 22.4393 178.319 23.3162 177.889 24.3182C177.495 25.2845 177.299 26.3403 177.299 27.4855C177.299 28.6665 177.513 29.776 177.943 30.8138C178.408 31.8159 179.016 32.6927 179.768 33.4443C180.52 34.1958 181.396 34.7863 182.398 35.2158C183.401 35.6095 184.492 35.8063 185.673 35.8063C186.854 35.8063 187.946 35.5916 188.948 35.1621C189.986 34.6969 190.88 34.0885 191.632 33.3369C192.383 32.6211 192.974 31.7622 193.403 30.7601C193.833 29.7581 194.048 28.6665 194.048 27.4855C194.048 26.3045 193.815 25.195 193.35 24.1572C192.884 23.1193 192.258 22.2067 191.471 21.4194C190.719 20.7036 189.842 20.1489 188.84 19.7552C187.838 19.3615 186.783 19.1647 185.673 19.1647Z" fill="#18191B"/>
</svg>
