<svg width="145" height="42" viewBox="0 0 145 42" fill="none" xmlns="http://www.w3.org/2000/svg">
<path d="M0 40.7451V3.81147H11.166L20.3994 21.7415L29.4181 3.81147H40.5841V40.7451H29.4181V21.4194L22.6004 34.3032H18.0374L11.166 21.4194V40.7451H0Z" fill="#18191B"/>
<path d="M60.1434 41.1746C55.5983 41.1746 52.0373 40.0293 49.4606 37.7389C46.9196 35.4126 45.6491 32.2096 45.6491 28.1297V13.8501H56.7077V28.6128C56.7077 30.0444 57.0119 31.1001 57.6203 31.7801C58.2645 32.4601 59.1234 32.8001 60.1971 32.8001C61.235 32.8001 62.0402 32.4601 62.6128 31.7801C63.2212 31.1001 63.5254 30.0444 63.5254 28.6128V13.8501H74.3693V28.1297C74.3693 32.2454 73.1167 35.4484 70.6115 37.7389C68.1421 40.0293 64.6527 41.1746 60.1434 41.1746Z" fill="#18191B"/>
<path d="M88.1121 41.1746C86.5016 41.1746 84.8732 41.0135 83.2269 40.6914C81.5807 40.3693 80.0954 39.922 78.7713 39.3494L80.3281 32.5854C81.1512 33.0148 82.2785 33.3906 83.7101 33.7127C85.1416 33.999 86.4121 34.1421 87.5215 34.1421C89.311 34.1421 90.2057 33.659 90.2057 32.6927C90.2057 32.2275 89.9194 31.8875 89.3468 31.6727C88.8099 31.458 88.0942 31.2791 87.1994 31.1359C86.3405 30.957 85.41 30.7422 84.408 30.4917C83.4059 30.2054 82.4575 29.7939 81.5628 29.257C80.7039 28.6844 79.9881 27.8792 79.4155 26.8413C78.8786 25.8034 78.6102 24.4435 78.6102 22.7614C78.6102 19.9341 79.7197 17.6795 81.9386 15.9974C84.1932 14.3154 87.271 13.4743 91.172 13.4743C92.6751 13.4743 94.0708 13.5817 95.3592 13.7964C96.6834 14.0112 97.936 14.4585 99.117 15.1385L97.9897 21.6878C96.0929 20.9004 94.1066 20.5068 92.0309 20.5068C90.7067 20.5068 89.7404 20.6141 89.132 20.8289C88.5594 21.0436 88.2731 21.4015 88.2731 21.9025C88.2731 22.2962 88.5594 22.6004 89.132 22.8151C89.7046 23.0298 90.4383 23.2446 91.333 23.4593C92.2635 23.6382 93.2298 23.9067 94.2319 24.2645C95.2339 24.5866 96.1823 25.0519 97.077 25.6603C98.0075 26.2687 98.7591 27.0918 99.3317 28.1297C99.9043 29.1318 100.191 30.438 100.191 32.0485C100.191 34.9116 99.1349 37.1484 97.0234 38.7589C94.9119 40.3693 91.9414 41.1746 88.1121 41.1746Z" fill="#18191B"/>
<path d="M113.883 41.1746C111.485 41.1746 109.534 40.7451 108.031 39.8862C106.564 39.0273 105.49 37.8641 104.81 36.3968C104.13 34.9295 103.79 33.2832 103.79 31.458V13.8501H115.117V29.9012C115.117 30.7244 115.35 31.3685 115.815 31.8338C116.316 32.2633 116.907 32.478 117.587 32.478C118.303 32.478 119.036 32.2633 119.788 31.8338L120.378 39.2957C119.591 39.9041 118.571 40.3693 117.318 40.6914C116.066 41.0135 114.921 41.1746 113.883 41.1746ZM109.481 10.8976C107.834 10.8976 106.421 10.3786 105.24 9.34078C104.059 8.26713 103.468 6.96085 103.468 5.42195C103.468 4.34829 103.755 3.4178 104.327 2.63045C104.9 1.80732 105.651 1.16312 106.582 0.697875C107.512 0.232625 108.479 0 109.481 0C110.59 0 111.592 0.250519 112.487 0.751557C113.417 1.2526 114.151 1.91468 114.688 2.73782C115.26 3.56095 115.547 4.45566 115.547 5.42195C115.547 6.4956 115.243 7.44399 114.634 8.26713C114.062 9.09026 113.31 9.73445 112.38 10.1997C111.485 10.6649 110.519 10.8976 109.481 10.8976Z" fill="#18191B"/>
<path d="M136.136 41.1746C133.13 41.1746 130.535 40.5841 128.352 39.403C126.169 38.222 124.487 36.6115 123.306 34.5716C122.125 32.4959 121.535 30.116 121.535 27.4318C121.535 24.7835 122.143 22.4035 123.36 20.292C124.577 18.1805 126.276 16.5164 128.46 15.2995C130.678 14.0827 133.237 13.4743 136.136 13.4743C139.608 13.4743 142.345 14.1901 144.35 15.6216L143.169 22.9225C142.274 22.5288 141.433 22.2604 140.646 22.1172C139.858 21.9383 139.107 21.8488 138.391 21.8488C136.637 21.8488 135.241 22.3499 134.204 23.3519C133.202 24.3182 132.701 25.6424 132.701 27.3245C132.701 28.9707 133.202 30.3128 134.204 31.3507C135.206 32.3527 136.53 32.8538 138.176 32.8538C139.608 32.8538 141.29 32.5496 143.222 31.9412L144.242 39.4567C143.061 40.0293 141.827 40.4588 140.538 40.7451C139.286 41.0314 137.818 41.1746 136.136 41.1746Z" fill="#18191B"/>
</svg>
