<svg width="329" height="46" viewBox="0 0 329 46" fill="none" xmlns="http://www.w3.org/2000/svg">
<path d="M9.86077 38.7481C9.6291 38.1399 9.44086 37.3725 9.29606 36.4458C9.15126 35.5191 9.06438 34.5634 9.03542 33.5788C9.03542 32.5652 9.06438 31.595 9.1223 30.6683C9.20918 29.7416 9.35398 28.9742 9.5567 28.366C10.4834 28.1343 11.1929 27.4972 11.6852 26.4547C12.1775 25.3832 12.4237 23.5732 12.4237 21.0247V17.8971H11.0336C11.2943 20.098 11.2508 22.27 10.9033 24.413C9.77389 24.6447 8.70239 24.804 7.6888 24.8909C6.67521 24.9488 5.6037 24.9488 4.47427 24.8909C3.34484 24.804 2.02718 24.6447 0.521274 24.413C0.347516 23.3994 0.217198 22.1542 0.130319 20.6772C0.0434395 19.1713 0 17.593 0 15.9423C0 14.2626 0.0289597 12.6409 0.086879 11.0771C0.144798 9.51326 0.231677 8.13767 0.347516 6.95033C0.463355 5.73402 0.593674 4.85075 0.738472 4.30051C2.44709 4.30051 5.02451 4.41635 8.47071 4.64803C11.9169 4.85075 16.3043 4.95211 21.6329 4.95211C25.2528 4.95211 28.3515 4.89419 30.9289 4.77835C33.5064 4.66251 35.6783 4.56115 37.4449 4.47427C39.2404 4.35843 40.7173 4.30051 41.8757 4.30051C42.0205 4.93763 42.1508 5.8933 42.2667 7.16752C42.3825 8.41279 42.4694 9.83181 42.5273 11.4246C42.5852 12.9884 42.6142 14.5957 42.6142 16.2464C42.6142 17.8681 42.5707 19.403 42.4839 20.851C42.397 22.27 42.2667 23.4573 42.0929 24.413C40.587 24.6447 39.2838 24.804 38.1833 24.8909C37.0829 24.9488 36.0114 24.9488 34.9688 24.8909C33.9552 24.804 32.7968 24.6447 31.4937 24.413C31.1461 22.299 31.1027 20.1415 31.3633 17.9405H29.9733V21.0247C29.9733 22.7334 30.1181 24.0945 30.4077 25.108C30.7262 26.1216 31.1317 26.8746 31.624 27.3669C32.1163 27.8592 32.6665 28.1923 33.2747 28.366C33.4774 28.9742 33.6077 29.7416 33.6656 30.6683C33.7525 31.595 33.7815 32.5652 33.7525 33.5788C33.7525 34.5634 33.6801 35.5191 33.5353 36.4458C33.3905 37.3725 33.2023 38.1399 32.9706 38.7481C31.6964 38.6033 30.0891 38.444 28.1488 38.2702C26.2375 38.1254 23.9931 38.053 21.4157 38.053C18.7224 38.053 16.4346 38.1254 14.5522 38.2702C12.6988 38.444 11.135 38.6033 9.86077 38.7481Z" fill="#18191B"/>
<path d="M63.249 39.53C50.0144 39.53 43.3971 34.1435 43.3971 23.3705C43.3971 17.4917 45.0623 13.1767 48.3926 10.4255C51.752 7.67432 56.7765 6.29873 63.4662 6.29873C70.5613 6.29873 75.7161 7.65984 78.9306 10.382C82.1741 13.0753 83.7959 17.0573 83.7959 22.3279C83.7959 28.2647 82.0872 32.6231 78.67 35.4032C75.2528 38.1544 70.1124 39.53 63.249 39.53ZM62.4236 25.2818H64.7693V20.5469H62.4236V25.2818Z" fill="#18191B"/>
<path d="M96.9665 45.5246C93.057 45.5246 90.0307 44.7717 87.8877 43.2658C85.7446 41.7599 84.6731 39.2693 84.6731 35.7942C84.6731 34.3462 84.9483 32.8982 85.4985 31.4502C86.0777 30.0022 86.932 28.7425 88.0614 27.671C89.5384 28.7135 91.4207 29.5244 93.7086 30.1036L94.0561 28.8873C91.5655 28.2502 89.6397 27.3814 88.2786 26.2809C86.9175 25.1804 85.9763 23.9207 85.4551 22.5017C84.9338 21.0827 84.6731 19.6057 84.6731 18.0708C84.6731 15.9857 85.1799 14.0744 86.1935 12.3368C87.2071 10.5703 88.7565 9.15126 90.8416 8.07975C92.9266 7.00825 95.5765 6.47249 98.791 6.47249C100.5 6.47249 101.904 6.66073 103.005 7.0372C104.105 7.41368 104.988 7.89151 105.654 8.47071C106.321 9.02094 106.798 9.61462 107.088 10.2517C107.378 7.90599 108.029 5.98018 109.043 4.47427C110.085 2.96837 111.374 1.85342 112.909 1.12943C114.444 0.376476 116.109 0 117.904 0C119.41 0 120.771 0.333036 121.988 0.999109C123.204 1.63622 124.16 2.56293 124.855 3.77924C125.579 4.99555 125.941 6.47249 125.941 8.21007C125.941 9.91869 125.622 11.3377 124.985 12.4671C124.377 13.5966 123.552 14.4509 122.509 15.0301C121.466 15.5803 120.308 15.8554 119.034 15.8554C117.875 15.8554 116.833 15.7685 115.906 15.5948C114.979 15.3921 114.169 15.1314 113.474 14.8129L112.865 15.8989C113.387 16.1885 113.995 16.4201 114.69 16.5939C115.79 16.9125 116.891 17.1152 117.991 17.2021C119.092 17.2889 120.12 17.3613 121.075 17.4193C122.031 17.4482 122.871 17.5785 123.595 17.8102C124.348 18.0419 124.927 18.4618 125.333 19.07C125.767 19.6781 125.984 20.5903 125.984 21.8066C125.984 23.6601 125.246 25.2094 123.769 26.4547C122.321 27.671 120.337 28.5977 117.818 29.2348C115.298 29.843 112.431 30.2194 109.216 30.3642L109.26 31.624C111.374 31.595 113.3 31.6095 115.037 31.6674C116.804 31.7253 118.368 31.957 119.729 32.3624C121.09 32.7679 122.234 33.4484 123.161 34.4041C124.087 35.3598 124.782 36.6919 125.246 38.4005C125.738 40.1381 125.984 42.3535 125.984 45.0468C124.391 45.4233 122.683 45.6115 120.858 45.6115C119.063 45.6405 117.325 45.4812 115.646 45.1337C115.037 44.6993 114.183 44.4676 113.083 44.4386C112.011 44.4097 110.693 44.4821 109.13 44.6558C107.566 44.8586 105.77 45.0468 103.743 45.2206C101.716 45.4233 99.4571 45.5246 96.9665 45.5246ZM104.177 19.07H106.48V15.7251H104.177V19.07Z" fill="#18191B"/>
<path d="M147.123 39.4865C142.403 39.4865 138.551 38.8349 135.568 37.5318C132.614 36.1996 130.442 34.3027 129.052 31.8412C127.662 29.3796 126.967 26.4112 126.967 22.9361C126.967 18.9396 127.706 15.7251 129.183 13.2925C130.689 10.8599 133.02 9.09334 136.176 7.99287C139.333 6.86345 143.402 6.29873 148.383 6.29873C152.09 6.29873 155.391 6.68969 158.287 7.4716C161.212 8.25351 163.514 9.4119 165.194 10.9468C166.874 12.4527 167.714 14.3206 167.714 16.5505C167.714 17.3613 167.583 18.1867 167.323 19.0265C167.091 19.8374 166.599 20.5759 165.846 21.2419C165.093 21.908 163.963 22.4438 162.457 22.8492C160.951 23.2546 158.939 23.4573 156.419 23.4573C154.74 23.4573 153.219 23.4429 151.858 23.4139C150.526 23.356 149.295 23.2691 148.166 23.1533H145.994V26.3678H148.122V24.6302C154.262 24.3406 160.749 24.3406 167.583 24.6302C167.583 27.8447 166.888 30.5525 165.498 32.7534C164.108 34.9543 161.922 36.634 158.939 37.7924C155.956 38.9218 152.017 39.4865 147.123 39.4865ZM145.994 20.8944H148.122V18.3749H145.994V20.8944Z" fill="#18191B"/>
<path d="M186.131 39.4865C181.816 39.4865 178.5 38.9218 176.184 37.7924C173.867 36.634 172.361 34.9254 171.666 32.6665C171.347 31.6529 171.188 30.538 171.188 29.3217C171.217 28.1054 171.304 26.7298 171.449 25.1949C171.593 23.6601 171.68 21.9514 171.709 20.0691H168.886C168.741 19.2582 168.64 18.346 168.582 17.3324C168.524 16.3188 168.524 15.3052 168.582 14.2916C168.64 13.2491 168.741 12.3223 168.886 11.5115C169.639 10.9033 170.363 10.3096 171.058 9.73046C171.782 9.1223 172.419 8.41279 172.969 7.60192C173.519 6.79105 173.896 5.7485 174.098 4.47427C175.141 4.61907 176.401 4.72043 177.878 4.77835C179.384 4.83627 180.976 4.86523 182.656 4.86523C184.365 4.83627 186.03 4.79283 187.652 4.73491C189.273 4.64803 190.707 4.54667 191.952 4.43083C192.126 4.98107 192.271 5.5313 192.387 6.08154C192.502 6.63177 192.589 7.16752 192.647 7.6888H202.117C202.262 8.21007 202.363 8.99198 202.421 10.0345C202.479 11.0771 202.479 12.1775 202.421 13.3359C202.392 14.4654 202.291 15.4355 202.117 16.2464L190.128 16.2898V25.3687H191.387L191.431 17.8536C192.068 17.622 192.85 17.4482 193.777 17.3324C194.732 17.1876 195.731 17.1152 196.774 17.1152C197.816 17.1152 198.816 17.1876 199.771 17.3324C200.727 17.4482 201.538 17.622 202.204 17.8536C202.291 17.9984 202.407 18.4908 202.551 19.3306C202.696 20.1415 202.812 21.1406 202.899 22.3279C203.015 23.4863 203.073 24.6592 203.073 25.8465C203.073 27.1207 202.928 28.4095 202.638 29.7126C202.378 31.0158 201.9 32.2611 201.205 33.4484C200.51 34.6068 199.525 35.6494 198.251 36.5761C196.977 37.4738 195.34 38.1833 193.342 38.7046C191.373 39.2259 188.969 39.4865 186.131 39.4865Z" fill="#18191B"/>
<path d="M204.704 38.7481C204.414 37.9661 204.197 36.967 204.052 35.7507C203.936 34.5055 203.907 33.2312 203.965 31.9281C204.023 30.5959 204.168 29.4375 204.4 28.4529C204.834 28.3081 205.254 28.033 205.659 27.6275C206.065 27.2221 206.398 26.5126 206.658 25.499C206.919 24.4565 207.049 22.9795 207.049 21.0682C207.049 19.4464 206.948 18.1577 206.745 17.2021C206.572 16.2174 206.34 15.4645 206.05 14.9432C205.79 14.393 205.5 14.002 205.182 13.7703C204.892 13.5387 204.631 13.3649 204.4 13.2491C204.11 12.2934 203.907 11.1929 203.791 9.94765C203.705 8.70239 203.719 7.4716 203.835 6.25529C203.98 5.01003 204.226 3.96748 204.573 3.12765C206.021 3.3014 207.643 3.4462 209.439 3.56204C211.234 3.64892 213.232 3.69236 215.433 3.69236C217.576 3.69236 219.589 3.63444 221.471 3.5186C223.354 3.3738 224.903 3.24349 226.119 3.12765C226.409 3.93852 226.626 4.89419 226.771 5.99466C226.945 7.09512 226.916 8.02183 226.684 8.77479C226.018 9.29606 225.294 9.97661 224.512 10.8164C223.759 11.6563 223.05 12.6554 222.384 13.8138L223.47 14.3785C224.367 12.8436 225.439 11.5115 226.684 10.382C227.958 9.22366 229.319 8.32591 230.767 7.6888C232.244 7.05168 233.721 6.73313 235.198 6.73313C236.878 6.73313 238.297 6.87793 239.455 7.16752C240.614 7.42816 241.584 7.92047 242.366 8.64447C243.148 9.36846 243.756 10.4255 244.19 11.8156C244.596 13.0029 244.784 14.2192 244.755 15.4645C244.726 16.6808 244.639 17.9116 244.494 19.1568C244.349 20.3731 244.277 21.5894 244.277 22.8058C244.277 24.1379 244.407 25.1949 244.668 25.9768C244.929 26.7298 245.262 27.2945 245.667 27.671C246.102 28.0475 246.521 28.3081 246.927 28.4529C247.188 29.4375 247.332 30.5959 247.361 31.9281C247.419 33.2312 247.39 34.5055 247.274 35.7507C247.159 36.967 246.956 37.9661 246.666 38.7481C245.566 38.6322 244.234 38.4874 242.67 38.3137C241.106 38.1689 239.137 38.0965 236.762 38.0965C234.619 38.0965 232.621 38.1689 230.767 38.3137C228.943 38.4874 227.509 38.6322 226.467 38.7481C226.322 37.9661 226.206 36.9381 226.119 35.6639C226.032 34.3607 226.004 33.014 226.032 31.624C226.09 30.2339 226.206 29.0321 226.38 28.0185V22.0238H224.773V28.0185C224.975 29.0321 225.091 30.2339 225.12 31.624C225.178 33.014 225.164 34.3607 225.077 35.6639C224.99 36.9381 224.845 37.9661 224.642 38.7481C223.947 38.6612 223.18 38.5598 222.34 38.444C221.529 38.3571 220.53 38.2702 219.343 38.1833C218.155 38.1254 216.678 38.0965 214.912 38.0965C212.74 38.0965 210.785 38.1689 209.048 38.3137C207.339 38.4585 205.891 38.6033 204.704 38.7481Z" fill="#18191B"/>
<path d="M267.6 39.4865C262.88 39.4865 259.028 38.8349 256.045 37.5318C253.091 36.1996 250.919 34.3027 249.529 31.8412C248.139 29.3796 247.444 26.4112 247.444 22.9361C247.444 18.9396 248.183 15.7251 249.66 13.2925C251.165 10.8599 253.497 9.09334 256.653 7.99287C259.81 6.86345 263.879 6.29873 268.86 6.29873C272.567 6.29873 275.868 6.68969 278.764 7.4716C281.689 8.25351 283.991 9.4119 285.671 10.9468C287.351 12.4527 288.19 14.3206 288.19 16.5505C288.19 17.3613 288.06 18.1867 287.799 19.0265C287.568 19.8374 287.075 20.5759 286.322 21.2419C285.57 21.908 284.44 22.4438 282.934 22.8492C281.428 23.2546 279.416 23.4573 276.896 23.4573C275.216 23.4573 273.696 23.4429 272.335 23.4139C271.003 23.356 269.772 23.2691 268.643 23.1533H266.471V26.3678H268.599V24.6302C274.739 24.3406 281.226 24.3406 288.06 24.6302C288.06 27.8447 287.365 30.5525 285.975 32.7534C284.585 34.9543 282.398 36.634 279.416 37.7924C276.433 38.9218 272.494 39.4865 267.6 39.4865ZM266.471 20.8944H268.599V18.3749H266.471V20.8944Z" fill="#18191B"/>
<path d="M289.797 38.7481C289.507 37.8213 289.29 36.7209 289.145 35.4467C289.03 34.1724 289.001 32.8982 289.059 31.624C289.116 30.3498 289.261 29.2927 289.493 28.4529C290.159 28.2791 290.767 27.8303 291.317 27.1063C291.868 26.3533 292.143 25.108 292.143 23.3705C292.143 21.8935 291.983 20.7496 291.665 19.9387C291.375 19.0989 291.042 18.5052 290.666 18.1577C290.289 17.8102 289.956 17.622 289.667 17.593C289.377 16.6373 289.174 15.5079 289.059 14.2047C288.972 12.8726 288.986 11.5549 289.102 10.2517C289.247 8.94854 289.493 7.87704 289.84 7.0372C291.201 7.21096 292.736 7.35576 294.445 7.4716C296.154 7.55848 297.906 7.60192 299.701 7.60192C301.497 7.60192 303.263 7.58744 305.001 7.55848C306.738 7.50056 308.172 7.44264 309.301 7.38472C309.012 7.70328 308.708 8.18111 308.389 8.81822C308.071 9.42638 307.781 10.0925 307.52 10.8164C307.289 11.5404 307.115 12.2355 306.999 12.9015C306.883 13.5387 306.869 14.031 306.956 14.3785C307.448 12.9884 308.215 11.6852 309.258 10.4689C310.3 9.25262 311.647 8.26799 313.298 7.51504C314.977 6.73313 316.961 6.34217 319.249 6.34217C322.203 6.34217 324.549 7.16752 326.286 8.81822C328.024 10.4689 328.893 13.0608 328.893 16.5939C328.893 20.0111 327.893 22.6899 325.895 24.6302C323.926 26.5705 321.262 27.5407 317.902 27.5407C315.788 27.5407 314.094 27.0339 312.82 26.0203C311.575 24.9777 310.966 23.5008 310.995 21.5894H309.736C309.707 23.2112 309.996 24.5578 310.604 25.6293C311.242 26.7008 312.183 27.6131 313.428 28.366C313.631 28.9742 313.761 29.7416 313.819 30.6683C313.906 31.595 313.935 32.5796 313.906 33.6222C313.877 34.6358 313.79 35.6059 313.645 36.5326C313.5 37.4304 313.312 38.1689 313.081 38.7481C312.125 38.6612 310.909 38.5598 309.432 38.444C307.955 38.3571 306.391 38.2702 304.74 38.1833C303.089 38.1254 301.511 38.0965 300.005 38.0965C297.833 38.0965 295.878 38.1689 294.141 38.3137C292.432 38.4585 290.984 38.6033 289.797 38.7481Z" fill="#18191B"/>
</svg>
