<svg width="284" height="103" viewBox="0 0 284 103" fill="none" xmlns="http://www.w3.org/2000/svg">
<path d="M6.66469 39.0809V37.4705L13.2844 36.8263H14.4102L21.0748 37.4705V39.0809H6.66469ZM11.7533 39.0809C11.8133 36.0747 11.8433 33.0685 11.8433 30.0623C11.8734 27.056 11.8884 24.0319 11.8884 20.9899V18.091C11.8884 15.049 11.8734 12.0249 11.8433 9.01868C11.8433 5.97667 11.8133 2.97044 11.7533 0H15.9412C15.9112 2.97044 15.8812 5.97667 15.8512 9.01868C15.8512 12.0249 15.8512 15.049 15.8512 18.091V20.9899C15.8512 24.0319 15.8512 27.056 15.8512 30.0623C15.8812 33.0685 15.9112 36.0747 15.9412 39.0809H11.7533ZM0 10.1997L0.360254 0H27.3343L27.7395 10.1997H25.8032L24.182 0L26.0283 1.87889H1.66617L3.55751 0L1.93636 10.1997H0Z" fill="#18191B"/>
<path d="M28.9565 39.0809V37.5778L33.955 36.9336H35.8013L40.8899 37.5778V39.0809H28.9565ZM32.6941 39.0809C32.7241 38.222 32.7391 37.0589 32.7391 35.5916C32.7691 34.1243 32.7841 32.6032 32.7841 31.0286C32.8142 29.4181 32.8292 28.0044 32.8292 26.7876V23.5667C32.8292 21.7057 32.8142 20.0594 32.7841 18.6279C32.7841 17.1963 32.7541 15.8185 32.6941 14.4943L28.7313 14.2796V12.8838L35.6662 10.7365L36.2516 11.166L36.5218 18.7352V26.7876C36.5218 28.0044 36.5218 29.4181 36.5218 31.0286C36.5518 32.6032 36.5668 34.1243 36.5668 35.5916C36.5968 37.0589 36.6269 38.222 36.6569 39.0809H32.6941ZM36.4767 21.9562L35.5311 19.1647H36.3417C36.792 17.4111 37.4224 15.908 38.233 14.6554C39.0436 13.367 39.9442 12.3649 40.9349 11.6491C41.9556 10.9334 42.9913 10.5755 44.0421 10.5755C44.9127 10.5755 45.6782 10.7902 46.3387 11.2197C46.9992 11.6133 47.4345 12.2038 47.6446 12.9912C47.6146 13.9575 47.4195 14.709 47.0592 15.2459C46.699 15.7827 46.1135 16.0511 45.303 16.0511C44.7326 16.0511 44.2222 15.8901 43.7719 15.568C43.3216 15.2101 42.8412 14.6911 42.3309 14.0112L41.2951 12.8301L43.3216 12.9375C41.7605 13.4386 40.4245 14.4227 39.3137 15.8901C38.233 17.3216 37.2873 19.3436 36.4767 21.9562Z" fill="#18191B"/>
<path d="M55.8513 39.8862C54.05 39.8862 52.564 39.2778 51.3932 38.061C50.2223 36.8442 49.6369 35.1263 49.6369 32.9074C49.6369 31.5117 49.8921 30.277 50.4025 29.2033C50.9128 28.0939 51.7534 27.1097 52.9242 26.2508C54.1251 25.3919 55.7162 24.6224 57.6976 23.9424C58.9585 23.4772 60.2794 23.0298 61.6604 22.6004C63.0414 22.1709 64.3323 21.7951 65.5331 21.473V22.8151C64.3323 23.173 63.1164 23.5667 61.8855 23.9961C60.6547 24.3898 59.5289 24.8193 58.5082 25.2845C56.5868 26.1076 55.2209 27.0918 54.4103 28.2371C53.6297 29.3823 53.2395 30.7065 53.2395 32.2096C53.2395 33.8558 53.6147 35.1084 54.3652 35.9674C55.1458 36.8263 56.1665 37.2557 57.4274 37.2557C58.1179 37.2557 58.7934 37.0947 59.4538 36.7726C60.1143 36.4505 60.8648 35.8958 61.7054 35.1084C62.546 34.3211 63.5367 33.2474 64.6775 31.8875L65.0828 34.4106H64.002C63.0714 35.5916 62.1858 36.5937 61.3452 37.4168C60.5346 38.2399 59.694 38.8483 58.8234 39.242C57.9528 39.6715 56.9621 39.8862 55.8513 39.8862ZM67.8748 39.8325C66.5238 39.8325 65.5031 39.2957 64.8126 38.222C64.1521 37.1126 63.7769 35.6095 63.6868 33.7127V19.8089C63.6868 17.8047 63.5067 16.2658 63.1464 15.1922C62.7862 14.0827 62.2308 13.3133 61.4803 12.8838C60.7297 12.4544 59.754 12.2396 58.5532 12.2396C57.6826 12.2396 56.812 12.4007 55.9414 12.7228C55.0707 13.0091 54.1401 13.4743 53.1494 14.1185L55.0858 12.6691L54.3652 16.91C54.2452 17.8763 53.99 18.5563 53.5997 18.95C53.2395 19.3436 52.7741 19.5405 52.2037 19.5405C51.123 19.5405 50.4625 18.8963 50.2223 17.6079C50.6726 15.4248 51.7084 13.707 53.3295 12.4544C54.9507 11.2018 57.0221 10.5755 59.5439 10.5755C62.1557 10.5755 64.0921 11.327 65.353 12.8301C66.6439 14.2975 67.2894 16.6953 67.2894 20.0236V33.2832C67.2894 34.9653 67.4545 36.1105 67.7847 36.7189C68.1149 37.2915 68.5803 37.5778 69.1807 37.5778C69.571 37.5778 69.9162 37.4884 70.2164 37.3094C70.5166 37.0947 70.8469 36.7547 71.2071 36.2895L71.9276 37.0947C71.4473 38.0252 70.8619 38.7052 70.1714 39.1346C69.5109 39.5999 68.7454 39.8325 67.8748 39.8325Z" fill="#18191B"/>
<path d="M74.2531 39.0809V37.5778L79.1165 36.9873H80.6026L85.2859 37.5778V39.0809H74.2531ZM77.9457 39.0809C77.9757 38.222 77.9907 37.0589 77.9907 35.5916C78.0207 34.1243 78.0357 32.6032 78.0357 31.0286C78.0658 29.4181 78.0808 28.0044 78.0808 26.7876V23.5667C78.0808 21.7057 78.0658 20.0594 78.0357 18.6279C78.0357 17.1963 78.0057 15.8185 77.9457 14.4943L73.9829 14.2796V12.8838L80.9178 10.7365L81.5032 11.166L81.7734 17.4469V26.7876C81.7734 28.0044 81.7734 29.4181 81.7734 31.0286C81.8034 32.6032 81.8184 34.1243 81.8184 35.5916C81.8484 37.0589 81.8785 38.222 81.9085 39.0809H77.9457ZM89.5639 39.0809V37.5778L94.3823 36.9873H95.8683L100.597 37.5778V39.0809H89.5639ZM93.2565 39.0809C93.2865 38.222 93.3015 37.0768 93.3015 35.6453C93.3315 34.1779 93.3465 32.6569 93.3465 31.0822C93.3766 29.4718 93.3916 28.0402 93.3916 26.7876V20.6141C93.3916 17.9658 93.0163 16.1227 92.2658 15.0848C91.5453 14.0112 90.5396 13.4743 89.2487 13.4743C88.2279 13.4743 87.0121 13.868 85.6011 14.6554C84.1901 15.4427 82.659 16.9279 81.0078 19.111L80.6476 17.2858H81.0979C82.7191 14.888 84.3402 13.1701 85.9613 12.1323C87.5825 11.0944 89.1886 10.5755 90.7797 10.5755C92.7311 10.5755 94.2622 11.3628 95.373 12.9375C96.4837 14.4764 97.0391 17.0711 97.0391 20.7215V26.7876C97.0391 28.0402 97.0391 29.4718 97.0391 31.0822C97.0692 32.6569 97.0842 34.1779 97.0842 35.6453C97.1142 37.0768 97.1442 38.222 97.1742 39.0809H93.2565Z" fill="#18191B"/>
<path d="M112.086 39.8862C110.645 39.8862 109.339 39.6893 108.168 39.2957C106.997 38.9378 105.796 38.4189 104.565 37.7389V31.3507H106.547L107.628 38.1147L105.961 38.0073V36.0747C106.802 36.7547 107.688 37.2736 108.618 37.6315C109.549 37.9894 110.675 38.1683 111.996 38.1683C113.977 38.1683 115.463 37.6852 116.454 36.7189C117.475 35.7526 117.985 34.5179 117.985 33.0148C117.985 31.6906 117.64 30.617 116.949 29.7939C116.289 28.9349 115.043 28.1655 113.212 27.4855L110.87 26.4655C109.039 25.6782 107.583 24.6761 106.502 23.4593C105.451 22.2067 104.926 20.5783 104.926 18.5742C104.926 16.3195 105.646 14.4227 107.087 12.8838C108.558 11.3449 110.645 10.5755 113.347 10.5755C114.698 10.5755 115.898 10.7723 116.949 11.166C118.03 11.5597 119.126 12.1681 120.236 12.9912L120.101 18.7352H118.3L117.219 12.4544L118.615 12.7765V14.4943C117.715 13.7428 116.844 13.2059 116.003 12.8838C115.163 12.5259 114.277 12.347 113.347 12.347C111.635 12.347 110.344 12.7944 109.474 13.6891C108.603 14.5838 108.168 15.7469 108.168 17.1784C108.168 18.4668 108.528 19.5226 109.249 20.3457C109.969 21.1331 111.14 21.8667 112.761 22.5467L115.058 23.513C117.339 24.4435 118.961 25.5529 119.921 26.8413C120.882 28.1297 121.362 29.7044 121.362 31.5654C121.362 33.1043 121.002 34.5179 120.281 35.8063C119.591 37.0589 118.57 38.061 117.219 38.8125C115.868 39.5283 114.157 39.8862 112.086 39.8862Z" fill="#18191B"/>
<path d="M124.913 53.0384V51.5353L129.911 50.9985H131.577L136.936 51.5353V53.0384H124.913ZM128.695 53.0384C128.725 51.8216 128.74 50.4796 128.74 49.0122C128.77 47.5807 128.785 46.1134 128.785 44.6103C128.815 43.1429 128.83 41.783 128.83 40.5304V23.674C128.83 21.8488 128.815 20.2026 128.785 18.7352C128.785 17.2321 128.755 15.8185 128.695 14.4943L124.688 14.2796V12.8838L131.622 10.7365L132.208 11.166L132.478 15.729L132.568 15.9974V34.84L132.478 35.3768V40.5304C132.478 41.7472 132.478 43.0893 132.478 44.5566C132.508 46.0597 132.523 47.5449 132.523 49.0122C132.553 50.4796 132.583 51.8216 132.613 53.0384H128.695ZM139.593 39.8862C138.242 39.8862 136.891 39.5283 135.54 38.8125C134.189 38.0968 132.943 36.8084 131.803 34.9474H131.217L131.848 33.4443C132.988 34.9116 134.069 35.9316 135.09 36.5042C136.141 37.041 137.281 37.3094 138.512 37.3094C139.833 37.3094 141.019 36.9157 142.07 36.1284C143.151 35.3053 144.006 33.999 144.637 32.2096C145.297 30.3844 145.627 28.0044 145.627 25.0698C145.627 20.9899 144.982 17.9658 143.691 15.9974C142.43 14.0291 140.779 13.0449 138.737 13.0449C137.597 13.0449 136.471 13.367 135.36 14.0112C134.249 14.6554 133.018 15.8901 131.667 17.7153L131.217 16.2658H131.712C132.883 14.2259 134.204 12.7765 135.675 11.9175C137.176 11.0228 138.677 10.5755 140.178 10.5755C142.01 10.5755 143.631 11.166 145.042 12.347C146.453 13.528 147.564 15.1922 148.374 17.3395C149.185 19.4868 149.59 22.0278 149.59 24.9624C149.59 28.0402 149.155 30.7065 148.284 32.9611C147.444 35.18 146.258 36.8979 144.727 38.1147C143.226 39.2957 141.514 39.8862 139.593 39.8862Z" fill="#18191B"/>
<path d="M160.251 39.8862C158.45 39.8862 156.964 39.2778 155.793 38.061C154.622 36.8442 154.037 35.1263 154.037 32.9074C154.037 31.5117 154.292 30.277 154.802 29.2033C155.313 28.0939 156.153 27.1097 157.324 26.2508C158.525 25.3919 160.116 24.6224 162.097 23.9424C163.358 23.4772 164.679 23.0298 166.06 22.6004C167.441 22.1709 168.732 21.7951 169.933 21.473V22.8151C168.732 23.173 167.516 23.5667 166.285 23.9961C165.054 24.3898 163.929 24.8193 162.908 25.2845C160.987 26.1076 159.621 27.0918 158.81 28.2371C158.029 29.3823 157.639 30.7065 157.639 32.2096C157.639 33.8558 158.014 35.1084 158.765 35.9674C159.546 36.8263 160.566 37.2557 161.827 37.2557C162.518 37.2557 163.193 37.0947 163.854 36.7726C164.514 36.4505 165.265 35.8958 166.105 35.1084C166.946 34.3211 167.936 33.2474 169.077 31.8875L169.483 34.4106H168.402C167.471 35.5916 166.585 36.5937 165.745 37.4168C164.934 38.2399 164.094 38.8483 163.223 39.242C162.352 39.6715 161.362 39.8862 160.251 39.8862ZM172.274 39.8325C170.924 39.8325 169.903 39.2957 169.212 38.222C168.552 37.1126 168.177 35.6095 168.087 33.7127V19.8089C168.087 17.8047 167.906 16.2658 167.546 15.1922C167.186 14.0827 166.631 13.3133 165.88 12.8838C165.129 12.4544 164.154 12.2396 162.953 12.2396C162.082 12.2396 161.212 12.4007 160.341 12.7228C159.47 13.0091 158.54 13.4743 157.549 14.1185L159.485 12.6691L158.765 16.91C158.645 17.8763 158.39 18.5563 157.999 18.95C157.639 19.3436 157.174 19.5405 156.603 19.5405C155.523 19.5405 154.862 18.8963 154.622 17.6079C155.072 15.4248 156.108 13.707 157.729 12.4544C159.35 11.2018 161.422 10.5755 163.944 10.5755C166.555 10.5755 168.492 11.327 169.753 12.8301C171.044 14.2975 171.689 16.6953 171.689 20.0236V33.2832C171.689 34.9653 171.854 36.1105 172.184 36.7189C172.515 37.2915 172.98 37.5778 173.58 37.5778C173.971 37.5778 174.316 37.4884 174.616 37.3094C174.916 37.0947 175.247 36.7547 175.607 36.2895L176.327 37.0947C175.847 38.0252 175.262 38.7052 174.571 39.1346C173.911 39.5999 173.145 39.8325 172.274 39.8325Z" fill="#18191B"/>
<path d="M178.608 39.0809V37.5778L183.606 36.9336H185.453L190.541 37.5778V39.0809H178.608ZM182.345 39.0809C182.375 38.222 182.39 37.0589 182.39 35.5916C182.42 34.1243 182.435 32.6032 182.435 31.0286C182.465 29.4181 182.48 28.0044 182.48 26.7876V23.5667C182.48 21.7057 182.465 20.0594 182.435 18.6279C182.435 17.1963 182.405 15.8185 182.345 14.4943L178.383 14.2796V12.8838L185.317 10.7365L185.903 11.166L186.173 18.7352V26.7876C186.173 28.0044 186.173 29.4181 186.173 31.0286C186.203 32.6032 186.218 34.1243 186.218 35.5916C186.248 37.0589 186.278 38.222 186.308 39.0809H182.345ZM186.128 21.9562L185.182 19.1647H185.993C186.443 17.4111 187.074 15.908 187.884 14.6554C188.695 13.367 189.596 12.3649 190.586 11.6491C191.607 10.9334 192.643 10.5755 193.693 10.5755C194.564 10.5755 195.33 10.7902 195.99 11.2197C196.65 11.6133 197.086 12.2038 197.296 12.9912C197.266 13.9575 197.071 14.709 196.711 15.2459C196.35 15.7827 195.765 16.0511 194.954 16.0511C194.384 16.0511 193.874 15.8901 193.423 15.568C192.973 15.2101 192.493 14.6911 191.982 14.0112L190.946 12.8301L192.973 12.9375C191.412 13.4386 190.076 14.4227 188.965 15.8901C187.884 17.3216 186.939 19.3436 186.128 21.9562Z" fill="#18191B"/>
<path d="M210.371 39.8862C208.18 39.8862 206.213 39.3494 204.472 38.2757C202.731 37.2021 201.365 35.5737 200.374 33.3906C199.384 31.2075 198.888 28.5055 198.888 25.2845C198.888 22.2783 199.399 19.6836 200.419 17.5005C201.47 15.2817 202.836 13.5817 204.517 12.4007C206.198 11.1839 208.03 10.5755 210.011 10.5755C211.962 10.5755 213.629 11.0765 215.01 12.0786C216.421 13.0449 217.486 14.369 218.207 16.0511C218.957 17.7332 219.333 19.6299 219.333 21.7415C219.333 23.0298 219.228 24.1035 219.017 24.9624H200.644V23.2983H213.704C214.514 23.2983 215.055 23.0477 215.325 22.5467C215.595 22.0457 215.73 21.2583 215.73 20.1847C215.73 17.8942 215.22 16.0153 214.199 14.548C213.178 13.0449 211.752 12.2933 209.921 12.2933C208.6 12.2933 207.399 12.7944 206.318 13.7964C205.238 14.7627 204.382 16.1764 203.752 18.0374C203.121 19.8626 202.806 22.0636 202.806 24.6403C202.806 27.5392 203.166 29.9191 203.887 31.7801C204.637 33.6411 205.658 35.019 206.949 35.9137C208.24 36.7726 209.711 37.2021 211.362 37.2021C212.953 37.2021 214.334 36.88 215.505 36.2358C216.706 35.5558 217.772 34.5716 218.702 33.2832L219.423 34.0348C218.432 35.8242 217.186 37.2557 215.685 38.3294C214.184 39.3673 212.413 39.8862 210.371 39.8862Z" fill="#18191B"/>
<path d="M223.245 39.0809V37.5778L228.108 36.9873H229.594L234.278 37.5778V39.0809H223.245ZM226.937 39.0809C226.967 38.222 226.982 37.0589 226.982 35.5916C227.012 34.1243 227.027 32.6032 227.027 31.0286C227.057 29.4181 227.072 28.0044 227.072 26.7876V23.5667C227.072 21.7057 227.057 20.0594 227.027 18.6279C227.027 17.1963 226.997 15.8185 226.937 14.4943L222.975 14.2796V12.8838L229.909 10.7365L230.495 11.166L230.765 17.4469V26.7876C230.765 28.0044 230.765 29.4181 230.765 31.0286C230.795 32.6032 230.81 34.1243 230.81 35.5916C230.84 37.0589 230.87 38.222 230.9 39.0809H226.937ZM238.556 39.0809V37.5778L243.374 36.9873H244.86L249.588 37.5778V39.0809H238.556ZM242.248 39.0809C242.278 38.222 242.293 37.0768 242.293 35.6453C242.323 34.1779 242.338 32.6569 242.338 31.0822C242.368 29.4718 242.383 28.0402 242.383 26.7876V20.6141C242.383 17.9658 242.008 16.1227 241.257 15.0848C240.537 14.0112 239.531 13.4743 238.24 13.4743C237.22 13.4743 236.004 13.868 234.593 14.6554C233.182 15.4427 231.651 16.9279 230 19.111L229.639 17.2858H230.09C231.711 14.888 233.332 13.1701 234.953 12.1323C236.574 11.0944 238.18 10.5755 239.771 10.5755C241.723 10.5755 243.254 11.3628 244.365 12.9375C245.475 14.4764 246.031 17.0711 246.031 20.7215V26.7876C246.031 28.0402 246.031 29.4718 246.031 31.0822C246.061 32.6569 246.076 34.1779 246.076 35.6453C246.106 37.0768 246.136 38.222 246.166 39.0809H242.248Z" fill="#18191B"/>
<path d="M258.061 13.367V11.3807H266.392V13.367H258.061ZM261.709 39.8862C259.818 39.8862 258.422 39.2957 257.521 38.1147C256.62 36.9336 256.17 35.1442 256.17 32.7464C256.17 31.8875 256.17 31.118 256.17 30.438C256.2 29.7581 256.215 28.9349 256.215 27.9686V13.367H251.712V11.7565L257.161 11.2197L256.26 12.0249L257.611 3.00623H260.088L259.908 12.186V32.7464C259.908 34.4285 260.163 35.6453 260.673 36.3968C261.214 37.1484 261.979 37.5242 262.97 37.5242C263.63 37.5242 264.216 37.4168 264.726 37.2021C265.236 36.9515 265.792 36.6115 266.392 36.1821L267.068 37.0947C266.437 37.9894 265.687 38.6694 264.816 39.1346C263.945 39.6357 262.91 39.8862 261.709 39.8862Z" fill="#18191B"/>
<path d="M10.8977 88.9399C9.03637 88.9399 7.26512 88.6357 5.58393 88.0273C3.90275 87.4189 2.50677 86.6852 1.39598 85.8263L1.66617 77.8276H3.51247L4.90846 86.6315L2.88203 85.5042L2.61184 83.7327C4.08288 85.021 5.3888 85.8979 6.5296 86.3631C7.6704 86.7926 9.03637 87.0073 10.6275 87.0073C13.0592 87.0073 15.0256 86.3631 16.5266 85.0747C18.0277 83.7506 18.7782 81.8001 18.7782 79.2233C18.7782 77.8991 18.5681 76.7718 18.1478 75.8413C17.7575 74.875 17.097 73.9982 16.1664 73.2109C15.2357 72.3877 13.9448 71.5825 12.2937 70.7951L10.3573 69.8825C7.68541 68.5226 5.65899 66.9479 4.27801 65.1585C2.89704 63.3333 2.20655 61.0607 2.20655 58.3408C2.20655 56.0861 2.67188 54.2072 3.60254 52.7041C4.56321 51.1652 5.8241 50.02 7.3852 49.2684C8.97632 48.4811 10.7476 48.0874 12.6989 48.0874C14.4102 48.0874 15.9112 48.3558 17.2021 48.8926C18.493 49.3937 19.6939 50.1094 20.8047 51.0399L20.6245 58.6629H18.6882L17.2922 50.181L19.4087 51.362L19.5438 53.0799C18.3729 51.9704 17.2922 51.201 16.3015 50.7715C15.3408 50.3063 14.215 50.0737 12.9241 50.0737C10.8226 50.0737 9.0814 50.6821 7.70042 51.8989C6.34947 53.0799 5.674 54.8335 5.674 57.1598C5.674 59.1997 6.16935 60.8281 7.16004 62.0449C8.18076 63.2617 9.57675 64.3174 11.348 65.2122L13.3744 66.1784C15.656 67.3237 17.4423 68.4689 18.7332 69.6141C20.0541 70.7236 20.9848 71.9583 21.5252 73.3182C22.0655 74.6424 22.3357 76.2171 22.3357 78.0423C22.3357 80.2612 21.8554 82.1938 20.8947 83.84C19.9641 85.4863 18.6431 86.7568 16.9319 87.6515C15.2207 88.5104 13.2093 88.9399 10.8977 88.9399Z" fill="#18191B"/>
<path d="M33.1156 88.8862C31.3143 88.8862 29.8282 88.2778 28.6574 87.061C27.4866 85.8442 26.9012 84.1263 26.9012 81.9074C26.9012 80.5117 27.1564 79.277 27.6667 78.2033C28.1771 77.0939 29.0177 76.1097 30.1885 75.2508C31.3893 74.3919 32.9805 73.6224 34.9619 72.9425C36.2227 72.4772 37.5437 72.0298 38.9246 71.6004C40.3056 71.1709 41.5965 70.7951 42.7974 70.473V71.8151C41.5965 72.173 40.3807 72.5667 39.1498 72.9961C37.9189 73.3898 36.7931 73.8193 35.7724 74.2845C33.8511 75.1076 32.4851 76.0918 31.6745 77.2371C30.894 78.3823 30.5037 79.7065 30.5037 81.2096C30.5037 82.8558 30.879 84.1084 31.6295 84.9674C32.4101 85.8263 33.4308 86.2557 34.6917 86.2557C35.3822 86.2557 36.0576 86.0947 36.7181 85.7726C37.3786 85.4505 38.1291 84.8958 38.9697 84.1084C39.8103 83.3211 40.801 82.2474 41.9418 80.8875L42.3471 83.4106H41.2663C40.3356 84.5916 39.45 85.5937 38.6094 86.4168C37.7989 87.2399 36.9583 87.8483 36.0876 88.242C35.217 88.6715 34.2263 88.8862 33.1156 88.8862ZM45.139 88.8325C43.7881 88.8325 42.7674 88.2957 42.0769 87.222C41.4164 86.1126 41.0411 84.6095 40.9511 82.7127V68.8089C40.9511 66.8047 40.7709 65.2658 40.4107 64.1922C40.0504 63.0827 39.495 62.3133 38.7445 61.8838C37.994 61.4544 37.0183 61.2396 35.8175 61.2396C34.9468 61.2396 34.0762 61.4007 33.2056 61.7228C32.335 62.0091 31.4043 62.4743 30.4137 63.1185L32.35 61.6691L31.6295 65.91C31.5094 66.8763 31.2542 67.5563 30.864 67.95C30.5037 68.3436 30.0384 68.5405 29.468 68.5405C28.3872 68.5405 27.7268 67.8963 27.4866 66.6079C27.9369 64.4248 28.9726 62.707 30.5938 61.4544C32.2149 60.2018 34.2864 59.5755 36.8082 59.5755C39.42 59.5755 41.3564 60.327 42.6173 61.8301C43.9082 63.2975 44.5536 65.6953 44.5536 69.0236V82.2832C44.5536 83.9653 44.7187 85.1105 45.049 85.7189C45.3792 86.2915 45.8445 86.5778 46.4449 86.5778C46.8352 86.5778 47.1805 86.4884 47.4807 86.3094C47.7809 86.0947 48.1111 85.7547 48.4714 85.2895L49.1919 86.0947C48.7115 87.0252 48.1261 87.7052 47.4356 88.1346C46.7752 88.5999 46.0096 88.8325 45.139 88.8325Z" fill="#18191B"/>
<path d="M51.2021 88.0809V86.5778L56.4258 85.9873H57.8668L63.1806 86.5778V88.0809H51.2021ZM55.255 88.0809C55.285 86.9715 55.3 85.7189 55.3 84.3232C55.33 82.8916 55.345 81.4422 55.345 79.9749C55.3751 78.4718 55.3901 77.076 55.3901 75.7876V48.1411L51.4273 47.9263V46.4769L58.5423 44.8664L59.2178 45.3496L59.0827 53.6704V75.7876C59.0827 77.076 59.0827 78.4718 59.0827 79.9749C59.1127 81.4422 59.1277 82.8916 59.1277 84.3232C59.1577 85.7189 59.1878 86.9715 59.2178 88.0809H55.255Z" fill="#18191B"/>
<path d="M78.3105 88.8862C76.119 88.8862 74.1526 88.3494 72.4114 87.2757C70.6701 86.2021 69.3042 84.5737 68.3135 82.3906C67.3228 80.2075 66.8274 77.5055 66.8274 74.2845C66.8274 71.2783 67.3378 68.6836 68.3585 66.5005C69.4092 64.2817 70.7752 62.5817 72.4564 61.4007C74.1376 60.1839 75.9689 59.5755 77.9503 59.5755C79.9016 59.5755 81.5678 60.0765 82.9488 61.0786C84.3598 62.0449 85.4255 63.369 86.146 65.0511C86.8966 66.7332 87.2718 68.6299 87.2718 70.7415C87.2718 72.0298 87.1668 73.1035 86.9566 73.9624H68.5837V72.2983H81.6429C82.4534 72.2983 82.9938 72.0477 83.264 71.5467C83.5342 71.0457 83.6693 70.2583 83.6693 69.1847C83.6693 66.8942 83.1589 65.0153 82.1382 63.548C81.1175 62.0449 79.6915 61.2933 77.8602 61.2933C76.5393 61.2933 75.3384 61.7944 74.2577 62.7964C73.1769 63.7627 72.3213 65.1764 71.6909 67.0374C71.0604 68.8626 70.7452 71.0636 70.7452 73.6403C70.7452 76.5392 71.1054 78.9191 71.826 80.7801C72.5765 82.6411 73.5972 84.019 74.8881 84.9137C76.179 85.7726 77.6501 86.2021 79.3012 86.2021C80.8923 86.2021 82.2733 85.88 83.4441 85.2358C84.645 84.5558 85.7107 83.5716 86.6414 82.2832L87.3619 83.0348C86.3712 84.8242 85.1253 86.2557 83.6243 87.3294C82.1232 88.3673 80.352 88.8862 78.3105 88.8862Z" fill="#18191B"/>
<path d="M91.1389 88.0809V86.5778L96.1374 85.9336H97.9837L103.072 86.5778V88.0809H91.1389ZM94.8766 88.0809C94.9066 87.222 94.9216 86.0589 94.9216 84.5916C94.9516 83.1243 94.9666 81.6032 94.9666 80.0286C94.9966 78.4181 95.0117 77.0044 95.0117 75.7876V72.5667C95.0117 70.7057 94.9966 69.0594 94.9666 67.6279C94.9666 66.1963 94.9366 64.8185 94.8766 63.4943L90.9138 63.2796V61.8838L97.8487 59.7365L98.4341 60.166L98.7043 67.7352V75.7876C98.7043 77.0044 98.7043 78.4181 98.7043 80.0286C98.7343 81.6032 98.7493 83.1243 98.7493 84.5916C98.7793 86.0589 98.8093 87.222 98.8394 88.0809H94.8766ZM98.6592 70.9562L97.7136 68.1647H98.5241C98.9745 66.4111 99.6049 64.908 100.415 63.6554C101.226 62.367 102.127 61.3649 103.117 60.6491C104.138 59.9334 105.174 59.5755 106.225 59.5755C107.095 59.5755 107.861 59.7902 108.521 60.2197C109.182 60.6133 109.617 61.2039 109.827 61.9912C109.797 62.9575 109.602 63.709 109.242 64.2459C108.881 64.7827 108.296 65.0511 107.485 65.0511C106.915 65.0511 106.405 64.8901 105.954 64.568C105.504 64.2101 105.024 63.6911 104.513 63.0112L103.478 61.8301L105.504 61.9375C103.943 62.4385 102.607 63.4227 101.496 64.8901C100.415 66.3216 99.4698 68.3436 98.6592 70.9562Z" fill="#18191B"/>
<path d="M114.268 102.629C113.277 102.629 112.376 102.361 111.566 101.824C110.755 101.323 110.305 100.625 110.215 99.7301C110.335 98.9785 110.635 98.4238 111.115 98.0659C111.626 97.708 112.196 97.5291 112.827 97.5291C113.427 97.5291 113.982 97.708 114.493 98.0659C115.033 98.4238 115.559 98.9069 116.069 99.5153L117.375 101.018L115.934 101.877L115.033 100.965C116.534 100.464 117.855 99.3722 118.996 97.6901C120.167 96.0081 121.173 93.8429 122.013 91.1945L123.319 87.2757L123.499 86.5778L127.507 73.3719L131.29 60.3807H133.046L123.589 90.604C122.689 93.4313 121.743 95.7218 120.752 97.4754C119.792 99.2648 118.771 100.571 117.69 101.394C116.639 102.217 115.499 102.629 114.268 102.629ZM122.914 90.8188L112.647 60.3807H116.744L124.355 84.9137L124.625 85.6115L122.914 90.8188ZM110.305 61.8838V60.3807H121.473V61.8838L116.654 62.4207H114.763L110.305 61.8838ZM126.426 61.8838V60.3807H135.523V61.8838L131.83 62.367H131.155L126.426 61.8838Z" fill="#18191B"/>
<path d="M148.925 88.0809V86.5778L153.788 85.9873H155.274L159.958 86.5778V88.0809H148.925ZM152.617 88.0809C152.647 87.222 152.662 86.0589 152.662 84.5916C152.692 83.1243 152.707 81.6032 152.707 80.0286C152.738 78.4181 152.753 77.0044 152.753 75.7876V72.513C152.753 70.6878 152.738 69.0594 152.707 67.6279C152.707 66.1963 152.677 64.8185 152.617 63.4943L148.655 63.2259V61.8838L155.59 59.7365L156.175 60.166L156.445 66.2858V75.7876C156.445 77.0044 156.445 78.4181 156.445 80.0286C156.475 81.6032 156.49 83.1243 156.49 84.5916C156.52 86.0589 156.55 87.222 156.58 88.0809H152.617ZM163.695 88.0809V86.5778L168.559 85.9873H170.045L174.683 86.5778V88.0809H163.695ZM167.388 88.0809C167.418 87.222 167.433 86.0768 167.433 84.6453C167.463 83.1779 167.478 81.6569 167.478 80.0822C167.508 78.4718 167.523 77.0402 167.523 75.7876V69.7215C167.523 67.0731 167.163 65.2121 166.442 64.1385C165.752 63.0291 164.806 62.4743 163.605 62.4743C162.464 62.4743 161.249 62.9038 159.958 63.7627C158.667 64.6216 157.241 66.089 155.68 68.1647L155.274 66.2858H155.77C157.241 64.0669 158.727 62.4028 160.228 61.2933C161.759 60.1481 163.35 59.5755 165.001 59.5755C166.953 59.5755 168.454 60.3628 169.504 61.9375C170.585 63.4764 171.125 66.0711 171.125 69.7215V75.7876C171.125 77.0402 171.125 78.4718 171.125 80.0822C171.155 81.6569 171.17 83.1779 171.17 84.6453C171.201 86.0768 171.231 87.222 171.261 88.0809H167.388ZM178.466 88.0809V86.5778L183.239 85.9873H184.725L189.408 86.5778V88.0809H178.466ZM182.068 88.0809C182.128 87.222 182.158 86.0768 182.158 84.6453C182.188 83.1779 182.203 81.6569 182.203 80.0822C182.233 78.4718 182.248 77.0402 182.248 75.7876V69.7215C182.248 67.0016 181.888 65.1227 181.168 64.0848C180.447 63.0112 179.441 62.4743 178.15 62.4743C177.04 62.4743 175.839 62.868 174.548 63.6554C173.257 64.4427 171.861 65.8384 170.36 67.8426L169.865 65.91H170.405C171.846 63.7269 173.317 62.1343 174.818 61.1323C176.319 60.0944 177.88 59.5755 179.501 59.5755C181.573 59.5755 183.149 60.3628 184.23 61.9375C185.34 63.4764 185.896 66.0532 185.896 69.6678V75.7876C185.896 77.0402 185.896 78.4718 185.896 80.0822C185.926 81.6569 185.941 83.1779 185.941 84.6453C185.971 86.0768 186.001 87.222 186.031 88.0809H182.068Z" fill="#18191B"/>
<path d="M204.252 88.8862C202.271 88.8862 200.425 88.3315 198.713 87.222C197.032 86.1126 195.666 84.4842 194.616 82.3369C193.565 80.1538 193.039 77.4518 193.039 74.2308C193.039 71.0099 193.58 68.3257 194.661 66.1784C195.741 63.9953 197.137 62.3491 198.848 61.2396C200.56 60.1302 202.361 59.5755 204.252 59.5755C206.204 59.5755 208.035 60.1302 209.746 61.2396C211.457 62.3133 212.838 63.9417 213.889 66.1248C214.97 68.3078 215.51 71.0099 215.51 74.2308C215.51 77.4518 214.985 80.1538 213.934 82.3369C212.883 84.52 211.502 86.1663 209.791 87.2757C208.11 88.3494 206.264 88.8862 204.252 88.8862ZM204.252 87.222C206.504 87.222 208.26 86.1126 209.521 83.8937C210.812 81.6748 211.457 78.4718 211.457 74.2845C211.457 70.1331 210.812 66.93 209.521 64.6753C208.26 62.4207 206.504 61.2933 204.252 61.2933C202.031 61.2933 200.274 62.4207 198.984 64.6753C197.693 66.93 197.047 70.1331 197.047 74.2845C197.047 78.4718 197.693 81.6748 198.984 83.8937C200.274 86.1126 202.031 87.222 204.252 87.222Z" fill="#18191B"/>
<path d="M229.815 88.8862C227.924 88.8862 226.227 88.2778 224.726 87.061C223.255 85.8442 222.084 84.1621 221.214 82.0148C220.373 79.8675 219.953 77.3802 219.953 74.5529C219.953 71.4751 220.418 68.8268 221.349 66.6079C222.28 64.3532 223.54 62.6175 225.132 61.4007C226.723 60.1839 228.494 59.5755 230.445 59.5755C231.766 59.5755 233.042 59.9692 234.273 60.7565C235.534 61.5081 236.705 62.7785 237.785 64.568H238.191L237.65 66.0174C236.57 64.6216 235.534 63.6196 234.543 63.0112C233.582 62.367 232.547 62.0449 231.436 62.0449C230.055 62.0449 228.794 62.4743 227.653 63.3333C226.512 64.1564 225.597 65.4806 224.906 67.3058C224.246 69.131 223.916 71.5109 223.916 74.4456C223.916 77.1655 224.231 79.4023 224.861 81.1559C225.492 82.9095 226.347 84.2158 227.428 85.0747C228.539 85.8979 229.77 86.3094 231.121 86.3094C232.352 86.3094 233.477 86.0052 234.498 85.3968C235.519 84.7526 236.54 83.679 237.56 82.1759L238.146 83.679H237.695C236.705 85.4326 235.534 86.7389 234.183 87.5978C232.832 88.4567 231.376 88.8862 229.815 88.8862ZM237.245 88.6178L237.065 83.3032V64.9437L237.155 64.4606V48.1948L233.057 47.9263V46.4769L240.217 44.8664L240.848 45.3496L240.713 53.5093V86.2557L244.945 86.5778V88.0809L237.245 88.6178Z" fill="#18191B"/>
<path d="M259.757 88.8862C257.565 88.8862 255.599 88.3494 253.858 87.2757C252.116 86.2021 250.75 84.5737 249.76 82.3906C248.769 80.2075 248.274 77.5055 248.274 74.2845C248.274 71.2783 248.784 68.6836 249.805 66.5005C250.855 64.2817 252.221 62.5817 253.903 61.4007C255.584 60.1839 257.415 59.5755 259.396 59.5755C261.348 59.5755 263.014 60.0765 264.395 61.0786C265.806 62.0449 266.872 63.369 267.592 65.0511C268.343 66.7332 268.718 68.6299 268.718 70.7415C268.718 72.0298 268.613 73.1035 268.403 73.9624H250.03V72.2983H263.089C263.9 72.2983 264.44 72.0477 264.71 71.5467C264.98 71.0457 265.115 70.2583 265.115 69.1847C265.115 66.8942 264.605 65.0153 263.584 63.548C262.564 62.0449 261.138 61.2933 259.306 61.2933C257.985 61.2933 256.785 61.7944 255.704 62.7964C254.623 63.7627 253.767 65.1764 253.137 67.0374C252.507 68.8626 252.191 71.0636 252.191 73.6403C252.191 76.5392 252.552 78.9191 253.272 80.7801C254.023 82.6411 255.043 84.019 256.334 84.9137C257.625 85.7726 259.096 86.2021 260.747 86.2021C262.339 86.2021 263.719 85.88 264.89 85.2358C266.091 84.5558 267.157 83.5716 268.088 82.2832L268.808 83.0348C267.817 84.8242 266.572 86.2557 265.07 87.3294C263.569 88.3673 261.798 88.8862 259.757 88.8862Z" fill="#18191B"/>
<path d="M271.743 88.0809V86.5778L276.967 85.9873H278.408L283.722 86.5778V88.0809H271.743ZM275.796 88.0809C275.826 86.9715 275.841 85.7189 275.841 84.3232C275.871 82.8916 275.886 81.4422 275.886 79.9749C275.916 78.4718 275.931 77.076 275.931 75.7876V48.1411L271.968 47.9263V46.4769L279.083 44.8664L279.759 45.3496L279.624 53.6704V75.7876C279.624 77.076 279.624 78.4718 279.624 79.9749C279.654 81.4422 279.669 82.8916 279.669 84.3232C279.699 85.7189 279.729 86.9715 279.759 88.0809H275.796Z" fill="#18191B"/>
</svg>
