<svg width="179" height="41" viewBox="0 0 179 41" fill="none" xmlns="http://www.w3.org/2000/svg">
<path d="M15.0043 3.00623H20.131V37.3899L24.7477 38.6246V39.4836H10.4144V38.6246L15.0043 37.3899V3.00623ZM32.2901 3.83831H2.84518L5.69036 3.32832L0.939446 13.0449L0 12.8301L1.50311 0H1.98626L5.87825 2.36204L3.48937 1.93257H31.6727L29.2839 2.36204L33.1759 0H33.659L35.1353 12.8301L34.1958 13.0449L29.4449 3.32832L32.2901 3.83831Z" fill="#18191B"/>
<path d="M52.9734 19.2721C55.5144 19.2721 57.5454 18.601 59.0664 17.259C60.6053 15.899 61.3748 13.9217 61.3748 11.327C61.3748 9.75234 61.0348 8.39238 60.3548 7.24715C59.6748 6.10192 58.5654 5.22511 57.0265 4.61671C55.4876 4.0083 53.4208 3.7041 50.8261 3.7041H43.8742L43.9279 1.93257H52.9734C56.3375 1.93257 59.0127 2.33519 60.999 3.14043C63.0031 3.94567 64.4436 5.04617 65.3204 6.44191C66.1972 7.81977 66.6357 9.38551 66.6357 11.1391C66.6357 12.7138 66.2241 14.1633 65.4009 15.4874C64.5957 16.7937 63.3968 17.8763 61.8042 18.7352C60.2116 19.5763 58.2254 20.0952 55.8454 20.292V20.1847C57.3486 20.2205 58.5654 20.4262 59.4959 20.802C60.4443 21.1599 61.2405 21.7325 61.8847 22.5199C62.5468 23.3072 63.1731 24.3809 63.7636 25.7408L67.4409 33.82C68.0851 35.2337 68.6487 36.2626 69.1319 36.9068C69.6329 37.551 70.1787 37.9536 70.7692 38.1147C71.3597 38.2757 72.1202 38.3562 73.0507 38.3562V39.4836C71.2613 39.6267 69.794 39.6804 68.6487 39.6446C67.5214 39.6267 66.5909 39.4657 65.8572 39.1615C65.1236 38.8573 64.5062 38.3741 64.0052 37.712C63.5042 37.05 62.9942 36.1552 62.4752 35.0279L58.4759 26.1703C57.8675 24.8103 57.3217 23.7635 56.8386 23.0298C56.3554 22.2783 55.8275 21.7594 55.2549 21.473C54.6823 21.1867 53.9576 21.0436 53.0808 21.0436H43.9279L43.8742 19.2721H52.9734ZM47.9541 1.93257V37.3899L52.5708 38.6246V39.4836H38.2375V38.6246L42.8542 37.3899V3.99936L38.2375 2.7915V1.93257H47.9541Z" fill="#18191B"/>
<path d="M104.907 25.0966V3.99936L99.9411 2.7915V1.93257H111.563V2.7915L106.974 3.99936V25.2308C106.974 28.3623 106.392 31.0375 105.229 33.2564C104.084 35.4574 102.402 37.1394 100.183 38.3025C97.9817 39.4478 95.3065 40.0204 92.1571 40.0204C88.8646 40.0204 86.0731 39.4299 83.7826 38.2489C81.5101 37.0678 79.7743 35.3053 78.5754 32.9611C77.3944 30.617 76.8039 27.7181 76.8039 24.2645V3.99936L72.1872 2.7915V1.93257H86.5204V2.7915L81.9037 3.99936V24.694C81.9037 27.396 82.3332 29.6507 83.1921 31.458C84.051 33.2653 85.3305 34.6163 87.0304 35.5111C88.7483 36.3879 90.8866 36.8263 93.4455 36.8263C95.9149 36.8263 97.9996 36.3879 99.6995 35.5111C101.417 34.6342 102.715 33.328 103.592 31.5922C104.468 29.8565 104.907 27.6913 104.907 25.0966Z" fill="#18191B"/>
<path d="M137.003 3.67726L133.433 2.81834L136.413 0.429462H136.869L138.479 12.6423L137.674 12.7765L132.896 4.21409L134.185 5.85141C133.147 4.99248 131.993 4.30356 130.722 3.78463C129.47 3.26569 128.136 3.00623 126.723 3.00623C124.397 3.00623 122.652 3.56095 121.489 4.67039C120.326 5.77983 119.744 7.2561 119.744 9.0992C119.744 10.3339 120.004 11.3718 120.523 12.2128C121.041 13.0538 121.748 13.7606 122.643 14.3333C123.556 14.9059 124.584 15.4069 125.73 15.8364C126.875 16.2658 128.065 16.6953 129.3 17.1248C130.552 17.5721 131.787 18.0731 133.004 18.6279C134.238 19.1826 135.357 19.8715 136.359 20.6946C137.379 21.5178 138.193 22.5646 138.801 23.8351C139.41 25.0877 139.714 26.6445 139.714 28.5055C139.714 30.8317 139.115 32.8627 137.916 34.5984C136.735 36.3163 135.133 37.6584 133.111 38.6246C131.107 39.573 128.843 40.0472 126.32 40.0472C124.531 40.0472 122.938 39.913 121.542 39.6446C120.165 39.3941 118.733 38.9646 117.248 38.3562L114.913 28.4786H115.959L122.616 38.7589L118.402 35.9674C119.851 36.7905 121.158 37.4257 122.321 37.8731C123.484 38.3204 124.719 38.5441 126.025 38.5441C128.101 38.5441 129.872 38.2399 131.34 37.6315C132.825 37.0231 133.961 36.1284 134.748 34.9474C135.536 33.7664 135.929 32.3169 135.929 30.5991C135.929 29.0781 135.607 27.8165 134.963 26.8145C134.319 25.8124 133.469 24.9803 132.413 24.3182C131.375 23.6561 130.23 23.0925 128.978 22.6272C127.725 22.1441 126.49 21.6699 125.273 21.2046C124.039 20.7394 122.876 20.2383 121.784 19.7015C120.71 19.1647 119.753 18.5384 118.912 17.8226C118.089 17.089 117.436 16.2122 116.953 15.1922C116.487 14.1543 116.255 12.9107 116.255 11.4612C116.255 9.38551 116.738 7.59609 117.704 6.09298C118.67 4.58986 120.039 3.42674 121.811 2.60361C123.6 1.78047 125.712 1.36891 128.145 1.36891C129.792 1.36891 131.313 1.5568 132.708 1.93257C134.122 2.29046 135.554 2.87202 137.003 3.67726Z" fill="#18191B"/>
<path d="M158.123 3.00623H163.25V37.3899L167.866 38.6246V39.4836H153.533V38.6246L158.123 37.3899V3.00623ZM175.409 3.83831H145.964L148.809 3.32832L144.058 13.0449L143.119 12.8301L144.622 0H145.105L148.997 2.36204L146.608 1.93257H174.791L172.403 2.36204L176.295 0H176.778L178.254 12.8301L177.315 13.0449L172.564 3.32832L175.409 3.83831Z" fill="#18191B"/>
</svg>
