<svg width="164" height="84" viewBox="0 0 164 84" fill="none" xmlns="http://www.w3.org/2000/svg">
<path d="M9.71655 34.5179V29.6865H4.88512V19.9163H0V0H5.42195V19.3794H10.2534V29.1497H14.6554V19.3794H19.4868V0H24.9624V19.9163H20.0236V29.6865H15.1922V34.5179H9.71655Z" fill="#18191B"/>
<path d="M31.4547 34.5179V9.71655H36.8766V34.5179H31.4547ZM31.4547 5.42195V0H36.8766V5.42195H31.4547Z" fill="#18191B"/>
<path d="M48.2401 34.5179V29.6865H43.355V14.6017H48.2401V9.71655H62.8955V0H68.3174V29.6865H63.3786V34.5179H48.2401ZM48.7769 29.1497H62.8418V15.0848H48.7769V29.1497Z" fill="#18191B"/>
<path d="M78.6463 34.5179V29.6865H73.7612V14.6017H78.6463V9.71655H93.7848V14.6017H98.7236V19.9163H93.248V15.0848H79.1831V19.3794H88.9534V24.8014H79.1831V29.1497H93.248V24.2109H98.7236V29.6328H93.7848V34.5179H78.6463Z" fill="#18191B"/>
<path d="M110.101 34.5179V29.6865H105.216V14.6017H110.101V9.71655H125.239V14.6017H130.178V29.6865H125.239V34.5179H110.101ZM110.638 29.1497H124.703V15.0848H110.638V29.1497Z" fill="#18191B"/>
<path d="M4.88512 83.5179V78.6865H0V53.8851H4.88512V49H20.0236V53.8851H24.9624V64.0848H19.4868V54.4219H5.42195V78.1497H19.4868V73.8014H14.6554V68.9163H9.71655V63.6017H15.1922V68.3794H24.9624V78.6865H20.0236V83.5179H4.88512Z" fill="#18191B"/>
<path d="M36.3398 83.5179V78.6865H31.4547V63.6017H36.3398V58.7166H51.4783V63.6017H56.4171V78.1497H61.3022V83.5179H55.8803V78.6865H51.4783V83.5179H36.3398ZM36.8766 78.1497H50.9414V64.0848H36.8766V78.1497Z" fill="#18191B"/>
<path d="M66.1596 83.5179V58.7166H81.3518V63.6017H85.6464V58.7166H96.0072V63.6017H100.839V83.5179H95.4703V64.0848H86.1833V83.5179H80.815V64.0848H71.5816V83.5179H66.1596Z" fill="#18191B"/>
<path d="M111.674 83.5179V78.6865H106.789V63.6017H111.674V58.7166H126.812V63.6017H131.751V68.9163H126.275V64.0848H112.211V68.3794H121.981V73.8014H112.211V78.1497H126.275V73.2109H131.751V78.6328H126.812V83.5179H111.674Z" fill="#18191B"/>
<path d="M138.243 83.5179V78.1497H157.73V73.8014H143.128V68.9163H138.243V63.6017H143.128V58.7166H163.206V64.0848H143.665V68.3794H158.267V73.2645H163.206V78.6865H158.267V83.5179H138.243Z" fill="#18191B"/>
</svg>
