<svg width="189" height="91" viewBox="0 0 189 91" fill="none" xmlns="http://www.w3.org/2000/svg">
<path d="M13.0013 3.59107C10.4499 4.55219 8.47528 6.04628 7.0773 8.07336C5.69679 10.083 5.00653 12.5644 5.00653 15.5176C5.00653 16.636 5.12886 17.5272 5.3735 18.1913C5.4434 18.4184 5.53078 18.6194 5.63563 18.7942C5.70553 18.9165 5.74048 19.0388 5.74048 19.1611C3.80077 19.1611 2.38531 18.7767 1.4941 18.0078C0.498032 17.169 0 15.8147 0 13.9449C0 12.7741 0.253385 11.6207 0.760154 10.4849C1.26692 9.33155 1.98339 8.2219 2.90956 7.15593C3.7833 6.1424 4.82305 5.19876 6.02881 4.32502C7.25205 3.4338 8.57139 2.66491 9.98685 2.01834C12.9576 0.67278 15.9108 0 18.8466 0C19.6504 0 20.3669 0.0349496 20.996 0.104849L21.4678 33.1322L32.7653 0.262122H39.5804L40.0523 33.1322L51.3235 0.262122H55.0981L40.1571 40.262H32.4245L31.7954 12.9488L21.5989 40.262H13.8663L13.0013 3.59107Z" fill="#18191B"/>
<path d="M59.161 40.4717C56.5048 40.4717 54.4515 39.8251 53.0011 38.532C51.3759 37.099 50.5634 34.9234 50.5634 32.0051C50.5634 30.9042 50.6769 29.6897 50.9041 28.3616C51.1313 27.0161 51.4808 25.6618 51.9526 24.2987C53.0361 21.0484 54.5826 18.4534 56.5922 16.5137C59.0212 14.1371 61.9133 12.9488 65.2684 12.9488C69.8643 12.9488 72.1622 15.806 72.1622 21.5202V21.5727C72.2671 21.6076 72.3545 21.6251 72.4244 21.6251H72.7389C73.9272 21.6251 75.3339 21.2931 76.9591 20.629C78.392 20.0349 79.7463 19.2922 81.022 18.401L81.4938 19.8689C80.4453 20.9698 79.091 21.9047 77.4309 22.6736C75.7883 23.4425 73.9709 23.9929 71.9787 24.3249C71.769 26.7539 71.2972 28.9732 70.5633 30.9828C69.8293 32.975 68.8857 34.6875 67.7324 36.1204C66.5965 37.5184 65.2946 38.5931 63.8267 39.3445C62.3589 40.096 60.8036 40.4717 59.161 40.4717ZM61.3104 35.6486C61.9395 35.6486 62.5773 35.369 63.2239 34.8098C63.8879 34.2332 64.5083 33.438 65.0849 32.4245C65.6616 31.411 66.1596 30.2227 66.579 28.8596C66.9984 27.4966 67.313 26.0375 67.5227 24.4822C66.9984 24.3424 66.6227 24.0803 66.3955 23.6958C66.1858 23.3114 66.081 22.8221 66.081 22.228C66.081 21.494 66.2295 20.8824 66.5266 20.3931C66.8237 19.9038 67.2343 19.5456 67.7586 19.3184C67.6887 18.1825 67.5052 17.37 67.2081 16.8807C67.0508 16.636 66.8499 16.4613 66.6052 16.3564C66.3781 16.2516 66.081 16.1992 65.714 16.1992C64.5083 16.1992 63.3287 17.1078 62.1754 18.9252C61.1094 20.5679 60.2357 22.5949 59.5542 25.0065C58.8901 27.3656 58.5581 29.4625 58.5581 31.2974C58.5581 32.1886 58.6018 32.9138 58.6892 33.473C58.794 34.0322 58.96 34.4691 59.1872 34.7836C59.3969 35.0982 59.6677 35.3253 59.9998 35.4651C60.3318 35.5874 60.7687 35.6486 61.3104 35.6486Z" fill="#18191B"/>
<path d="M78.558 13.4207H86.2906L85.6091 16.7496C86.8323 15.6662 87.8284 14.8973 88.5973 14.4429C89.7856 13.7614 90.9476 13.4207 92.0835 13.4207C93.2368 13.4207 94.163 13.8313 94.862 14.6526C95.1766 15.0196 95.4125 15.4477 95.5697 15.937C95.727 16.4088 95.8056 16.9156 95.8056 17.4573C95.8056 17.9466 95.727 18.4185 95.5697 18.8728C95.4125 19.3271 95.1766 19.7378 94.862 20.1048C94.5125 20.4892 94.0844 20.795 93.5776 21.0222C93.0883 21.2494 92.5379 21.363 91.9262 21.363C91.4544 21.363 91.0787 21.2843 90.7991 21.127C90.5195 20.9698 90.3011 20.7426 90.1438 20.4455C90.004 20.1485 89.9079 19.8601 89.8555 19.5805C89.6982 18.8291 89.5409 18.3311 89.3837 18.0864C89.2613 17.9117 89.0691 17.8243 88.807 17.8243C88.0556 17.8243 87.4177 17.9816 86.8935 18.2961C86.3692 18.6107 85.7052 19.1349 84.9014 19.8689L80.6026 40.262H72.87L78.558 13.4207Z" fill="#18191B"/>
<path d="M115.281 40.5765C113.062 40.5765 111.376 40.0523 110.222 39.0038C109.087 37.9553 108.519 36.4437 108.519 34.4691C108.519 33.6128 108.623 32.6779 108.833 31.6644L109.279 29.5674C109.419 29.0257 109.488 28.3704 109.488 27.6015C109.488 26.7627 109.34 26.1248 109.043 25.688C108.746 25.2336 108.248 25.0065 107.549 25.0065C106.972 25.0065 106.369 25.1725 105.74 25.5045C105.111 25.8365 104.395 26.3345 103.591 26.9986L100.786 40.262H93.0534L100.838 3.74835L108.781 2.67365L104.77 21.5727L115.124 13.4207H120.445L109.698 20.8911C110.31 20.7339 110.904 20.6552 111.481 20.6552C112.459 20.6552 113.315 20.8212 114.049 21.1533C114.801 21.4678 115.43 21.9221 115.937 22.5163C116.408 23.0755 116.767 23.7395 117.011 24.5084C117.256 25.2598 117.378 26.0724 117.378 26.9462C117.378 27.7675 117.308 28.449 117.169 28.9907L116.566 31.6644C116.391 32.241 116.304 32.8177 116.304 33.3944C116.304 34.006 116.461 34.4953 116.775 34.8622C117.09 35.2117 117.632 35.3865 118.401 35.3865C119.467 35.3865 120.366 34.9496 121.1 34.0759C121.66 33.4118 122.263 32.2672 122.909 30.6421H125.163C123.853 34.6089 122.131 37.3874 120 38.9776C118.602 40.0435 117.029 40.5765 115.281 40.5765Z" fill="#18191B"/>
<path d="M128.256 40.5765C126.544 40.5765 125.19 40.0697 124.193 39.0562C123.075 37.9378 122.516 36.3039 122.516 34.1545C122.516 33.141 122.656 31.9702 122.935 30.6421L128.676 3.74835L136.618 2.67365L130.458 31.6644C130.318 32.1187 130.249 32.6954 130.249 33.3944C130.249 34.1283 130.415 34.6438 130.747 34.9409C131.096 35.238 131.655 35.3865 132.424 35.3865C132.948 35.3865 133.455 35.2729 133.944 35.0457C134.451 34.8011 134.914 34.4691 135.334 34.0497C136.19 33.1934 136.837 32.0575 137.273 30.6421H139.528C138.567 33.3507 137.361 35.5088 135.91 37.1165C134.687 38.4271 133.307 39.3707 131.769 39.9474C130.65 40.3668 129.48 40.5765 128.256 40.5765Z" fill="#18191B"/>
<path d="M146.264 10.5111C145.687 10.5111 145.137 10.4062 144.613 10.1966C144.089 9.96938 143.634 9.66357 143.25 9.27912C142.865 8.91215 142.56 8.46655 142.332 7.9423C142.123 7.41806 142.018 6.8676 142.018 6.29093C142.018 5.71426 142.123 5.16381 142.332 4.63956C142.56 4.11532 142.865 3.65224 143.25 3.25031C143.634 2.84839 144.089 2.54258 144.613 2.33289C145.137 2.10571 145.687 1.99213 146.264 1.99213C146.841 1.99213 147.391 2.10571 147.916 2.33289C148.44 2.54258 148.903 2.84839 149.305 3.25031C149.707 3.65224 150.013 4.11532 150.222 4.63956C150.449 5.16381 150.563 5.71426 150.563 6.29093C150.563 6.8676 150.449 7.41806 150.222 7.9423C150.013 8.46655 149.707 8.91215 149.305 9.27912C148.903 9.66357 148.44 9.96938 147.916 10.1966C147.391 10.4062 146.841 10.5111 146.264 10.5111ZM142.621 40.5765C140.908 40.5765 139.554 40.0697 138.558 39.0562C137.439 37.9378 136.88 36.3039 136.88 34.1545C136.88 33.141 137.02 31.9702 137.3 30.6421L140.943 13.4207H148.676L144.822 31.6644C144.683 32.1187 144.613 32.6954 144.613 33.3944C144.613 34.1283 144.779 34.6438 145.111 34.9409C145.46 35.238 146.02 35.3865 146.788 35.3865C147.313 35.3865 147.819 35.2729 148.309 35.0457C148.815 34.8011 149.279 34.4691 149.698 34.0497C150.554 33.1934 151.201 32.0575 151.638 30.6421H153.892C152.931 33.3507 151.725 35.5088 150.275 37.1165C149.051 38.4271 147.671 39.3707 146.133 39.9474C145.015 40.3668 143.844 40.5765 142.621 40.5765Z" fill="#18191B"/>
<path d="M146.841 53.6826C146.037 53.6826 145.259 53.5428 144.508 53.2632C143.739 52.9836 143.058 52.5904 142.463 52.0837C141.852 51.542 141.371 50.9129 141.022 50.1964C140.672 49.4974 140.497 48.7285 140.497 47.8897C140.497 46.684 140.733 45.6529 141.205 44.7967C141.66 43.9404 142.324 43.1977 143.197 42.5686C143.966 42.0269 144.866 41.5464 145.897 41.127C146.911 40.725 148.186 40.2969 149.724 39.8426L156.225 9.17428C156.889 5.76669 158.278 3.28526 160.393 1.73001C161.913 0.611618 163.783 0.0524244 166.002 0.0524244C166.806 0.0524244 167.583 0.192223 168.335 0.47182C169.104 0.751417 169.785 1.1446 170.379 1.65137C170.991 2.19309 171.463 2.82218 171.795 3.53865C172.144 4.23764 172.319 5.00653 172.319 5.84532C172.319 6.68411 172.267 7.41806 172.162 8.04715H169.645C169.715 7.50543 169.75 7.02487 169.75 6.60548C169.75 6.01133 169.549 5.55699 169.147 5.24244C168.763 4.9279 168.282 4.77062 167.706 4.77062C166.989 4.77062 166.317 5.05022 165.687 5.60941C164.849 6.36083 164.272 7.54912 163.957 9.17428L163.04 13.4207H166.972L166.579 15.5701H162.621L156.434 44.5608C155.753 47.9684 154.399 50.4498 152.372 52.005C150.886 53.1234 149.043 53.6826 146.841 53.6826ZM145.609 48.912C146.238 48.912 146.806 48.6149 147.313 48.0208C147.872 47.3393 148.317 46.2383 148.649 44.718L149.357 41.5988C147.452 42.2279 146.046 42.9269 145.137 43.6958C144.019 44.6394 143.459 45.784 143.459 47.1296C143.459 47.6014 143.66 47.9946 144.062 48.3091C144.534 48.711 145.05 48.912 145.609 48.912Z" fill="#18191B"/>
<path d="M173.708 40.5765C171.07 40.5765 169.034 39.9125 167.601 38.5844C166.081 37.1689 165.32 34.9933 165.32 32.0575C165.32 30.9566 165.434 29.7334 165.661 28.3878C165.871 27.0423 166.194 25.6967 166.631 24.3511C167.12 22.8483 167.741 21.4241 168.492 20.0786C169.261 18.733 170.152 17.5447 171.166 16.5137C173.507 14.1371 176.391 12.9488 179.816 12.9488C182 12.9488 183.59 13.4731 184.586 14.5216C185.355 15.3429 185.74 16.5312 185.74 18.0864C185.74 19.6067 185.408 21.0397 184.744 22.3852C184.08 23.7133 183.162 24.8929 181.991 25.9239C180.821 26.9374 179.492 27.75 178.007 28.3616C176.522 28.9558 174.984 29.3053 173.394 29.4101C173.306 30.3188 173.263 31.0353 173.263 31.5595C173.263 33.307 173.595 34.5127 174.259 35.1768C174.835 35.7709 175.797 36.068 177.142 36.068C179.082 36.068 180.856 35.5438 182.463 34.4953C183.145 34.0584 183.8 33.5429 184.429 32.9488C185.058 32.3371 185.792 31.5682 186.631 30.6421H188.466C186.771 33.5079 184.822 35.7884 182.62 37.4835C179.912 39.5455 176.941 40.5765 173.708 40.5765ZM173.813 26.8413C174.809 26.7714 175.779 26.4831 176.723 25.9763C177.666 25.4695 178.505 24.8055 179.239 23.9842C179.973 23.1454 180.55 22.2105 180.969 21.1795C181.389 20.131 181.598 19.065 181.598 17.9816C181.598 17.2651 181.493 16.7234 181.284 16.3564C181.091 15.972 180.751 15.7798 180.261 15.7798C179.615 15.7798 178.96 16.0943 178.295 16.7234C177.649 17.3525 177.02 18.2175 176.408 19.3184C175.849 20.3494 175.342 21.5202 174.888 22.8308C174.434 24.1414 174.075 25.4783 173.813 26.8413Z" fill="#18191B"/>
<path d="M20.4717 90.1794C18.9864 90.1794 17.8156 89.926 16.9593 89.4192C15.7535 88.7202 15.1507 87.6455 15.1507 86.1951C15.1507 85.234 15.3778 84.1943 15.8322 83.0759C16.4962 83.7923 17.1078 84.2991 17.667 84.5962C18.2262 84.8758 18.8204 85.0156 19.4495 85.0156C21.2319 85.0156 22.6037 83.9147 23.5648 81.7128C23.9667 80.8216 24.2638 79.8168 24.456 78.6984C24.6482 77.5626 24.7443 76.4529 24.7443 75.3695C24.7443 73.3075 24.3861 71.6998 23.6696 70.5464C22.8134 69.2009 21.4765 68.5281 19.6592 68.5281C18.698 68.5281 17.8767 68.5893 17.1952 68.7116L12.7916 89.262H5.05896L12.346 55.1074L20.2883 54.059L17.7719 65.9593H18.0864C19.1174 65.9593 20.1048 65.7059 21.0484 65.1992C21.992 64.6924 22.8221 64.0021 23.5386 63.1284C24.2376 62.2721 24.788 61.3285 25.1899 60.2975C25.6093 59.2665 25.819 58.2529 25.819 57.2568C25.819 56.488 25.6792 55.7628 25.3996 55.0812C25.1375 54.3822 24.7356 53.7706 24.1939 53.2464C22.9532 52.0581 21.1358 51.4639 18.7417 51.4639C16.5399 51.4639 14.4517 51.9358 12.477 52.8794C10.2752 53.9454 8.58887 55.387 7.41806 57.2044C6.02007 59.3189 5.32108 61.7566 5.32108 64.5176C5.32108 65.671 5.45214 66.5622 5.71426 67.1913C5.78416 67.4184 5.87154 67.6194 5.97639 67.7942C6.04628 67.9165 6.08123 68.0388 6.08123 68.1611C4.17648 68.1611 2.74355 67.7854 1.78243 67.034C0.821316 66.2651 0.340759 64.9982 0.340759 63.2332C0.340759 60.7868 1.27566 58.4539 3.14547 56.2346C4.01921 55.1861 5.05896 54.225 6.26472 53.3512C7.48796 52.46 8.82478 51.6911 10.2752 51.0446C13.3333 49.6815 16.5137 49 19.8164 49C23.5036 49 26.3957 49.8737 28.4927 51.6212C29.4014 52.3901 30.0829 53.2901 30.5372 54.3211C31.0091 55.3346 31.245 56.4093 31.245 57.5452C31.245 59.2402 30.7906 60.813 29.8819 62.2634C28.8684 63.8711 27.5316 65.138 25.8715 66.0642C28.0209 66.4486 29.6548 67.4883 30.7731 69.1834C31.7343 70.6688 32.2148 72.5124 32.2148 74.7142C32.2148 75.6229 32.1274 76.6277 31.9527 77.7286C31.7779 78.8295 31.5158 79.9217 31.1663 81.0051C30.3101 83.6962 29.0956 85.8019 27.5228 87.3223C25.5656 89.227 23.2153 90.1794 20.4717 90.1794Z" fill="#18191B"/>
<path d="M40.5765 89.5765C38.532 89.5765 36.8806 88.9387 35.6224 87.663C34.1545 86.1602 33.4206 83.9234 33.4206 80.9527C33.4206 79.6945 33.5516 78.3664 33.8138 76.9684C34.0584 75.5705 34.4254 74.1899 34.9147 72.8269C36.0331 69.7513 37.5621 67.2699 39.5018 65.3826C41.7386 63.2332 44.3161 62.1585 47.2344 62.1585C48.6848 62.1585 49.7683 62.4119 50.4847 62.9187C51.2187 63.408 51.5856 64.0633 51.5856 64.8846V65.2778L52.1623 62.4207H59.8949L56.0417 80.6644C55.8844 81.1886 55.8058 81.7653 55.8058 82.3944C55.8058 83.9321 56.5397 84.701 58.0076 84.701C58.9862 84.701 59.8774 84.203 60.6813 83.2069C61.3628 82.3681 61.922 81.1799 62.3589 79.6421H64.6131C63.652 82.3682 62.4899 84.5263 61.1269 86.1165C59.9736 87.4271 58.6717 88.3707 57.2213 88.9474C56.1553 89.3668 55.0282 89.5765 53.8399 89.5765C52.3196 89.5765 51.1051 89.1659 50.1964 88.3445C49.3052 87.5057 48.7635 86.2738 48.5712 84.6486C47.5577 86.0815 46.4917 87.1999 45.3733 88.0038C43.9404 89.0523 42.3415 89.5765 40.5765 89.5765ZM44.0627 84.3865C44.4647 84.3865 44.8841 84.2816 45.3209 84.0719C45.7753 83.8622 46.2121 83.5652 46.6315 83.1807C47.5752 82.272 48.2043 81.0925 48.5188 79.6421L51.0876 67.532C51.0876 67.3573 51.0439 67.1563 50.9565 66.9292C50.8866 66.6845 50.7818 66.4573 50.642 66.2476C50.2226 65.7409 49.6372 65.4875 48.8858 65.4875C48.1693 65.4875 47.4703 65.7234 46.7888 66.1952C46.1248 66.667 45.4957 67.3223 44.9015 68.1611C43.853 69.6814 42.988 71.6648 42.3065 74.1113C41.992 75.1947 41.7561 76.2694 41.5988 77.3354C41.4415 78.3839 41.3629 79.3363 41.3629 80.1925C41.3629 81.975 41.6949 83.1807 42.3589 83.8098C42.5861 84.0545 42.8395 84.2117 43.1191 84.2816C43.3987 84.3515 43.7132 84.3865 44.0627 84.3865Z" fill="#18191B"/>
<path d="M67.7062 89.5765C65.9936 89.5765 64.6393 89.0697 63.6433 88.0562C62.5249 86.9378 61.9657 85.3039 61.9657 83.1545C61.9657 82.141 62.1055 80.9702 62.3851 79.6421L68.1255 52.7483L76.0678 51.6736L69.908 80.6644C69.7682 81.1187 69.6983 81.6954 69.6983 82.3944C69.6983 83.1283 69.8643 83.6438 70.1963 83.9409C70.5458 84.238 71.105 84.3865 71.8739 84.3865C72.3981 84.3865 72.9049 84.2729 73.3942 84.0457C73.901 83.8011 74.3641 83.4691 74.7834 83.0497C75.6397 82.1934 76.2863 81.0575 76.7232 79.6421H78.9774C78.0163 82.3507 76.8105 84.5088 75.3601 86.1165C74.1369 87.4271 72.7564 88.3707 71.2186 88.9474C70.1002 89.3668 68.9294 89.5765 67.7062 89.5765Z" fill="#18191B"/>
<path d="M83.1976 89.5765C81.153 89.5765 79.5016 88.9387 78.2435 87.663C76.7756 86.1602 76.0416 83.9234 76.0416 80.9527C76.0416 79.6945 76.1727 78.3664 76.4348 76.9684C76.6795 75.5705 77.0464 74.1899 77.5357 72.8269C78.6541 69.7513 80.1832 67.2699 82.1229 65.3826C84.3596 63.2332 86.9372 62.1585 89.8555 62.1585C91.3059 62.1585 92.3893 62.4119 93.1058 62.9187C93.8397 63.408 94.2067 64.0633 94.2067 64.8846V65.2778L94.7834 62.4207H102.516L98.6628 80.6644C98.5055 81.1886 98.4269 81.7653 98.4269 82.3944C98.4269 83.9321 99.1608 84.701 100.629 84.701C101.607 84.701 102.498 84.203 103.302 83.2069C103.984 82.3681 104.543 81.1799 104.98 79.6421H107.234C106.273 82.3682 105.111 84.5263 103.748 86.1165C102.595 87.4271 101.293 88.3707 99.8423 88.9474C98.7764 89.3668 97.6492 89.5765 96.461 89.5765C94.9406 89.5765 93.7261 89.1659 92.8175 88.3445C91.9262 87.5057 91.3845 86.2738 91.1923 84.6486C90.1788 86.0815 89.1128 87.1999 87.9944 88.0038C86.5615 89.0523 84.9625 89.5765 83.1976 89.5765ZM86.6838 84.3865C87.0857 84.3865 87.5051 84.2816 87.942 84.0719C88.3963 83.8622 88.8332 83.5652 89.2526 83.1807C90.1962 82.272 90.8253 81.0925 91.1399 79.6421L93.7087 67.532C93.7087 67.3573 93.665 67.1563 93.5776 66.9292C93.5077 66.6845 93.4029 66.4573 93.2631 66.2476C92.8437 65.7409 92.2583 65.4875 91.5068 65.4875C90.7904 65.4875 90.0914 65.7234 89.4099 66.1952C88.7458 66.667 88.1167 67.3223 87.5226 68.1611C86.4741 69.6814 85.6091 71.6648 84.9276 74.1113C84.613 75.1947 84.3771 76.2694 84.2198 77.3354C84.0626 78.3839 83.9839 79.3363 83.9839 80.1925C83.9839 81.975 84.316 83.1807 84.98 83.8098C85.2072 84.0545 85.4606 84.2117 85.7402 84.2816C86.0198 84.3515 86.3343 84.3865 86.6838 84.3865Z" fill="#18191B"/>
<path d="M124.377 89.5765C122.158 89.5765 120.515 88.9474 119.449 87.6892C118.523 86.6058 118.06 85.2165 118.06 83.5215C118.06 82.7176 118.156 81.7827 118.348 80.7168C118.558 79.6508 118.864 78.279 119.266 76.6015C119.667 74.8889 119.965 73.5259 120.157 72.5124C120.366 71.4813 120.471 70.5901 120.471 69.8387C120.471 68.0039 119.825 67.0864 118.532 67.0864C117.623 67.0864 116.784 67.567 116.015 68.5281C115.369 69.3494 114.809 70.5202 114.338 72.0405L110.694 89.262H102.962L108.65 62.4207H116.382L115.806 65.1992C116.854 64.0283 117.981 63.207 119.187 62.7352C120.078 62.3857 121.039 62.211 122.07 62.211C123.888 62.211 125.321 62.6828 126.369 63.6264C127.487 64.6574 128.047 66.2039 128.047 68.266C128.047 69.5067 127.819 71.1231 127.365 73.1152C127.243 73.6919 127.042 74.5569 126.762 75.7103C126.255 77.65 125.889 79.1965 125.661 80.3498C125.522 81.0837 125.452 81.6779 125.452 82.1322C125.452 82.8487 125.609 83.4079 125.923 83.8098C126.255 84.1943 126.815 84.3865 127.601 84.3865C128.667 84.3865 129.567 83.9496 130.301 83.0759C130.86 82.4118 131.463 81.2672 132.11 79.6421H134.364C133.036 83.5739 131.358 86.3262 129.331 87.8989C127.898 89.0173 126.247 89.5765 124.377 89.5765Z" fill="#18191B"/>
<path d="M139.79 89.5765C137.151 89.5765 135.115 88.9125 133.682 87.5844C132.162 86.1689 131.402 83.9933 131.402 81.0575C131.402 79.9566 131.515 78.7334 131.743 77.3878C131.952 76.0248 132.284 74.6705 132.739 73.3249C133.805 70.0571 135.316 67.4534 137.273 65.5137C139.685 63.1371 142.542 61.9488 145.845 61.9488C147.994 61.9488 149.584 62.4643 150.615 63.4954C151.419 64.3167 151.821 65.4438 151.821 66.8767C151.821 68.1349 151.542 69.1135 150.982 69.8125C150.458 70.4591 149.785 70.7823 148.964 70.7823C148.37 70.7823 147.741 70.5727 147.077 70.1533C147.514 69.0174 147.732 67.9602 147.732 66.9816C147.732 66.3001 147.601 65.7671 147.339 65.3826C147.094 64.9807 146.727 64.7798 146.238 64.7798C145.189 64.7798 144.097 65.7059 142.961 67.5583C141.93 69.2009 141.074 71.2891 140.393 73.823C139.694 76.3044 139.344 78.5499 139.344 80.5595C139.344 82.307 139.676 83.5128 140.34 84.1768C140.917 84.7709 141.878 85.068 143.224 85.068C145.163 85.068 146.937 84.5438 148.545 83.4953C149.226 83.0584 149.881 82.5429 150.511 81.9488C151.14 81.3371 151.874 80.5682 152.712 79.6421H154.547C152.852 82.508 150.904 84.7884 148.702 86.4835C145.993 88.5455 143.023 89.5765 139.79 89.5765Z" fill="#18191B"/>
<path d="M160.393 89.5765C157.754 89.5765 155.718 88.9125 154.285 87.5844C152.765 86.1689 152.005 83.9933 152.005 81.0575C152.005 79.9566 152.118 78.7334 152.345 77.3878C152.555 76.0423 152.878 74.6967 153.315 73.3512C153.805 71.8483 154.425 70.4241 155.176 69.0786C155.945 67.733 156.836 66.5447 157.85 65.5137C160.192 63.1371 163.075 61.9488 166.5 61.9488C168.684 61.9488 170.275 62.4731 171.271 63.5216C172.04 64.3429 172.424 65.5312 172.424 67.0864C172.424 68.6067 172.092 70.0397 171.428 71.3852C170.764 72.7133 169.846 73.8929 168.676 74.9239C167.505 75.9374 166.177 76.75 164.691 77.3616C163.206 77.9558 161.668 78.3053 160.078 78.4101C159.991 79.3188 159.947 80.0353 159.947 80.5595C159.947 82.307 160.279 83.5128 160.943 84.1768C161.52 84.7709 162.481 85.068 163.826 85.068C165.766 85.068 167.54 84.5438 169.147 83.4953C169.829 83.0584 170.484 82.5429 171.113 81.9488C171.742 81.3371 172.476 80.5682 173.315 79.6421H175.15C173.455 82.508 171.507 84.7884 169.305 86.4835C166.596 88.5455 163.625 89.5765 160.393 89.5765ZM160.497 75.8413C161.493 75.7714 162.463 75.4831 163.407 74.9763C164.351 74.4695 165.189 73.8055 165.923 72.9842C166.657 72.1454 167.234 71.2105 167.653 70.1795C168.073 69.131 168.282 68.065 168.282 66.9816C168.282 66.2651 168.178 65.7234 167.968 65.3564C167.776 64.972 167.435 64.7798 166.946 64.7798C166.299 64.7798 165.644 65.0943 164.98 65.7234C164.333 66.3525 163.704 67.2175 163.092 68.3184C162.533 69.3494 162.026 70.5202 161.572 71.8308C161.118 73.1415 160.76 74.4783 160.497 75.8413Z" fill="#18191B"/>
</svg>
