<svg width="489" height="807" viewBox="0 0 489 807" fill="none" xmlns="http://www.w3.org/2000/svg">
<g clip-path="url(#clip0_615_10)">
<path d="M49.3034 -44.453H-15.7734V20.6238M49.3034 -44.453V20.6238M49.3034 -44.453H114.38M49.3034 20.6238H-15.7734M49.3034 20.6238V85.7006M49.3034 20.6238H114.38M-15.7734 20.6238V85.7006M49.3034 85.7006H-15.7734M49.3034 85.7006V150.777M49.3034 85.7006H114.38M-15.7734 85.7006V150.777M49.3034 150.777H-15.7734M49.3034 150.777V215.854M49.3034 150.777H114.38M-15.7734 150.777V215.854M49.3034 215.854H-15.7734M49.3034 215.854V280.931M49.3034 215.854H114.38M-15.7734 215.854V280.931M49.3034 280.931H-15.7734M49.3034 280.931V346.008M49.3034 280.931H114.38M-15.7734 280.931V346.008M49.3034 346.008H-15.7734M49.3034 346.008V411.085M49.3034 346.008H114.38M-15.7734 346.008V411.085M49.3034 411.085H-15.7734M49.3034 411.085V476.162M49.3034 411.085H114.38M-15.7734 411.085V476.162H49.3034M49.3034 476.162H114.38M114.38 -44.453V20.6238M114.38 -44.453H179.457M114.38 20.6238V85.7006M114.38 20.6238H179.457M114.38 85.7006V150.777M114.38 85.7006H179.457M114.38 150.777V215.854M114.38 150.777H179.457M114.38 215.854V280.931M114.38 215.854H179.457M114.38 280.931V346.008M114.38 280.931H179.457M114.38 346.008V411.085M114.38 346.008H179.457M114.38 411.085V476.162M114.38 411.085H179.457M114.38 476.162H179.457M179.457 -44.453V20.6238M179.457 -44.453H244.534M179.457 20.6238V85.7006M179.457 20.6238H244.534M179.457 85.7006V150.777M179.457 85.7006H244.534M179.457 150.777V215.854M179.457 150.777H244.534M179.457 215.854V280.931M179.457 215.854H244.534M179.457 280.931V346.008M179.457 280.931H244.534M179.457 346.008V411.085M179.457 346.008H244.534M179.457 411.085V476.162M179.457 411.085H244.534M179.457 476.162H244.534M244.534 -44.453V20.6238M244.534 -44.453H309.611V20.6238M244.534 20.6238V85.7006M244.534 20.6238H309.611M244.534 85.7006V150.777M244.534 85.7006H309.611M244.534 150.777V215.854M244.534 150.777H309.611M244.534 215.854V280.931M244.534 215.854H309.611M244.534 280.931V346.008M244.534 280.931H309.611M244.534 346.008V411.085M244.534 346.008H309.611M244.534 411.085V476.162M244.534 411.085H309.611M244.534 476.162H309.611V411.085M309.611 20.6238V85.7006M309.611 85.7006V150.777M309.611 150.777V215.854M309.611 215.854V280.931M309.611 280.931V346.008M309.611 346.008V411.085M244.534 -44.4531H179.457V20.6237M244.534 -44.4531V20.6237M244.534 -44.4531H309.611M244.534 20.6237H179.457M244.534 20.6237V85.7005M244.534 20.6237H309.611M179.457 20.6237V85.7005M244.534 85.7005H179.457M244.534 85.7005V150.777M244.534 85.7005H309.611M179.457 85.7005V150.777M244.534 150.777H179.457M244.534 150.777V215.854M244.534 150.777H309.611M179.457 150.777V215.854M244.534 215.854H179.457M244.534 215.854V280.931M244.534 215.854H309.611M179.457 215.854V280.931M244.534 280.931H179.457M244.534 280.931V346.008M244.534 280.931H309.611M179.457 280.931V346.008M244.534 346.008H179.457M244.534 346.008V411.085M244.534 346.008H309.611M179.457 346.008V411.085M244.534 411.085H179.457M244.534 411.085V476.161M244.534 411.085H309.611M179.457 411.085V476.161H244.534M244.534 476.161H309.611M309.611 -44.4531V20.6237M309.611 -44.4531H374.688M309.611 20.6237V85.7005M309.611 20.6237H374.688M309.611 85.7005V150.777M309.611 85.7005H374.688M309.611 150.777V215.854M309.611 150.777H374.688M309.611 215.854V280.931M309.611 215.854H374.688M309.611 280.931V346.008M309.611 280.931H374.688M309.611 346.008V411.085M309.611 346.008H374.688M309.611 411.085V476.161M309.611 411.085H374.688M309.611 476.161H374.688M374.688 -44.4531V20.6237M374.688 -44.4531H439.765M374.688 20.6237V85.7005M374.688 20.6237H439.765M374.688 85.7005V150.777M374.688 85.7005H439.765M374.688 150.777V215.854M374.688 150.777H439.765M374.688 215.854V280.931M374.688 215.854H439.765M374.688 280.931V346.008M374.688 280.931H439.765M374.688 346.008V411.085M374.688 346.008H439.765M374.688 411.085V476.161M374.688 411.085H439.765M374.688 476.161H439.765M439.765 -44.4531V20.6237M439.765 -44.4531H504.842V20.6237M439.765 20.6237V85.7005M439.765 20.6237H504.842M439.765 85.7005V150.777M439.765 85.7005H504.842M439.765 150.777V215.854M439.765 150.777H504.842M439.765 215.854V280.931M439.765 215.854H504.842M439.765 280.931V346.008M439.765 280.931H504.842M439.765 346.008V411.085M439.765 346.008H504.842M439.765 411.085V476.161M439.765 411.085H504.842M439.765 476.161H504.842V411.085M504.842 20.6237V85.7005M504.842 85.7005V150.777M504.842 150.777V215.854M504.842 215.854V280.931M504.842 280.931V346.008M504.842 346.008V411.085M-15.7734 671.323L-15.7734 736.4H49.3034M-15.7734 671.323H49.3034M-15.7734 671.323L-15.7734 606.246M49.3034 671.323V736.4M49.3034 671.323H114.38M49.3034 671.323L49.3034 606.246M49.3034 736.4H114.38M114.38 671.323L114.38 736.4M114.38 671.323H179.457M114.38 671.323V606.246M114.38 736.4H179.457M179.457 671.323V736.4M179.457 671.323H244.534M179.457 671.323V606.246M179.457 736.4H244.534M244.534 671.323L244.534 736.4M244.534 671.323L309.611 671.323M244.534 671.323V606.246M244.534 736.4H309.611M309.611 671.323V736.4M309.611 671.323H374.687M309.611 671.323V606.246M309.611 736.4H374.687M374.687 671.323V736.4M374.687 671.323H439.764M374.687 671.323V606.246M374.687 736.4H439.764M439.764 671.323V736.4M439.764 671.323H504.841M439.764 671.323V606.246M439.764 736.4H504.841L504.841 671.323M504.841 671.323V606.246M-15.7734 606.246H49.3034M-15.7734 606.246L-15.7734 541.169M49.3034 606.246H114.38M49.3034 606.246V541.169M114.38 606.246L179.457 606.246M114.38 606.246V541.169M179.457 606.246H244.534M179.457 606.246L179.457 541.169M244.534 606.246H309.611M244.534 606.246V541.169M309.611 606.246H374.687M309.611 606.246V541.169M374.687 606.246H439.764M374.687 606.246V541.169M439.764 606.246H504.841M439.764 606.246V541.169M504.841 606.246V541.169M-15.7734 541.169L49.3034 541.169M-15.7734 541.169L-15.7734 476.092M49.3034 541.169H114.38M49.3034 541.169L49.3034 476.092M114.38 541.169H179.457M114.38 541.169V476.092M179.457 541.169H244.534M179.457 541.169V476.092M244.534 541.169H309.611M244.534 541.169V476.092M309.611 541.169H374.687M309.611 541.169V476.092M374.687 541.169H439.764M374.687 541.169V476.092M439.764 541.169H504.841M439.764 541.169V476.092M504.841 541.169V476.092M-15.7734 476.092H49.3034M-15.7734 476.092L-15.7734 411.015H49.3034M49.3034 476.092H114.38M49.3034 476.092V411.015M114.38 476.092H179.457M114.38 476.092L114.38 411.015M179.457 476.092H244.534M179.457 476.092V411.015M244.534 476.092H309.611M244.534 476.092V411.015M309.611 476.092H374.687M309.611 476.092V411.015M374.687 476.092H439.764M374.687 476.092L374.687 411.015M439.764 476.092H504.841M439.764 476.092V411.015M504.841 476.092V411.015H439.764M49.3034 411.015H114.38M114.38 411.015H179.457M179.457 411.015H244.534M244.534 411.015H309.611M309.611 411.015H374.687M374.687 411.015H439.764" stroke="white" stroke-width="0.787306"/>
<path d="M154.734 614.405C132.482 611.724 111.123 605.843 91.402 595.049C71.5317 584.179 54.415 570.035 41.317 551.2C24.0514 526.26 18.3954 498.715 20.1071 468.862C21.2978 447.273 26.8794 427.172 37.1494 408.337C49.2055 386.152 66.3223 368.285 86.3414 353.173C92.5928 348.408 99.1418 344.09 105.691 339.4C97.6534 333.221 89.7648 327.712 82.3971 321.533C60.071 302.773 42.2844 280.588 34.8424 251.926C27.1026 222.147 28.7399 192.592 41.0193 164.079C55.4569 130.653 80.8343 108.989 114.175 96.1842C142.752 85.2406 172.446 83.6772 202.512 86.4317C228.559 88.814 252.82 96.2586 274.551 111.148C292.412 123.357 306.626 138.916 316.227 158.57C326.943 180.532 330.515 203.833 329.027 227.805C327.687 249.916 319.873 269.942 307.147 288.032C291.37 310.44 271.128 328.159 247.909 342.229C228.931 353.694 208.987 363.67 189.414 374.166C166.79 386.301 144.241 398.585 126.008 417.122C110.454 432.905 101.598 451.442 103.012 474.148C104.277 493.653 113.133 509.212 128.538 520.602C157.115 541.745 188.298 544.351 220.596 530.727C237.415 523.655 250.513 511.52 257.955 494.472C263.686 481.295 264.579 467.448 257.36 454.643C249.843 441.391 240.987 428.81 232.727 416.005C231.908 414.74 231.015 413.474 229.527 411.39C232.057 411.241 233.545 411.017 235.108 411.017C263.909 411.017 292.71 411.017 321.585 410.868C325.157 410.868 327.315 412.134 329.25 414.74C348.823 441.391 368.395 467.969 388.043 494.621C414.611 530.504 441.253 566.387 467.821 602.27C468.64 603.387 469.235 604.578 470.352 606.29C467.896 606.439 466.407 606.513 464.845 606.513C436.044 606.513 407.243 606.513 378.368 606.513C375.465 606.513 373.456 605.918 371.521 603.312C355.893 581.946 340.041 560.803 324.264 539.586C323.52 538.618 322.701 537.65 321.585 536.236C318.757 540.926 316.078 545.244 313.473 549.562C299.705 571.97 279.984 587.678 256.616 598.994C238.383 607.853 219.182 612.916 199.014 614.628C181.856 615.787 172.163 615.756 154.734 614.405ZM113.654 223.189C113.654 240.61 121.617 254.382 132.929 266.741C145.208 280.066 160.018 289.968 175.572 298.901C177.432 299.944 181.079 299.795 183.014 298.752C192.688 293.318 202.363 287.734 211.517 281.555C222.159 274.409 231.61 265.773 238.011 254.382C245.155 241.652 247.239 228.028 245.081 213.66C241.88 191.624 229.601 176.586 209.582 167.727C196.037 161.771 181.823 161.25 167.237 163.037C135.831 166.834 113.431 191.773 113.505 223.189L113.654 223.189Z" stroke="#F2674A" stroke-width="3.34605"/>
<path d="M311.367 85.4512C311.266 85.4512 311.174 85.4134 311.09 85.3378C311.014 85.2538 310.968 85.153 310.951 85.0355L309.591 76.1169C309.574 75.9993 309.591 75.9069 309.641 75.8397C309.691 75.7642 309.784 75.7264 309.918 75.7264C310.086 75.7264 310.195 75.7684 310.246 75.8523C310.296 75.9279 310.325 76.0035 310.334 76.0791L311.304 82.6169L311.518 84.5946L311.329 84.5694L311.997 82.6169L314.541 76.0791C314.575 75.9951 314.625 75.9153 314.692 75.8397C314.768 75.7642 314.865 75.7264 314.982 75.7264C315.159 75.7264 315.272 75.7642 315.322 75.8397C315.381 75.9153 315.415 75.9951 315.423 76.0791L316.393 82.5791L316.595 84.6702L316.418 84.645L317.086 82.6421L319.681 76.0917C319.74 75.9489 319.798 75.8523 319.857 75.802C319.916 75.7516 320.017 75.7264 320.159 75.7264C320.26 75.7264 320.348 75.7684 320.424 75.8523C320.5 75.9279 320.504 76.0455 320.437 76.2051L316.872 85.0733C316.83 85.1824 316.784 85.2748 316.733 85.3504C316.683 85.4176 316.586 85.4512 316.443 85.4512C316.317 85.4512 316.221 85.4134 316.154 85.3378C316.095 85.2538 316.057 85.1656 316.04 85.0733L314.995 78.0946L314.831 76.5326L315.007 76.5452L314.554 78.0442L311.808 85.0607C311.774 85.1446 311.728 85.2328 311.669 85.3252C311.619 85.4092 311.518 85.4512 311.367 85.4512ZM321.479 85.4638C321.042 85.4638 320.69 85.3336 320.421 85.0733C320.161 84.8129 319.976 84.4812 319.867 84.0781C319.766 83.675 319.736 83.2551 319.778 82.8184C319.871 81.9534 320.131 81.2942 320.559 80.8407C320.988 80.3788 321.479 80.1479 322.033 80.1479C322.47 80.1479 322.818 80.278 323.079 80.5384C323.348 80.7987 323.532 81.1346 323.633 81.5461C323.742 81.9492 323.772 82.3733 323.721 82.8184C323.679 83.2383 323.566 83.654 323.381 84.0655C323.205 84.4686 322.957 84.8045 322.638 85.0733C322.327 85.3336 321.941 85.4638 321.479 85.4638ZM321.555 84.7835C321.756 84.7835 321.958 84.7038 322.159 84.5442C322.361 84.3762 322.533 84.1453 322.676 83.8514C322.827 83.549 322.923 83.1963 322.965 82.7932C322.982 82.6169 322.982 82.4195 322.965 82.2012C322.957 81.9828 322.919 81.7687 322.852 81.5587C322.785 81.3488 322.684 81.1766 322.55 81.0423C322.415 80.9079 322.235 80.8407 322.008 80.8407C321.647 80.8407 321.328 81.0171 321.051 81.3698C320.774 81.7225 320.601 82.218 320.534 82.8562C320.501 83.1837 320.509 83.4945 320.559 83.7884C320.618 84.0823 320.727 84.3217 320.887 84.5064C321.055 84.6912 321.277 84.7835 321.555 84.7835ZM325.05 85.4512C324.949 85.4512 324.861 85.4176 324.785 85.3504C324.718 85.2832 324.689 85.1824 324.697 85.0481L325.163 80.614C325.18 80.4796 325.231 80.3788 325.315 80.3116C325.407 80.2445 325.499 80.2109 325.592 80.2109C325.684 80.2109 325.764 80.2487 325.831 80.3242C325.907 80.3998 325.936 80.5132 325.919 80.6644L325.453 85.0481C325.436 85.1824 325.386 85.2832 325.302 85.3504C325.226 85.4176 325.142 85.4512 325.05 85.4512ZM328.413 81.6595C328.329 81.7099 328.233 81.7225 328.124 81.6973C328.014 81.6721 327.952 81.6175 327.935 81.5335C327.901 81.3656 327.851 81.2186 327.784 81.0926C327.716 80.9583 327.616 80.8911 327.481 80.8911C327.28 80.8911 327.074 80.9877 326.864 81.1808C326.654 81.374 326.427 81.6805 326.184 82.1004C325.94 82.5119 325.663 83.062 325.352 83.7506L325.491 82.1004C325.802 81.4538 326.117 80.9667 326.436 80.6392C326.755 80.3116 327.12 80.1479 327.532 80.1479C327.826 80.1479 328.065 80.2487 328.25 80.4502C328.443 80.6434 328.573 80.8785 328.64 81.1556C328.674 81.2984 328.665 81.4076 328.615 81.4832C328.565 81.5587 328.497 81.6175 328.413 81.6595ZM329.629 85.4512C329.537 85.4512 329.457 85.4176 329.39 85.3504C329.323 85.2748 329.293 85.1782 329.302 85.0607L330.259 76.1421C330.276 76.0161 330.314 75.9153 330.372 75.8397C330.44 75.7642 330.528 75.7264 330.637 75.7264C330.755 75.7264 330.851 75.76 330.927 75.8271C331.002 75.8859 331.032 75.9951 331.015 76.1547L330.057 85.0607C330.041 85.2034 329.994 85.3042 329.919 85.363C329.843 85.4218 329.747 85.4512 329.629 85.4512ZM333.35 85.4638C332.913 85.4638 332.561 85.3336 332.292 85.0733C332.032 84.8129 331.847 84.4812 331.738 84.0781C331.637 83.675 331.608 83.2551 331.65 82.8184C331.717 82.239 331.855 81.7519 332.065 81.3572C332.284 80.9625 332.552 80.6644 332.871 80.4628C333.191 80.2529 333.535 80.1479 333.904 80.1479C334.123 80.1479 334.358 80.1983 334.61 80.299C334.87 80.3998 335.093 80.5552 335.277 80.7651L335.202 81.458C335.059 81.2396 334.858 81.0842 334.597 80.9919C334.337 80.8911 334.098 80.8407 333.879 80.8407C333.518 80.8407 333.199 81.0171 332.922 81.3698C332.645 81.7225 332.473 82.218 332.405 82.8562C332.372 83.1837 332.38 83.4945 332.431 83.7884C332.481 84.0823 332.582 84.3217 332.733 84.5064C332.892 84.6912 333.102 84.7835 333.363 84.7835C333.573 84.7835 333.77 84.6912 333.955 84.5064C334.139 84.3133 334.307 84.0697 334.459 83.7758C334.618 83.4735 334.753 83.1501 334.862 82.8058C334.971 82.4531 335.055 82.1172 335.114 81.7981L334.9 84.2293C334.816 84.4056 334.719 84.5694 334.61 84.7206C334.501 84.8633 334.379 84.9935 334.244 85.1111C334.11 85.2202 333.967 85.3084 333.816 85.3756C333.673 85.4344 333.518 85.4638 333.35 85.4638ZM335.101 85.4512C335 85.4512 334.912 85.4176 334.837 85.3504C334.769 85.2748 334.74 85.1698 334.748 85.0355L335.681 76.1295C335.697 75.9867 335.748 75.8859 335.832 75.8271C335.916 75.76 336.004 75.7264 336.096 75.7264C336.189 75.7264 336.268 75.7642 336.336 75.8397C336.411 75.9153 336.441 76.0245 336.424 76.1673L335.504 85.0355C335.487 85.1698 335.437 85.2748 335.353 85.3504C335.277 85.4176 335.193 85.4512 335.101 85.4512ZM338.763 85.4638C338.326 85.4638 337.973 85.3336 337.705 85.0733C337.444 84.8129 337.26 84.4812 337.15 84.0781C337.05 83.675 337.02 83.2551 337.062 82.8184C337.129 82.239 337.268 81.7519 337.478 81.3572C337.696 80.9625 337.965 80.6644 338.284 80.4628C338.603 80.2529 338.948 80.1479 339.317 80.1479C339.619 80.1479 339.884 80.2277 340.111 80.3872C340.337 80.5384 340.522 80.7231 340.665 80.9415C340.699 81.0003 340.703 81.0759 340.678 81.1682C340.661 81.2606 340.606 81.332 340.514 81.3824C340.413 81.4328 340.321 81.4454 340.237 81.4202C340.161 81.395 340.102 81.353 340.06 81.2942C339.985 81.1682 339.88 81.0633 339.745 80.9793C339.619 80.8869 339.468 80.8407 339.292 80.8407C338.931 80.8407 338.612 81.0171 338.335 81.3698C338.057 81.7225 337.885 82.218 337.818 82.8562C337.784 83.1837 337.793 83.4945 337.843 83.7884C337.902 84.0823 338.011 84.3217 338.171 84.5064C338.339 84.6912 338.561 84.7835 338.838 84.7835C339.032 84.7835 339.225 84.7122 339.418 84.5694C339.611 84.4182 339.775 84.2083 339.909 83.9395C339.951 83.864 340.018 83.8136 340.111 83.7884C340.211 83.7632 340.308 83.78 340.4 83.8388C340.493 83.8892 340.552 83.9605 340.577 84.0529C340.602 84.1453 340.594 84.2293 340.552 84.3049C340.367 84.6408 340.127 84.9179 339.834 85.1362C339.54 85.3546 339.183 85.4638 338.763 85.4638ZM342.165 85.4512C342.072 85.4512 341.992 85.4176 341.925 85.3504C341.858 85.2748 341.829 85.1782 341.837 85.0607L342.794 76.1421C342.811 76.0161 342.849 75.9153 342.908 75.8397C342.975 75.7642 343.063 75.7264 343.172 75.7264C343.29 75.7264 343.386 75.76 343.462 75.8271C343.538 75.8859 343.567 75.9951 343.55 76.1547L342.593 85.0607C342.576 85.2034 342.53 85.3042 342.454 85.363C342.379 85.4218 342.282 85.4512 342.165 85.4512ZM345.885 85.4638C345.449 85.4638 345.096 85.3336 344.827 85.0733C344.567 84.8129 344.382 84.4812 344.273 84.0781C344.172 83.675 344.143 83.2551 344.185 82.8184C344.252 82.239 344.391 81.7519 344.601 81.3572C344.819 80.9625 345.088 80.6644 345.407 80.4628C345.726 80.2529 346.07 80.1479 346.44 80.1479C346.658 80.1479 346.893 80.1983 347.145 80.299C347.406 80.3998 347.628 80.5552 347.813 80.7651L347.737 81.458C347.594 81.2396 347.393 81.0842 347.133 80.9919C346.872 80.8911 346.633 80.8407 346.415 80.8407C346.053 80.8407 345.734 81.0171 345.457 81.3698C345.18 81.7225 345.008 82.218 344.941 82.8562C344.907 83.1837 344.916 83.4945 344.966 83.7884C345.016 84.0823 345.117 84.3217 345.268 84.5064C345.428 84.6912 345.638 84.7835 345.898 84.7835C346.108 84.7835 346.305 84.6912 346.49 84.5064C346.675 84.3133 346.843 84.0697 346.994 83.7758C347.154 83.4735 347.288 83.1501 347.397 82.8058C347.506 82.4531 347.59 82.1172 347.649 81.7981L347.435 84.2293C347.351 84.4056 347.254 84.5694 347.145 84.7206C347.036 84.8633 346.914 84.9935 346.78 85.1111C346.645 85.2202 346.503 85.3084 346.352 85.3756C346.209 85.4344 346.053 85.4638 345.885 85.4638ZM347.636 85.4512C347.536 85.4512 347.447 85.4176 347.372 85.3504C347.305 85.2748 347.275 85.1698 347.284 85.0355L347.75 80.614C347.767 80.4796 347.817 80.3788 347.901 80.3116C347.985 80.2445 348.073 80.2109 348.166 80.2109C348.258 80.2109 348.342 80.2487 348.417 80.3242C348.493 80.3998 348.522 80.5132 348.506 80.6644L348.04 85.0355C348.023 85.1698 347.972 85.2748 347.888 85.3504C347.813 85.4176 347.729 85.4512 347.636 85.4512ZM351.226 85.4638C350.865 85.4638 350.546 85.4092 350.269 85.3C349.992 85.1908 349.757 85.0481 349.563 84.8717C349.446 84.7625 349.362 84.6534 349.311 84.5442C349.261 84.4266 349.278 84.3217 349.362 84.2293C349.454 84.1201 349.542 84.0655 349.626 84.0655C349.719 84.0571 349.815 84.0991 349.916 84.1915C350.067 84.3175 350.256 84.4392 350.483 84.5568C350.71 84.666 350.966 84.7206 351.251 84.7206C351.486 84.7206 351.667 84.666 351.793 84.5568C351.919 84.4392 351.982 84.2839 351.982 84.0907C351.982 83.9647 351.944 83.8472 351.869 83.738C351.801 83.6288 351.671 83.5029 351.478 83.3601C351.285 83.2173 350.995 83.0326 350.609 82.8058C350.298 82.6211 350.063 82.4279 349.903 82.2264C349.744 82.0164 349.664 81.7561 349.664 81.4454C349.664 81.0591 349.807 80.7483 350.092 80.5132C350.386 80.2696 350.781 80.1479 351.277 80.1479C351.478 80.1479 351.696 80.1815 351.932 80.2487C352.167 80.3158 352.41 80.4292 352.662 80.5888C352.805 80.6728 352.906 80.7861 352.965 80.9289C353.023 81.0633 353.019 81.1808 352.952 81.2816C352.893 81.3824 352.809 81.4286 352.7 81.4202C352.591 81.4118 352.477 81.3656 352.36 81.2816C352.234 81.1892 352.07 81.1052 351.869 81.0297C351.675 80.9457 351.445 80.9037 351.176 80.9037C350.932 80.9037 350.743 80.9541 350.609 81.0549C350.475 81.1556 350.407 81.29 350.407 81.458C350.407 81.6175 350.462 81.7519 350.571 81.8611C350.68 81.9618 350.852 82.0794 351.088 82.2138C351.541 82.4825 351.885 82.7092 352.121 82.894C352.364 83.0788 352.528 83.2593 352.612 83.4357C352.696 83.612 352.738 83.822 352.738 84.0655C352.738 84.351 352.675 84.5988 352.549 84.8087C352.423 85.0187 352.247 85.1824 352.02 85.3C351.801 85.4092 351.537 85.4638 351.226 85.4638ZM355.679 85.4638C355.318 85.4638 354.999 85.4092 354.722 85.3C354.445 85.1908 354.21 85.0481 354.017 84.8717C353.899 84.7625 353.815 84.6534 353.765 84.5442C353.714 84.4266 353.731 84.3217 353.815 84.2293C353.907 84.1201 353.996 84.0655 354.08 84.0655C354.172 84.0571 354.269 84.0991 354.369 84.1915C354.52 84.3175 354.709 84.4392 354.936 84.5568C355.163 84.666 355.419 84.7206 355.705 84.7206C355.94 84.7206 356.12 84.666 356.246 84.5568C356.372 84.4392 356.435 84.2839 356.435 84.0907C356.435 83.9647 356.397 83.8472 356.322 83.738C356.255 83.6288 356.124 83.5029 355.931 83.3601C355.738 83.2173 355.448 83.0326 355.062 82.8058C354.751 82.6211 354.516 82.4279 354.357 82.2264C354.197 82.0164 354.117 81.7561 354.117 81.4454C354.117 81.0591 354.26 80.7483 354.546 80.5132C354.84 80.2696 355.234 80.1479 355.73 80.1479C355.931 80.1479 356.15 80.1815 356.385 80.2487C356.62 80.3158 356.863 80.4292 357.115 80.5888C357.258 80.6728 357.359 80.7861 357.418 80.9289C357.477 81.0633 357.472 81.1808 357.405 81.2816C357.346 81.3824 357.262 81.4286 357.153 81.4202C357.044 81.4118 356.931 81.3656 356.813 81.2816C356.687 81.1892 356.523 81.1052 356.322 81.0297C356.129 80.9457 355.898 80.9037 355.629 80.9037C355.385 80.9037 355.196 80.9541 355.062 81.0549C354.928 81.1556 354.861 81.29 354.861 81.458C354.861 81.6175 354.915 81.7519 355.024 81.8611C355.133 81.9618 355.306 82.0794 355.541 82.2138C355.994 82.4825 356.339 82.7092 356.574 82.894C356.817 83.0788 356.981 83.2593 357.065 83.4357C357.149 83.612 357.191 83.822 357.191 84.0655C357.191 84.351 357.128 84.5988 357.002 84.8087C356.876 85.0187 356.7 85.1824 356.473 85.3C356.255 85.4092 355.99 85.4638 355.679 85.4638ZM363.12 85.4512C363.028 85.4512 362.939 85.4218 362.855 85.363C362.771 85.2958 362.734 85.2034 362.742 85.0859L363.586 77.2632C363.603 77.1624 363.649 77.0868 363.725 77.0364C363.8 76.9777 363.88 76.9483 363.964 76.9483C364.065 76.9483 364.153 76.9819 364.229 77.049C364.313 77.1162 364.346 77.217 364.329 77.3514L363.498 85.1111C363.481 85.2286 363.435 85.3168 363.359 85.3756C363.292 85.426 363.212 85.4512 363.12 85.4512ZM362.213 80.8911C362.062 80.8911 361.953 80.8575 361.885 80.7903C361.818 80.7147 361.785 80.6308 361.785 80.5384C361.785 80.446 361.81 80.3704 361.86 80.3116C361.911 80.2445 362.011 80.2109 362.163 80.2109H365.198C365.35 80.2109 365.455 80.2445 365.513 80.3116C365.572 80.3704 365.602 80.446 365.602 80.5384C365.602 80.6308 365.581 80.7147 365.539 80.7903C365.497 80.8575 365.4 80.8911 365.249 80.8911H362.213ZM367.696 85.4638C367.369 85.4638 367.087 85.3882 366.852 85.237C366.626 85.0859 366.441 84.8843 366.298 84.6324C366.164 84.3804 366.071 84.0991 366.021 83.7884C365.971 83.4693 365.962 83.1459 365.996 82.8184C366.063 82.239 366.201 81.7519 366.411 81.3572C366.63 80.9625 366.899 80.6644 367.218 80.4628C367.537 80.2529 367.881 80.1479 368.251 80.1479C368.494 80.1479 368.721 80.1983 368.931 80.299C369.149 80.3914 369.326 80.5174 369.46 80.6769C369.594 80.8281 369.661 80.9961 369.661 81.1808C369.661 81.374 369.565 81.5881 369.372 81.8233C369.187 82.05 368.943 82.281 368.641 82.5161C368.339 82.7512 368.015 82.9822 367.671 83.2089C367.335 83.4273 367.016 83.633 366.714 83.8262L366.626 83.0956C366.852 82.9528 367.096 82.7932 367.356 82.6169C367.625 82.4405 367.877 82.2642 368.112 82.0878C368.347 81.903 368.536 81.7393 368.679 81.5965C368.83 81.4454 368.906 81.3278 368.906 81.2438C368.906 81.1514 368.851 81.0633 368.742 80.9793C368.633 80.8869 368.461 80.8407 368.225 80.8407C367.864 80.8407 367.545 81.0171 367.268 81.3698C366.991 81.7225 366.819 82.218 366.752 82.8562C366.718 83.1837 366.726 83.4945 366.777 83.7884C366.836 84.0823 366.945 84.3217 367.104 84.5064C367.272 84.6912 367.495 84.7835 367.772 84.7835C367.965 84.7835 368.158 84.7122 368.351 84.5694C368.544 84.4182 368.708 84.2083 368.843 83.9395C368.885 83.864 368.952 83.8136 369.044 83.7884C369.145 83.7632 369.242 83.78 369.334 83.8388C369.426 83.8892 369.485 83.9605 369.51 84.0529C369.535 84.1453 369.527 84.2293 369.485 84.3049C369.3 84.6408 369.061 84.9179 368.767 85.1362C368.473 85.3546 368.116 85.4638 367.696 85.4638ZM372.396 85.4638C371.959 85.4638 371.606 85.3336 371.337 85.0733C371.077 84.8129 370.892 84.4812 370.783 84.0781C370.682 83.675 370.653 83.2551 370.695 82.8184C370.762 82.239 370.901 81.7519 371.111 81.3572C371.329 80.9625 371.598 80.6644 371.917 80.4628C372.236 80.2529 372.58 80.1479 372.95 80.1479C373.252 80.1479 373.517 80.2277 373.743 80.3872C373.97 80.5384 374.155 80.7231 374.298 80.9415C374.331 81.0003 374.335 81.0759 374.31 81.1682C374.293 81.2606 374.239 81.332 374.147 81.3824C374.046 81.4328 373.953 81.4454 373.869 81.4202C373.794 81.395 373.735 81.353 373.693 81.2942C373.617 81.1682 373.512 81.0633 373.378 80.9793C373.252 80.8869 373.101 80.8407 372.925 80.8407C372.563 80.8407 372.244 81.0171 371.967 81.3698C371.69 81.7225 371.518 82.218 371.451 82.8562C371.417 83.1837 371.426 83.4945 371.476 83.7884C371.535 84.0823 371.644 84.3217 371.803 84.5064C371.971 84.6912 372.194 84.7835 372.471 84.7835C372.664 84.7835 372.857 84.7122 373.051 84.5694C373.244 84.4182 373.407 84.2083 373.542 83.9395C373.584 83.864 373.651 83.8136 373.743 83.7884C373.844 83.7632 373.941 83.78 374.033 83.8388C374.126 83.8892 374.184 83.9605 374.209 84.0529C374.235 84.1453 374.226 84.2293 374.184 84.3049C374 84.6408 373.76 84.9179 373.466 85.1362C373.172 85.3546 372.815 85.4638 372.396 85.4638ZM375.797 85.4512C375.705 85.4512 375.621 85.4218 375.545 85.363C375.478 85.3042 375.449 85.2202 375.457 85.1111L376.415 76.1295C376.431 75.9867 376.482 75.8859 376.566 75.8271C376.658 75.76 376.755 75.7264 376.855 75.7264C376.948 75.7264 377.028 75.76 377.095 75.8271C377.162 75.8859 377.187 75.9867 377.17 76.1295L376.213 85.1111C376.196 85.2286 376.146 85.3168 376.062 85.3756C375.986 85.426 375.898 85.4512 375.797 85.4512ZM378.707 85.4512C378.548 85.4512 378.447 85.405 378.405 85.3126C378.371 85.2118 378.363 85.1027 378.38 84.9851L378.732 81.9492C378.774 81.6217 378.753 81.3656 378.669 81.1808C378.585 80.9877 378.451 80.8911 378.266 80.8911C377.956 80.8911 377.641 81.1094 377.322 81.5461C377.002 81.9828 376.608 82.7176 376.137 83.7506L376.276 82.0752C376.57 81.479 376.881 81.0087 377.208 80.6644C377.536 80.32 377.905 80.1479 378.317 80.1479C378.745 80.1479 379.064 80.3116 379.274 80.6392C379.484 80.9583 379.555 81.395 379.488 81.9492L379.11 84.9851C379.102 85.0859 379.081 85.1908 379.047 85.3C379.014 85.4008 378.9 85.4512 378.707 85.4512ZM380.964 86.9628C380.905 86.9544 380.85 86.9292 380.8 86.8872C380.75 86.8536 380.708 86.8032 380.674 86.7361C380.649 86.6773 380.64 86.6017 380.649 86.5093L380.8 85.0355C380.817 84.9095 380.863 84.8213 380.938 84.7709C381.022 84.7122 381.115 84.6912 381.216 84.708C381.283 84.708 381.342 84.729 381.392 84.7709C381.451 84.8045 381.493 84.8549 381.518 84.9221C381.552 84.9893 381.564 85.0775 381.556 85.1866L381.405 86.5849C381.388 86.7361 381.333 86.8368 381.241 86.8872C381.148 86.946 381.056 86.9712 380.964 86.9628ZM387.703 85.1362L386.834 80.8407C386.8 80.6392 386.817 80.4838 386.884 80.3746C386.951 80.2655 387.052 80.2109 387.187 80.2109C387.262 80.2109 387.334 80.2361 387.401 80.2864C387.468 80.3368 387.506 80.3956 387.514 80.4628L388.232 84.393L388.119 84.3552L389.857 80.425C389.891 80.3578 389.937 80.3074 389.996 80.2738C390.063 80.2319 390.134 80.2109 390.21 80.2109C390.285 80.2109 390.357 80.2361 390.424 80.2864C390.491 80.3368 390.529 80.3956 390.537 80.4628L391.281 84.393L391.155 84.3552L392.88 80.425C392.914 80.3578 392.96 80.3032 393.019 80.2613C393.086 80.2193 393.157 80.2025 393.233 80.2109C393.376 80.2277 393.481 80.2864 393.548 80.3872C393.615 80.488 393.607 80.635 393.523 80.8281L391.52 85.1614C391.461 85.279 391.398 85.3588 391.331 85.4008C391.264 85.4344 391.184 85.4512 391.092 85.4512C391.008 85.4512 390.928 85.4302 390.852 85.3882C390.785 85.3378 390.743 85.2538 390.726 85.1362L390.021 81.3698L390.185 81.395L388.497 85.1614C388.438 85.279 388.375 85.3588 388.308 85.4008C388.24 85.4344 388.161 85.4512 388.068 85.4512C387.984 85.4512 387.905 85.4302 387.829 85.3882C387.762 85.3378 387.72 85.2538 387.703 85.1362ZM395.793 85.4638C395.357 85.4638 395.004 85.3336 394.735 85.0733C394.475 84.8129 394.29 84.4812 394.181 84.0781C394.08 83.675 394.051 83.2551 394.093 82.8184C394.185 81.9534 394.445 81.2942 394.874 80.8407C395.302 80.3788 395.793 80.1479 396.348 80.1479C396.784 80.1479 397.133 80.278 397.393 80.5384C397.662 80.7987 397.847 81.1346 397.947 81.5461C398.057 81.9492 398.086 82.3733 398.036 82.8184C397.994 83.2383 397.88 83.654 397.695 84.0655C397.519 84.4686 397.271 84.8045 396.952 85.0733C396.641 85.3336 396.255 85.4638 395.793 85.4638ZM395.869 84.7835C396.07 84.7835 396.272 84.7038 396.474 84.5442C396.675 84.3762 396.847 84.1453 396.99 83.8514C397.141 83.549 397.238 83.1963 397.28 82.7932C397.297 82.6169 397.297 82.4195 397.28 82.2012C397.271 81.9828 397.234 81.7687 397.166 81.5587C397.099 81.3488 396.998 81.1766 396.864 81.0423C396.73 80.9079 396.549 80.8407 396.322 80.8407C395.961 80.8407 395.642 81.0171 395.365 81.3698C395.088 81.7225 394.916 82.218 394.849 82.8562C394.815 83.1837 394.823 83.4945 394.874 83.7884C394.932 84.0823 395.042 84.3217 395.201 84.5064C395.369 84.6912 395.592 84.7835 395.869 84.7835ZM399.364 85.4512C399.264 85.4512 399.175 85.4176 399.1 85.3504C399.033 85.2832 399.003 85.1824 399.012 85.0481L399.478 80.614C399.494 80.4796 399.545 80.3788 399.629 80.3116C399.721 80.2445 399.814 80.2109 399.906 80.2109C399.998 80.2109 400.078 80.2487 400.145 80.3242C400.221 80.3998 400.25 80.5132 400.233 80.6644L399.767 85.0481C399.751 85.1824 399.7 85.2832 399.616 85.3504C399.541 85.4176 399.457 85.4512 399.364 85.4512ZM402.728 81.6595C402.644 81.7099 402.547 81.7225 402.438 81.6973C402.329 81.6721 402.266 81.6175 402.249 81.5335C402.215 81.3656 402.165 81.2186 402.098 81.0926C402.031 80.9583 401.93 80.8911 401.796 80.8911C401.594 80.8911 401.388 80.9877 401.178 81.1808C400.968 81.374 400.742 81.6805 400.498 82.1004C400.254 82.5119 399.977 83.062 399.667 83.7506L399.805 82.1004C400.116 81.4538 400.431 80.9667 400.75 80.6392C401.069 80.3116 401.434 80.1479 401.846 80.1479C402.14 80.1479 402.379 80.2487 402.564 80.4502C402.757 80.6434 402.887 80.8785 402.954 81.1556C402.988 81.2984 402.98 81.4076 402.929 81.4832C402.879 81.5587 402.812 81.6175 402.728 81.6595ZM403.943 85.4512C403.851 85.4512 403.771 85.4176 403.704 85.3504C403.637 85.2748 403.608 85.1782 403.616 85.0607L404.573 76.1421C404.59 76.0161 404.628 75.9153 404.687 75.8397C404.754 75.7642 404.842 75.7264 404.951 75.7264C405.069 75.7264 405.165 75.76 405.241 75.8271C405.317 75.8859 405.346 75.9951 405.329 76.1547L404.372 85.0607C404.355 85.2034 404.309 85.3042 404.233 85.363C404.158 85.4218 404.061 85.4512 403.943 85.4512ZM407.664 85.4638C407.228 85.4638 406.875 85.3336 406.606 85.0733C406.346 84.8129 406.161 84.4812 406.052 84.0781C405.951 83.675 405.922 83.2551 405.964 82.8184C406.031 82.239 406.17 81.7519 406.379 81.3572C406.598 80.9625 406.867 80.6644 407.186 80.4628C407.505 80.2529 407.849 80.1479 408.219 80.1479C408.437 80.1479 408.672 80.1983 408.924 80.299C409.184 80.3998 409.407 80.5552 409.592 80.7651L409.516 81.458C409.373 81.2396 409.172 81.0842 408.911 80.9919C408.651 80.8911 408.412 80.8407 408.193 80.8407C407.832 80.8407 407.513 81.0171 407.236 81.3698C406.959 81.7225 406.787 82.218 406.72 82.8562C406.686 83.1837 406.694 83.4945 406.745 83.7884C406.795 84.0823 406.896 84.3217 407.047 84.5064C407.207 84.6912 407.417 84.7835 407.677 84.7835C407.887 84.7835 408.084 84.6912 408.269 84.5064C408.454 84.3133 408.622 84.0697 408.773 83.7758C408.932 83.4735 409.067 83.1501 409.176 82.8058C409.285 82.4531 409.369 82.1172 409.428 81.7981L409.214 84.2293C409.13 84.4056 409.033 84.5694 408.924 84.7206C408.815 84.8633 408.693 84.9935 408.559 85.1111C408.424 85.2202 408.282 85.3084 408.13 85.3756C407.988 85.4344 407.832 85.4638 407.664 85.4638ZM409.415 85.4512C409.315 85.4512 409.226 85.4176 409.151 85.3504C409.084 85.2748 409.054 85.1698 409.063 85.0355L409.995 76.1295C410.012 75.9867 410.062 75.8859 410.146 75.8271C410.23 75.76 410.318 75.7264 410.411 75.7264C410.503 75.7264 410.583 75.7642 410.65 75.8397C410.725 75.9153 410.755 76.0245 410.738 76.1673L409.818 85.0355C409.802 85.1698 409.751 85.2748 409.667 85.3504C409.592 85.4176 409.508 85.4512 409.415 85.4512ZM413.077 85.4638C412.64 85.4638 412.288 85.3336 412.019 85.0733C411.759 84.8129 411.574 84.4812 411.465 84.0781C411.364 83.675 411.335 83.2551 411.377 82.8184C411.444 82.239 411.582 81.7519 411.792 81.3572C412.011 80.9625 412.279 80.6644 412.598 80.4628C412.918 80.2529 413.262 80.1479 413.631 80.1479C413.934 80.1479 414.198 80.2277 414.425 80.3872C414.652 80.5384 414.836 80.7231 414.979 80.9415C415.013 81.0003 415.017 81.0759 414.992 81.1682C414.975 81.2606 414.92 81.332 414.828 81.3824C414.727 81.4328 414.635 81.4454 414.551 81.4202C414.475 81.395 414.417 81.353 414.375 81.2942C414.299 81.1682 414.194 81.0633 414.06 80.9793C413.934 80.8869 413.783 80.8407 413.606 80.8407C413.245 80.8407 412.926 81.0171 412.649 81.3698C412.372 81.7225 412.2 82.218 412.132 82.8562C412.099 83.1837 412.107 83.4945 412.158 83.7884C412.216 84.0823 412.325 84.3217 412.485 84.5064C412.653 84.6912 412.876 84.7835 413.153 84.7835C413.346 84.7835 413.539 84.7122 413.732 84.5694C413.925 84.4182 414.089 84.2083 414.223 83.9395C414.265 83.864 414.333 83.8136 414.425 83.7884C414.526 83.7632 414.622 83.78 414.715 83.8388C414.807 83.8892 414.866 83.9605 414.891 84.0529C414.916 84.1453 414.908 84.2293 414.866 84.3049C414.681 84.6408 414.442 84.9179 414.148 85.1362C413.854 85.3546 413.497 85.4638 413.077 85.4638ZM416.479 85.4512C416.386 85.4512 416.307 85.4176 416.24 85.3504C416.172 85.2748 416.143 85.1782 416.151 85.0607L417.109 76.1421C417.125 76.0161 417.163 75.9153 417.222 75.8397C417.289 75.7642 417.377 75.7264 417.487 75.7264C417.604 75.7264 417.701 75.76 417.776 75.8271C417.852 75.8859 417.881 75.9951 417.865 76.1547L416.907 85.0607C416.89 85.2034 416.844 85.3042 416.769 85.363C416.693 85.4218 416.596 85.4512 416.479 85.4512ZM420.2 85.4638C419.763 85.4638 419.41 85.3336 419.142 85.0733C418.881 84.8129 418.697 84.4812 418.587 84.0781C418.487 83.675 418.457 83.2551 418.499 82.8184C418.566 82.239 418.705 81.7519 418.915 81.3572C419.133 80.9625 419.402 80.6644 419.721 80.4628C420.04 80.2529 420.385 80.1479 420.754 80.1479C420.972 80.1479 421.208 80.1983 421.459 80.299C421.72 80.3998 421.942 80.5552 422.127 80.7651L422.052 81.458C421.909 81.2396 421.707 81.0842 421.447 80.9919C421.187 80.8911 420.947 80.8407 420.729 80.8407C420.368 80.8407 420.049 81.0171 419.771 81.3698C419.494 81.7225 419.322 82.218 419.255 82.8562C419.221 83.1837 419.23 83.4945 419.28 83.7884C419.331 84.0823 419.431 84.3217 419.583 84.5064C419.742 84.6912 419.952 84.7835 420.212 84.7835C420.422 84.7835 420.62 84.6912 420.804 84.5064C420.989 84.3133 421.157 84.0697 421.308 83.7758C421.468 83.4735 421.602 83.1501 421.711 82.8058C421.821 82.4531 421.905 82.1172 421.963 81.7981L421.749 84.2293C421.665 84.4056 421.569 84.5694 421.459 84.7206C421.35 84.8633 421.229 84.9935 421.094 85.1111C420.96 85.2202 420.817 85.3084 420.666 85.3756C420.523 85.4344 420.368 85.4638 420.2 85.4638ZM421.951 85.4512C421.85 85.4512 421.762 85.4176 421.686 85.3504C421.619 85.2748 421.59 85.1698 421.598 85.0355L422.064 80.614C422.081 80.4796 422.131 80.3788 422.215 80.3116C422.299 80.2445 422.387 80.2109 422.48 80.2109C422.572 80.2109 422.656 80.2487 422.732 80.3242C422.807 80.3998 422.837 80.5132 422.82 80.6644L422.354 85.0355C422.337 85.1698 422.287 85.2748 422.203 85.3504C422.127 85.4176 422.043 85.4512 421.951 85.4512ZM425.54 85.4638C425.179 85.4638 424.86 85.4092 424.583 85.3C424.306 85.1908 424.071 85.0481 423.878 84.8717C423.76 84.7625 423.676 84.6534 423.626 84.5442C423.575 84.4266 423.592 84.3217 423.676 84.2293C423.768 84.1201 423.857 84.0655 423.941 84.0655C424.033 84.0571 424.13 84.0991 424.23 84.1915C424.382 84.3175 424.57 84.4392 424.797 84.5568C425.024 84.666 425.28 84.7206 425.566 84.7206C425.801 84.7206 425.981 84.666 426.107 84.5568C426.233 84.4392 426.296 84.2839 426.296 84.0907C426.296 83.9647 426.258 83.8472 426.183 83.738C426.116 83.6288 425.986 83.5029 425.792 83.3601C425.599 83.2173 425.31 83.0326 424.923 82.8058C424.612 82.6211 424.377 82.4279 424.218 82.2264C424.058 82.0164 423.978 81.7561 423.978 81.4454C423.978 81.0591 424.121 80.7483 424.407 80.5132C424.701 80.2696 425.095 80.1479 425.591 80.1479C425.792 80.1479 426.011 80.1815 426.246 80.2487C426.481 80.3158 426.725 80.4292 426.976 80.5888C427.119 80.6728 427.22 80.7861 427.279 80.9289C427.338 81.0633 427.333 81.1808 427.266 81.2816C427.207 81.3824 427.123 81.4286 427.014 81.4202C426.905 81.4118 426.792 81.3656 426.674 81.2816C426.548 81.1892 426.384 81.1052 426.183 81.0297C425.99 80.9457 425.759 80.9037 425.49 80.9037C425.247 80.9037 425.058 80.9541 424.923 81.0549C424.789 81.1556 424.722 81.29 424.722 81.458C424.722 81.6175 424.776 81.7519 424.885 81.8611C424.995 81.9618 425.167 82.0794 425.402 82.2138C425.855 82.4825 426.2 82.7092 426.435 82.894C426.678 83.0788 426.842 83.2593 426.926 83.4357C427.01 83.612 427.052 83.822 427.052 84.0655C427.052 84.351 426.989 84.5988 426.863 84.8087C426.737 85.0187 426.561 85.1824 426.334 85.3C426.116 85.4092 425.851 85.4638 425.54 85.4638ZM429.994 85.4638C429.633 85.4638 429.313 85.4092 429.036 85.3C428.759 85.1908 428.524 85.0481 428.331 84.8717C428.213 84.7625 428.129 84.6534 428.079 84.5442C428.029 84.4266 428.045 84.3217 428.129 84.2293C428.222 84.1201 428.31 84.0655 428.394 84.0655C428.486 84.0571 428.583 84.0991 428.684 84.1915C428.835 84.3175 429.024 84.4392 429.25 84.5568C429.477 84.666 429.733 84.7206 430.019 84.7206C430.254 84.7206 430.435 84.666 430.561 84.5568C430.686 84.4392 430.749 84.2839 430.749 84.0907C430.749 83.9647 430.712 83.8472 430.636 83.738C430.569 83.6288 430.439 83.5029 430.246 83.3601C430.052 83.2173 429.763 83.0326 429.376 82.8058C429.066 82.6211 428.831 82.4279 428.671 82.2264C428.511 82.0164 428.432 81.7561 428.432 81.4454C428.432 81.0591 428.574 80.7483 428.86 80.5132C429.154 80.2696 429.549 80.1479 430.044 80.1479C430.246 80.1479 430.464 80.1815 430.699 80.2487C430.934 80.3158 431.178 80.4292 431.43 80.5888C431.572 80.6728 431.673 80.7861 431.732 80.9289C431.791 81.0633 431.787 81.1808 431.719 81.2816C431.661 81.3824 431.577 81.4286 431.467 81.4202C431.358 81.4118 431.245 81.3656 431.127 81.2816C431.001 81.1892 430.838 81.1052 430.636 81.0297C430.443 80.9457 430.212 80.9037 429.943 80.9037C429.7 80.9037 429.511 80.9541 429.376 81.0549C429.242 81.1556 429.175 81.29 429.175 81.458C429.175 81.6175 429.229 81.7519 429.339 81.8611C429.448 81.9618 429.62 82.0794 429.855 82.2138C430.309 82.4825 430.653 82.7092 430.888 82.894C431.132 83.0788 431.295 83.2593 431.379 83.4357C431.463 83.612 431.505 83.822 431.505 84.0655C431.505 84.351 431.442 84.5988 431.316 84.8087C431.19 85.0187 431.014 85.1824 430.787 85.3C430.569 85.4092 430.304 85.4638 429.994 85.4638ZM436.061 89.9357C435.969 89.9357 435.889 89.8979 435.822 89.8223C435.746 89.7551 435.717 89.6459 435.734 89.4948L436.653 80.6266C436.67 80.4922 436.72 80.3914 436.804 80.3242C436.888 80.2487 436.972 80.2109 437.056 80.2109C437.157 80.2109 437.245 80.2445 437.321 80.3116C437.396 80.3788 437.426 80.4838 437.409 80.6266L436.477 89.5326C436.469 89.6669 436.418 89.7677 436.326 89.8349C436.242 89.9021 436.154 89.9357 436.061 89.9357ZM438.253 85.4638C438.035 85.4638 437.8 85.4218 437.548 85.3378C437.296 85.2538 437.073 85.1069 436.88 84.8969L436.956 84.1285C437.098 84.3468 437.3 84.5106 437.56 84.6198C437.829 84.729 438.068 84.7835 438.278 84.7835C438.648 84.7835 438.967 84.6156 439.236 84.2797C439.513 83.9353 439.685 83.4441 439.752 82.8058C439.794 82.4783 439.786 82.1676 439.727 81.8737C439.677 81.5713 439.572 81.3236 439.412 81.1304C439.261 80.9373 439.055 80.8407 438.795 80.8407C438.585 80.8407 438.387 80.9373 438.203 81.1304C438.018 81.3236 437.85 81.5755 437.699 81.8863C437.548 82.1886 437.413 82.5161 437.296 82.8688C437.187 83.2131 437.103 83.5448 437.044 83.864L437.258 81.4454C437.342 81.269 437.438 81.1052 437.548 80.9541C437.657 80.7945 437.779 80.656 437.913 80.5384C438.047 80.4124 438.19 80.3158 438.341 80.2487C438.492 80.1815 438.648 80.1479 438.807 80.1479C439.244 80.1479 439.593 80.2822 439.853 80.551C440.122 80.8197 440.306 81.1598 440.407 81.5713C440.516 81.9828 440.55 82.4069 440.508 82.8436C440.449 83.4147 440.311 83.8976 440.092 84.2923C439.874 84.6786 439.605 84.9725 439.286 85.174C438.967 85.3672 438.623 85.4638 438.253 85.4638ZM443.241 85.4638C442.913 85.4638 442.632 85.3882 442.397 85.237C442.17 85.0859 441.985 84.8843 441.842 84.6324C441.708 84.3804 441.616 84.0991 441.565 83.7884C441.515 83.4693 441.507 83.1459 441.54 82.8184C441.607 82.239 441.746 81.7519 441.956 81.3572C442.174 80.9625 442.443 80.6644 442.762 80.4628C443.081 80.2529 443.426 80.1479 443.795 80.1479C444.039 80.1479 444.265 80.1983 444.475 80.299C444.694 80.3914 444.87 80.5174 445.004 80.6769C445.139 80.8281 445.206 80.9961 445.206 81.1808C445.206 81.374 445.109 81.5881 444.916 81.8233C444.731 82.05 444.488 82.281 444.186 82.5161C443.883 82.7512 443.56 82.9822 443.216 83.2089C442.88 83.4273 442.561 83.633 442.258 83.8262L442.17 83.0956C442.397 82.9528 442.64 82.7932 442.901 82.6169C443.169 82.4405 443.421 82.2642 443.656 82.0878C443.892 81.903 444.081 81.7393 444.223 81.5965C444.374 81.4454 444.45 81.3278 444.45 81.2438C444.45 81.1514 444.395 81.0633 444.286 80.9793C444.177 80.8869 444.005 80.8407 443.77 80.8407C443.409 80.8407 443.09 81.0171 442.812 81.3698C442.535 81.7225 442.363 82.218 442.296 82.8562C442.262 83.1837 442.271 83.4945 442.321 83.7884C442.38 84.0823 442.489 84.3217 442.649 84.5064C442.817 84.6912 443.039 84.7835 443.316 84.7835C443.509 84.7835 443.703 84.7122 443.896 84.5694C444.089 84.4182 444.253 84.2083 444.387 83.9395C444.429 83.864 444.496 83.8136 444.589 83.7884C444.689 83.7632 444.786 83.78 444.878 83.8388C444.971 83.8892 445.03 83.9605 445.055 84.0529C445.08 84.1453 445.071 84.2293 445.03 84.3049C444.845 84.6408 444.605 84.9179 444.311 85.1362C444.018 85.3546 443.661 85.4638 443.241 85.4638ZM447.94 85.4638C447.503 85.4638 447.151 85.3336 446.882 85.0733C446.622 84.8129 446.437 84.4812 446.328 84.0781C446.227 83.675 446.197 83.2551 446.239 82.8184C446.332 81.9534 446.592 81.2942 447.02 80.8407C447.449 80.3788 447.94 80.1479 448.494 80.1479C448.931 80.1479 449.279 80.278 449.54 80.5384C449.809 80.7987 449.993 81.1346 450.094 81.5461C450.203 81.9492 450.233 82.3733 450.182 82.8184C450.14 83.2383 450.027 83.654 449.842 84.0655C449.666 84.4686 449.418 84.8045 449.099 85.0733C448.788 85.3336 448.402 85.4638 447.94 85.4638ZM448.016 84.7835C448.217 84.7835 448.419 84.7038 448.62 84.5442C448.822 84.3762 448.994 84.1453 449.137 83.8514C449.288 83.549 449.384 83.1963 449.426 82.7932C449.443 82.6169 449.443 82.4195 449.426 82.2012C449.418 81.9828 449.38 81.7687 449.313 81.5587C449.246 81.3488 449.145 81.1766 449.011 81.0423C448.876 80.9079 448.696 80.8407 448.469 80.8407C448.108 80.8407 447.789 81.0171 447.512 81.3698C447.235 81.7225 447.062 82.218 446.995 82.8562C446.962 83.1837 446.97 83.4945 447.02 83.7884C447.079 84.0823 447.188 84.3217 447.348 84.5064C447.516 84.6912 447.738 84.7835 448.016 84.7835ZM451.032 89.9357C450.94 89.9357 450.86 89.8979 450.793 89.8223C450.717 89.7551 450.688 89.6459 450.705 89.4948L451.624 80.6266C451.641 80.4922 451.692 80.3914 451.776 80.3242C451.86 80.2487 451.944 80.2109 452.027 80.2109C452.128 80.2109 452.216 80.2445 452.292 80.3116C452.368 80.3788 452.397 80.4838 452.38 80.6266L451.448 89.5326C451.44 89.6669 451.389 89.7677 451.297 89.8349C451.213 89.9021 451.125 89.9357 451.032 89.9357ZM453.224 85.4638C453.006 85.4638 452.771 85.4218 452.519 85.3378C452.267 85.2538 452.044 85.1069 451.851 84.8969L451.927 84.1285C452.069 84.3468 452.271 84.5106 452.531 84.6198C452.8 84.729 453.039 84.7835 453.249 84.7835C453.619 84.7835 453.938 84.6156 454.207 84.2797C454.484 83.9353 454.656 83.4441 454.723 82.8058C454.765 82.4783 454.757 82.1676 454.698 81.8737C454.648 81.5713 454.543 81.3236 454.383 81.1304C454.232 80.9373 454.026 80.8407 453.766 80.8407C453.556 80.8407 453.359 80.9373 453.174 81.1304C452.989 81.3236 452.821 81.5755 452.67 81.8863C452.519 82.1886 452.384 82.5161 452.267 82.8688C452.158 83.2131 452.074 83.5448 452.015 83.864L452.229 81.4454C452.313 81.269 452.41 81.1052 452.519 80.9541C452.628 80.7945 452.75 80.656 452.884 80.5384C453.018 80.4124 453.161 80.3158 453.312 80.2487C453.464 80.1815 453.619 80.1479 453.778 80.1479C454.215 80.1479 454.564 80.2822 454.824 80.551C455.093 80.8197 455.277 81.1598 455.378 81.5713C455.487 81.9828 455.521 82.4069 455.479 82.8436C455.42 83.4147 455.282 83.8976 455.063 84.2923C454.845 84.6786 454.576 84.9725 454.257 85.174C453.938 85.3672 453.594 85.4638 453.224 85.4638ZM456.914 85.4512C456.822 85.4512 456.742 85.4176 456.675 85.3504C456.608 85.2748 456.578 85.1782 456.587 85.0607L457.544 76.1421C457.561 76.0161 457.599 75.9153 457.658 75.8397C457.725 75.7642 457.813 75.7264 457.922 75.7264C458.04 75.7264 458.136 75.76 458.212 75.8271C458.287 75.8859 458.317 75.9951 458.3 76.1547L457.343 85.0607C457.326 85.2034 457.28 85.3042 457.204 85.363C457.129 85.4218 457.032 85.4512 456.914 85.4512ZM460.635 85.4638C460.308 85.4638 460.026 85.3882 459.791 85.237C459.565 85.0859 459.38 84.8843 459.237 84.6324C459.103 84.3804 459.01 84.0991 458.96 83.7884C458.91 83.4693 458.901 83.1459 458.935 82.8184C459.002 82.239 459.14 81.7519 459.35 81.3572C459.569 80.9625 459.837 80.6644 460.157 80.4628C460.476 80.2529 460.82 80.1479 461.19 80.1479C461.433 80.1479 461.66 80.1983 461.87 80.299C462.088 80.3914 462.264 80.5174 462.399 80.6769C462.533 80.8281 462.6 80.9961 462.6 81.1808C462.6 81.374 462.504 81.5881 462.311 81.8233C462.126 82.05 461.882 82.281 461.58 82.5161C461.278 82.7512 460.954 82.9822 460.61 83.2089C460.274 83.4273 459.955 83.633 459.653 83.8262L459.565 83.0956C459.791 82.9528 460.035 82.7932 460.295 82.6169C460.564 82.4405 460.816 82.2642 461.051 82.0878C461.286 81.903 461.475 81.7393 461.618 81.5965C461.769 81.4454 461.845 81.3278 461.845 81.2438C461.845 81.1514 461.79 81.0633 461.681 80.9793C461.572 80.8869 461.4 80.8407 461.164 80.8407C460.803 80.8407 460.484 81.0171 460.207 81.3698C459.93 81.7225 459.758 82.218 459.691 82.8562C459.657 83.1837 459.665 83.4945 459.716 83.7884C459.775 84.0823 459.884 84.3217 460.043 84.5064C460.211 84.6912 460.434 84.7835 460.711 84.7835C460.904 84.7835 461.097 84.7122 461.29 84.5694C461.483 84.4182 461.647 84.2083 461.782 83.9395C461.824 83.864 461.891 83.8136 461.983 83.7884C462.084 83.7632 462.181 83.78 462.273 83.8388C462.365 83.8892 462.424 83.9605 462.449 84.0529C462.474 84.1453 462.466 84.2293 462.424 84.3049C462.239 84.6408 462 84.9179 461.706 85.1362C461.412 85.3546 461.055 85.4638 460.635 85.4638Z" fill="white"/>
</g>
<path d="M41.1962 746.568C37.136 742.126 32.0638 739.904 25.9756 739.904C19.118 739.904 13.7702 742.648 9.93217 748.132V741.056H0.141602V785.554H10.5904V778.408C14.4284 783.345 19.5582 785.813 25.9756 785.813C32.3929 785.813 37.136 783.592 41.1962 779.149C45.2523 774.706 47.2844 769.276 47.2844 762.859C47.2844 756.441 45.2523 751.011 41.1962 746.568ZM32.6397 772.156C30.1139 774.681 27.0163 775.94 23.3428 775.94C19.6693 775.94 16.5676 774.694 14.0459 772.197C11.5201 769.704 10.2613 766.619 10.2613 762.941C10.2613 759.263 11.5201 756.088 14.0459 753.562C16.5676 751.04 19.6652 749.777 23.3428 749.777C27.0204 749.777 30.1139 751.04 32.6397 753.562C35.1614 756.088 36.4243 759.185 36.4243 762.859C36.4243 766.532 35.1614 769.634 32.6397 772.156ZM0.141602 806.052H10.5904V796.048H0.141602V806.052Z" fill="white"/>
<path d="M62.505 732.994C60.6415 732.994 59.0371 732.323 57.692 730.978C56.3468 729.633 55.6763 728.004 55.6763 726.083C55.6763 724.162 56.3468 722.533 57.692 721.188C59.0371 719.842 60.6415 719.172 62.505 719.172C64.3685 719.172 66.0551 719.842 67.4003 721.188C68.7455 722.533 69.416 724.162 69.416 726.083C69.416 728.004 68.7455 729.633 67.4003 730.978C66.0551 732.323 64.4261 732.994 62.505 732.994ZM67.7705 784.662H57.3217V741.057H67.7705V784.662Z" fill="white"/>
<path d="M104.054 763.024L118.04 784.662H106.275L97.554 771.169L88.9153 784.662H77.8083L91.9594 762.448L78.1374 741.057H89.9026L98.5413 754.467L106.686 741.057H117.711L104.054 763.024Z" fill="white"/>
<path d="M144.532 739.904C151.168 739.904 156.573 742.085 160.74 746.445C164.907 750.806 166.746 756.277 166.253 762.859C166.199 764.229 166.034 765.709 165.759 767.301H132.027C133.014 770.21 134.853 772.538 137.539 774.295C140.225 776.051 143.352 776.927 146.918 776.927C150.485 776.927 153.747 776.352 156.873 775.2V784.25C153.911 785.291 150.402 785.813 146.342 785.813C139.156 785.813 133.207 783.645 128.489 779.313C123.77 774.982 121.413 769.494 121.413 762.859C121.413 756.223 123.622 750.806 128.036 746.445C132.45 742.085 137.95 739.904 144.532 739.904ZM131.698 758.992H156.215C155.775 755.919 154.475 753.451 152.307 751.587C150.139 749.724 147.465 748.79 144.285 748.79C141.106 748.79 138.539 749.736 136.264 751.628C133.989 753.521 132.467 755.976 131.698 758.992Z" fill="white"/>
<path d="M185.171 784.663H174.723V718.844H185.171V784.663Z" fill="white"/>
<path d="M236.264 759.567L254.858 784.661H242.517L235.688 775.446C234.207 778.626 231.85 781.152 228.612 783.015C225.375 784.879 221.673 785.812 217.505 785.812C211.582 785.812 206.658 784.167 202.737 780.876C198.813 777.585 196.855 773.36 196.855 768.206C196.855 760.912 200.611 754.931 208.126 750.27C201.544 746.045 198.253 740.891 198.253 734.803C198.253 729.648 200.01 725.493 203.519 722.338C207.028 719.183 211.693 717.607 217.505 717.607C223.318 717.607 227.901 719.183 231.41 722.338C234.919 725.493 236.675 729.648 236.675 734.803C236.675 742.318 231.27 748.653 220.467 753.808C215.695 756.112 212.335 758.279 210.389 760.307C208.443 762.336 207.468 764.586 207.468 767.054C207.468 769.522 208.48 771.772 210.512 773.471C212.54 775.17 215.008 776.022 217.917 776.022C220.825 776.022 223.112 775.187 225.116 773.512C227.119 771.838 228.119 769.851 228.119 767.548C228.119 766.067 227.325 764.228 225.733 762.035L223.923 759.567H236.264ZM223.717 729.619C222.154 728.138 220.085 727.398 217.505 727.398C214.926 727.398 212.845 728.138 211.253 729.619C209.661 731.1 208.867 733.046 208.867 735.461C208.867 738.97 211.693 742.29 217.341 745.416C220.578 743.77 222.841 742.195 224.128 740.685C225.416 739.175 226.062 737.435 226.062 735.461C226.062 733.046 225.28 731.1 223.717 729.619Z" fill="#E76F51"/>
<path d="M279.786 785.813C272.986 785.813 267.35 783.633 262.879 779.272C258.407 774.912 256.174 769.441 256.174 762.859C256.174 756.277 258.407 750.806 262.879 746.445C267.35 742.085 272.986 739.904 279.786 739.904C281.925 739.904 284.036 740.18 286.121 740.727V750.847C284.64 750.135 282.666 749.777 280.197 749.777C276.359 749.777 273.151 751.04 270.571 753.562C267.992 756.083 266.705 759.21 266.705 762.941C266.705 766.672 267.992 769.7 270.571 772.197C273.151 774.694 276.359 775.94 280.197 775.94C282.612 775.94 284.587 775.611 286.121 774.953V784.99C284.036 785.537 281.925 785.813 279.786 785.813Z" fill="white"/>
<path d="M316.069 739.904C322.815 739.904 328.422 742.085 332.894 746.445C337.365 750.806 339.599 756.277 339.599 762.859C339.599 769.441 337.365 774.912 332.894 779.272C328.422 783.633 322.815 785.813 316.069 785.813C309.322 785.813 303.633 783.633 299.161 779.272C294.69 774.912 292.456 769.441 292.456 762.859C292.456 756.277 294.69 750.806 299.161 746.445C303.633 742.085 309.269 739.904 316.069 739.904ZM325.366 753.562C322.844 751.04 319.742 749.777 316.069 749.777C312.395 749.777 309.293 751.04 306.772 753.562C304.25 756.083 302.987 759.21 302.987 762.941C302.987 766.672 304.25 769.7 306.772 772.197C309.293 774.694 312.395 775.94 316.069 775.94C319.742 775.94 322.844 774.694 325.366 772.197C327.887 769.7 329.15 766.614 329.15 762.941C329.15 759.267 327.887 756.083 325.366 753.562Z" fill="white"/>
<path d="M381.969 747.228V718.844H392.418V784.663H382.628V777.587C378.79 783.071 373.466 785.815 366.667 785.815C360.525 785.815 355.424 783.593 351.364 779.15C347.303 774.708 345.275 769.278 345.275 762.86C345.275 756.443 347.303 751.013 351.364 746.57C355.424 742.127 360.525 739.906 366.667 739.906C372.808 739.906 378.131 742.345 381.969 747.228ZM369.217 775.942C372.891 775.942 375.992 774.695 378.514 772.198C381.036 769.701 382.299 766.616 382.299 762.942C382.299 759.269 381.036 756.085 378.514 753.563C375.992 751.042 372.891 749.779 369.217 749.779C365.544 749.779 362.524 751.042 360.002 753.563C357.481 756.085 356.218 759.187 356.218 762.86C356.218 766.534 357.481 769.635 360.002 772.157C362.524 774.679 365.597 775.942 369.217 775.942Z" fill="white"/>
<path d="M424.424 739.904C431.059 739.904 436.465 742.085 440.632 746.445C444.799 750.806 446.638 756.277 446.144 762.859C446.091 764.229 445.926 765.709 445.65 767.301H411.918C412.906 770.21 414.744 772.538 417.431 774.295C420.117 776.051 423.243 776.927 426.81 776.927C430.376 776.927 433.639 776.352 436.765 775.2V784.25C433.803 785.291 430.294 785.813 426.234 785.813C419.047 785.813 413.099 783.645 408.38 779.313C403.662 774.982 401.305 769.494 401.305 762.859C401.305 756.223 403.514 750.806 407.928 746.445C412.342 742.085 417.842 739.904 424.424 739.904ZM411.589 758.992H436.107C435.667 755.919 434.367 753.451 432.199 751.587C430.031 749.724 427.357 748.79 424.177 748.79C420.997 748.79 418.43 749.736 416.155 751.628C413.876 753.521 412.358 755.976 411.589 758.992Z" fill="white"/>
<path d="M447.79 786.223H488.926V796.096H447.79V786.223Z" fill="white"/>
<defs>
<clipPath id="clip0_615_10">
<rect width="488.785" height="691.48" fill="white" transform="translate(0.141602 0.234375)"/>
</clipPath>
</defs>
</svg>
