<svg width="4719" height="5489" viewBox="0 0 4719 5489" fill="none" xmlns="http://www.w3.org/2000/svg">
<path d="M1421.44 5427.42C1195.34 5400.19 978.305 5340.43 777.911 5230.74C576.004 5120.3 402.077 4976.57 268.985 4785.18C93.5451 4531.77 36.0734 4251.88 53.4662 3948.53C65.5654 3729.16 122.281 3524.91 226.637 3333.53C349.142 3108.1 523.07 2926.55 726.489 2772.98C790.01 2724.57 856.556 2680.7 923.102 2633.04C841.432 2570.25 761.274 2514.27 686.41 2451.49C459.548 2260.86 278.815 2035.43 203.195 1744.19C124.549 1441.6 141.186 1141.29 265.96 851.561C412.664 511.908 670.53 291.776 1009.31 161.664C1299.69 50.4638 1601.42 34.578 1906.92 62.5672C2171.6 86.7741 2418.12 162.421 2638.93 313.714C2820.42 437.774 2964.86 595.876 3062.41 795.583C3171.3 1018.74 3207.6 1255.51 3192.47 1499.1C3178.86 1723.77 3099.46 1927.26 2970.15 2111.08C2809.83 2338.77 2604.15 2518.81 2368.21 2661.78C2175.38 2778.28 1972.71 2879.65 1773.83 2986.31C1543.95 3109.61 1314.82 3234.43 1129.55 3422.79C971.499 3583.16 881.511 3771.52 895.879 4002.24C908.734 4200.44 998.723 4358.54 1155.26 4474.28C1445.64 4689.11 1762.49 4715.59 2090.68 4577.16C2261.59 4505.29 2394.68 4381.99 2470.3 4208.76C2528.53 4074.86 2537.6 3934.16 2464.25 3804.05C2387.87 3669.4 2297.88 3541.55 2213.94 3411.44C2205.63 3398.58 2196.55 3385.72 2181.43 3364.54C2207.14 3363.03 2222.26 3360.76 2238.14 3360.76C2530.79 3360.76 2823.45 3360.76 3116.85 3359.25C3153.15 3359.25 3175.08 3372.11 3194.74 3398.58C3393.62 3669.4 3592.51 3939.46 3792.14 4210.27C4062.11 4574.89 4332.83 4939.5 4602.8 5304.12C4611.12 5315.47 4617.16 5327.57 4628.51 5344.97C4603.55 5346.48 4588.43 5347.24 4572.55 5347.24C4279.9 5347.24 3987.25 5347.24 3693.84 5347.24C3664.35 5347.24 3643.93 5341.19 3624.27 5314.71C3465.46 5097.6 3304.39 4882.77 3144.08 4667.18C3136.51 4657.34 3128.2 4647.51 3116.85 4633.13C3088.12 4680.79 3060.89 4724.67 3034.43 4768.54C2894.53 4996.24 2694.13 5155.85 2456.69 5270.83C2271.42 5360.85 2076.32 5412.29 1871.38 5429.69C1697.04 5441.47 1598.54 5441.16 1421.44 5427.42ZM1004.02 1452.2C1004.02 1629.21 1084.93 1769.15 1199.87 1894.73C1324.65 2030.14 1475.13 2130.75 1633.18 2221.52C1652.08 2232.11 1689.14 2230.6 1708.8 2220.01C1807.11 2164.79 1905.41 2108.05 1998.43 2045.26C2106.56 1972.64 2202.6 1884.89 2267.64 1769.15C2340.23 1639.8 2361.4 1501.37 2339.47 1355.37C2306.96 1131.45 2182.18 978.647 1978.76 888.628C1841.14 828.111 1696.7 822.816 1548.48 840.971C1229.37 879.55 1001.75 1132.97 1002.5 1452.2L1004.02 1452.2Z" stroke="#F2674A" stroke-width="101"/>
</svg>
