<svg width="1644" height="215" viewBox="0 0 1644 215" fill="none" xmlns="http://www.w3.org/2000/svg">
<path d="M99.8 70.3992C89.93 59.5992 77.6 54.1992 62.8 54.1992C46.13 54.1992 33.13 60.8692 23.8 74.1992V56.9992H0V165.169H25.4V147.799C34.73 159.799 47.2 165.799 62.8 165.799C78.4 165.799 89.93 160.399 99.8 149.599C109.66 138.799 114.6 125.599 114.6 109.999C114.6 94.3992 109.66 81.1992 99.8 70.3992ZM79 132.599C72.86 138.739 65.33 141.799 56.4 141.799C47.47 141.799 39.93 138.769 33.8 132.699C27.66 126.639 24.6 119.139 24.6 110.199C24.6 101.259 27.66 93.5392 33.8 87.3992C39.93 81.2692 47.46 78.1992 56.4 78.1992C65.34 78.1992 72.86 81.2692 79 87.3992C85.13 93.5392 88.2 101.069 88.2 109.999C88.2 118.929 85.13 126.469 79 132.599ZM0 214.999H25.4V190.679H0V214.999Z" fill="white"/>
<path d="M498.19 70.3992C488.32 59.5992 475.99 54.1992 461.19 54.1992C444.52 54.1992 431.52 60.8692 422.19 74.1992V56.9992H398.39V190.679H423.79V147.799C433.12 159.799 445.59 165.799 461.19 165.799C476.79 165.799 488.32 160.399 498.19 149.599C508.05 138.799 512.99 125.599 512.99 109.999C512.99 94.3992 508.05 81.1992 498.19 70.3992ZM477.39 132.599C471.25 138.739 463.72 141.799 454.79 141.799C445.86 141.799 438.32 138.769 432.19 132.699C426.05 126.639 422.99 119.139 422.99 110.199C422.99 101.259 426.05 93.5392 432.19 87.3992C438.32 81.2692 445.85 78.1992 454.79 78.1992C463.73 78.1992 471.25 81.2692 477.39 87.3992C483.52 93.5392 486.59 101.069 486.59 109.999C486.59 118.929 483.52 126.469 477.39 132.599ZM398.39 214.999H423.79V190.679H398.39V214.999Z" fill="white"/>
<path d="M190.8 55.1982C206.93 55.1982 220.07 60.4982 230.2 71.0982C240.33 81.6982 244.8 94.9982 243.6 110.998C243.47 114.328 243.07 117.928 242.4 121.798H160.4C162.8 128.868 167.27 134.528 173.8 138.798C180.33 143.068 187.93 145.198 196.6 145.198C205.27 145.198 213.2 143.798 220.8 140.998V162.998C213.6 165.528 205.07 166.798 195.2 166.798C177.73 166.798 163.27 161.528 151.8 150.998C140.33 140.468 134.6 127.128 134.6 110.998C134.6 94.8682 139.97 81.6982 150.7 71.0982C161.43 60.4982 174.8 55.1982 190.8 55.1982ZM159.6 101.598H219.2C218.13 94.1282 214.97 88.1282 209.7 83.5982C204.43 79.0682 197.93 76.7982 190.2 76.7982C182.47 76.7982 176.23 79.0982 170.7 83.6982C165.17 88.2982 161.47 94.2682 159.6 101.598Z" fill="white"/>
<path d="M634.59 55.1982C650.72 55.1982 663.86 60.4982 673.99 71.0982C684.12 81.6982 688.59 94.9982 687.39 110.998C687.26 114.328 686.86 117.928 686.19 121.798H604.19C606.59 128.868 611.06 134.528 617.59 138.798C624.12 143.068 631.72 145.198 640.39 145.198C649.06 145.198 656.99 143.798 664.59 140.998V162.998C657.39 165.528 648.86 166.798 638.99 166.798C621.52 166.798 607.06 161.528 595.59 150.998C584.12 140.468 578.39 127.128 578.39 110.998C578.39 94.8682 583.76 81.6982 594.49 71.0982C605.22 60.4982 618.59 55.1982 634.59 55.1982ZM603.39 101.598H662.99C661.92 94.1282 658.76 88.1282 653.49 83.5982C648.22 79.0682 641.72 76.7982 633.99 76.7982C626.26 76.7982 620.02 79.0982 614.49 83.6982C608.96 88.2982 605.26 94.2682 603.39 101.598Z" fill="white"/>
<path d="M558.389 163H532.989V3H558.389V163Z" fill="white"/>
<path d="M1097.45 163H1072.05V3H1097.45V163Z" fill="white"/>
<path d="M803.38 102L848.58 163H818.58L801.98 140.6C798.38 148.33 792.65 154.47 784.78 159C776.91 163.53 767.91 165.8 757.78 165.8C743.38 165.8 731.41 161.8 721.88 153.8C712.34 145.8 707.58 135.53 707.58 123C707.58 105.27 716.71 90.73 734.98 79.4C718.98 69.13 710.98 56.6 710.98 41.8C710.98 29.27 715.25 19.17 723.78 11.5C732.31 3.83 743.65 0 757.78 0C771.91 0 783.05 3.83 791.58 11.5C800.11 19.17 804.38 29.27 804.38 41.8C804.38 60.07 791.24 75.47 764.98 88C753.38 93.6 745.21 98.87 740.48 103.8C735.75 108.73 733.38 114.2 733.38 120.2C733.38 126.2 735.84 131.67 740.78 135.8C745.71 139.93 751.71 142 758.78 142C765.85 142 771.41 139.97 776.28 135.9C781.15 131.83 783.58 127 783.58 121.4C783.58 117.8 781.65 113.33 777.78 108L773.38 102H803.38ZM772.88 29.2C769.08 25.6 764.05 23.8 757.78 23.8C751.51 23.8 746.45 25.6 742.58 29.2C738.71 32.8 736.78 37.53 736.78 43.4C736.78 51.93 743.65 60 757.38 67.6C765.25 63.6 770.75 59.77 773.88 56.1C777.01 52.43 778.58 48.2 778.58 43.4C778.58 37.53 776.68 32.8 772.88 29.2Z" fill="#E76F51"/>
<path d="M909.179 165.799C892.649 165.799 878.949 160.499 868.079 149.899C857.209 139.299 851.779 125.999 851.779 109.999C851.779 93.9992 857.209 80.6992 868.079 70.0992C878.949 59.4992 892.649 54.1992 909.179 54.1992C914.379 54.1992 919.509 54.8692 924.579 56.1992V80.7992C920.979 79.0692 916.179 78.1992 910.179 78.1992C900.849 78.1992 893.049 81.2692 886.779 87.3992C880.509 93.5292 877.379 101.129 877.379 110.199C877.379 119.269 880.509 126.629 886.779 132.699C893.049 138.769 900.849 141.799 910.179 141.799C916.049 141.799 920.849 140.999 924.579 139.399V163.799C919.509 165.129 914.379 165.799 909.179 165.799Z" fill="white"/>
<path d="M321.19 54.1992C337.59 54.1992 351.22 59.4992 362.09 70.0992C372.96 80.6992 378.39 93.9992 378.39 109.999C378.39 125.999 372.96 139.299 362.09 149.899C351.22 160.499 337.59 165.799 321.19 165.799C304.79 165.799 290.96 160.499 280.09 149.899C269.22 139.299 263.79 125.999 263.79 109.999C263.79 93.9992 269.22 80.6992 280.09 70.0992C290.96 59.4992 304.66 54.1992 321.19 54.1992ZM343.79 87.3992C337.66 81.2692 330.12 78.1992 321.19 78.1992C312.26 78.1992 304.72 81.2692 298.59 87.3992C292.46 93.5292 289.39 101.129 289.39 110.199C289.39 119.269 292.46 126.629 298.59 132.699C304.72 138.769 312.26 141.799 321.19 141.799C330.12 141.799 337.66 138.769 343.79 132.699C349.92 126.629 352.99 119.129 352.99 110.199C352.99 101.269 349.92 93.5292 343.79 87.3992Z" fill="white"/>
<path d="M1487.17 54.1992C1503.3 54.1992 1516.44 59.4992 1526.57 70.0992C1536.7 80.6992 1541.17 93.9992 1539.97 109.999C1539.84 113.329 1539.44 116.929 1538.77 120.799H1456.77C1459.17 127.869 1463.64 133.529 1470.17 137.799C1476.7 142.069 1484.3 144.199 1492.97 144.199C1501.64 144.199 1509.57 142.799 1517.17 139.999V161.999C1509.97 164.529 1501.44 165.799 1491.57 165.799C1474.1 165.799 1459.64 160.529 1448.17 149.999C1436.7 139.469 1430.97 126.129 1430.97 109.999C1430.97 93.8692 1436.34 80.6992 1447.07 70.0992C1457.8 59.4992 1471.17 54.1992 1487.17 54.1992ZM1455.97 100.599H1515.57C1514.5 93.1292 1511.34 87.1292 1506.07 82.5992C1500.8 78.0692 1494.3 75.7992 1486.57 75.7992C1478.84 75.7992 1472.6 78.0992 1467.07 82.6992C1461.53 87.2992 1457.84 93.2692 1455.97 100.599Z" fill="white"/>
<path d="M1543.97 166.799H1643.97V190.799H1543.97V166.799Z" fill="white"/>
<path d="M992.025 165.8C982.673 165.8 974.422 164.081 967.271 160.643C960.119 157.067 954.55 151.704 950.561 144.552C946.573 137.264 944.579 128.118 944.579 117.116V54.1992H970.365V113.609C970.365 123.511 972.565 130.937 976.966 135.888C981.504 140.702 987.899 143.108 996.151 143.108C1002.2 143.108 1007.43 141.871 1011.83 139.395C1016.37 136.92 1019.87 133.207 1022.35 128.256C1024.96 123.305 1026.27 117.185 1026.27 109.896V54.1992H1052.05V164.356H1027.51V134.651L1031.84 143.727C1028.12 150.878 1022.69 156.379 1015.54 160.23C1008.39 163.943 1000.55 165.8 992.025 165.8Z" fill="white"/>
<path d="M1266.36 165.8C1257.01 165.8 1248.76 164.081 1241.6 160.643C1234.45 157.067 1228.88 151.704 1224.9 144.552C1220.91 137.264 1218.91 128.118 1218.91 117.116V54.1992H1244.7V113.609C1244.7 123.511 1246.9 130.937 1251.3 135.888C1255.84 140.702 1262.23 143.108 1270.48 143.108C1276.54 143.108 1281.76 141.871 1286.16 139.395C1290.7 136.92 1294.21 133.207 1296.68 128.256C1299.3 123.305 1300.6 117.185 1300.6 109.896V54.1992H1326.39V164.356H1301.84V134.651L1306.17 143.727C1302.46 150.878 1297.03 156.379 1289.88 160.23C1282.72 163.943 1274.89 165.8 1266.36 165.8Z" fill="white"/>
<path d="M1173.98 165.799C1161.79 165.799 1152.37 162.682 1145.72 156.448C1139.07 150.075 1135.74 140.724 1135.74 128.394V28.8564H1161.72V127.771C1161.72 133.035 1163.03 137.122 1165.66 140.031C1168.44 142.94 1172.24 144.395 1177.09 144.395C1182.91 144.395 1187.76 142.871 1191.64 139.823L1198.91 158.318C1195.87 160.812 1192.12 162.682 1187.69 163.929C1183.26 165.175 1178.69 165.799 1173.98 165.799ZM1117.45 74.9888V54.2084H1191.43V74.9888H1117.45Z" fill="white"/>
<path d="M1346.39 165.8V54.1973H1371.26V84.9193L1368.33 75.9326C1371.68 68.4088 1376.9 62.6964 1384.01 58.7952C1391.25 54.894 1400.24 52.9434 1410.97 52.9434V77.8135C1409.85 77.5349 1408.81 77.3955 1407.83 77.3955C1406.86 77.2562 1405.88 77.1865 1404.91 77.1865C1395.01 77.1865 1387.14 80.1124 1381.29 85.9642C1375.44 91.6767 1372.51 100.245 1372.51 111.67V165.8H1346.39Z" fill="white"/>
</svg>
