<svg width="473" height="86" viewBox="0 0 473 86" fill="none" xmlns="http://www.w3.org/2000/svg">
<path d="M39.6955 28.0007C35.7697 23.705 30.8654 21.5571 24.9787 21.5571C18.3482 21.5571 13.1775 24.2101 9.46646 29.5121V22.6708H0V65.6955H10.1029V58.7866C13.8139 63.5596 18.7738 65.9461 24.9787 65.9461C31.1836 65.9461 35.7697 63.7982 39.6955 59.5025C43.6173 55.2068 45.5822 49.9565 45.5822 43.7516C45.5822 37.5467 43.6173 32.2964 39.6955 28.0007ZM31.4223 52.7408C28.9801 55.183 25.985 56.4001 22.4331 56.4001C18.8812 56.4001 15.8822 55.1949 13.444 52.7805C11.0018 50.3702 9.78466 47.387 9.78466 43.8312C9.78466 40.2753 11.0018 37.2046 13.444 34.7624C15.8822 32.3242 18.8772 31.1031 22.4331 31.1031C25.989 31.1031 28.9801 32.3242 31.4223 34.7624C33.8605 37.2046 35.0816 40.1997 35.0816 43.7516C35.0816 47.3035 33.8605 50.3026 31.4223 52.7408ZM0 85.5154H10.1029V75.8421H0V85.5154Z" fill="black"/>
<path d="M60.2999 14.8756C58.4981 14.8756 56.9469 14.2273 55.6462 12.9267C54.3456 11.626 53.6973 10.0509 53.6973 8.19344C53.6973 6.33594 54.3456 4.76085 55.6462 3.46021C56.9469 2.15956 58.4981 1.51123 60.2999 1.51123C62.1017 1.51123 63.7325 2.15956 65.0332 3.46021C66.3338 4.76085 66.9821 6.33594 66.9821 8.19344C66.9821 10.0509 66.3338 11.626 65.0332 12.9267C63.7325 14.2273 62.1574 14.8756 60.2999 14.8756ZM65.3911 64.8331H55.2883V22.6716H65.3911V64.8331Z" fill="black"/>
<path d="M100.474 43.9113L113.998 64.8329H102.622L94.1897 51.7867L85.8369 64.8329H75.0977L88.7803 43.3544L75.4159 22.6714H86.7915L95.1443 35.638L103.02 22.6714H113.679L100.474 43.9113Z" fill="black"/>
<path d="M139.607 21.5571C146.023 21.5571 151.25 23.6652 155.279 27.8814C159.308 32.0975 161.086 37.3876 160.609 43.7516C160.557 45.0761 160.398 46.508 160.131 48.0473H127.516C128.47 50.8594 130.248 53.1107 132.846 54.8091C135.443 56.5075 138.466 57.3547 141.914 57.3547C145.363 57.3547 148.517 56.7978 151.54 55.6841V64.4346C148.676 65.4409 145.283 65.9461 141.358 65.9461C134.409 65.9461 128.657 63.8499 124.095 59.6616C119.533 55.4733 117.254 50.1673 117.254 43.7516C117.254 37.3359 119.39 32.0975 123.658 27.8814C127.926 23.6652 133.243 21.5571 139.607 21.5571ZM127.198 40.0127H150.904C150.478 37.0416 149.221 34.655 147.125 32.8532C145.029 31.0514 142.443 30.1485 139.369 30.1485C136.294 30.1485 133.812 31.0634 131.613 32.893C129.413 34.7227 127.941 37.0972 127.198 40.0127Z" fill="black"/>
<path d="M178.908 64.8334H168.805V1.19336H178.908V64.8334Z" fill="black"/>
<path d="M228.302 40.5705L246.28 64.8333H234.348L227.745 55.9237C226.313 58.9983 224.034 61.4405 220.904 63.2423C217.773 65.0441 214.194 65.947 210.164 65.947C204.437 65.947 199.676 64.356 195.885 61.174C192.091 57.992 190.197 53.9071 190.197 48.9233C190.197 41.8712 193.829 36.0879 201.096 31.5814C194.732 27.4965 191.55 22.5127 191.55 16.626C191.55 11.6422 193.248 7.62488 196.641 4.57413C200.034 1.52338 204.544 0 210.164 0C215.785 0 220.215 1.52338 223.608 4.57413C227.001 7.62488 228.7 11.6422 228.7 16.626C228.7 23.8929 223.473 30.0182 213.028 35.002C208.414 37.2294 205.165 39.3256 203.283 41.2865C201.402 43.2474 200.459 45.4231 200.459 47.8096C200.459 50.1961 201.438 52.3718 203.403 54.0145C205.363 55.6572 207.75 56.4806 210.562 56.4806C213.374 56.4806 215.586 55.6731 217.523 54.0543C219.46 52.4354 220.426 50.5143 220.426 48.2869C220.426 46.855 219.659 45.0771 218.119 42.957L216.369 40.5705H228.302ZM216.17 11.6143C214.659 10.1824 212.658 9.46646 210.164 9.46646C207.67 9.46646 205.658 10.1824 204.119 11.6143C202.579 13.0462 201.812 14.9276 201.812 17.2624C201.812 20.6552 204.544 23.865 210.005 26.8879C213.136 25.2969 215.323 23.7735 216.568 22.3138C217.813 20.8541 218.438 19.1716 218.438 17.2624C218.438 14.9276 217.682 13.0462 216.17 11.6143Z" fill="#E76F51"/>
<path d="M270.384 65.9461C263.809 65.9461 258.36 63.838 254.036 59.6218C249.713 55.4057 247.553 50.1156 247.553 43.7516C247.553 37.3876 249.713 32.0975 254.036 27.8814C258.36 23.6652 263.809 21.5571 270.384 21.5571C272.452 21.5571 274.492 21.8236 276.509 22.3526V32.1373C275.077 31.4492 273.168 31.1031 270.781 31.1031C267.07 31.1031 263.968 32.3242 261.474 34.7624C258.98 37.2007 257.735 40.2236 257.735 43.8312C257.735 47.4387 258.98 50.3662 261.474 52.7805C263.968 55.1949 267.07 56.4001 270.781 56.4001C273.116 56.4001 275.025 56.0819 276.509 55.4455V65.1506C274.492 65.6796 272.452 65.9461 270.384 65.9461Z" fill="black"/>
<path d="M305.464 21.5571C311.987 21.5571 317.408 23.6652 321.732 27.8814C326.055 32.0975 328.215 37.3876 328.215 43.7516C328.215 50.1156 326.055 55.4057 321.732 59.6218C317.408 63.838 311.987 65.9461 305.464 65.9461C298.941 65.9461 293.44 63.838 289.116 59.6218C284.793 55.4057 282.633 50.1156 282.633 43.7516C282.633 37.3876 284.793 32.0975 289.116 27.8814C293.44 23.6652 298.889 21.5571 305.464 21.5571ZM314.453 34.7624C312.015 32.3242 309.016 31.1031 305.464 31.1031C301.912 31.1031 298.913 32.3242 296.475 34.7624C294.036 37.2007 292.815 40.2236 292.815 43.8312C292.815 47.4387 294.036 50.3662 296.475 52.7805C298.913 55.1949 301.912 56.4001 305.464 56.4001C309.016 56.4001 312.015 55.1949 314.453 52.7805C316.891 50.3662 318.112 47.3831 318.112 43.8312C318.112 40.2792 316.891 37.2007 314.453 34.7624Z" fill="black"/>
<path d="M369.182 28.6381V1.19336H379.285V64.8334H369.819V57.9921C366.108 63.2941 360.961 65.9471 354.386 65.9471C348.448 65.9471 343.516 63.7993 339.59 59.5036C335.664 55.2079 333.703 49.9576 333.703 43.7527C333.703 37.5477 335.664 32.2974 339.59 28.0017C343.516 23.706 348.448 21.5582 354.386 21.5582C360.325 21.5582 365.471 23.9168 369.182 28.6381ZM356.852 56.4011C360.404 56.4011 363.403 55.1959 365.841 52.7816C368.28 50.3672 369.501 47.3841 369.501 43.8322C369.501 40.2803 368.28 37.2017 365.841 34.7635C363.403 32.3253 360.404 31.1042 356.852 31.1042C353.3 31.1042 350.381 32.3253 347.943 34.7635C345.504 37.2017 344.283 40.2007 344.283 43.7527C344.283 47.3046 345.504 50.3036 347.943 52.7418C350.381 55.18 353.352 56.4011 356.852 56.4011Z" fill="black"/>
<path d="M410.234 21.5571C416.65 21.5571 421.877 23.6652 425.906 27.8814C429.935 32.0975 431.713 37.3876 431.236 43.7516C431.184 45.0761 431.025 46.508 430.758 48.0473H398.143C399.097 50.8594 400.875 53.1107 403.473 54.8091C406.07 56.5075 409.093 57.3547 412.541 57.3547C415.99 57.3547 419.144 56.7978 422.167 55.6841V64.4346C419.303 65.4409 415.91 65.9461 411.985 65.9461C405.036 65.9461 399.284 63.8499 394.722 59.6616C390.16 55.4733 387.881 50.1673 387.881 43.7516C387.881 37.3359 390.017 32.0975 394.285 27.8814C398.552 23.6652 403.87 21.5571 410.234 21.5571ZM397.825 40.0127H421.531C421.105 37.0416 419.848 34.655 417.752 32.8532C415.656 31.0514 413.07 30.1485 409.996 30.1485C406.921 30.1485 404.439 31.0634 402.24 32.893C400.036 34.7227 398.568 37.0972 397.825 40.0127Z" fill="black"/>
<path d="M432.828 66.3447H472.603V75.8907H432.828V66.3447Z" fill="black"/>
</svg>
