<svg width="223" height="41" viewBox="0 0 223 41" fill="none" xmlns="http://www.w3.org/2000/svg">
<path d="M19.13 13.177C17.2826 11.1555 14.9748 10.1448 12.2046 10.1448C9.08445 10.1448 6.65121 11.3932 4.90489 13.8882V10.6689H0.450195V30.9153H5.20437V27.6641C6.95069 29.9102 9.28472 31.0332 12.2046 31.0332C15.1245 31.0332 17.2826 30.0225 19.13 28.001C20.9755 25.9795 21.9001 23.5089 21.9001 20.589C21.9001 17.6691 20.9755 15.1984 19.13 13.177ZM15.2368 24.8191C14.0876 25.9683 12.6782 26.5411 11.0067 26.5411C9.33526 26.5411 7.92398 25.9739 6.77662 24.8378C5.62738 23.7035 5.05463 22.2997 5.05463 20.6264C5.05463 18.9531 5.62738 17.5081 6.77662 16.3589C7.92398 15.2115 9.33339 14.6369 11.0067 14.6369C12.68 14.6369 14.0876 15.2115 15.2368 16.3589C16.3842 17.5081 16.9588 18.9175 16.9588 20.589C16.9588 22.2604 16.3842 23.6717 15.2368 24.8191ZM0.450195 40.2421H5.20437V35.69H0.450195V40.2421Z" fill="white"/>
<path d="M28.8255 7.00021C27.9776 7.00021 27.2476 6.69511 26.6356 6.08306C26.0235 5.47101 25.7184 4.72981 25.7184 3.85571C25.7184 2.98162 26.0235 2.24041 26.6356 1.62836C27.2476 1.01631 27.9776 0.711218 28.8255 0.711218C29.6734 0.711218 30.4408 1.01631 31.0529 1.62836C31.6649 2.24041 31.97 2.98162 31.97 3.85571C31.97 4.72981 31.6649 5.47101 31.0529 6.08306C30.4408 6.69511 29.6996 7.00021 28.8255 7.00021ZM31.2213 30.509H26.4671V10.6688H31.2213V30.509Z" fill="white"/>
<path d="M47.73 20.6638L54.0939 30.5091H48.7408L44.7727 24.3698L40.8421 30.5091H35.7885L42.2272 20.4018L35.9382 10.6688H41.2913L45.2219 16.7706L48.9279 10.6688H53.9442L47.73 20.6638Z" fill="white"/>
<path d="M66.1478 10.1448C69.1669 10.1448 71.6263 11.1368 73.5224 13.1208C75.4184 15.1048 76.2551 17.5942 76.0305 20.589C76.0062 21.2123 75.9313 21.8861 75.8059 22.6104H60.4578C60.907 23.9337 61.7436 24.9931 62.9659 25.7924C64.1881 26.5916 65.6106 26.9903 67.2334 26.9903C68.8562 26.9903 70.3405 26.7282 71.763 26.2041V30.3219C70.4153 30.7955 68.8187 31.0332 66.9714 31.0332C63.7015 31.0332 60.9949 30.0468 58.8481 28.0759C56.7012 26.1049 55.6287 23.6081 55.6287 20.589C55.6287 17.5699 56.6338 15.1048 58.6422 13.1208C60.6505 11.1368 63.153 10.1448 66.1478 10.1448ZM60.308 18.8296H71.4635C71.2632 17.4314 70.6717 16.3084 69.6853 15.4605C68.699 14.6126 67.4823 14.1877 66.0355 14.1877C64.5887 14.1877 63.4207 14.6182 62.3856 15.4792C61.3506 16.3402 60.658 17.4576 60.308 18.8296Z" fill="white"/>
<path d="M84.6385 30.5091H79.8843V0.561517H84.6385V30.5091Z" fill="white"/>
<path d="M107.885 19.0916L116.346 30.5091H110.73L107.623 26.3164C106.95 27.7633 105.877 28.9125 104.404 29.7604C102.931 30.6083 101.246 31.0332 99.3504 31.0332C96.6551 31.0332 94.4147 30.2845 92.6309 28.7871C90.8453 27.2897 89.9543 25.3675 89.9543 23.0222C89.9543 19.7036 91.6632 16.9821 95.0829 14.8615C92.0881 12.9392 90.5907 10.5939 90.5907 7.8238C90.5907 5.47853 91.39 3.58809 92.9865 2.15248C94.5831 0.71687 96.7056 0 99.3504 0C101.995 0 104.08 0.71687 105.677 2.15248C107.273 3.58809 108.073 5.47853 108.073 7.8238C108.073 11.2434 105.613 14.1259 100.698 16.4712C98.5268 17.5193 96.9976 18.5057 96.1123 19.4285C95.227 20.3512 94.7834 21.3751 94.7834 22.4981C94.7834 23.6211 95.2438 24.645 96.1685 25.418C97.0912 26.191 98.2142 26.5785 99.5376 26.5785C100.861 26.5785 101.902 26.1985 102.813 25.4367C103.725 24.6749 104.179 23.7709 104.179 22.7227C104.179 22.0489 103.818 21.2122 103.094 20.2146L102.27 19.0916H107.885ZM102.177 5.46543C101.465 4.79161 100.524 4.4547 99.3504 4.4547C98.1768 4.4547 97.2297 4.79161 96.5054 5.46543C95.781 6.13925 95.4198 7.02457 95.4198 8.12327C95.4198 9.71985 96.7056 11.2303 99.2755 12.6528C100.749 11.9042 101.778 11.1873 102.364 10.5004C102.95 9.81344 103.244 9.0217 103.244 8.12327C103.244 7.02457 102.888 6.13925 102.177 5.46543Z" fill="#E76F51"/>
<path d="M127.688 31.0332C124.594 31.0332 122.03 30.0412 119.995 28.0572C117.961 26.0731 116.944 23.5837 116.944 20.589C116.944 17.5942 117.961 15.1048 119.995 13.1208C122.03 11.1368 124.594 10.1448 127.688 10.1448C128.661 10.1448 129.622 10.2702 130.571 10.5191V15.1236C129.897 14.7997 128.998 14.6369 127.875 14.6369C126.129 14.6369 124.669 15.2115 123.495 16.3589C122.322 17.5063 121.736 18.9288 121.736 20.6264C121.736 22.3241 122.322 23.7017 123.495 24.8378C124.669 25.9739 126.129 26.5411 127.875 26.5411C128.974 26.5411 129.872 26.3913 130.571 26.0918V30.6588C129.622 30.9078 128.661 31.0332 127.688 31.0332Z" fill="white"/>
<path d="M144.197 10.1448C147.266 10.1448 149.817 11.1368 151.852 13.1208C153.886 15.1048 154.903 17.5942 154.903 20.589C154.903 23.5837 153.886 26.0731 151.852 28.0572C149.817 30.0412 147.266 31.0332 144.197 31.0332C141.127 31.0332 138.538 30.0412 136.504 28.0572C134.469 26.0731 133.453 23.5837 133.453 20.589C133.453 17.5942 134.469 15.1048 136.504 13.1208C138.538 11.1368 141.103 10.1448 144.197 10.1448ZM148.427 16.3589C147.279 15.2115 145.868 14.6369 144.197 14.6369C142.525 14.6369 141.114 15.2115 139.966 16.3589C138.819 17.5063 138.244 18.9288 138.244 20.6264C138.244 22.3241 138.819 23.7017 139.966 24.8378C141.114 25.9739 142.525 26.5411 144.197 26.5411C145.868 26.5411 147.279 25.9739 148.427 24.8378C149.574 23.7017 150.149 22.2979 150.149 20.6264C150.149 18.955 149.574 17.5063 148.427 16.3589Z" fill="white"/>
<path d="M174.181 13.4764V0.561517H178.935V30.5091H174.481V27.2897C172.734 29.7847 170.312 31.0332 167.218 31.0332C164.424 31.0332 162.103 30.0224 160.256 28.001C158.408 25.9795 157.485 23.5088 157.485 20.5889C157.485 17.6691 158.408 15.1984 160.256 13.1769C162.103 11.1555 164.424 10.1447 167.218 10.1447C170.013 10.1447 172.435 11.2547 174.181 13.4764ZM168.379 26.541C170.05 26.541 171.462 25.9739 172.609 24.8378C173.756 23.7016 174.331 22.2978 174.331 20.6264C174.331 18.9549 173.756 17.5062 172.609 16.3589C171.462 15.2115 170.05 14.6369 168.379 14.6369C166.707 14.6369 165.334 15.2115 164.186 16.3589C163.039 17.5062 162.464 18.9175 162.464 20.5889C162.464 22.2604 163.039 23.6717 164.186 24.819C165.334 25.9664 166.732 26.541 168.379 26.541Z" fill="white"/>
<path d="M193.498 10.1448C196.517 10.1448 198.977 11.1368 200.873 13.1208C202.769 15.1048 203.605 17.5942 203.381 20.589C203.356 21.2123 203.282 21.8861 203.156 22.6104H187.808C188.257 23.9337 189.094 24.9931 190.316 25.7924C191.538 26.5916 192.961 26.9903 194.584 26.9903C196.206 26.9903 197.691 26.7282 199.113 26.2041V30.3219C197.766 30.7955 196.169 31.0332 194.322 31.0332C191.052 31.0332 188.345 30.0468 186.198 28.0759C184.051 26.1049 182.979 23.6081 182.979 20.589C182.979 17.5699 183.984 15.1048 185.992 13.1208C188.001 11.1368 190.503 10.1448 193.498 10.1448ZM187.658 18.8296H198.814C198.613 17.4314 198.022 16.3084 197.036 15.4605C196.049 14.6126 194.833 14.1877 193.386 14.1877C191.939 14.1877 190.771 14.6182 189.736 15.4792C188.699 16.3402 188.008 17.4576 187.658 18.8296Z" fill="white"/>
<path d="M204.129 31.2203H222.847V35.7124H204.129V31.2203Z" fill="white"/>
</svg>
